<?xml version="1.0" encoding="UTF-8" standalone="no"?>
<svg
   xmlns:dc="http://purl.org/dc/elements/1.1/"
   xmlns:cc="http://creativecommons.org/ns#"
   xmlns:rdf="http://www.w3.org/1999/02/22-rdf-syntax-ns#"
   xmlns:svg="http://www.w3.org/2000/svg"
   xmlns="http://www.w3.org/2000/svg"
   viewBox="0 0 252 134.66667"
   height="134.66667"
   width="252"
   xml:space="preserve"
   id="svg2"
   version="1.1"><metadata
     id="metadata8"><rdf:RDF><cc:Work
         rdf:about=""><dc:format>image/svg+xml</dc:format><dc:type
           rdf:resource="http://purl.org/dc/dcmitype/StillImage" /></cc:Work></rdf:RDF></metadata><defs
     id="defs6"><clipPath
       id="clipPath20"
       clipPathUnits="userSpaceOnUse"><path
         id="path18"
         d="m 94,55.17241 h 54 v 45 H 94 Z" /></clipPath><clipPath
       id="clipPath26"
       clipPathUnits="userSpaceOnUse"><path
         id="path24"
         d="m 94,55 h 54 v 46 H 94 Z" /></clipPath><clipPath
       id="clipPath30"
       clipPathUnits="userSpaceOnUse"><path
         style="clip-rule:evenodd"
         id="path28"
         d="M 94,81.95453 C 94,67.16302 110.8912,55.17241 120.9983,55.17241 130.4678,55.17241 148,67.16302 148,81.95453 148,96.7426 135.9111,100.1724 120.9983,100.1724 106.0889,100.1724 94,96.7426 94,81.95453" /></clipPath><clipPath
       id="clipPath34"
       clipPathUnits="userSpaceOnUse"><path
         id="path32"
         d="m 94,55 h 54 v 46 H 94 Z" /></clipPath><clipPath
       id="clipPath56"
       clipPathUnits="userSpaceOnUse"><path
         style="clip-rule:evenodd"
         id="path54"
         d="M 69,52.44942 C 69,42.26174 80.88668,34 88,34 c 6.66333,0 19,8.26174 19,18.44942 C 107,62.64046 98.49517,65 88,65 77.50829,65 69,62.64046 69,52.44942" /></clipPath><clipPath
       id="clipPath62"
       clipPathUnits="userSpaceOnUse"><path
         id="path60"
         d="M -93,-331 H 282 V 336 H -93 Z" /></clipPath><clipPath
       id="clipPath72"
       clipPathUnits="userSpaceOnUse"><path
         style="clip-rule:evenodd"
         id="path70"
         d="m 161.3044,50.23822 c 2.055,-27.32459 -5.6552,-50.1259201 7.4265,-49.211646 13.0893,0.917976 22.0302,23.811846 19.9752,51.132726 -2.0512,27.32088 -14.3239,48.7267 -27.4094,47.81247 -13.0854,-0.91798 -2.0435,-22.41267 0.008,-49.73355" /></clipPath><clipPath
       id="clipPath78"
       clipPathUnits="userSpaceOnUse"><path
         id="path76"
         d="M -93,-331 H 282 V 336 H -93 Z" /></clipPath><clipPath
       id="clipPath88"
       clipPathUnits="userSpaceOnUse"><path
         id="path86"
         d="M 0,0.1872451 H 33.90625 V 100.10123 H 0 Z" /></clipPath><clipPath
       id="clipPath94"
       clipPathUnits="userSpaceOnUse"><path
         id="path92"
         d="M -2,-1 H 39 V 101 H -2 Z" /></clipPath><clipPath
       id="clipPath98"
       clipPathUnits="userSpaceOnUse"><path
         style="clip-rule:evenodd"
         id="path96"
         d="M 27.61763,49.88003 C 25.56839,22.30319 33.25688,-0.7086503 20.21205,0.2140646 7.159574,1.140515 -1.756179,24.24574 0.2930675,51.81885 2.342314,79.39197 14.57662,100.9954 27.6291,100.0727 40.67394,99.14628 29.66688,77.45314 27.61763,49.88003" /></clipPath><clipPath
       id="clipPath102"
       clipPathUnits="userSpaceOnUse"><path
         id="path100"
         d="M 0,0 H 34 V 101 H 0 Z" /></clipPath><clipPath
       id="clipPath124"
       clipPathUnits="userSpaceOnUse"><path
         style="clip-rule:evenodd"
         id="path122"
         d="m 41.1189,70 c 3.3749,0 6.11511,2.62369 6.11511,5.86321 0,4.63518 3.93358,8.40673 8.76789,8.40673 4.83051,0 8.76409,-3.77155 8.76409,-8.40673 C 64.76599,72.62369 67.5062,70 70.8849,70 74.2636,70 77,72.62369 77,75.86321 77,86.9665 67.58221,96 56.0019,96 44.42159,96 35,86.9665 35,75.86321 35,72.62369 37.7364,70 41.1189,70" /></clipPath><clipPath
       id="clipPath130"
       clipPathUnits="userSpaceOnUse"><path
         id="path128"
         d="M -93,-331 H 282 V 336 H -93 Z" /></clipPath><clipPath
       id="clipPath140"
       clipPathUnits="userSpaceOnUse"><path
         style="clip-rule:evenodd"
         id="path138"
         d="m 111.0645,36 c -2.1684,0 -3.9318,-1.71652 -3.9318,-3.83164 0,-3.03444 -2.5255,-5.49789 -5.6364,-5.49789 -3.10715,0 -5.63265,2.46345 -5.63265,5.49789 C 95.86365,34.28348 94.1039,36 91.93182,36 89.75975,36 88,34.28348 88,32.16836 88,24.90368 94.05236,19 101.4963,19 108.944,19 115,24.90368 115,32.16836 115,34.28348 113.2366,36 111.0645,36" /></clipPath><clipPath
       id="clipPath146"
       clipPathUnits="userSpaceOnUse"><path
         id="path144"
         d="M -93,-331 H 282 V 336 H -93 Z" /></clipPath><clipPath
       id="clipPath156"
       clipPathUnits="userSpaceOnUse"><path
         style="clip-rule:evenodd"
         id="path154"
         d="m 86.07132,36 c -2.17237,0 -3.93604,-1.71652 -3.93604,-3.83164 0,-3.03444 -2.52584,-5.49789 -5.63712,-5.49789 -3.1076,0 -5.63344,2.46345 -5.63344,5.49789 C 70.86472,34.28348 69.10473,36 66.92868,36 64.75999,36 63,34.28348 63,32.16836 63,24.90368 69.05318,19 76.49816,19 83.93945,19 90,24.90368 90,32.16836 90,34.28348 88.24001,36 86.07132,36" /></clipPath><clipPath
       id="clipPath162"
       clipPathUnits="userSpaceOnUse"><path
         id="path160"
         d="M -93,-331 H 282 V 336 H -93 Z" /></clipPath><clipPath
       id="clipPath172"
       clipPathUnits="userSpaceOnUse"><path
         style="clip-rule:evenodd"
         id="path170"
         d="m 108.1151,70 c 3.3787,0 6.1189,2.62369 6.1189,5.86321 0,4.63518 3.9298,8.40673 8.7679,8.40673 4.8305,0 8.7641,-3.77155 8.7641,-8.40673 C 131.766,72.62369 134.5024,70 137.8811,70 141.2636,70 144,72.62369 144,75.86321 144,86.9665 134.5784,96 123.0019,96 111.4216,96 102,86.9665 102,75.86321 102,72.62369 104.7364,70 108.1151,70" /></clipPath><clipPath
       id="clipPath178"
       clipPathUnits="userSpaceOnUse"><path
         id="path176"
         d="M -93,-331 H 282 V 336 H -93 Z" /></clipPath></defs><g
     transform="matrix(1.3333333,0,0,-1.3333333,0,134.66667)"
     id="g10"><g
       id="g12" /><g
       id="g14"><g
         clip-path="url(#clipPath20)"
         id="g16"><g
           id="g22" /><g
           id="g48"><g
             id="g46"
             clip-path="url(#clipPath26)"><g
               id="g36" /><g
               id="g44"><g
                 id="g42"
                 clip-path="url(#clipPath30)"><g
                   id="g40"
                   clip-path="url(#clipPath34)"><path
                     id="path38"
                     style="fill:#fa9c93;fill-opacity:1;fill-rule:nonzero;stroke:none"
                     d="m 89,105.1724 h 64 V 50.17241 H 89 Z" /></g></g></g></g></g></g></g><g
       id="g50"><g
         clip-path="url(#clipPath56)"
         id="g52"><g
           clip-path="url(#clipPath62)"
           id="g58"><path
             id="path64"
             style="fill:#01748e;fill-opacity:1;fill-rule:nonzero;stroke:none"
             d="m 64,70 h 48 V 29 H 64 Z" /></g></g></g><g
       id="g66"><g
         clip-path="url(#clipPath72)"
         id="g68"><g
           clip-path="url(#clipPath78)"
           id="g74"><path
             id="path80"
             style="fill:#01748e;fill-opacity:1;fill-rule:nonzero;stroke:none"
             d="m 150,105 h 44 V -4 h -44 z" /></g></g></g><g
       id="g82"><g
         clip-path="url(#clipPath88)"
         id="g84"><g
           id="g90" /><g
           id="g116"><g
             id="g114"
             clip-path="url(#clipPath94)"><g
               id="g104" /><g
               id="g112"><g
                 id="g110"
                 clip-path="url(#clipPath98)"><g
                   id="g108"
                   clip-path="url(#clipPath102)"><path
                     id="path106"
                     style="fill:#01748e;fill-opacity:1;fill-rule:nonzero;stroke:none"
                     d="M -5,105.1012 H 38.90625 V -4.812755 H -5 Z" /></g></g></g></g></g></g></g><g
       id="g118"><g
         clip-path="url(#clipPath124)"
         id="g120"><g
           clip-path="url(#clipPath130)"
           id="g126"><path
             id="path132"
             style="fill:#01748e;fill-opacity:1;fill-rule:nonzero;stroke:none"
             d="M 30,101 H 82 V 65 H 30 Z" /></g></g></g><g
       id="g134"><g
         clip-path="url(#clipPath140)"
         id="g136"><g
           clip-path="url(#clipPath146)"
           id="g142"><path
             id="path148"
             style="fill:#01748e;fill-opacity:1;fill-rule:nonzero;stroke:none"
             d="m 83,41 h 37 V 14 H 83 Z" /></g></g></g><g
       id="g150"><g
         clip-path="url(#clipPath156)"
         id="g152"><g
           clip-path="url(#clipPath162)"
           id="g158"><path
             id="path164"
             style="fill:#01748e;fill-opacity:1;fill-rule:nonzero;stroke:none"
             d="M 58,41 H 95 V 14 H 58 Z" /></g></g></g><g
       id="g166"><g
         clip-path="url(#clipPath172)"
         id="g168"><g
           clip-path="url(#clipPath178)"
           id="g174"><path
             id="path180"
             style="fill:#ffffff;fill-opacity:1;fill-rule:nonzero;stroke:none"
             d="m 97,101 h 52 V 65 H 97 Z" /></g></g></g></g></svg>