<?xml version="1.0" encoding="UTF-8" standalone="no"?>
<svg
   xmlns:dc="http://purl.org/dc/elements/1.1/"
   xmlns:cc="http://creativecommons.org/ns#"
   xmlns:rdf="http://www.w3.org/1999/02/22-rdf-syntax-ns#"
   xmlns:svg="http://www.w3.org/2000/svg"
   xmlns="http://www.w3.org/2000/svg"
   viewBox="0 0 241.33333 56"
   height="56"
   width="241.33333"
   xml:space="preserve"
   id="svg2"
   version="1.1"><metadata
     id="metadata8"><rdf:RDF><cc:Work
         rdf:about=""><dc:format>image/svg+xml</dc:format><dc:type
           rdf:resource="http://purl.org/dc/dcmitype/StillImage" /></cc:Work></rdf:RDF></metadata><defs
     id="defs6"><clipPath
       id="clipPath20"
       clipPathUnits="userSpaceOnUse"><path
         style="clip-rule:evenodd"
         id="path18"
         d="M 0,2 V 41 H 4.984317 V 6.28289 L 25,6.28289 V 2 Z" /></clipPath><clipPath
       id="clipPath26"
       clipPathUnits="userSpaceOnUse"><path
         id="path24"
         d="M -97,-248 H 278 V 419 H -97 Z" /></clipPath><clipPath
       id="clipPath36"
       clipPathUnits="userSpaceOnUse"><path
         style="clip-rule:evenodd"
         id="path34"
         d="m 37,40 h 5.07654 V 15.04903 c 0,-3.648 0.35607,-6.096063 1.06822,-7.344194 0.71048,-1.24813 1.81863,-2.192122 3.32279,-2.836962 1.50583,-0.643177 3.1847,-0.965597 5.03661,-0.965597 1.77371,0 3.34942,0.32242 4.73544,0.965597 1.38436,0.64484 2.41098,1.670268 3.07987,3.079608 0.67221,1.40934 1.00832,4.365968 1.00832,8.873188 l 0,23.17933 H 65 V 15.49277 C 65,10.95729 64.47754,7.771315 63.43095,5.934851 62.38436,4.096726 60.87354,2.647499 58.89684,1.588832 56.92512,0.5301645 54.44426,0 51.46423,0 48.69717,0 46.15973,0.4221373 43.84859,1.266412 41.54077,2.112348 39.8203,3.433605 38.69384,5.230181 37.56572,7.026758 37,10.07313 37,14.36596 Z" /></clipPath><clipPath
       id="clipPath42"
       clipPathUnits="userSpaceOnUse"><path
         id="path40"
         d="M -97,-248 H 278 V 419 H -97 Z" /></clipPath><clipPath
       id="clipPath52"
       clipPathUnits="userSpaceOnUse"><path
         style="clip-rule:evenodd"
         id="path50"
         d="M 98.83304,10.48851 H 103 V 10.24708 C 103,8.700936 102.5253,7.139913 101.5807,5.564007 100.6344,3.988102 99.3468,2.833871 97.71936,2.101315 96.09192,1.365451 94.18972,1 92.01113,1 87.6068,1 84.004,2.708196 81.20273,6.124587 78.40145,9.540978 77,14.66556 77,21.5 77,28.27987 78.39657,33.39288 81.18647,36.83573 83.97311,40.27858 87.5938,42 92.0469,42 c 2.1542,0 4.04502,-0.37372 5.67246,-1.12116 1.62744,-0.74744 2.91504,-1.92151 3.86134,-3.52388 C 102.5253,35.7526 103,34.21969 103,32.75127 v -0.24143 h -4.16696 v 0.24143 c 0,0.93265 -0.26826,1.84049 -0.80803,2.72187 -0.53814,0.88138 -1.29902,1.54118 -2.27776,1.9827 -0.98362,0.43986 -2.16721,0.65979 -3.55728,0.65979 -3.54265,0 -6.18297,-1.56102 -7.91771,-4.68472 -1.73474,-3.1237 -2.60455,-7.10067 -2.60455,-11.93091 0,-4.88481 0.86981,-8.88328 2.60455,-11.992095 1.73474,-3.11047 4.36368,-4.664878 7.88194,-4.664878 2.41921,0 4.13607,0.560579 5.15383,1.683391 1.01776,1.119504 1.52501,2.359724 1.52501,3.720662 z" /></clipPath><clipPath
       id="clipPath58"
       clipPathUnits="userSpaceOnUse"><path
         id="path56"
         d="M -97,-248 H 278 V 419 H -97 Z" /></clipPath><clipPath
       id="clipPath68"
       clipPathUnits="userSpaceOnUse"><path
         style="clip-rule:evenodd"
         id="path66"
         d="M 119.1499,2 H 114 v 39 h 5.1499 V 22.36793 L 135.621,41 h 5.8454 L 125.1996,22.73179 144,2 h -6.4581 l -18.392,20.36793 z" /></clipPath><clipPath
       id="clipPath74"
       clipPathUnits="userSpaceOnUse"><path
         id="path72"
         d="M -97,-248 H 278 V 419 H -97 Z" /></clipPath><clipPath
       id="clipPath84"
       clipPathUnits="userSpaceOnUse"><path
         id="path82"
         d="m 151.2439,1.468872 h 29 v 39 h -29 z" /></clipPath><clipPath
       id="clipPath90"
       clipPathUnits="userSpaceOnUse"><path
         id="path88"
         d="m 151,1 h 30 v 40 h -30 z" /></clipPath><clipPath
       id="clipPath94"
       clipPathUnits="userSpaceOnUse"><path
         style="clip-rule:evenodd"
         id="path92"
         d="m 168.225,1.468872 h -4.8453 V 19.85726 l -12.1358,20.61161 h 5.6604 l 9.3816,-15.76123 9.2279,15.76123 h 4.7301 L 168.225,19.85726 Z" /></clipPath><clipPath
       id="clipPath98"
       clipPathUnits="userSpaceOnUse"><path
         id="path96"
         d="m 151,1 h 30 v 40 h -30 z" /></clipPath></defs><g
     transform="matrix(1.3333333,0,0,-1.3333333,0,56)"
     id="g10"><g
       id="g12" /><g
       id="g14"><g
         clip-path="url(#clipPath20)"
         id="g16"><g
           clip-path="url(#clipPath26)"
           id="g22"><path
             id="path28"
             style="fill:#01748e;fill-opacity:1;fill-rule:nonzero;stroke:none"
             d="M -5,46 H 30 V -3 H -5 Z" /></g></g></g><g
       id="g30"><g
         clip-path="url(#clipPath36)"
         id="g32"><g
           clip-path="url(#clipPath42)"
           id="g38"><path
             id="path44"
             style="fill:#01748e;fill-opacity:1;fill-rule:nonzero;stroke:none"
             d="M 32,45 H 70 V -5 H 32 Z" /></g></g></g><g
       id="g46"><g
         clip-path="url(#clipPath52)"
         id="g48"><g
           clip-path="url(#clipPath58)"
           id="g54"><path
             id="path60"
             style="fill:#01748e;fill-opacity:1;fill-rule:nonzero;stroke:none"
             d="m 72,47 h 36 V -4 H 72 Z" /></g></g></g><g
       id="g62"><g
         clip-path="url(#clipPath68)"
         id="g64"><g
           clip-path="url(#clipPath74)"
           id="g70"><path
             id="path76"
             style="fill:#01748e;fill-opacity:1;fill-rule:nonzero;stroke:none"
             d="m 109,46 h 40 V -3 h -40 z" /></g></g></g><g
       id="g78"><g
         clip-path="url(#clipPath84)"
         id="g80"><g
           id="g86" /><g
           id="g112"><g
             id="g110"
             clip-path="url(#clipPath90)"><g
               id="g100" /><g
               id="g108"><g
                 id="g106"
                 clip-path="url(#clipPath94)"><g
                   id="g104"
                   clip-path="url(#clipPath98)"><path
                     id="path102"
                     style="fill:#01748e;fill-opacity:1;fill-rule:nonzero;stroke:none"
                     d="m 146.2439,45.46887 h 39 V -3.531128 h -39 z" /></g></g></g></g></g></g></g></g></svg>