<?xml version="1.0" encoding="UTF-8" standalone="no"?>
<svg
   xmlns:dc="http://purl.org/dc/elements/1.1/"
   xmlns:cc="http://creativecommons.org/ns#"
   xmlns:rdf="http://www.w3.org/1999/02/22-rdf-syntax-ns#"
   xmlns:svg="http://www.w3.org/2000/svg"
   xmlns="http://www.w3.org/2000/svg"
   viewBox="0 0 42.666668 40"
   height="40"
   width="42.666668"
   xml:space="preserve"
   id="svg2"
   version="1.1"><metadata
     id="metadata8"><rdf:RDF><cc:Work
         rdf:about=""><dc:format>image/svg+xml</dc:format><dc:type
           rdf:resource="http://purl.org/dc/dcmitype/StillImage" /></cc:Work></rdf:RDF></metadata><defs
     id="defs6"><clipPath
       id="clipPath20"
       clipPathUnits="userSpaceOnUse"><path
         id="path18"
         d="M 0.00468293,0.0665968 H 31.968623 V 29.960867 H 0.00468293 Z" /></clipPath><clipPath
       id="clipPath26"
       clipPathUnits="userSpaceOnUse"><path
         id="path24"
         d="M 0,0 H 32 V 30 H 0 Z" /></clipPath><clipPath
       id="clipPath30"
       clipPathUnits="userSpaceOnUse"><path
         style="clip-rule:evenodd"
         id="path28"
         d="m 6.227122,18.8847 v 5.52055 c 0,0.0615 -0.00117,0.12269 -0.00336,0.1842 -0.013425,0.40589 -0.070712,0.80999 -0.171942,1.20341 v 3.2e-4 c 0,0 0,0 0,3.1e-4 C 5.804878,26.75261 5.302166,27.63112 4.598166,28.33331 3.547239,29.38293 2.150322,29.96087 0.6646634,29.96087 0.297522,29.96087 0,29.66364 0,29.29703 V 13.36501 C 0,13.28948 0.00210732,13.21402 0.00515122,13.13849 0.02044878,12.75543 0.07438049,12.3769 0.1667902,12.01091 l 3.122e-4,-3.1e-4 c 0,-3.1e-4 0,-6.2e-4 0,-6.2e-4 0,-3.1e-4 3.122e-4,-8.6e-4 3.122e-4,-0.0012 C 0.736,9.745167 2.643278,8.107868 4.922537,7.846885 5.133268,5.835652 6.693932,4.220023 8.68082,3.921312 V 0.7304341 c 0,-0.3666072 0.297521,-0.6638373 0.664273,-0.6638373 h 1.196957 c 0.36706,0 0.66466,0.2972301 0.66466,0.6638373 0,0.3662949 -0.29783,0.6635259 -0.66466,0.6635259 h -0.53229 v 2.477697 h 2.8341 V 0.7304341 c 0,-0.3666072 0.2976,-0.6638373 0.66467,-0.6638373 h 1.19664 c 0.36706,0 0.66466,0.2972301 0.66466,0.6638373 0,0.3662949 -0.2976,0.6638369 -0.66466,0.6638369 h -0.53198 v 2.477386 h 5.72043 V 0.7304341 c 0,-0.3666072 0.29752,-0.6638373 0.66427,-0.6638373 h 1.19758 c 0.36707,0 0.66467,0.2972301 0.66467,0.6638373 0,0.3662949 -0.2976,0.6638369 -0.66467,0.6638369 h -0.53291 v 2.477386 h 2.83418 V 0.7304341 c 0,-0.3666072 0.29752,-0.6638373 0.66459,-0.6638373 h 1.19758 c 0.36675,0 0.66435,0.2972301 0.66435,0.6638373 0,0.3662949 -0.2976,0.6638369 -0.66435,0.6638369 h -0.53292 v 2.477386 h 4.59239 c 0.53261,0 1.03259,0.20704 1.40605,0.581598 0.37682,0.37487 0.58419,0.873917 0.58419,1.405237 0,3.305389 -2.46829,6.045548 -5.66041,6.479428 v 1.04019 c 0,1.1547 -0.94025,2.09402 -2.09631,2.09402 -0.55336,0 -1.0567,-0.21554 -1.43172,-0.56663 -0.37534,0.35109 -0.87868,0.56663 -1.43204,0.56663 -1.15575,0 -2.09632,-0.93932 -2.09632,-2.09402 V 12.39826 H 6.227122 Z M 4.866185,9.194905 c -1.321053,0.22076 -2.508253,1.094675 -3.100331,2.295915 -0.00125,0.0024 -0.00242,0.0049 -0.00398,0.0073 -0.00148,0.0033 -0.00304,0.007 -0.00484,0.01036 H 4.897873 V 9.189731 C 4.88718,9.191553 4.876488,9.193113 4.866185,9.194905 Z M 1.329249,16.19287 h 3.568624 v 2.02799 H 1.329249 Z M 4.897873,12.83611 H 1.362185 c -3.12e-4,0.0013 -6.24e-4,0.0027 -6.24e-4,0.004 -0.064,0.51674 -0.032312,1.05172 -0.032312,1.5715 v 0.45368 h 3.568624 v -2.02916 z m -3.568624,6.71235 h 3.568624 v 2.02893 H 1.329249 Z m 3.535688,5.38569 c 0.00273,-0.0237 0.00515,-0.04716 0.00765,-0.07094 0.00211,-0.01949 0.00453,-0.03929 0.0064,-0.05909 0.00273,-0.02736 0.00453,-0.0548 0.0064,-0.08216 0.00117,-0.01676 0.00304,-0.03383 0.00398,-0.05059 0.00211,-0.03048 0.00304,-0.06119 0.00421,-0.09198 6.25e-4,-0.01364 0.00156,-0.02736 0.00219,-0.04108 0.00117,-0.04443 0.00211,-0.08863 0.00211,-0.13306 V 22.90499 H 1.329253 v 2.02916 h 3.535688 z m -3.535688,3.6476 c 0.878049,-0.13759 1.688117,-0.54746 2.329288,-1.18783 0.038087,-0.03773 0.075317,-0.07671 0.111609,-0.116 0.011864,-0.01255 0.023181,-0.02533 0.03442,-0.03811 0.024975,-0.02737 0.049405,-0.05512 0.073756,-0.0831 0.012566,-0.01466 0.024741,-0.02923 0.037229,-0.04389 0.023493,-0.02798 0.046361,-0.05628 0.068917,-0.08489 0.010927,-0.01372 0.022244,-0.02775 0.032937,-0.04147 0.028956,-0.03773 0.0576,-0.07577 0.085307,-0.11443 0.00336,-0.0046 0.00702,-0.0092 0.010381,-0.01403 0.031141,-0.04327 0.060956,-0.08739 0.090224,-0.1319 0.0089,-0.01301 0.017093,-0.02642 0.025678,-0.03983 0.020683,-0.03196 0.04082,-0.06423 0.060644,-0.09682 0.00944,-0.0159 0.018888,-0.03172 0.028332,-0.04755 0.018575,-0.03165 0.036917,-0.06361 0.054556,-0.09588 0.00827,-0.01528 0.01678,-0.03016 0.025053,-0.04537 0.021308,-0.03991 0.042069,-0.08013 0.062205,-0.12059 0.00304,-0.0061 0.0064,-0.01216 0.00944,-0.01832 h -3.13998 v 2.32001 z M 30.63961,5.858803 C 30.63961,5.682788 30.571,5.517764 30.4448,5.39234 30.3207,5.267773 30.15516,5.199253 29.97838,5.199253 H 9.345093 c -1.719181,0 -3.117971,1.39674 -3.117971,3.11355 v 2.758087 h 1.976819 v -0.96434 c 0,-0.366606 0.2976,-0.663758 0.664664,-0.663758 0.367063,0 0.664663,0.297152 0.664663,0.663758 v 0.96434 h 1.922812 v -0.96434 c 0,-0.366606 0.2976,-0.663758 0.66466,-0.663758 0.36706,0 0.66459,0.297152 0.66459,0.663758 v 0.96434 h 1.92203 v -0.96434 c 0,-0.366606 0.29783,-0.663758 0.66458,-0.663758 0.36706,0 0.66466,0.297152 0.66466,0.663758 v 0.96434 h 1.92227 v -0.96434 c 0,-0.366606 0.29752,-0.663758 0.66458,-0.663758 0.36675,0 0.66467,0.297152 0.66467,0.663758 v 0.96434 h 6.1326 c 2.87774,0 5.21889,-2.338239 5.21889,-5.212087 z m -6.4274,8.285727 c 0.42287,0 0.76707,-0.34377 0.76707,-0.76642 v -0.97954 h -1.53444 v 0.97954 c 0,0.42265 0.34419,0.76642 0.76737,0.76642 z m -3.63114,-0.76642 c 0,0.42265 0.3442,0.76642 0.76738,0.76642 0.42287,0 0.76706,-0.34377 0.76706,-0.76642 v -0.97954 h -1.53444 z" /></clipPath><clipPath
       id="clipPath34"
       clipPathUnits="userSpaceOnUse"><path
         id="path32"
         d="M 0,0 H 32 V 30 H 0 Z" /></clipPath></defs><g
     transform="matrix(1.3333333,0,0,-1.3333333,0,40)"
     id="g10"><g
       id="g12" /><g
       id="g14"><g
         clip-path="url(#clipPath20)"
         id="g16"><g
           id="g22" /><g
           id="g48"><g
             id="g46"
             clip-path="url(#clipPath26)"><g
               id="g36" /><g
               id="g44"><g
                 id="g42"
                 clip-path="url(#clipPath30)"><g
                   id="g40"
                   clip-path="url(#clipPath34)"><path
                     id="path38"
                     style="fill:#01748e;fill-opacity:1;fill-rule:nonzero;stroke:none"
                     d="M -5,34.96087 H 36.96862 V -4.933403 H -5 Z" /></g></g></g></g></g></g></g></g></svg>