<?xml version="1.0" encoding="UTF-8" standalone="no"?>
<svg
   xmlns:dc="http://purl.org/dc/elements/1.1/"
   xmlns:cc="http://creativecommons.org/ns#"
   xmlns:rdf="http://www.w3.org/1999/02/22-rdf-syntax-ns#"
   xmlns:svg="http://www.w3.org/2000/svg"
   xmlns="http://www.w3.org/2000/svg"
   viewBox="0 0 41.333332 28"
   height="28"
   width="41.333332"
   xml:space="preserve"
   id="svg2"
   version="1.1"><metadata
     id="metadata8"><rdf:RDF><cc:Work
         rdf:about=""><dc:format>image/svg+xml</dc:format><dc:type
           rdf:resource="http://purl.org/dc/dcmitype/StillImage" /></cc:Work></rdf:RDF></metadata><defs
     id="defs6"><clipPath
       id="clipPath20"
       clipPathUnits="userSpaceOnUse"><path
         id="path18"
         d="M 0.00453659,0 H 30.969757 V 20.97565 H 0.00453659 Z" /></clipPath><clipPath
       id="clipPath26"
       clipPathUnits="userSpaceOnUse"><path
         id="path24"
         d="M 0,0 H 32 V 21 H 0 Z" /></clipPath><clipPath
       id="clipPath30"
       clipPathUnits="userSpaceOnUse"><path
         style="clip-rule:evenodd"
         id="path28"
         d="m 17.19177,20.90816 -0.08181,-0.0068 c -0.35446,-0.03029 -0.61728,-0.34384 -0.58719,-0.70054 0.02836,-0.3379 0.30985,-0.59294 0.64064,-0.59294 0.0183,0 0.0369,6.1e-4 0.0552,0.0021 l 0.07803,0.0065 c 0.35438,0.02937 0.61818,0.34209 0.58923,0.69871 -0.02896,0.35639 -0.33942,0.62178 -0.6941,0.59294 z" /></clipPath><clipPath
       id="clipPath34"
       clipPathUnits="userSpaceOnUse"><path
         id="path32"
         d="M 0,0 H 31 V 21 H 0 Z" /></clipPath><clipPath
       id="clipPath38"
       clipPathUnits="userSpaceOnUse"><path
         style="clip-rule:evenodd"
         id="path36"
         d="M 30.90609,7.625359 30.2929,9.791174 c -0.1305,0.460406 -0.1299,0.946906 0.0018,1.406996 l 0.60488,2.11347 c 0.17572,0.61319 -0.01036,1.25818 -0.48557,1.68343 -0.46961,0.4203 -1.1197,0.52964 -1.69562,0.28563 -1.31992,-0.55787 -2.31993,-1.61738 -2.82032,-2.90523 0.03312,1.15644 -0.01149,2.72186 -0.35174,4.15921 -0.46454,1.9616 -1.36453,3.24199 -2.67499,3.80549 -0.94066,0.40425 -2.35986,0.62985 -3.99575,0.63548 h -0.0024 c -0.35438,0 -0.64238,-0.2886 -0.64352,-0.64582 -0.0012,-0.35784 0.28588,-0.64887 0.64178,-0.65001 1.44604,-0.0051 2.71983,-0.19859 3.494,-0.53117 1.74197,-0.74923 2.17257,-3.48394 2.24228,-5.51364 -0.47135,0.42419 -1.00568,0.85096 -1.59786,1.26647 v 1.94197 c 0,0.35791 -0.28822,0.64795 -0.64381,0.64795 -0.35567,0 -0.6439,-0.29004 -0.6439,-0.64795 v -1.11361 c -0.50182,0.29537 -1.03404,0.57894 -1.59491,0.84464 v 1.39338 c 0,0.35784 -0.28822,0.64788 -0.64382,0.64788 -0.35566,0 -0.64389,-0.29004 -0.64389,-0.64788 v -0.83635 c -1.72957,0.67854 -3.68068,1.1725 -5.80184,1.33776 -0.32814,0.02557 -0.65538,0.03622 -0.98088,0.03325 1.26351,0.44526 2.45905,0.72108 3.4636,0.89106 0.35053,0.05942 0.58711,0.39352 0.52837,0.74633 -0.05906,0.35305 -0.39106,0.59051 -0.74196,0.5317 C 12.78841,20.24537 9.139027,19.19324 6.042883,16.60271 4.557529,15.54966 3.47011,14.15012 2.937817,12.61857 H 2.133027 C 0.9569171,12.61857 0,11.65561 0,10.47177 0,9.897848 0.2221415,9.358696 0.6246878,8.954826 1.027234,8.548826 1.562702,8.325283 2.133027,8.325283 H 2.947041 C 3.477746,6.845772 4.540744,5.532054 6.046437,4.500772 8.491051,2.457076 11.80578,0.9802283 15.38485,0.3406413 16.6622,0.1126848 17.91656,0 19.06107,0 20.6001,0 21.94074,0.2036087 22.87135,0.6033696 25.6125,1.781804 25.97755,5.86288 25.89838,8.566935 26.3996,7.277946 27.40173,6.217446 28.724,5.65988 c 0.20293,-0.085293 0.41471,-0.127217 0.62468,-0.127217 0.38637,0 0.76585,0.14175 1.06981,0.413152 0.4743,0.423805 0.66098,1.067272 0.4876,1.679544 z M 4.339849,8.325283 h 0.714512 c 0.355593,0 0.643817,0.290119 0.643817,0.647956 0,0.357837 -0.288224,0.647957 -0.643817,0.647957 H 2.133027 c -0.22562,0 -0.437705,0.088565 -0.597771,0.249945 C 1.37572,10.0313 1.28771,10.24473 1.28771,10.47208 c 0,0.469 0.379258,0.85065 0.845317,0.85065 h 1.279468 c 0.291173,0 0.546356,0.19676 0.621966,0.47965 0.382207,1.43295 1.366344,2.76683 2.771022,3.75626 1.726927,1.21709 3.905097,1.79215 6.132937,1.6186 5.54166,-0.43187 9.8186,-3.234 11.80608,-5.50976 0.0047,-0.0059 0.0095,-0.01157 0.01444,-0.01727 C 25.29237,11.03679 25.48639,10.64388 25.53251,10.5 25.48404,10.40428 25.31452,10.12702 24.77959,9.600957 23.81239,8.648043 21.93182,7.16762 19.55457,5.869424 17.7999,4.911185 15.23627,3.768967 12.98802,3.768967 c -2.2999,0 -4.498783,0.633957 -6.191383,1.784772 v 3.04e-4 c -3.03e-4,3.05e-4 -6.05e-4,3.05e-4 -9.08e-4,6.09e-4 C 5.660676,6.326554 4.825415,7.272848 4.339849,8.325283 Z M 22.36574,1.795196 C 21.2319,1.308087 18.70336,1.064076 15.60986,1.616543 14.46452,1.821065 13.34958,2.116207 12.28689,2.491011 12.51961,2.479065 12.75355,2.47313 12.98802,2.47313 c 1.97681,0 4.11249,0.756153 5.85151,1.579413 V 3.267326 c 0,-0.357837 0.28823,-0.647956 0.64389,-0.647956 0.3556,0 0.64382,0.290119 0.64382,0.647956 V 4.70788 c 0.01391,0.00746 0.02775,0.014913 0.04166,0.022294 0.54318,0.296967 1.0627,0.603369 1.55325,0.911902 V 4.391359 c 0,-0.357837 0.28853,-0.647881 0.6439,-0.647881 0.35559,0 0.64412,0.290044 0.64412,0.647881 V 6.4995 c 0.60457,0.425935 1.1448,0.841141 1.60822,1.224848 C 24.59502,5.599239 24.21962,2.592054 22.36574,1.795196 Z m 7.19798,5.119815 C 29.5058,6.863272 29.38414,6.786652 29.22166,6.855283 c -1.45277,0.612576 -2.39169,2.032054 -2.39169,3.616487 0,1.58269 0.93681,3.00133 2.3873,3.61444 0.04605,0.01932 0.08862,0.02731 0.12756,0.02731 0.09806,0 0.17224,-0.04991 0.21359,-0.08674 0.0493,-0.04398 0.15795,-0.16701 0.10397,-0.35608 L 29.05721,11.55692 C 28.85873,10.86324 28.85782,10.12968 29.05479,9.436 l 0.61289,-2.165511 c 0.05346,-0.189 -0.05497,-0.311804 -0.10396,-0.355478 z" /></clipPath><clipPath
       id="clipPath42"
       clipPathUnits="userSpaceOnUse"><path
         id="path40"
         d="M 0,0 H 31 V 21 H 0 Z" /></clipPath><clipPath
       id="clipPath72"
       clipPathUnits="userSpaceOnUse"><path
         style="clip-rule:evenodd"
         id="path70"
         d="m 15.47493,8.402753 c -0.34321,0 -0.93915,0.287288 -1.43646,0.917955 C 13.81407,9.605442 13.43543,9.622821 13.1924,9.359913 12.94965,9.097087 12.93453,8.653389 13.15886,8.368654 13.82482,7.524416 14.71209,7 15.47493,7 16.89086,7 18,8.757004 18,11.00012 18,13.243 16.89086,15 15.47493,15 c -0.76256,0 -1.64982,-0.52475 -2.31607,-1.36931 -0.22433,-0.28441 -0.20921,-0.72811 0.03354,-0.99126 0.24303,-0.26258 0.62167,-0.2452 0.84607,0.03953 0.49759,0.63092 1.09353,0.9182 1.43646,0.9182 0.70744,0 1.32777,-1.21356 1.32777,-2.59704 0,-1.383806 -0.62033,-2.597367 -1.32777,-2.597367 z" /></clipPath><clipPath
       id="clipPath78"
       clipPathUnits="userSpaceOnUse"><path
         id="path76"
         d="M -679,-849 H 584 V 414 H -679 Z" /></clipPath></defs><g
     transform="matrix(1.3333333,0,0,-1.3333333,0,28)"
     id="g10"><g
       id="g12" /><g
       id="g14"><g
         clip-path="url(#clipPath20)"
         id="g16"><g
           id="g22" /><g
           id="g64"><g
             id="g62"
             clip-path="url(#clipPath26)"><g
               id="g44" /><g
               id="g52"><g
                 id="g50"
                 clip-path="url(#clipPath30)"><g
                   id="g48"
                   clip-path="url(#clipPath34)"><path
                     id="path46"
                     style="fill:#01748e;fill-opacity:1;fill-rule:nonzero;stroke:none"
                     d="M 11.52043,25.91031 H 22.88804 V 14.60784 H 11.52043 Z" /></g></g></g><g
               id="g60"><g
                 id="g58"
                 clip-path="url(#clipPath38)"><g
                   id="g56"
                   clip-path="url(#clipPath42)"><path
                     id="path54"
                     style="fill:#01748e;fill-opacity:1;fill-rule:nonzero;stroke:none"
                     d="M -5,25.97565 H 35.96975 V -5 H -5 Z" /></g></g></g></g></g></g></g><g
       id="g66"><g
         clip-path="url(#clipPath72)"
         id="g68"><g
           clip-path="url(#clipPath78)"
           id="g74"><path
             id="path80"
             style="fill:#01748e;fill-opacity:1;fill-rule:nonzero;stroke:none"
             d="M 8,20 H 23 V 2 H 8 Z" /></g></g></g></g></svg>