<?xml version="1.0" encoding="UTF-8" standalone="no"?>
<svg
   xmlns:dc="http://purl.org/dc/elements/1.1/"
   xmlns:cc="http://creativecommons.org/ns#"
   xmlns:rdf="http://www.w3.org/1999/02/22-rdf-syntax-ns#"
   xmlns:svg="http://www.w3.org/2000/svg"
   xmlns="http://www.w3.org/2000/svg"
   viewBox="0 0 40 22.666668"
   height="22.666668"
   width="40"
   xml:space="preserve"
   id="svg2"
   version="1.1"><metadata
     id="metadata8"><rdf:RDF><cc:Work
         rdf:about=""><dc:format>image/svg+xml</dc:format><dc:type
           rdf:resource="http://purl.org/dc/dcmitype/StillImage" /></cc:Work></rdf:RDF></metadata><defs
     id="defs6"><clipPath
       id="clipPath20"
       clipPathUnits="userSpaceOnUse"><path
         id="path18"
         d="M 0.00439024,0.4723691 H 29.97074 V 16.987809 H 0.00439024 Z" /></clipPath><clipPath
       id="clipPath26"
       clipPathUnits="userSpaceOnUse"><path
         id="path24"
         d="M -1,0 H 31 V 17 H -1 Z" /></clipPath><clipPath
       id="clipPath30"
       clipPathUnits="userSpaceOnUse"><path
         style="clip-rule:evenodd"
         id="path28"
         d="M 1.399098,5.43724 C 2.254537,4.444472 3.473634,3.921092 5.125976,3.837278 L 6.369878,3.712181 C 5.745585,3.09294 5.358293,2.234157 5.358293,1.285536 c 0,-0.3434841 0.277536,-0.6218119 0.619683,-0.6218119 h 4.961634 c 1.00324,0 1.81895,0.8188959 1.81895,1.8257689 V 3.45567 h 2.46578 C 14.63759,2.841865 14.27576,2.01004 14.27576,1.094107 c 0,-0.3434101 0.27753,-0.6217379 0.61961,-0.6217379 h 9.28953 c 1.60976,0 3.12893,0.9268039 4.16708,2.5425599 0.68648,1.067107 1.52312,2.784747 1.61114,4.908089 0.08773,2.112762 -0.58222,4.114172 -1.99046,5.949192 -1.60207,2.08632 -3.76427,3.10553 -6.61054,3.1156 -0.01427,0 -0.02832,0 -0.04258,0 -2.5301,0 -5.39576,-0.78364 -8.15452,-1.6743 -0.45073,0.79737 -1.1667,1.27285 -1.96361,1.27285 -1.471386,0 -2.615556,-1.03875 -2.821093,-2.48291 C 4.732098,12.8765 1.809512,11.5758 1.394561,11.38871 0.6433902,11.17032 -0.07119512,10.13216 0.00570732,9.339632 0.1729024,7.608843 0.6285366,6.332238 1.399098,5.43724 Z m 0.330731,4.75434 c 0.043976,0.0095 0.087147,0.02351 0.128049,0.04246 0.031683,0.01433 3.20261,1.45856 7.194439,2.78247 0.301537,0.04187 0.53422,0.30132 0.53422,0.6155 0,0.99108 0.679393,1.71014 1.615173,1.71014 0.42102,0 0.83173,-0.39226 1.04692,-1.00026 0.09893,-0.27803 0.15125,-0.5925 0.15125,-0.90961 0,-1.03552 -0.54878,-1.91047 -1.19817,-1.91047 -0.34215,0 -0.61969,-0.27862 -0.61969,-0.62203 0,-0.34348 0.27754,-0.6221 0.61969,-0.6221 1.36683,0 2.43746,1.3859 2.43746,3.1546 0,0.2416 -0.02085,0.47776 -0.06117,0.70761 2.65134,0.85511 5.38778,1.60371 7.74124,1.60371 0.01259,0 0.02576,0 0.03864,0 2.47149,-0.0086 4.26161,-0.84476 5.63297,-2.63093 3.13347,-4.081777 1.26761,-7.949424 0.31983,-9.423187 -0.47363,-0.736845 -1.50914,-1.97327 -3.12578,-1.97327 h -8.57927 c 0.2673,0.89441 1.095,1.548028 2.07198,1.548028 h 2.2148 c 0.04632,0 0.09118,0.00551 0.13435,0.015206 0.31214,0.032468 0.55536,0.296986 0.55536,0.618653 0,0.343484 -0.27753,0.622106 -0.61968,0.622106 -0.01742,0 -0.03483,-2.94e-4 -0.05232,2.93e-4 -0.002,0 -0.0042,0 -0.0062,0 -0.30358,0.00573 -0.60197,0.055974 -0.88836,0.150073 -0.45417,0.148088 -0.87403,0.406877 -1.21391,0.74801 -0.57709,0.579354 -0.89517,1.350062 -0.89517,2.169914 0,2.017123 1.26191,3.852734 3.14034,4.567174 0.31983,0.12172 0.48103,0.48092 0.35986,0.802 -0.12154,0.32138 -0.47934,0.4832 -0.79917,0.36126 -1.14615,-0.43582 -2.12569,-1.2005 -2.83339,-2.21112 -0.72395,-1.03412 -1.10671,-2.251083 -1.10671,-3.519314 0,-1.077758 0.39102,-2.095282 1.10583,-2.888689 h -4.01466 v 1.781621 c 0,0.343778 -0.27754,0.622106 -0.61968,0.622106 -0.34208,0 -0.61961,-0.278328 -0.61961,-0.622106 V 2.489493 c 0,-0.320786 -0.25983,-0.581852 -0.57966,-0.581852 H 6.687971 c 0.267293,0.894337 1.095,1.548029 2.071976,1.548029 h 0.189512 c 2.2e-4,0 8.05e-4,0 0.0011,0 0.020561,0 0.041195,0.0011 0.061463,0.00316 0.00373,2.94e-4 0.00717,0.0011 0.010829,0.0014 0.016025,0.00206 0.032342,0.00433 0.048366,0.00749 0.0068,0.0014 0.01339,0.00316 0.019976,0.00485 0.012585,0.00286 0.024878,0.00573 0.036878,0.00948 0.00798,0.00228 0.016024,0.00544 0.024,0.0083 0.010317,0.00345 0.020561,0.00691 0.030878,0.011239 0.00827,0.00345 0.01661,0.00742 0.024878,0.011166 0.00944,0.00433 0.018585,0.00859 0.027732,0.013222 0.00827,0.00426 0.016243,0.00918 0.024292,0.013736 0.00856,0.00522 0.017122,0.010358 0.025683,0.015794 0.00776,0.00492 0.015147,0.010063 0.022903,0.015499 0.00827,0.00602 0.016536,0.012047 0.024585,0.018364 0.00688,0.00544 0.013683,0.011166 0.020561,0.016969 0.00798,0.00713 0.015732,0.014324 0.023415,0.021522 0.00629,0.00602 0.012292,0.011754 0.018,0.018071 0.00776,0.00801 0.015146,0.016307 0.022609,0.024681 0.00541,0.00632 0.01061,0.012047 0.015439,0.018365 0.00746,0.00918 0.014269,0.018658 0.020854,0.02806 0.00461,0.00632 0.00915,0.012341 0.013463,0.018952 0.00659,0.00977 0.012586,0.020127 0.018293,0.030411 0.00395,0.00661 0.00798,0.013222 0.011707,0.020127 0.00541,0.010284 0.010318,0.020935 0.015147,0.031807 0.00315,0.0072 0.00688,0.014397 0.010024,0.02211 0.00395,0.010064 0.00768,0.020642 0.011415,0.030999 0.00285,0.0086 0.006,0.016675 0.00856,0.025269 0.00315,0.00977 0.00512,0.020054 0.00776,0.029824 0.00227,0.00977 0.00512,0.019245 0.0071,0.029015 0.00205,0.00999 0.00315,0.020642 0.00461,0.031219 0.00139,0.00948 0.00344,0.018952 0.00424,0.028722 0,2.94e-4 0,2.94e-4 0,5.88e-4 0.00117,0.011165 0.00117,0.02233 0.00176,0.033569 5.86e-4,0.00948 0.00139,0.018952 0.00139,0.028355 v 2.94e-4 c 0,0.06376 -0.00944,0.125684 -0.027731,0.183935 -0.00347,0.011744 -0.008,0.022983 -0.012321,0.034149 -0.00285,0.00749 -0.00512,0.015205 -0.00827,0.022698 C 9.515341,4.332817 9.508756,4.34604 9.501878,4.359262 9.49961,4.363816 9.497634,4.368738 9.495366,4.372998 9.488488,4.385633 9.480732,4.39768 9.473049,4.41002 9.470195,4.414869 9.467634,4.41979 9.464488,4.424344 9.457317,4.434996 9.449634,4.444765 9.442171,4.454462 9.437561,4.460559 9.43361,4.466802 9.428707,4.472606 9.422195,4.480319 9.415024,4.487811 9.408439,4.49523 9.401854,4.502429 9.395561,4.510142 9.388463,4.517047 9.382976,4.522483 9.377268,4.527404 9.371561,4.532546 9.362707,4.541141 9.353854,4.549735 9.344122,4.557522 9.340098,4.561268 9.335268,4.564133 9.330951,4.567585 9.319537,4.576473 9.308415,4.585362 9.296415,4.593662 9.29239,4.596233 9.287854,4.59851 9.283537,4.601375 9.270951,4.609456 9.258366,4.617462 9.245268,4.624661 9.23839,4.628701 9.23122,4.631566 9.224049,4.635019 9.21322,4.640454 9.202683,4.646184 9.191195,4.651032 9.13522,4.674832 9.074854,4.690625 9.011707,4.696943 H 9.011415 L 5.233683,5.076861 C 5.223439,5.078036 5.212829,5.078844 5.202293,5.079432 3.898317,5.143119 2.960854,5.52649 2.336341,6.251068 1.739488,6.944573 1.380512,7.994198 1.239073,9.459881 1.225024,9.652117 1.552317,10.13818 1.729829,10.19158 Z" /></clipPath><clipPath
       id="clipPath34"
       clipPathUnits="userSpaceOnUse"><path
         id="path32"
         d="M 0,0 H 30 V 17 H 0 Z" /></clipPath><clipPath
       id="clipPath56"
       clipPathUnits="userSpaceOnUse"><path
         style="clip-rule:evenodd"
         id="path54"
         d="m 20.86612,12 c 0.01003,0 0.02037,4.7e-4 0.0304,9.4e-4 0.07882,0.0028 0.15753,0.0046 0.23705,0.0046 C 21.61218,12.00554 22,12.4518 22,13.003 22,13.55374 21.61218,14 21.13357,14 21.03409,14 20.93532,13.99812 20.83695,13.99446 20.35876,13.97562 19.98414,13.51369 20.00052,12.96343 20.01648,12.42471 20.40154,12 20.86612,12 Z" /></clipPath><clipPath
       id="clipPath62"
       clipPathUnits="userSpaceOnUse"><path
         id="path60"
         d="M -1033,-954 H 230 V 309 h -1263 z" /></clipPath></defs><g
     transform="matrix(1.3333333,0,0,-1.3333333,0,22.666667)"
     id="g10"><g
       id="g12" /><g
       id="g14"><g
         clip-path="url(#clipPath20)"
         id="g16"><g
           id="g22" /><g
           id="g48"><g
             id="g46"
             clip-path="url(#clipPath26)"><g
               id="g36" /><g
               id="g44"><g
                 id="g42"
                 clip-path="url(#clipPath30)"><g
                   id="g40"
                   clip-path="url(#clipPath34)"><path
                     id="path38"
                     style="fill:#01748e;fill-opacity:1;fill-rule:nonzero;stroke:none"
                     d="M -4.999986,21.98781 H 34.97074 V -4.527631 H -4.999986 Z" /></g></g></g></g></g></g></g><g
       id="g50"><g
         clip-path="url(#clipPath56)"
         id="g52"><g
           clip-path="url(#clipPath62)"
           id="g58"><path
             id="path64"
             style="fill:#01748e;fill-opacity:1;fill-rule:nonzero;stroke:none"
             d="M 15,19 H 27 V 7 H 15 Z" /></g></g></g></g></svg>