<?xml version="1.0" encoding="UTF-8" standalone="no"?>
<svg
   xmlns:dc="http://purl.org/dc/elements/1.1/"
   xmlns:cc="http://creativecommons.org/ns#"
   xmlns:rdf="http://www.w3.org/1999/02/22-rdf-syntax-ns#"
   xmlns:svg="http://www.w3.org/2000/svg"
   xmlns="http://www.w3.org/2000/svg"
   viewBox="0 0 40 28"
   height="28"
   width="40"
   xml:space="preserve"
   id="svg2"
   version="1.1"><metadata
     id="metadata8"><rdf:RDF><cc:Work
         rdf:about=""><dc:format>image/svg+xml</dc:format><dc:type
           rdf:resource="http://purl.org/dc/dcmitype/StillImage" /></cc:Work></rdf:RDF></metadata><defs
     id="defs6"><clipPath
       id="clipPath20"
       clipPathUnits="userSpaceOnUse"><path
         style="clip-rule:evenodd"
         id="path18"
         d="M 13.49997,15 C 13.77613,15 14,15.19786 14,15.44167 v 0.11692 C 14,15.8024 13.77613,16 13.49997,16 13.22363,16 13,15.8024 13,15.55859 V 15.44167 C 12.99976,15.19786 13.22363,15 13.49997,15 Z" /></clipPath><clipPath
       id="clipPath26"
       clipPathUnits="userSpaceOnUse"><path
         id="path24"
         d="M -880,-952 H 383 V 311 H -880 Z" /></clipPath><clipPath
       id="clipPath36"
       clipPathUnits="userSpaceOnUse"><path
         id="path34"
         d="M 0.00439024,0.004375 H 29.97093 v 20.92278 H 0.00439024 Z" /></clipPath><clipPath
       id="clipPath42"
       clipPathUnits="userSpaceOnUse"><path
         id="path40"
         d="M -1,0 H 31 V 21 H -1 Z" /></clipPath><clipPath
       id="clipPath46"
       clipPathUnits="userSpaceOnUse"><path
         style="clip-rule:evenodd"
         id="path44"
         d="m 16.38739,15.27407 c 0.34273,0 0.62049,0.27716 0.62049,0.6187 v 0.16377 c 0,0.34154 -0.27776,0.61834 -0.62049,0.61834 -0.34302,0 -0.62078,-0.2768 -0.62078,-0.61834 v -0.16377 c 0,-0.34154 0.27776,-0.6187 0.62078,-0.6187 z" /></clipPath><clipPath
       id="clipPath50"
       clipPathUnits="userSpaceOnUse"><path
         id="path48"
         d="M 0,0 H 30 V 21 H 0 Z" /></clipPath><clipPath
       id="clipPath54"
       clipPathUnits="userSpaceOnUse"><path
         style="clip-rule:evenodd"
         id="path52"
         d="M 28.92015,13.06834 C 27.30095,13.97411 24.68195,12.17716 22.8278,8.887885 22.71637,8.68999 22.6129,8.483198 22.51683,8.269552 v 1.049052 c 1.07788,1.238706 1.25305,2.747426 1.28049,3.941436 v 5.9e-4 c 0.0066,0.2948 0.0046,0.57451 0.0026,0.8451 -8.8e-4,0.12104 -0.0017,0.23924 -0.0017,0.35401 0,0.09034 -0.0037,0.1812 -0.01142,0.27176 0.86488,0.64458 1.3871,1.66571 1.3871,2.75603 0,1.89671 -1.54829,3.43963 -3.45161,3.43963 -1.22729,0 -2.35976,-0.66252 -2.97344,-1.69532 -1.15954,0.32069 -2.43944,0.48876 -3.73624,0.48876 -1.29593,0 -2.57613,-0.16836 -3.73544,-0.48876 -0.61339,1.0328 -1.74637,1.69532 -2.973955,1.69532 -1.903317,0 -3.45161,-1.54292 -3.45161,-3.43963 0,-1.09003 0.522147,-2.11115 1.387098,-2.75603 -0.00746,-0.09085 -0.011488,-0.18171 -0.011488,-0.27176 0,-0.11477 -8.05e-4,-0.23297 -0.00168,-0.35401 -0.00197,-0.27059 -0.00402,-0.5503 0.00256,-0.84569 0.027439,-1.1943 0.202976,-2.70389 1.281366,-3.942311 V 8.269552 C 7.413073,8.482906 7.310488,8.68999 7.199049,8.887667 5.34461,12.17716 2.72561,13.97441 1.106415,13.06834 0.2643659,12.59701 -0.1172195,11.51631 0.03146341,10.02582 0.1626585,8.711573 0.6913902,7.178354 1.520268,5.708646 2.538146,3.902792 4.540024,2.273031 6.016317,1.236813 H 2.25 C 1.907268,1.236813 1.629512,0.9599479 1.629512,0.6184063 1.629512,0.2769375 1.907268,7.291667e-5 2.25,7.291667e-5 h 5.871366 c 5.85e-4,0 0.00146,0 0.00227,0 5.86e-4,0 0.00117,0 0.00205,0 5.85e-4,0 0.0011,0 0.00168,0 8.78e-4,0 0.00176,0 0.00256,0 h 13.766123 c 8.8e-4,0 0.0018,0 0.0023,0 8.8e-4,0 0.0018,0 0.0026,0 h 5.87195 c 0.34273,0 0.62056,0.27686458333 0.62056,0.61833338333 0,0.3415416 -0.27783,0.6184067 -0.62056,0.6184067 h -3.76281 c 1.47652,1.036218 3.47818,2.665979 4.49627,4.471833 0.30951,0.549427 0.57995,1.111979 0.80312,1.672489 0.12666,0.317334 -0.02912,0.676813 -0.34778,0.802959 C 28.6432,8.310021 28.28246,8.154781 28.15588,7.837448 27.9532,7.328198 27.70683,6.81574 27.42417,6.314438 26.34344,4.396729 23.88366,2.615958 22.53029,1.734396 c 0.05173,1.610437 0.29839,4.630208 1.37942,6.547406 1.63858,2.906968 3.66878,4.118918 4.40253,3.708178 0.26349,-0.14751 0.37756,-0.50699 0.42703,-0.7824 0.06029,-0.33607 0.38268,-0.5597 0.72022,-0.49991 0.33731,0.06015 0.56195,0.38142 0.50166,0.71779 -0.17495,0.97387 -0.66256,1.43099 -1.041,1.64288 z M 8.575829,9.987104 C 7.940195,10.6416 7.668366,11.43173 7.551732,12.21558 c 1.382561,-0.63714 3.909508,-1.52352 6.009728,-0.7269 0.93608,0.35496 1.96676,0.35496 2.90225,-2.9e-4 0.59334,-0.22473 1.22019,-0.31559 1.84609,-0.31559 1.59008,0 3.17122,0.58567 4.16393,1.04249 C 22.3568,11.43144 22.08498,10.64131 21.44934,9.986813 20.88198,9.402021 20.05105,8.957667 18.97895,8.666292 17.91139,8.3755 16.5769,8.22799 15.01259,8.22799 c -1.512,0 -2.81049,0.137812 -3.85888,0.410156 -1.125,0.291083 -1.992222,0.744771 -2.577881,1.348958 z M 11.61812,7.2695 c 0.98722,-0.184552 2.12451,-0.27825 3.39447,-0.27825 1.31963,0 2.49548,0.101063 3.50934,0.300198 V 1.236813 h -6.90381 z m 8.14515,0.340375 c 0.56246,0.18426 1.06727,0.411615 1.51229,0.680167 V 1.236813 H 19.76327 Z M 6.092634,17.48753 c 0,1.21479 0.991464,2.20289 2.210561,2.20289 0.912293,0 1.743215,-0.57167 2.067075,-1.42217 0.11773,-0.30931 0.45841,-0.47141 0.77371,-0.3683 1.16758,0.38194 2.50522,0.58391 3.86861,0.58391 1.3639,0 2.7019,-0.20197 3.86948,-0.58391 0.31522,-0.10311 0.65598,0.05899 0.77371,0.3683 0.32385,0.8505 1.15442,1.42217 2.06649,1.42217 1.21873,0 2.21027,-0.9881 2.21027,-2.20289 0,-0.79158 -0.43017,-1.52644 -1.12274,-1.91778 -0.23575,-0.13329 -0.35751,-0.40359 -0.30065,-0.66762 0.03175,-0.14671 0.0477,-0.29568 0.0477,-0.44239 0,-0.11761 8.8e-4,-0.23866 0.0018,-0.36283 0.0011,-0.14926 0.0017,-0.30224 0.0014,-0.45661 -0.89605,-0.47337 -3.6368,-1.76108 -5.65471,-0.99575 -1.22019,0.46288 -2.56441,0.46288 -3.78512,0 -2.01849,-0.76533 -4.760121,0.52325 -5.655072,0.99604 -2.2e-4,0.15437 2.92e-4,0.30706 0.00146,0.45632 8.78e-4,0.12417 0.00168,0.24522 0.00168,0.36283 0,0.14503 0.016317,0.29371 0.048366,0.44239 0.056853,0.26432 -0.064903,0.53462 -0.300732,0.66762 -0.692854,0.39134 -1.123244,1.1262 -1.123244,1.91778 z M 2.60239,6.314438 c -0.746853,1.324239 -1.221,2.685958 -1.335658,3.833882 -0.094317,0.94333 0.07317,1.63202 0.447658,1.84137 0.092561,0.05184 0.205756,0.07809 0.336366,0.07809 0.903805,0 2.634439,-1.24585 4.066171,-3.785978 C 7.20278,6.356365 7.447098,3.322594 7.497439,1.733229 6.144659,2.613698 3.68539,4.39301 2.60239,6.314438 Z M 8.750488,8.28975 C 9.22522,8.003552 9.768,7.763948 10.37707,7.573708 V 1.236813 H 8.750488 Z" /></clipPath><clipPath
       id="clipPath58"
       clipPathUnits="userSpaceOnUse"><path
         id="path56"
         d="M 0,0 H 30 V 21 H 0 Z" /></clipPath><clipPath
       id="clipPath88"
       clipPathUnits="userSpaceOnUse"><path
         style="clip-rule:evenodd"
         id="path86"
         d="M 29.60247,9.993565 C 29.34073,10.03362 29.09113,9.882536 29.04483,9.65611 29.03439,9.605112 29.02287,9.55372 29.01028,9.50174 28.95592,9.276639 29.12262,9.056152 29.38283,9.008982 29.41608,9.002847 29.4491,9 29.4819,9 c 0.22299,0 0.42311,0.134982 0.47055,0.331123 0.01464,0.06057 0.02814,0.120993 0.04011,0.180041 0.0463,0.226426 -0.12834,0.442299 -0.39009,0.482401 z" /></clipPath><clipPath
       id="clipPath94"
       clipPathUnits="userSpaceOnUse"><path
         id="path92"
         d="M -880,-952 H 383 V 311 H -880 Z" /></clipPath></defs><g
     transform="matrix(1.3333333,0,0,-1.3333333,0,28)"
     id="g10"><g
       id="g12" /><g
       id="g14"><g
         clip-path="url(#clipPath20)"
         id="g16"><g
           clip-path="url(#clipPath26)"
           id="g22"><path
             id="path28"
             style="fill:#01748e;fill-opacity:1;fill-rule:nonzero;stroke:none"
             d="M 8,21 H 19 V 10 H 8 Z" /></g></g></g><g
       id="g30"><g
         clip-path="url(#clipPath36)"
         id="g32"><g
           id="g38" /><g
           id="g80"><g
             id="g78"
             clip-path="url(#clipPath42)"><g
               id="g60" /><g
               id="g68"><g
                 id="g66"
                 clip-path="url(#clipPath46)"><g
                   id="g64"
                   clip-path="url(#clipPath50)"><path
                     id="path62"
                     style="fill:#01748e;fill-opacity:1;fill-rule:nonzero;stroke:none"
                     d="M 10.76661,21.67488 H 22.00788 V 10.27407 H 10.76661 Z" /></g></g></g><g
               id="g76"><g
                 id="g74"
                 clip-path="url(#clipPath54)"><g
                   id="g72"
                   clip-path="url(#clipPath58)"><path
                     id="path70"
                     style="fill:#01748e;fill-opacity:1;fill-rule:nonzero;stroke:none"
                     d="M -4.999999,25.92716 H 34.97093 V -4.999927 H -4.999999 Z" /></g></g></g></g></g></g></g><g
       id="g82"><g
         clip-path="url(#clipPath88)"
         id="g84"><g
           clip-path="url(#clipPath94)"
           id="g90"><path
             id="path96"
             style="fill:#01748e;fill-opacity:1;fill-rule:nonzero;stroke:none"
             d="M 24,15 H 35 V 4 H 24 Z" /></g></g></g></g></svg>