<?xml version="1.0" encoding="UTF-8" standalone="no"?>
<svg
   xmlns:dc="http://purl.org/dc/elements/1.1/"
   xmlns:cc="http://creativecommons.org/ns#"
   xmlns:rdf="http://www.w3.org/1999/02/22-rdf-syntax-ns#"
   xmlns:svg="http://www.w3.org/2000/svg"
   xmlns="http://www.w3.org/2000/svg"
   viewBox="0 0 32 32"
   height="32"
   width="32"
   xml:space="preserve"
   id="svg2"
   version="1.1"><metadata
     id="metadata8"><rdf:RDF><cc:Work
         rdf:about=""><dc:format>image/svg+xml</dc:format><dc:type
           rdf:resource="http://purl.org/dc/dcmitype/StillImage" /></cc:Work></rdf:RDF></metadata><defs
     id="defs6"><clipPath
       id="clipPath20"
       clipPathUnits="userSpaceOnUse"><path
         style="clip-rule:evenodd"
         id="path18"
         d="m 2.298851,9.213901 c -0.253772,0 -0.459771,-0.205999 -0.459771,-0.45977 0,-0.253772 0.205999,-0.45977 0.459771,-0.45977 0.253771,0 0.45977,0.205998 0.45977,0.45977 0,0.253771 -0.205999,0.45977 -0.45977,0.45977 z" /></clipPath><clipPath
       id="clipPath26"
       clipPathUnits="userSpaceOnUse"><path
         id="path24"
         d="M -271,-607 H 992 V 656 H -271 Z" /></clipPath><clipPath
       id="clipPath36"
       clipPathUnits="userSpaceOnUse"><path
         style="clip-rule:evenodd"
         id="path34"
         d="M 21.13182,7.619612 16.79741,6.12949 c 0.01922,0.106681 0.03,0.215517 0.03,0.32597 0,1.014008 -0.8249,1.83908 -1.83908,1.83908 h -2.97737 c -0.07903,0 -0.15697,0.020295 -0.22576,0.059088 l -2.429058,1.3662 C 8.875898,9.990481 8.330101,10.13362 7.777838,10.13362 H 4.518499 C 4.328843,10.66864 3.817708,11.05298 3.218391,11.05298 H 0.4597701 C 0.2058189,11.05298 0,10.84716 0,10.59321 V 2.317529 C 0,2.063578 0.2058189,1.857759 0.4597701,1.857759 H 3.218391 c 0.585668,0 1.087823,0.367995 1.287177,0.884878 C 5.026042,2.677981 5.628233,2.524066 6.006645,2.297055 L 8.411099,0.8543463 c 0.91092,-0.5466954 1.953841,-0.83566814 3.016341,-0.83566814 0.84196,0 1.65769,0.17672414 2.42475,0.52514364 l 8.58136,3.7785562 c 0.95043,0.385596 1.41972,1.525862 0.87644,2.530891 -0.39961,0.739583 -1.33549,1.068606 -2.17817,0.766343 z M 3.678161,3.234914 C 3.677083,2.982399 3.471085,2.777299 3.218391,2.777299 H 0.9195402 V 10.13344 H 3.218391 c 0.253412,0 0.45977,-0.206177 0.45977,-0.459769 z M 22.08423,5.172773 c -0.0049,-0.0018 -0.0097,-0.00395 -0.01455,-0.00593 0,0 -8.59411,-3.784123 -8.59572,-3.784842 -0.64745,-0.29454 -1.33603,-0.4437856 -2.04652,-0.4437856 -0.89583,0 -1.775141,0.2435346 -2.543101,0.7045616 L 6.479705,3.085489 C 5.964978,3.394217 5.227909,3.582435 4.597701,3.657866 v 5.556035 h 3.180137 c 0.394396,0 0.784123,-0.102012 1.127334,-0.295438 l 2.429058,-1.3662 C 11.54005,7.436243 11.77425,7.37482 12.01096,7.37482 h 2.97737 c 0.507,0 0.91954,-0.412356 0.91954,-0.91954 0,-0.505208 -0.41272,-0.91954 -0.91954,-0.91954 h -4.67385 c -0.25396,0 -0.459775,-0.205819 -0.459775,-0.45977 0,-0.253772 0.205815,-0.459591 0.459775,-0.459591 h 4.67385 c 0.30154,0 0.59842,0.074893 0.86189,0.215338 0,0 5.58818,1.920977 5.59033,1.921695 0.412,0.148707 0.87788,7.19e-4 1.06053,-0.337284 0.27388,-0.506645 0.04741,-1.057471 -0.41685,-1.243355 z" /></clipPath><clipPath
       id="clipPath42"
       clipPathUnits="userSpaceOnUse"><path
         id="path40"
         d="M -271,-607 H 992 V 656 H -271 Z" /></clipPath><clipPath
       id="clipPath52"
       clipPathUnits="userSpaceOnUse"><path
         style="clip-rule:evenodd"
         id="path50"
         d="m 16.49338,20.25427 c 0.1361,0 0.24643,0.11033 0.24643,0.24643 0,0.1361 -0.11033,0.24643 -0.24643,0.24643 -0.1361,0 -0.24643,-0.11033 -0.24643,-0.24643 0,-0.1361 0.11033,-0.24643 0.24643,-0.24643 z" /></clipPath><clipPath
       id="clipPath58"
       clipPathUnits="userSpaceOnUse"><path
         id="path56"
         d="M -271,-607 H 992 V 656 H -271 Z" /></clipPath><clipPath
       id="clipPath68"
       clipPathUnits="userSpaceOnUse"><path
         style="clip-rule:evenodd"
         id="path66"
         d="m 14.91623,21.04284 c 0.1361,0 0.24643,0.11033 0.24643,0.24643 0,0.1361 -0.11033,0.24643 -0.24643,0.24643 -0.1361,0 -0.24643,-0.11033 -0.24643,-0.24643 0,-0.1361 0.11033,-0.24643 0.24643,-0.24643 z" /></clipPath><clipPath
       id="clipPath74"
       clipPathUnits="userSpaceOnUse"><path
         id="path72"
         d="M -271,-607 H 992 V 656 H -271 Z" /></clipPath><clipPath
       id="clipPath84"
       clipPathUnits="userSpaceOnUse"><path
         style="clip-rule:evenodd"
         id="path82"
         d="m 13.43765,20.25427 c 0.1361,0 0.24643,0.11033 0.24643,0.24643 0,0.1361 -0.11033,0.24643 -0.24643,0.24643 -0.1361,0 -0.24643,-0.11033 -0.24643,-0.24643 0,-0.1361 0.11033,-0.24643 0.24643,-0.24643 z" /></clipPath><clipPath
       id="clipPath90"
       clipPathUnits="userSpaceOnUse"><path
         id="path88"
         d="M -271,-607 H 992 V 656 H -271 Z" /></clipPath><clipPath
       id="clipPath100"
       clipPathUnits="userSpaceOnUse"><path
         style="clip-rule:evenodd"
         id="path98"
         d="m 14.91623,10.98851 c 0.1361,0 0.24643,0.11033 0.24643,0.24643 0,0.13609 -0.11033,0.24643 -0.24643,0.24643 -0.1361,0 -0.24643,-0.11034 -0.24643,-0.24643 0,-0.1361 0.11033,-0.24643 0.24643,-0.24643 z" /></clipPath><clipPath
       id="clipPath106"
       clipPathUnits="userSpaceOnUse"><path
         id="path104"
         d="M -271,-607 H 992 V 656 H -271 Z" /></clipPath><clipPath
       id="clipPath116"
       clipPathUnits="userSpaceOnUse"><path
         style="clip-rule:evenodd"
         id="path114"
         d="m 9.222172,11.49677 h -0.50826 c -0.140356,0 -0.254142,-0.11378 -0.254142,-0.25413 0,-0.14036 0.113786,-0.25413 0.254142,-0.25413 h 5.108008 c 0.14036,0 0.25413,0.11377 0.25413,0.25413 0,0.14035 -0.11377,0.25413 -0.25413,0.25413 h -0.88945 v 2.08387 c 0,1.12959 0.93103,2.08387 2.03303,2.08387 1.10201,0 2.03304,-0.95428 2.03304,-2.08387 v -2.08387 h -0.88945 c -0.14036,0 -0.25413,-0.11378 -0.25413,-0.25413 0,-0.14036 0.11377,-0.25413 0.25413,-0.25413 h 5.10801 c 0.14035,0 0.25416,0.11377 0.25416,0.25413 0,0.14035 -0.11381,0.25413 -0.25416,0.25413 h -0.50826 v 8.30606 l 0.37214,-0.23599 c 0.11879,-0.07532 0.27571,-0.03977 0.35073,0.0785 0.07517,0.11853 0.04002,0.27556 -0.0785,0.35073 l -6.25159,3.96444 c -0.0831,0.05265 -0.1891,0.05265 -0.2722,0 L 8.577826,19.99607 C 8.4593,19.9209 8.424153,19.76387 8.499325,19.64534 8.574497,19.52679 8.731549,19.4917 8.85005,19.56684 l 0.372147,0.23599 v -8.30606 z m 3.996728,6.50574 c 0.13433,-0.52396 0.6677,-0.86447 1.21715,-0.73558 0.35632,0.08366 0.70267,0.08366 1.05904,-2e-5 0.54871,-0.12857 1.08251,0.21123 1.21702,0.7356 H 20.2006 V 16.17277 H 9.730457 v 1.82974 z m 0.47596,0.25414 c 0,0.28025 0.228,0.50826 0.50826,0.50826 0.14035,0 0.25412,0.11377 0.25412,0.25413 0,0.28025 0.22801,0.50826 0.50826,0.50826 0.28026,0 0.50826,-0.22801 0.50826,-0.50826 0,-0.14036 0.11378,-0.25413 0.25413,-0.25413 0.28026,0 0.50826,-0.22801 0.50826,-0.50826 0,-0.32715 -0.30546,-0.56982 -0.625,-0.49492 -0.42839,0.10058 -0.86282,0.10058 -1.29126,0 -0.31993,-0.07502 -0.62503,0.16777 -0.62503,0.49492 z M 9.730431,11.49677 v 1.82974 h 2.693779 v -1.82974 z m 2.706129,2.338 H 9.730431 v 1.83 H 13.4639 c -0.56554,-0.42954 -0.95466,-1.08382 -1.02734,-1.83 z m 4.03055,1.82974 h 3.73347 v -1.82974 h -2.7061 c -0.07258,0.74493 -0.46082,1.3997 -1.02737,1.82974 z m 1.03969,-2.338 h 2.69378 V 11.49677 H 17.5068 Z m -2.5413,10.11844 5.23508,-3.31981 v -1.61436 h -3.48847 c -0.09438,0.36523 -0.38706,0.65156 -0.75593,0.73654 -0.10389,0.45096 -0.50864,0.78824 -0.99068,0.78824 -0.48203,0 -0.88678,-0.33728 -0.99067,-0.78824 -0.36887,-0.08498 -0.66155,-0.37131 -0.75593,-0.73654 H 9.730431 v 1.61436 z" /></clipPath><clipPath
       id="clipPath122"
       clipPathUnits="userSpaceOnUse"><path
         id="path120"
         d="M -271,-607 H 992 V 656 H -271 Z" /></clipPath></defs><g
     transform="matrix(1.3333333,0,0,-1.3333333,0,32)"
     id="g10"><g
       id="g12" /><g
       id="g14"><g
         clip-path="url(#clipPath20)"
         id="g16"><g
           clip-path="url(#clipPath26)"
           id="g22"><path
             id="path28"
             style="fill:#fa9c93;fill-opacity:1;fill-rule:nonzero;stroke:none"
             d="M -3.16092,14.2139 H 7.758621 V 3.294361 H -3.16092 Z" /></g></g></g><g
       id="g30"><g
         clip-path="url(#clipPath36)"
         id="g32"><g
           clip-path="url(#clipPath42)"
           id="g38"><path
             id="path44"
             style="fill:#fa9c93;fill-opacity:1;fill-rule:nonzero;stroke:none"
             d="M -5,16.05298 H 28.54013 V -4.981322 H -5 Z" /></g></g></g><g
       id="g46"><g
         clip-path="url(#clipPath52)"
         id="g48"><g
           clip-path="url(#clipPath58)"
           id="g54"><path
             id="path60"
             style="fill:#fa9c93;fill-opacity:1;fill-rule:nonzero;stroke:none"
             d="M 11.24695,25.74713 H 21.73981 V 15.25427 H 11.24695 Z" /></g></g></g><g
       id="g62"><g
         clip-path="url(#clipPath68)"
         id="g64"><g
           clip-path="url(#clipPath74)"
           id="g70"><path
             id="path76"
             style="fill:#fa9c93;fill-opacity:1;fill-rule:nonzero;stroke:none"
             d="M 9.669801,26.5357 H 20.16266 V 16.04284 H 9.669801 Z" /></g></g></g><g
       id="g78"><g
         clip-path="url(#clipPath84)"
         id="g80"><g
           clip-path="url(#clipPath90)"
           id="g86"><path
             id="path92"
             style="fill:#fa9c93;fill-opacity:1;fill-rule:nonzero;stroke:none"
             d="M 8.191223,25.74713 H 18.68408 V 15.25427 H 8.191223 Z" /></g></g></g><g
       id="g94"><g
         clip-path="url(#clipPath100)"
         id="g96"><g
           clip-path="url(#clipPath106)"
           id="g102"><path
             id="path108"
             style="fill:#fa9c93;fill-opacity:1;fill-rule:nonzero;stroke:none"
             d="M 9.669801,16.48137 H 20.16266 V 5.988506 H 9.669801 Z" /></g></g></g><g
       id="g110"><g
         clip-path="url(#clipPath116)"
         id="g112"><g
           clip-path="url(#clipPath122)"
           id="g118"><path
             id="path124"
             style="fill:#fa9c93;fill-opacity:1;fill-rule:nonzero;stroke:none"
             d="M 3.45977,29 H 26.47126 V 5.988506 H 3.45977 Z" /></g></g></g></g></svg>