<?xml version="1.0" encoding="UTF-8" standalone="no"?>
<!DOCTYPE svg PUBLIC "-//W3C//DTD SVG 1.1//EN" "http://www.w3.org/Graphics/SVG/1.1/DTD/svg11.dtd">
<svg width="100%" height="100%" viewBox="0 0 32 32" version="1.1" xmlns="http://www.w3.org/2000/svg" xmlns:xlink="http://www.w3.org/1999/xlink" xml:space="preserve" xmlns:serif="http://www.serif.com/" style="fill-rule:evenodd;clip-rule:evenodd;stroke-linejoin:round;stroke-miterlimit:2;">
    <g id="g10" transform="matrix(1.33333,0,0,-1.33333,0,32)">
        <g id="g14">
            <g id="g16">
                <clipPath id="_clip1">
                    <path d="M2.299,9.214C2.045,9.214 1.839,9.008 1.839,8.754C1.839,8.5 2.045,8.294 2.299,8.294C2.553,8.294 2.759,8.5 2.759,8.754C2.759,9.008 2.553,9.214 2.299,9.214Z"/>
                </clipPath>
                <g clip-path="url(#_clip1)">
                    <g id="g22">
                        <rect id="path28" x="-3.161" y="3.294" width="10.92" height="10.92" style="fill:rgb(1,116,142);fill-rule:nonzero;"/>
                    </g>
                </g>
            </g>
        </g>
        <g id="g30">
            <g id="g32">
                <clipPath id="_clip2">
                    <path d="M21.132,7.62L16.797,6.129C16.817,6.236 16.827,6.345 16.827,6.455C16.827,7.469 16.003,8.295 14.988,8.295L12.011,8.295C11.932,8.295 11.854,8.315 11.785,8.354L9.356,9.72C8.876,9.99 8.33,10.134 7.778,10.134L4.518,10.134C4.329,10.669 3.818,11.053 3.218,11.053L0.46,11.053C0.206,11.053 0,10.847 0,10.593L0,2.318C0,2.064 0.206,1.858 0.46,1.858L3.218,1.858C3.804,1.858 4.306,2.226 4.506,2.743C5.026,2.678 5.628,2.524 6.007,2.297L8.411,0.854C9.322,0.308 10.365,0.019 11.427,0.019C12.269,0.019 13.085,0.195 13.852,0.544L22.434,4.322C23.384,4.708 23.853,5.848 23.31,6.853C22.91,7.593 21.975,7.922 21.132,7.62ZM3.678,3.235C3.677,2.982 3.471,2.777 3.218,2.777L0.92,2.777L0.92,10.133L3.218,10.133C3.472,10.133 3.678,9.927 3.678,9.674L3.678,3.235ZM22.084,5.173C22.079,5.171 22.075,5.169 22.07,5.167C22.07,5.167 13.476,1.383 13.474,1.382C12.827,1.087 12.138,0.938 11.427,0.938C10.532,0.938 9.652,1.182 8.884,1.643L6.48,3.085C5.965,3.394 5.228,3.582 4.598,3.658L4.598,9.214L7.778,9.214C8.172,9.214 8.562,9.112 8.905,8.918L11.334,7.552C11.54,7.436 11.774,7.375 12.011,7.375L14.988,7.375C15.495,7.375 15.908,6.962 15.908,6.455C15.908,5.95 15.495,5.536 14.988,5.536L10.314,5.536C10.061,5.536 9.855,5.33 9.855,5.076C9.855,4.822 10.061,4.616 10.314,4.616L14.988,4.616C15.29,4.616 15.587,4.691 15.85,4.832C15.85,4.832 21.438,6.753 21.441,6.753C21.853,6.902 22.318,6.754 22.501,6.416C22.775,5.909 22.548,5.359 22.084,5.173Z"/>
                </clipPath>
                <g clip-path="url(#_clip2)">
                    <g id="g38">
                        <rect id="path44" x="-5" y="-4.981" width="33.54" height="21.034" style="fill:rgb(1,116,142);fill-rule:nonzero;"/>
                    </g>
                </g>
            </g>
        </g>
        <g id="g46">
            <g id="g48">
                <clipPath id="_clip3">
                    <path d="M16.493,20.254C16.629,20.254 16.74,20.365 16.74,20.501C16.74,20.637 16.629,20.747 16.493,20.747C16.357,20.747 16.247,20.637 16.247,20.501C16.247,20.365 16.357,20.254 16.493,20.254Z"/>
                </clipPath>
                <g clip-path="url(#_clip3)">
                    <g id="g54">
                        <rect id="path60" x="11.247" y="15.254" width="10.493" height="10.493" style="fill:rgb(1,116,142);fill-rule:nonzero;"/>
                    </g>
                </g>
            </g>
        </g>
        <g id="g62">
            <g id="g64">
                <clipPath id="_clip4">
                    <path d="M14.916,21.043C15.052,21.043 15.163,21.153 15.163,21.289C15.163,21.425 15.052,21.536 14.916,21.536C14.78,21.536 14.67,21.425 14.67,21.289C14.67,21.153 14.78,21.043 14.916,21.043Z"/>
                </clipPath>
                <g clip-path="url(#_clip4)">
                    <g id="g70">
                        <rect id="path76" x="9.67" y="16.043" width="10.493" height="10.493" style="fill:rgb(1,116,142);fill-rule:nonzero;"/>
                    </g>
                </g>
            </g>
        </g>
        <g id="g78">
            <g id="g80">
                <clipPath id="_clip5">
                    <path d="M13.438,20.254C13.574,20.254 13.684,20.365 13.684,20.501C13.684,20.637 13.574,20.747 13.438,20.747C13.302,20.747 13.191,20.637 13.191,20.501C13.191,20.365 13.302,20.254 13.438,20.254Z"/>
                </clipPath>
                <g clip-path="url(#_clip5)">
                    <g id="g86">
                        <rect id="path92" x="8.191" y="15.254" width="10.493" height="10.493" style="fill:rgb(1,116,142);fill-rule:nonzero;"/>
                    </g>
                </g>
            </g>
        </g>
        <g id="g94">
            <g id="g96">
                <clipPath id="_clip6">
                    <path d="M14.916,10.989C15.052,10.989 15.163,11.099 15.163,11.235C15.163,11.371 15.052,11.481 14.916,11.481C14.78,11.481 14.67,11.371 14.67,11.235C14.67,11.099 14.78,10.989 14.916,10.989Z"/>
                </clipPath>
                <g clip-path="url(#_clip6)">
                    <g id="g102">
                        <rect id="path108" x="9.67" y="5.989" width="10.493" height="10.493" style="fill:rgb(1,116,142);fill-rule:nonzero;"/>
                    </g>
                </g>
            </g>
        </g>
        <g id="g110">
            <g id="g112">
                <clipPath id="_clip7">
                    <path d="M9.222,11.497L8.714,11.497C8.574,11.497 8.46,11.383 8.46,11.243C8.46,11.102 8.574,10.989 8.714,10.989L13.822,10.989C13.962,10.989 14.076,11.102 14.076,11.243C14.076,11.383 13.962,11.497 13.822,11.497L12.932,11.497L12.932,13.581C12.932,14.71 13.864,15.665 14.966,15.665C16.068,15.665 16.999,14.71 16.999,13.581L16.999,11.497L16.109,11.497C15.969,11.497 15.855,11.383 15.855,11.243C15.855,11.102 15.969,10.989 16.109,10.989L21.217,10.989C21.357,10.989 21.471,11.102 21.471,11.243C21.471,11.383 21.357,11.497 21.217,11.497L20.709,11.497L20.709,19.803L21.081,19.567C21.2,19.492 21.357,19.527 21.432,19.645C21.507,19.764 21.472,19.921 21.353,19.996L15.102,23.961C15.019,24.013 14.913,24.013 14.829,23.961L8.578,19.996C8.459,19.921 8.424,19.764 8.499,19.645C8.574,19.527 8.732,19.492 8.85,19.567L9.222,19.803L9.222,11.497ZM13.219,18.003C13.353,17.479 13.887,17.138 14.436,17.267C14.792,17.351 15.139,17.351 15.495,17.267C16.044,17.138 16.578,17.478 16.712,18.003L20.201,18.003L20.201,16.173L9.73,16.173L9.73,18.003L13.219,18.003ZM13.695,18.257C13.695,18.537 13.923,18.765 14.203,18.765C14.343,18.765 14.457,18.879 14.457,19.019C14.457,19.299 14.685,19.527 14.966,19.527C15.246,19.527 15.474,19.299 15.474,19.019C15.474,18.879 15.588,18.765 15.728,18.765C16.008,18.765 16.236,18.537 16.236,18.257C16.236,17.93 15.931,17.687 15.611,17.762C15.183,17.862 14.748,17.862 14.32,17.762C14,17.687 13.695,17.93 13.695,18.257ZM9.73,11.497L9.73,13.327L12.424,13.327L12.424,11.497L9.73,11.497ZM12.437,13.835L9.73,13.835L9.73,15.665L13.464,15.665C12.898,15.235 12.509,14.581 12.437,13.835ZM16.467,15.665L20.201,15.665L20.201,13.835L17.494,13.835C17.422,14.58 17.034,15.234 16.467,15.665ZM17.507,13.327L20.201,13.327L20.201,11.497L17.507,11.497L17.507,13.327ZM14.965,23.445L20.201,20.125L20.201,18.511L16.712,18.511C16.618,18.876 16.325,19.162 15.956,19.247C15.852,19.698 15.448,20.036 14.966,20.036C14.483,20.036 14.079,19.698 13.975,19.247C13.606,19.162 13.313,18.876 13.219,18.511L9.73,18.511L9.73,20.125L14.965,23.445Z"/>
                </clipPath>
                <g clip-path="url(#_clip7)">
                    <g id="g118">
                        <rect id="path124" x="3.46" y="5.989" width="23.011" height="23.011" style="fill:rgb(1,116,142);fill-rule:nonzero;"/>
                    </g>
                </g>
            </g>
        </g>
    </g>
</svg>
