<?xml version="1.0" encoding="UTF-8" standalone="no"?>
<svg
   xmlns:dc="http://purl.org/dc/elements/1.1/"
   xmlns:cc="http://creativecommons.org/ns#"
   xmlns:rdf="http://www.w3.org/1999/02/22-rdf-syntax-ns#"
   xmlns:svg="http://www.w3.org/2000/svg"
   xmlns="http://www.w3.org/2000/svg"
   viewBox="0 0 40 46.666668"
   height="46.666668"
   width="40"
   xml:space="preserve"
   id="svg2"
   version="1.1"><metadata
     id="metadata8"><rdf:RDF><cc:Work
         rdf:about=""><dc:format>image/svg+xml</dc:format><dc:type
           rdf:resource="http://purl.org/dc/dcmitype/StillImage" /></cc:Work></rdf:RDF></metadata><defs
     id="defs6"><clipPath
       id="clipPath20"
       clipPathUnits="userSpaceOnUse"><path
         id="path18"
         d="M 0.3822704,0.08515815 H 29.86383 V 34.966068 H 0.3822704 Z" /></clipPath><clipPath
       id="clipPath26"
       clipPathUnits="userSpaceOnUse"><path
         id="path24"
         d="M 0,0 H 30 V 36 H 0 Z" /></clipPath><clipPath
       id="clipPath30"
       clipPathUnits="userSpaceOnUse"><path
         style="clip-rule:evenodd"
         id="path28"
         d="m 12.81023,33.06401 c 0.04361,-0.01933 0.08691,-0.03925 0.12956,-0.05952 0.09101,-0.0436 0.18579,-0.06421 0.27928,-0.06421 0.25888,0 0.50644,0.15763 0.61969,0.42409 0.15438,0.3626 0.0025,0.78907 -0.33952,0.95309 -0.05454,0.02589 -0.10948,0.05118 -0.16498,0.07579 -0.34612,0.15337 -0.74428,-0.01993 -0.88894,-0.38688 -0.14466,-0.36686 0.01888,-0.78899 0.36491,-0.94236 z" /></clipPath><clipPath
       id="clipPath34"
       clipPathUnits="userSpaceOnUse"><path
         id="path32"
         d="M 0,0 H 30 V 35 H 0 Z" /></clipPath><clipPath
       id="clipPath38"
       clipPathUnits="userSpaceOnUse"><path
         style="clip-rule:evenodd"
         id="path36"
         d="m 29.86005,8.765669 c -0.0298,0.29601 -0.22876,0.542543 -0.49985,0.619696 -0.02506,0.00698 -2.53612,0.733215 -5.09673,2.484575 -3.61268,2.4712 -5.48364,5.61414 -5.56019,9.3421 -0.06522,3.19446 -0.45527,5.86732 -1.15898,7.945 -0.5764,1.70351 -1.3793,3.05309 -2.38615,4.01078 -0.27928,0.26578 -0.70885,0.24117 -0.95954,-0.05492 -0.25037,-0.29601 -0.22715,-0.75178 0.05213,-1.01722 0.76556,-0.72853 1.39746,-1.75545 1.88189,-3.05471 -1.8386,-2.51616 -3.13477,-5.75149 -3.57373,-8.94561 -0.47375,-3.4466 0.05526,-6.43514 1.48911,-8.41507 0.77848,-1.07512 2.29113,-2.442589 4.94523,-2.442249 1.31682,0 2.91548,0.337652 4.84412,1.213509 C 25.13827,9.59792 26.39074,8.994489 27.33767,8.599355 26.33363,8.160876 24.90445,7.600365 23.25188,7.139659 20.31978,6.322311 16.05889,5.659015 12.41054,7.14 9.724706,8.23045 8.164032,9.888054 7.500164,12.35662 6.900553,14.5847 7.11357,17.1867 7.319758,19.70279 c 0.172213,2.10102 0.334786,4.08563 0.056146,5.87591 -0.311251,2.00326 -1.525814,3.46023 -3.5126,4.21405 -0.495111,0.18794 -0.978574,0.30836 -1.401233,0.38585 2.447358,2.49258 6.257314,3.63617 8.896079,3.28855 0.37182,-0.04854 0.7119,0.23121 0.75809,0.62609 0.04643,0.39487 -0.21808,0.75475 -0.59053,0.80363 C 9.853705,35.11709 7.788201,34.80609 5.859167,34.04299 4.302911,33.42755 2.113148,32.23236 0.518016,30.03426 0.3589767,29.81532 0.3328718,29.51931 0.4495809,29.27243 c 0.1155044,-0.2438 0.3514127,-0.39752 0.6081251,-0.39752 0.00345,0 0.00659,0 0.01004,0 0.011888,0.0014 1.17159,0.01235 2.371373,-0.45133 1.494809,-0.5778 2.36832,-1.61375 2.596357,-3.07932 C 6.285922,23.73255 6.130578,21.83574 5.966157,19.8272 5.749366,17.181 5.525345,14.44427 6.19331,11.96106 6.973968,9.060401 8.848705,7.043175 11.92483,5.794416 12.31199,5.637384 12.70452,5.503005 13.10076,5.387616 12.55231,4.826423 12.21062,4.040073 12.21062,3.170182 c 0,-1.701204 1.30525,-3.08502385 2.90986,-3.08502385 1.60429,0 2.90977,1.38381985 2.90977,3.08502385 0,0.60837 -0.16779,1.175524 -0.45551,1.653942 2.22607,0.030231 4.35149,0.454063 6.05209,0.930097 3.36103,0.940402 5.76694,2.239319 5.86767,2.294246 0.25004,0.136083 0.39503,0.421107 0.36555,0.717202 z M 15.12578,12.55751 c -1.19103,1.64466 -1.63658,4.31615 -1.22236,7.3299 0.35985,2.61895 1.34164,5.26686 2.74287,7.4527 0.41479,-1.71185 0.64981,-3.77489 0.69841,-6.15932 0.07783,-3.79218 1.84839,-7.14102 5.13785,-9.75197 -3.33999,-1.30599 -5.86951,-0.92473 -7.35677,1.12869 z M 15.12048,1.525864 c -0.85504,0 -1.55096,0.73781 -1.55096,1.644659 0,0.906764 0.69592,1.644234 1.55096,1.644234 0.85527,0 1.55087,-0.73747 1.55087,-1.644234 0,-0.906849 -0.6956,-1.644659 -1.55087,-1.644659 z" /></clipPath><clipPath
       id="clipPath42"
       clipPathUnits="userSpaceOnUse"><path
         id="path40"
         d="M 0,0 H 30 V 35 H 0 Z" /></clipPath></defs><g
     transform="matrix(1.3333333,0,0,-1.3333333,0,46.666667)"
     id="g10"><g
       id="g12" /><g
       id="g14"><g
         clip-path="url(#clipPath20)"
         id="g16"><g
           id="g22" /><g
           id="g64"><g
             id="g62"
             clip-path="url(#clipPath26)"><g
               id="g44" /><g
               id="g52"><g
                 id="g50"
                 clip-path="url(#clipPath30)"><g
                   id="g48"
                   clip-path="url(#clipPath34)"><path
                     id="path46"
                     style="fill:#01748e;fill-opacity:1;fill-rule:nonzero;stroke:none"
                     d="M 7.392643,39.44911 H 18.89913 V 27.94028 H 7.392643 Z" /></g></g></g><g
               id="g60"><g
                 id="g58"
                 clip-path="url(#clipPath38)"><g
                   id="g56"
                   clip-path="url(#clipPath42)"><path
                     id="path54"
                     style="fill:#01748e;fill-opacity:1;fill-rule:nonzero;stroke:none"
                     d="M -4.62264,39.96606 H 34.86383 V -4.914842 H -4.62264 Z" /></g></g></g></g></g></g></g></g></svg>