<?xml version="1.0" encoding="UTF-8" standalone="no"?>
<svg
   xmlns:dc="http://purl.org/dc/elements/1.1/"
   xmlns:cc="http://creativecommons.org/ns#"
   xmlns:rdf="http://www.w3.org/1999/02/22-rdf-syntax-ns#"
   xmlns:svg="http://www.w3.org/2000/svg"
   xmlns="http://www.w3.org/2000/svg"
   viewBox="0 0 32 32"
   height="32"
   width="32"
   xml:space="preserve"
   id="svg2"
   version="1.1"><metadata
     id="metadata8"><rdf:RDF><cc:Work
         rdf:about=""><dc:format>image/svg+xml</dc:format><dc:type
           rdf:resource="http://purl.org/dc/dcmitype/StillImage" /></cc:Work></rdf:RDF></metadata><defs
     id="defs6"><clipPath
       id="clipPath20"
       clipPathUnits="userSpaceOnUse"><path
         style="clip-rule:evenodd"
         id="path18"
         d="M 20.48527,20.48522 C 18.21877,22.75181 15.20536,24 12,24 8.794641,24 5.781234,22.75181 3.514781,20.48522 1.248188,18.21877 0,15.20536 0,12 0,8.794641 1.248188,5.781234 3.514781,3.514734 5.781234,1.248188 8.794641,0 12,0 15.20536,0 18.21877,1.248188 20.48527,3.514734 22.75181,5.781234 24,8.794641 24,12 c 0,3.20536 -1.24819,6.21877 -3.51473,8.48522 z M 12,0.9561562 C 5.910422,0.9561562 0.9561563,5.910375 0.9561563,12 0.9561563,18.08962 5.910422,23.04384 12,23.04384 18.08958,23.04384 23.04384,18.08958 23.04384,12 23.04384,5.910422 18.08958,0.9561562 12,0.9561562 Z" /></clipPath><clipPath
       id="clipPath26"
       clipPathUnits="userSpaceOnUse"><path
         id="path24"
         d="M -348,-645 H 915 V 618 H -348 Z" /></clipPath><clipPath
       id="clipPath36"
       clipPathUnits="userSpaceOnUse"><path
         style="clip-rule:evenodd"
         id="path34"
         d="M 21.56491,10.19766 C 21.28581,10.26367 21.00242,10.10722 20.93153,9.848274 20.64094,8.788791 20.15727,7.791104 19.49406,6.882861 19.33259,6.661717 19.39481,6.360992 19.63294,6.211033 19.72248,6.154692 19.82418,6.12766 19.92486,6.12766 c 0.16692,0 0.33099,0.074363 0.43167,0.21237 0.73109,1.00115 1.26426,2.101228 1.58468,3.269504 0.071,0.258896 -0.09741,0.522246 -0.3763,0.588126 z" /></clipPath><clipPath
       id="clipPath42"
       clipPathUnits="userSpaceOnUse"><path
         id="path40"
         d="M -348,-645 H 915 V 618 H -348 Z" /></clipPath><clipPath
       id="clipPath52"
       clipPathUnits="userSpaceOnUse"><path
         style="clip-rule:evenodd"
         id="path50"
         d="m 21.96235,12.76596 c -0.27927,0 -0.50574,-0.23654 -0.50574,-0.52823 0,-0.15098 -0.0031,-0.30325 -0.0093,-0.45262 -0.0121,-0.29148 0.20435,-0.53796 0.48342,-0.55055 0.0074,-3.6e-4 0.01483,-5.2e-4 0.02222,-5.2e-4 0.26925,0 0.49314,0.22178 0.50489,0.50544 0.0068,0.1645 0.01027,0.3321 0.01027,0.49825 0,0.29169 -0.22647,0.52823 -0.50574,0.52823 z" /></clipPath><clipPath
       id="clipPath58"
       clipPathUnits="userSpaceOnUse"><path
         id="path56"
         d="M -348,-645 H 915 V 618 H -348 Z" /></clipPath><clipPath
       id="clipPath68"
       clipPathUnits="userSpaceOnUse"><path
         style="clip-rule:evenodd"
         id="path66"
         d="m 12,15.82979 c -0.98546,0 -1.78723,-0.75577 -1.78723,-1.68468 V 5.769788 c 0,-0.928918 0.80177,-1.684682 1.78723,-1.684682 0.98546,0 1.78723,0.755764 1.78723,1.684682 v 8.375322 c 0,0.92896 -0.80177,1.68468 -1.78723,1.68468 z M 12.76597,5.769788 c 0,-0.398128 -0.34361,-0.72202 -0.76597,-0.72202 -0.42236,0 -0.76597,0.323892 -0.76597,0.72202 v 8.375322 c 0,0.39812 0.34361,0.72202 0.76597,0.72202 0.42236,0 0.76597,-0.3239 0.76597,-0.72202 z" /></clipPath><clipPath
       id="clipPath74"
       clipPathUnits="userSpaceOnUse"><path
         id="path72"
         d="M -348,-645 H 915 V 618 H -348 Z" /></clipPath><clipPath
       id="clipPath84"
       clipPathUnits="userSpaceOnUse"><path
         style="clip-rule:evenodd"
         id="path82"
         d="M 13.26344,19.392 C 12.93039,19.72434 12.46983,19.91489 12,19.91489 c -0.46988,0 -0.93044,-0.19055 -1.26399,-0.52334 -0.33254,-0.33265 -0.52324,-0.79326 -0.52324,-1.26389 0,-0.46983 0.19055,-0.93039 0.52369,-1.26424 0.33305,-0.33239 0.79361,-0.52299 1.26354,-0.52299 0.46988,0 0.93044,0.1906 1.26424,0.52374 0.33239,0.33305 0.52299,0.79361 0.52299,1.26349 0,0.47063 -0.1907,0.93129 -0.52379,1.26434 z M 12.54207,17.58629 C 12.39898,17.4436 12.20142,17.36169 12,17.36169 c -0.20157,0 -0.39913,0.08191 -0.54137,0.2238 -0.14269,0.14309 -0.2246,0.3407 -0.2246,0.54212 0,0.20187 0.08176,0.39933 0.22375,0.54137 0.14309,0.14269 0.3407,0.2246 0.54222,0.2246 0.20147,0 0.39908,-0.08191 0.54167,-0.2242 0.14254,-0.14254 0.22425,-0.33995 0.22425,-0.54172 5e-5,-0.20152 -0.08186,-0.39908 -0.22385,-0.54137 z" /></clipPath><clipPath
       id="clipPath90"
       clipPathUnits="userSpaceOnUse"><path
         id="path88"
         d="M -348,-645 H 915 V 618 H -348 Z" /></clipPath></defs><g
     transform="matrix(1.3333333,0,0,-1.3333333,0,32)"
     id="g10"><g
       id="g12" /><g
       id="g14"><g
         clip-path="url(#clipPath20)"
         id="g16"><g
           clip-path="url(#clipPath26)"
           id="g22"><path
             id="path28"
             style="fill:#fa9c93;fill-opacity:1;fill-rule:nonzero;stroke:none"
             d="M -5,29 H 29 V -5 H -5 Z" /></g></g></g><g
       id="g30"><g
         clip-path="url(#clipPath36)"
         id="g32"><g
           clip-path="url(#clipPath42)"
           id="g38"><path
             id="path44"
             style="fill:#fa9c93;fill-opacity:1;fill-rule:nonzero;stroke:none"
             d="M 14.40426,15.21277 H 26.95745 V 1.12766 H 14.40426 Z" /></g></g></g><g
       id="g46"><g
         clip-path="url(#clipPath52)"
         id="g48"><g
           clip-path="url(#clipPath58)"
           id="g54"><path
             id="path60"
             style="fill:#fa9c93;fill-opacity:1;fill-rule:nonzero;stroke:none"
             d="M 16.44681,17.76596 H 27.46809 V 6.234043 H 16.44681 Z" /></g></g></g><g
       id="g62"><g
         clip-path="url(#clipPath68)"
         id="g64"><g
           clip-path="url(#clipPath74)"
           id="g70"><path
             id="path76"
             style="fill:#fa9c93;fill-opacity:1;fill-rule:nonzero;stroke:none"
             d="M 5.212766,20.82979 H 18.78723 V -0.9148936 H 5.212766 Z" /></g></g></g><g
       id="g78"><g
         clip-path="url(#clipPath84)"
         id="g80"><g
           clip-path="url(#clipPath90)"
           id="g86"><path
             id="path92"
             style="fill:#fa9c93;fill-opacity:1;fill-rule:nonzero;stroke:none"
             d="M 5.212766,24.91489 H 18.78723 V 11.34043 H 5.212766 Z" /></g></g></g></g></svg>