<?xml version="1.0" encoding="UTF-8" standalone="no"?>
<svg
   xmlns:dc="http://purl.org/dc/elements/1.1/"
   xmlns:cc="http://creativecommons.org/ns#"
   xmlns:rdf="http://www.w3.org/1999/02/22-rdf-syntax-ns#"
   xmlns:svg="http://www.w3.org/2000/svg"
   xmlns="http://www.w3.org/2000/svg"
   viewBox="0 0 32 32"
   height="32"
   width="32"
   xml:space="preserve"
   id="svg2"
   version="1.1"><metadata
     id="metadata8"><rdf:RDF><cc:Work
         rdf:about=""><dc:format>image/svg+xml</dc:format><dc:type
           rdf:resource="http://purl.org/dc/dcmitype/StillImage" /></cc:Work></rdf:RDF></metadata><defs
     id="defs6"><clipPath
       id="clipPath20"
       clipPathUnits="userSpaceOnUse"><path
         style="clip-rule:evenodd"
         id="path18"
         d="m 3.149048,20.73151 h -0.00476 c -0.258911,0 -0.46875,-0.20984 -0.46875,-0.46875 0,-0.25891 0.209839,-0.46875 0.46875,-0.46875 h 0.00476 c 0.258911,0 0.46875,0.20984 0.46875,0.46875 0,0.25891 -0.209839,0.46875 -0.46875,0.46875 z" /></clipPath><clipPath
       id="clipPath26"
       clipPathUnits="userSpaceOnUse"><path
         id="path24"
         d="M -213,-1068 H 1050 V 195 H -213 Z" /></clipPath><clipPath
       id="clipPath36"
       clipPathUnits="userSpaceOnUse"><path
         style="clip-rule:evenodd"
         id="path34"
         d="m 5.470825,20.73151 h -0.00476 c -0.258911,0 -0.46875,-0.20984 -0.46875,-0.46875 0,-0.25891 0.209839,-0.46875 0.46875,-0.46875 h 0.00476 c 0.258911,0 0.46875,0.20984 0.46875,0.46875 0,0.25891 -0.209839,0.46875 -0.46875,0.46875 z" /></clipPath><clipPath
       id="clipPath42"
       clipPathUnits="userSpaceOnUse"><path
         id="path40"
         d="M -213,-1068 H 1050 V 195 H -213 Z" /></clipPath><clipPath
       id="clipPath52"
       clipPathUnits="userSpaceOnUse"><path
         style="clip-rule:evenodd"
         id="path50"
         d="m 7.792603,20.73151 h -0.00476 c -0.258911,0 -0.46875,-0.20984 -0.46875,-0.46875 0,-0.25891 0.209839,-0.46875 0.46875,-0.46875 h 0.00476 c 0.258911,0 0.46875,0.20984 0.46875,0.46875 0,0.25891 -0.209839,0.46875 -0.46875,0.46875 z" /></clipPath><clipPath
       id="clipPath58"
       clipPathUnits="userSpaceOnUse"><path
         id="path56"
         d="M -213,-1068 H 1050 V 195 H -213 Z" /></clipPath><clipPath
       id="clipPath68"
       clipPathUnits="userSpaceOnUse"><path
         style="clip-rule:evenodd"
         id="path66"
         d="m 20.82697,20.73151 h -9.04358 c -0.25891,0 -0.46875,-0.20984 -0.46875,-0.46875 0,-0.25873 0.20984,-0.46875 0.46875,-0.46875 h 9.04358 c 0.25891,0 0.46875,0.21002 0.46875,0.46875 0,0.25891 -0.20984,0.46875 -0.46875,0.46875 z" /></clipPath><clipPath
       id="clipPath74"
       clipPathUnits="userSpaceOnUse"><path
         id="path72"
         d="M -213,-1068 H 1050 V 195 H -213 Z" /></clipPath><clipPath
       id="clipPath84"
       clipPathUnits="userSpaceOnUse"><path
         style="clip-rule:evenodd"
         id="path82"
         d="m 12.323,1.791992 c -0.12323,0 -0.24372,-0.050171 -0.33142,-0.137329 -0.08716,-0.087158 -0.13733,-0.208191 -0.13733,-0.331421 0,-0.12323 0.05017,-0.244263 0.13733,-0.3314207 0.0877,-0.0871582 0.20819,-0.1373291 0.33142,-0.1373291 0.12323,0 0.24426,0.0501709 0.33142,0.1373291 0.08752,0.0871577 0.13733,0.2081907 0.13733,0.3314207 0,0.12323 -0.04981,0.244263 -0.13733,0.331421 -0.08716,0.087158 -0.20819,0.137329 -0.33142,0.137329 z" /></clipPath><clipPath
       id="clipPath90"
       clipPathUnits="userSpaceOnUse"><path
         id="path88"
         d="M -213,-1068 H 1050 V 195 H -213 Z" /></clipPath><clipPath
       id="clipPath100"
       clipPathUnits="userSpaceOnUse"><path
         style="clip-rule:evenodd"
         id="path98"
         d="M 22.5108,22.97656 H 1.489197 C 0.6681518,22.97656 0,22.30841 0,21.48737 V 2.343689 C 0,1.522461 0.6681518,0.8544922 1.489197,0.8544922 h 8.870183 c 0.25891,0 0.46874,0.2098388 0.46874,0.4687498 0,0.258911 -0.20983,0.46875 -0.46874,0.46875 H 1.489197 C 1.185059,1.791992 0.9375,2.039368 0.9375,2.343689 V 17.54895 h 22.125 V 2.343689 c 0,-0.304138 -0.24756,-0.551697 -0.5517,-0.551697 h -8.27636 c -0.25892,0 -0.46875,-0.209839 -0.46875,-0.46875 0,-0.258911 0.20983,-0.4687498 0.46875,-0.4687498 H 22.5108 C 23.33185,0.8544922 24,1.522461 24,2.343689 V 21.48737 c 0,0.82104 -0.66815,1.48919 -1.4892,1.48919 z M 0.9375,18.48663 v 3.00074 c 0,0.30413 0.247559,0.55169 0.551697,0.55169 H 22.5108 c 0.30414,0 0.5517,-0.24756 0.5517,-0.55169 V 18.48645 H 0.9375 Z" /></clipPath><clipPath
       id="clipPath106"
       clipPathUnits="userSpaceOnUse"><path
         id="path104"
         d="M -213,-1068 H 1050 V 195 H -213 Z" /></clipPath><clipPath
       id="clipPath116"
       clipPathUnits="userSpaceOnUse"><path
         style="clip-rule:evenodd"
         id="path114"
         d="m 8.345581,12.19531 c 0,0.93054 -0.756958,1.6875 -1.6875,1.6875 H 5.079895 c -0.258911,0 -0.46875,-0.20984 -0.46875,-0.46875 V 8.539062 c 0,-0.258911 0.209839,-0.46875 0.46875,-0.46875 h 1.578186 c 0.930542,0 1.6875,0.756959 1.6875,1.6875 0,0.478818 -0.200684,0.911318 -0.522217,1.218748 0.321533,0.30744 0.522217,0.73993 0.522217,1.21875 z m -0.9375,-2.437498 c 0,-0.413452 -0.336548,-0.75 -0.75,-0.75 H 5.548645 v 1.499998 h 1.109436 c 0.413452,0 0.75,-0.33636 0.75,-0.749998 z M 5.548645,11.44531 v 1.5 h 1.109436 c 0.413635,0 0.75,-0.33655 0.75,-0.75 0,-0.41345 -0.336365,-0.75 -0.75,-0.75 z" /></clipPath><clipPath
       id="clipPath122"
       clipPathUnits="userSpaceOnUse"><path
         id="path120"
         d="M -213,-1068 H 1050 V 195 H -213 Z" /></clipPath><clipPath
       id="clipPath132"
       clipPathUnits="userSpaceOnUse"><path
         style="clip-rule:evenodd"
         id="path130"
         d="m 9.686646,13.88281 c -0.258912,0 -0.46875,-0.20984 -0.46875,-0.46875 V 9.62323 c 0,-0.856384 0.696716,-1.552918 1.552914,-1.552918 0.25891,0 0.46875,0.209839 0.46875,0.46875 0,0.258912 -0.20984,0.46875 -0.46875,0.46875 -0.33929,0 -0.61541,0.276124 -0.61541,0.615418 v 3.79083 c 0,0.25891 -0.209843,0.46875 -0.468754,0.46875 z" /></clipPath><clipPath
       id="clipPath138"
       clipPathUnits="userSpaceOnUse"><path
         id="path136"
         d="M -213,-1068 H 1050 V 195 H -213 Z" /></clipPath><clipPath
       id="clipPath148"
       clipPathUnits="userSpaceOnUse"><path
         style="clip-rule:evenodd"
         id="path146"
         d="m 15.22815,9.7677 c 0,0.93604 -0.76135,1.69757 -1.69739,1.69757 -0.93603,0 -1.69739,-0.76153 -1.69739,-1.69757 0,-0.936035 0.76154,-1.697388 1.69739,-1.697388 0.93604,0 1.69739,0.761353 1.69739,1.697388 z m -2.45728,0 c 0,0.41913 0.34095,0.76007 0.75989,0.76007 0.41895,0 0.75989,-0.34094 0.75989,-0.76007 0,-0.418945 -0.34076,-0.759888 -0.75989,-0.759888 -0.41913,0 -0.75989,0.340943 -0.75989,0.759888 z" /></clipPath><clipPath
       id="clipPath154"
       clipPathUnits="userSpaceOnUse"><path
         id="path152"
         d="M -213,-1068 H 1050 V 195 H -213 Z" /></clipPath><clipPath
       id="clipPath164"
       clipPathUnits="userSpaceOnUse"><path
         style="clip-rule:evenodd"
         id="path162"
         d="m 17.69128,6.757812 c -0.41894,0 -0.75988,0.340943 -0.75988,0.759888 0,0.258911 -0.20984,0.46875 -0.46875,0.46875 -0.25891,0 -0.46875,-0.209839 -0.46875,-0.46875 0,-0.936035 0.76153,-1.697388 1.69738,-1.697388 0.93604,0 1.69757,0.761353 1.69757,1.697388 v 2.25 c 0,0.93604 -0.76153,1.69757 -1.69757,1.69757 -0.93585,0 -1.69738,-0.76153 -1.69738,-1.69757 0,-0.936035 0.76153,-1.697388 1.69738,-1.697388 0.2732,0 0.53119,0.065186 0.76007,0.180359 V 7.5177 c 0,-0.418945 -0.34094,-0.759888 -0.76007,-0.759888 z m 0,2.25 c -0.41894,0 -0.75988,0.340943 -0.75988,0.759888 0,0.41913 0.34094,0.76007 0.75988,0.76007 0.41913,0 0.76007,-0.34094 0.76007,-0.76007 0,-0.418945 -0.34094,-0.759888 -0.76007,-0.759888 z" /></clipPath><clipPath
       id="clipPath170"
       clipPathUnits="userSpaceOnUse"><path
         id="path168"
         d="M -213,-1068 H 1050 V 195 H -213 Z" /></clipPath><clipPath
       id="clipPath180"
       clipPathUnits="userSpaceOnUse"><path
         style="clip-rule:evenodd"
         id="path178"
         d="M 5.079895,3.476562 H 18.9201 c 0.25892,0 0.46875,0.209839 0.46875,0.46875 0,0.258912 -0.20983,0.46875 -0.46875,0.46875 H 5.079895 c -0.258728,0 -0.46875,-0.209838 -0.46875,-0.46875 0,-0.258911 0.210022,-0.46875 0.46875,-0.46875 z" /></clipPath><clipPath
       id="clipPath186"
       clipPathUnits="userSpaceOnUse"><path
         id="path184"
         d="M -213,-1068 H 1050 V 195 H -213 Z" /></clipPath></defs><g
     transform="matrix(1.3333333,0,0,-1.3333333,0,32)"
     id="g10"><g
       id="g12" /><g
       id="g14"><g
         clip-path="url(#clipPath20)"
         id="g16"><g
           clip-path="url(#clipPath26)"
           id="g22"><path
             id="path28"
             style="fill:#01748e;fill-opacity:1;fill-rule:nonzero;stroke:none"
             d="M -2.324463,25.73151 H 8.617798 V 14.79401 H -2.324463 Z" /></g></g></g><g
       id="g30"><g
         clip-path="url(#clipPath36)"
         id="g32"><g
           clip-path="url(#clipPath42)"
           id="g38"><path
             id="path44"
             style="fill:#01748e;fill-opacity:1;fill-rule:nonzero;stroke:none"
             d="M -0.00268555,25.73151 H 10.93958 V 14.79401 H -0.00268555 Z" /></g></g></g><g
       id="g46"><g
         clip-path="url(#clipPath52)"
         id="g48"><g
           clip-path="url(#clipPath58)"
           id="g54"><path
             id="path60"
             style="fill:#01748e;fill-opacity:1;fill-rule:nonzero;stroke:none"
             d="M 2.319092,25.73151 H 13.26135 V 14.79401 H 2.319092 Z" /></g></g></g><g
       id="g62"><g
         clip-path="url(#clipPath68)"
         id="g64"><g
           clip-path="url(#clipPath74)"
           id="g70"><path
             id="path76"
             style="fill:#01748e;fill-opacity:1;fill-rule:nonzero;stroke:none"
             d="M 6.314636,25.73151 H 26.29572 V 14.79401 H 6.314636 Z" /></g></g></g><g
       id="g78"><g
         clip-path="url(#clipPath84)"
         id="g80"><g
           clip-path="url(#clipPath90)"
           id="g86"><path
             id="path92"
             style="fill:#01748e;fill-opacity:1;fill-rule:nonzero;stroke:none"
             d="M 6.854248,6.791992 H 17.79175 v -10.9375 H 6.854248 Z" /></g></g></g><g
       id="g94"><g
         clip-path="url(#clipPath100)"
         id="g96"><g
           clip-path="url(#clipPath106)"
           id="g102"><path
             id="path108"
             style="fill:#01748e;fill-opacity:1;fill-rule:nonzero;stroke:none"
             d="M -5,27.97656 H 29 V -4.145508 H -5 Z" /></g></g></g><g
       id="g110"><g
         clip-path="url(#clipPath116)"
         id="g112"><g
           clip-path="url(#clipPath122)"
           id="g118"><path
             id="path124"
             style="fill:#01748e;fill-opacity:1;fill-rule:nonzero;stroke:none"
             d="M -0.388855,18.88281 H 13.34558 V 3.070312 H -0.388855 Z" /></g></g></g><g
       id="g126"><g
         clip-path="url(#clipPath132)"
         id="g128"><g
           clip-path="url(#clipPath138)"
           id="g134"><path
             id="path140"
             style="fill:#01748e;fill-opacity:1;fill-rule:nonzero;stroke:none"
             d="M 4.217896,18.88281 H 16.23956 V 3.070312 H 4.217896 Z" /></g></g></g><g
       id="g142"><g
         clip-path="url(#clipPath148)"
         id="g144"><g
           clip-path="url(#clipPath154)"
           id="g150"><path
             id="path156"
             style="fill:#01748e;fill-opacity:1;fill-rule:nonzero;stroke:none"
             d="M 6.833374,16.46527 H 20.22815 V 3.070312 H 6.833374 Z" /></g></g></g><g
       id="g158"><g
         clip-path="url(#clipPath164)"
         id="g160"><g
           clip-path="url(#clipPath170)"
           id="g166"><path
             id="path172"
             style="fill:#01748e;fill-opacity:1;fill-rule:nonzero;stroke:none"
             d="M 10.9939,16.46527 H 24.38885 V 0.8203125 H 10.9939 Z" /></g></g></g><g
       id="g174"><g
         clip-path="url(#clipPath180)"
         id="g176"><g
           clip-path="url(#clipPath186)"
           id="g182"><path
             id="path188"
             style="fill:#01748e;fill-opacity:1;fill-rule:nonzero;stroke:none"
             d="M -0.388855,9.414062 H 24.38885 v -10.9375 H -0.388855 Z" /></g></g></g></g></svg>