<?xml version="1.0" encoding="UTF-8" standalone="no"?>
<svg
   xmlns:dc="http://purl.org/dc/elements/1.1/"
   xmlns:cc="http://creativecommons.org/ns#"
   xmlns:rdf="http://www.w3.org/1999/02/22-rdf-syntax-ns#"
   xmlns:svg="http://www.w3.org/2000/svg"
   xmlns="http://www.w3.org/2000/svg"
   viewBox="0 0 33.333332 29.333332"
   height="29.333332"
   width="33.333332"
   xml:space="preserve"
   id="svg2"
   version="1.1"><metadata
     id="metadata8"><rdf:RDF><cc:Work
         rdf:about=""><dc:format>image/svg+xml</dc:format><dc:type
           rdf:resource="http://purl.org/dc/dcmitype/StillImage" /></cc:Work></rdf:RDF></metadata><defs
     id="defs6"><clipPath
       id="clipPath20"
       clipPathUnits="userSpaceOnUse"><path
         style="clip-rule:evenodd"
         id="path18"
         d="m 10.02666,19.01895 c 3.86599,0 7,-3.13401 7,-7 0,-1.42747 -0.42728,-2.755145 -1.16092,-3.862103 0.03989,-0.029589 0.07867,-0.063363 0.11583,-0.099799 0.0061,-0.00602 0.01223,-0.012111 0.01825,-0.018256 l 4.526,-4.616035 c 0.51991,-0.530245 0.51991,-1.379027 0,-1.909273 C 20.01896,0.9965362 19.18899,0.9883624 18.67205,1.495227 l -0.01826,0.018257 v 0 l -4.526,4.616034 c -0.0423,0.043139 -0.08115,0.088386 -0.11657,0.135398 -1.12869,-0.785605 -2.50286,-1.245967 -3.98456,-1.245967 -3.865998,0 -7.000005,3.134007 -7.000005,7.000001 0,3.86599 3.134007,7 7.000005,7 z m 0.5,-1 c -3.037571,0 -5.500005,-2.46244 -5.500005,-5.5 0,-3.037567 2.462434,-5.500001 5.500005,-5.500001 3.03756,0 5.5,2.462434 5.5,5.500001 0,3.03756 -2.46244,5.5 -5.5,5.5 z" /></clipPath><clipPath
       id="clipPath26"
       clipPathUnits="userSpaceOnUse"><path
         id="path24"
         d="M -312,-1288 H 63 V 68 h -375 z" /></clipPath><clipPath
       id="clipPath32"
       clipPathUnits="userSpaceOnUse"><path
         id="path30"
         d="M -2,-4 H 26 V 25 H -2 Z" /></clipPath><clipPath
       id="clipPath36"
       clipPathUnits="userSpaceOnUse"><path
         id="path34"
         d="M 3,0 H 22 V 20 H 3 Z" /></clipPath></defs><g
     transform="matrix(1.3333333,0,0,-1.3333333,0,29.333333)"
     id="g10"><g
       id="g12" /><g
       id="g14"><g
         clip-path="url(#clipPath20)"
         id="g16"><g
           clip-path="url(#clipPath26)"
           id="g22"><g
             id="g28" /><g
             id="g48"><g
               id="g46"
               clip-path="url(#clipPath32)"><g
                 id="g38" /><g
                 id="g44"><g
                   id="g42"
                   clip-path="url(#clipPath36)"><path
                     id="path40"
                     style="fill:#fa9c93;fill-opacity:1;fill-rule:nonzero;stroke:none"
                     d="M -1.973345,24.01895 H 25.91575 V -3.879638 H -1.973345 Z" /></g></g></g></g></g></g></g></g></svg>