<?xml version="1.0" encoding="UTF-8" standalone="no"?>
<svg
   xmlns:dc="http://purl.org/dc/elements/1.1/"
   xmlns:cc="http://creativecommons.org/ns#"
   xmlns:rdf="http://www.w3.org/1999/02/22-rdf-syntax-ns#"
   xmlns:svg="http://www.w3.org/2000/svg"
   xmlns="http://www.w3.org/2000/svg"
   viewBox="0 0 32 32"
   height="32"
   width="32"
   xml:space="preserve"
   id="svg2"
   version="1.1"><metadata
     id="metadata8"><rdf:RDF><cc:Work
         rdf:about=""><dc:format>image/svg+xml</dc:format><dc:type
           rdf:resource="http://purl.org/dc/dcmitype/StillImage" /></cc:Work></rdf:RDF></metadata><defs
     id="defs6"><clipPath
       id="clipPath20"
       clipPathUnits="userSpaceOnUse"><path
         style="clip-rule:evenodd"
         id="path18"
         d="M 17.92255,21.94468 C 16.24112,23.26992 14.10088,24 11.89586,24 c -3e-4,0 0,0 -3e-4,0 C 9.690691,24 7.5503,23.26992 5.869021,21.94468 4.302978,20.71011 3.09697,18.89502 2.473083,16.83384 1.856512,14.79683 1.842184,12.64365 2.432689,10.77114 3.774663,6.515771 7.733213,3.11499 11.33828,0.2614746 c 0.44052,-0.3486328 0.67465,-0.3486328 1.11516,0 C 14.3594,1.771143 16.51976,3.48208 18.26994,5.471045 18.68012,5.937451 17.9253,6.551953 17.51435,6.085107 15.84313,4.18623 13.75167,2.522314 11.89586,1.052344 8.422034,3.805664 4.632984,7.072998 3.379876,11.04697 c -0.535632,1.69834 -0.520237,3.65918 0.043594,5.52129 0.568555,1.87866 1.660091,3.52705 3.073096,4.64107 1.50492,1.18637 3.422461,1.83969 5.399294,1.83969 1.97669,-2.9e-4 3.89408,-0.65361 5.399,-1.83969 1.46224,-1.15298 2.56642,-2.8878 3.10846,-4.88467 0.53349,-1.96538 0.48533,-4.01397 -0.13582,-5.769 -0.16904,-0.47783 -0.37909,-0.959469 -0.62434,-1.431295 -0.28397,-0.54624 0.60087,-0.97207 0.88545,-0.424951 0.26492,0.510059 0.4925,1.031543 0.67602,1.549956 1.43693,4.05966 0.02591,9.0873 -3.28208,11.69531 z" /></clipPath><clipPath
       id="clipPath26"
       clipPathUnits="userSpaceOnUse"><path
         id="path24"
         d="M -620,-1156 H 643 V 107 H -620 Z" /></clipPath><clipPath
       id="clipPath36"
       clipPathUnits="userSpaceOnUse"><path
         style="clip-rule:evenodd"
         id="path34"
         d="m 19.64738,8.470588 c -0.38378,0 -0.7062,-0.322279 -0.7062,-0.705882 0,-0.383603 0.32242,-0.705882 0.7062,-0.705882 0.3729,0 0.68836,0.303577 0.7049,0.67522 0.0174,0.394911 -0.30872,0.736544 -0.7049,0.736544 z" /></clipPath><clipPath
       id="clipPath42"
       clipPathUnits="userSpaceOnUse"><path
         id="path40"
         d="M -620,-1156 H 643 V 107 H -620 Z" /></clipPath><clipPath
       id="clipPath52"
       clipPathUnits="userSpaceOnUse"><path
         style="clip-rule:evenodd"
         id="path50"
         d="m 11.88235,21.17647 c -3.892266,0 -7.058821,-2.84987 -7.058821,-6.35287 0,-0.56991 0.084497,-1.13639 0.251099,-1.6832 0.837634,-2.74957 3.636866,-4.669812 6.807722,-4.669812 1.52589,0 2.97827,0.431311 4.20061,1.247014 1.19762,0.799488 2.07017,1.894558 2.52262,3.166538 0.22288,0.62573 0.3356,1.27843 0.3356,1.93946 0,3.503 -3.1664,6.35287 -7.05883,6.35287 z M 5.874796,15.21832 c 0.225272,2.80582 2.83351,5.02666 6.007554,5.02666 3.17405,0 5.78229,-2.22084 6.00772,-5.02666 h -1.44282 c -0.20248,0.43074 -0.67677,0.73363 -1.22823,0.73363 h -0.53696 v 0.54338 c 0,0.2574 -0.23164,0.46603 -0.51766,0.46603 H 8.94378 c -0.285854,0 -0.517661,-0.20863 -0.517661,-0.46603 v -1.27887 l -2.551323,0.0019 z m 7.772264,-0.50047 c 0,-2.42802 -4.185777,-2.42831 -4.185777,0 v 1.31173 h 4.185777 z m 1.035,0.30247 h 0.53712 c 0.3721,0 0.38916,-0.53548 0,-0.53548 H 14.67059 Z M 8.46183,14.29271 c 0.228141,-1.35118 1.527956,-2.39 3.09226,-2.39 1.26347,0 2.35347,0.67796 2.84658,1.65049 h 0.81851 c 0.5513,0 1.02559,0.30304 1.22807,0.73363 h 1.42863 C 17.83427,13.9066 17.74929,13.53196 17.62,13.16838 17.23371,12.08307 16.48902,11.14842 15.46629,10.46587 14.42379,9.770117 13.18456,9.402226 11.88235,9.402226 c -2.705805,0 -5.09483,1.638434 -5.809545,3.984394 -0.089598,0.29457 -0.151297,0.59559 -0.184776,0.90021 l 2.573801,0.0059 z" /></clipPath><clipPath
       id="clipPath58"
       clipPathUnits="userSpaceOnUse"><path
         id="path56"
         d="M -620,-1156 H 643 V 107 H -620 Z" /></clipPath><clipPath
       id="clipPath68"
       clipPathUnits="userSpaceOnUse"><path
         style="clip-rule:evenodd"
         id="path66"
         d="m 10.69888,17.4192 c -0.22317,-0.21423 0.08194,-0.48753 0.53517,-0.47777 0.64088,0.01391 0.76343,0.49947 0.55512,0.75324 -0.03988,0.04882 -0.14177,0.10001 -0.13071,0.15752 0.02448,0.12526 0.15682,0.1867 0.04424,0.31857 -0.18456,0.21581 -0.73859,0.24589 -1.00255,0.058 -0.24076,-0.17093 -0.30439,-0.44256 -0.13217,-0.63824 0.03536,-0.03985 0.1793,-0.12487 0.1309,-0.17132 z" /></clipPath><clipPath
       id="clipPath74"
       clipPathUnits="userSpaceOnUse"><path
         id="path72"
         d="M -620,-1156 H 643 V 107 H -620 Z" /></clipPath><clipPath
       id="clipPath84"
       clipPathUnits="userSpaceOnUse"><path
         style="clip-rule:evenodd"
         id="path82"
         d="m 12.10716,17.41911 c -0.22469,-0.21423 0.08239,-0.48754 0.53907,-0.47767 0.6317,0.01361 0.75263,0.48822 0.57105,0.73983 -0.05444,0.07585 -0.14724,0.13444 -0.11746,0.21926 0.0358,0.10248 0.1138,0.15979 0.01863,0.27025 -0.18578,0.21591 -0.74422,0.24579 -1.01019,0.0579 -0.23566,-0.16629 -0.29411,-0.43299 -0.14139,-0.62937 0.03269,-0.04182 0.19126,-0.13157 0.14029,-0.1802 z" /></clipPath><clipPath
       id="clipPath90"
       clipPathUnits="userSpaceOnUse"><path
         id="path88"
         d="M -620,-1156 H 643 V 107 H -620 Z" /></clipPath></defs><g
     transform="matrix(1.3333333,0,0,-1.3333333,0,32)"
     id="g10"><g
       id="g12" /><g
       id="g14"><g
         clip-path="url(#clipPath20)"
         id="g16"><g
           clip-path="url(#clipPath26)"
           id="g22"><path
             id="path28"
             style="fill:#01748e;fill-opacity:1;fill-rule:nonzero;stroke:none"
             d="M -3,29 H 26.76471 V -5 H -3 Z" /></g></g></g><g
       id="g30"><g
         clip-path="url(#clipPath36)"
         id="g32"><g
           clip-path="url(#clipPath42)"
           id="g38"><path
             id="path44"
             style="fill:#01748e;fill-opacity:1;fill-rule:nonzero;stroke:none"
             d="M 13.94118,13.47059 H 25.35294 V 2.058824 H 13.94118 Z" /></g></g></g><g
       id="g46"><g
         clip-path="url(#clipPath52)"
         id="g48"><g
           clip-path="url(#clipPath58)"
           id="g54"><path
             id="path60"
             style="fill:#01748e;fill-opacity:1;fill-rule:nonzero;stroke:none"
             d="M -0.1764706,26.17647 H 23.94118 V 3.470588 H -0.1764706 Z" /></g></g></g><g
       id="g62"><g
         clip-path="url(#clipPath68)"
         id="g64"><g
           clip-path="url(#clipPath74)"
           id="g70"><path
             id="path76"
             style="fill:#01748e;fill-opacity:1;fill-rule:nonzero;stroke:none"
             d="M 5.470588,23.35294 H 16.88235 V 11.94118 H 5.470588 Z" /></g></g></g><g
       id="g78"><g
         clip-path="url(#clipPath84)"
         id="g80"><g
           clip-path="url(#clipPath90)"
           id="g86"><path
             id="path92"
             style="fill:#01748e;fill-opacity:1;fill-rule:nonzero;stroke:none"
             d="M 6.882353,23.35294 H 18.29412 V 11.94118 H 6.882353 Z" /></g></g></g></g></svg>