<?xml version="1.0" encoding="UTF-8" standalone="no"?>
<svg
   xmlns:dc="http://purl.org/dc/elements/1.1/"
   xmlns:cc="http://creativecommons.org/ns#"
   xmlns:rdf="http://www.w3.org/1999/02/22-rdf-syntax-ns#"
   xmlns:svg="http://www.w3.org/2000/svg"
   xmlns="http://www.w3.org/2000/svg"
   viewBox="0 0 32 32"
   height="32"
   width="32"
   xml:space="preserve"
   id="svg2"
   version="1.1"><metadata
     id="metadata8"><rdf:RDF><cc:Work
         rdf:about=""><dc:format>image/svg+xml</dc:format><dc:type
           rdf:resource="http://purl.org/dc/dcmitype/StillImage" /></cc:Work></rdf:RDF></metadata><defs
     id="defs6"><clipPath
       id="clipPath20"
       clipPathUnits="userSpaceOnUse"><path
         style="clip-rule:evenodd"
         id="path18"
         d="m 19.57692,7.192308 c 0.97557,0 1.76923,0.793668 1.76923,1.76923 0,0.975563 -0.79366,1.769232 -1.76923,1.769232 -0.97556,0 -1.76923,-0.793669 -1.76923,-1.769232 0,-0.975562 0.79367,-1.76923 1.76923,-1.76923 z m 0,2.69597 c 0.51102,0 0.92674,-0.415727 0.92674,-0.92674 0,-0.511012 -0.41572,-0.926739 -0.92674,-0.926739 -0.51101,0 -0.92674,0.415727 -0.92674,0.926739 0,0.511013 0.41573,0.92674 0.92674,0.92674 z" /></clipPath><clipPath
       id="clipPath26"
       clipPathUnits="userSpaceOnUse"><path
         id="path24"
         d="M -222,-645 H 1041 V 618 H -222 Z" /></clipPath><clipPath
       id="clipPath36"
       clipPathUnits="userSpaceOnUse"><path
         style="clip-rule:evenodd"
         id="path34"
         d="m 22.10113,17.05267 c 0.08227,0.08227 0.12964,0.19639 0.12964,0.31271 0,0.11633 -0.04733,0.23045 -0.12964,0.31272 -0.08223,0.08227 -0.19634,0.12959 -0.31267,0.12959 -0.11633,0 -0.23044,-0.04732 -0.31271,-0.12959 -0.08227,-0.08227 -0.1296,-0.19639 -0.1296,-0.31272 0,-0.11632 0.04729,-0.23044 0.1296,-0.31271 0.08231,-0.08227 0.19638,-0.12959 0.31271,-0.12959 0.11633,0 0.23044,0.04732 0.31267,0.12959 z" /></clipPath><clipPath
       id="clipPath42"
       clipPathUnits="userSpaceOnUse"><path
         id="path40"
         d="M -222,-645 H 1041 V 618 H -222 Z" /></clipPath><clipPath
       id="clipPath52"
       clipPathUnits="userSpaceOnUse"><path
         style="clip-rule:evenodd"
         id="path50"
         d="m 22.65234,22.13401 h -1.53875 v 0.2799 C 21.11359,23.2885 20.42844,24 19.58625,24 18.74405,24 18.0589,23.2885 18.0589,22.41391 v -0.2799 h -4.03726 v 0.2799 C 14.02164,23.2885 13.33649,24 12.49429,24 11.6521,24 10.96695,23.2885 10.96695,22.41391 v -0.2799 H 6.929687 v 0.2799 C 6.929687,23.2885 6.244539,24 5.402344,24 4.560148,24 3.875,23.2885 3.875,22.41391 v -0.2799 H 2.347656 C 1.604559,22.13401 1,21.5062 1,20.73453 V 1.514874 C 1,0.7431955 1.604559,0.1153846 2.347656,0.1153846 h 5.959651 c 0.248058,0 0.449218,0.2088505 0.449218,0.4664964 0,0.257646 -0.20116,0.466496 -0.449218,0.466496 H 2.347656 c -0.247699,0 -0.449219,0.209271 -0.449219,0.466497 V 16.53606 H 19.90088 c 0.24806,0 0.44922,0.20885 0.44922,0.46649 0,0.25765 -0.20116,0.4665 -0.44922,0.4665 H 1.898437 v 3.26548 c 0,0.25722 0.20152,0.46649 0.449219,0.46649 H 3.875 v -0.34987 c 0,-0.87459 0.685148,-1.58609 1.527344,-1.58609 0.842195,0 1.527343,0.7115 1.527343,1.58609 v 0.34987 h 4.037263 v -0.34987 c 0,-0.87459 0.68515,-1.58609 1.52734,-1.58609 0.8422,0 1.52735,0.7115 1.52735,1.58609 v 0.34987 h 4.03726 v -0.34987 c 0,-0.87459 0.68515,-1.58609 1.52735,-1.58609 0.84219,0 1.52734,0.7115 1.52734,1.58609 v 0.34987 h 1.53875 c 0.2477,0 0.44922,-0.20927 0.44922,-0.46649 V 1.514874 c 0,-0.257226 -0.20152,-0.466497 -0.44922,-0.466497 H 11.90106 c -0.24806,0 -0.44922,-0.20885 -0.44922,-0.466496 0,-0.2576459 0.20116,-0.4664964 0.44922,-0.4664964 H 22.65234 C 23.39544,0.1153846 24,0.7431955 24,1.514874 V 20.73453 c 0,0.77167 -0.60456,1.39948 -1.34766,1.39948 z M 6.03125,20.85115 c 0,-0.36014 -0.282109,-0.6531 -0.628906,-0.6531 -0.346797,0 -0.628907,0.29296 -0.628907,0.6531 v 1.56276 c 0,0.36014 0.28211,0.6531 0.628907,0.6531 0.346797,0 0.628906,-0.29296 0.628906,-0.6531 z m 7.09195,0 c 0,-0.36014 -0.28211,-0.6531 -0.62891,-0.6531 -0.34679,0 -0.6289,0.29296 -0.6289,0.6531 v 1.56276 c 0,0.36014 0.28211,0.6531 0.6289,0.6531 0.3468,0 0.62891,-0.29296 0.62891,-0.6531 z m 7.09195,0 c 0,-0.36014 -0.28211,-0.6531 -0.6289,-0.6531 -0.3468,0 -0.62891,0.29296 -0.62891,0.6531 v 1.56276 c 0,0.36014 0.28211,0.6531 0.62891,0.6531 0.34679,0 0.6289,-0.29296 0.6289,-0.6531 z" /></clipPath><clipPath
       id="clipPath58"
       clipPathUnits="userSpaceOnUse"><path
         id="path56"
         d="M -222,-645 H 1041 V 618 H -222 Z" /></clipPath><clipPath
       id="clipPath68"
       clipPathUnits="userSpaceOnUse"><path
         style="clip-rule:evenodd"
         id="path66"
         d="m 5.423077,15.15385 c -0.975562,0 -1.769231,-0.79367 -1.769231,-1.76923 0,-0.97557 0.793669,-1.76924 1.769231,-1.76924 0.975562,0 1.769231,0.79367 1.769231,1.76924 0,0.97556 -0.793669,1.76923 -1.769231,1.76923 z m 0,-2.69597 c -0.511013,0 -0.92674,0.41572 -0.92674,0.92674 0,0.51101 0.415727,0.92674 0.92674,0.92674 0.511013,0 0.92674,-0.41573 0.92674,-0.92674 0,-0.51102 -0.415727,-0.92674 -0.92674,-0.92674 z" /></clipPath><clipPath
       id="clipPath74"
       clipPathUnits="userSpaceOnUse"><path
         id="path72"
         d="M -222,-645 H 1041 V 618 H -222 Z" /></clipPath><clipPath
       id="clipPath84"
       clipPathUnits="userSpaceOnUse"><path
         style="clip-rule:evenodd"
         id="path82"
         d="m 19.57692,15.15385 c -0.97556,0 -1.76923,-0.79367 -1.76923,-1.76923 0,-0.97557 0.79367,-1.76924 1.76923,-1.76924 0.97557,0 1.76923,0.79367 1.76923,1.76924 0,0.97556 -0.79366,1.76923 -1.76923,1.76923 z m 0,-2.69597 c -0.51101,0 -0.92674,0.41572 -0.92674,0.92674 0,0.51101 0.41573,0.92674 0.92674,0.92674 0.51102,0 0.92674,-0.41573 0.92674,-0.92674 0,-0.51102 -0.41572,-0.92674 -0.92674,-0.92674 z" /></clipPath><clipPath
       id="clipPath90"
       clipPathUnits="userSpaceOnUse"><path
         id="path88"
         d="M -222,-645 H 1041 V 618 H -222 Z" /></clipPath><clipPath
       id="clipPath100"
       clipPathUnits="userSpaceOnUse"><path
         style="clip-rule:evenodd"
         id="path98"
         d="m 15.15385,11.61538 c 0.97556,0 1.76923,0.79367 1.76923,1.76924 0,0.97556 -0.79367,1.76923 -1.76923,1.76923 -0.97557,0 -1.76923,-0.79367 -1.76923,-1.76923 0,-0.97557 0.79366,-1.76924 1.76923,-1.76924 z m 0,2.69598 c 0.51101,0 0.92674,-0.41573 0.92674,-0.92674 0,-0.51102 -0.41573,-0.92674 -0.92674,-0.92674 -0.51102,0 -0.92674,0.41572 -0.92674,0.92674 0,0.51101 0.41572,0.92674 0.92674,0.92674 z" /></clipPath><clipPath
       id="clipPath106"
       clipPathUnits="userSpaceOnUse"><path
         id="path104"
         d="M -222,-645 H 1041 V 618 H -222 Z" /></clipPath><clipPath
       id="clipPath116"
       clipPathUnits="userSpaceOnUse"><path
         style="clip-rule:evenodd"
         id="path114"
         d="m 9.846154,11.61538 c 0.975566,0 1.769226,0.79367 1.769226,1.76924 0,0.97556 -0.79366,1.76923 -1.769226,1.76923 -0.975562,0 -1.769231,-0.79367 -1.769231,-1.76923 0,-0.97557 0.793669,-1.76924 1.769231,-1.76924 z m 0,2.69598 c 0.511016,0 0.926736,-0.41573 0.926736,-0.92674 0,-0.51102 -0.41572,-0.92674 -0.926736,-0.92674 -0.511013,0 -0.92674,0.41572 -0.92674,0.92674 0,0.51101 0.415727,0.92674 0.92674,0.92674 z" /></clipPath><clipPath
       id="clipPath122"
       clipPathUnits="userSpaceOnUse"><path
         id="path120"
         d="M -222,-645 H 1041 V 618 H -222 Z" /></clipPath><clipPath
       id="clipPath132"
       clipPathUnits="userSpaceOnUse"><path
         style="clip-rule:evenodd"
         id="path130"
         d="m 5.423077,5.423077 c -0.975562,0 -1.769231,-0.793669 -1.769231,-1.769231 0,-0.975562 0.793669,-1.769231 1.769231,-1.769231 0.975562,0 1.769231,0.793669 1.769231,1.769231 0,0.975562 -0.793669,1.769231 -1.769231,1.769231 z m 0,-2.695971 c -0.511013,0 -0.92674,0.415727 -0.92674,0.92674 0,0.511013 0.415727,0.92674 0.92674,0.92674 0.511013,0 0.92674,-0.415727 0.92674,-0.92674 0,-0.511013 -0.415727,-0.92674 -0.92674,-0.92674 z" /></clipPath><clipPath
       id="clipPath138"
       clipPathUnits="userSpaceOnUse"><path
         id="path136"
         d="M -222,-645 H 1041 V 618 H -222 Z" /></clipPath><clipPath
       id="clipPath148"
       clipPathUnits="userSpaceOnUse"><path
         style="clip-rule:evenodd"
         id="path146"
         d="m 19.57692,1.884615 c 0.97557,0 1.76923,0.793669 1.76923,1.769231 0,0.975562 -0.79366,1.769231 -1.76923,1.769231 -0.97556,0 -1.76923,-0.793669 -1.76923,-1.769231 0,-0.975562 0.79367,-1.769231 1.76923,-1.769231 z m 0,2.695971 c 0.51102,0 0.92674,-0.415727 0.92674,-0.92674 0,-0.511013 -0.41572,-0.92674 -0.92674,-0.92674 -0.51101,0 -0.92674,0.415727 -0.92674,0.92674 0,0.511013 0.41573,0.92674 0.92674,0.92674 z" /></clipPath><clipPath
       id="clipPath154"
       clipPathUnits="userSpaceOnUse"><path
         id="path152"
         d="M -222,-645 H 1041 V 618 H -222 Z" /></clipPath><clipPath
       id="clipPath164"
       clipPathUnits="userSpaceOnUse"><path
         style="clip-rule:evenodd"
         id="path162"
         d="m 15.15385,1.884615 c 0.97556,0 1.76923,0.793669 1.76923,1.769231 0,0.975562 -0.79367,1.769231 -1.76923,1.769231 -0.97557,0 -1.76923,-0.793669 -1.76923,-1.769231 0,-0.975562 0.79366,-1.769231 1.76923,-1.769231 z m 0,2.695971 c 0.51101,0 0.92674,-0.415727 0.92674,-0.92674 0,-0.511013 -0.41573,-0.92674 -0.92674,-0.92674 -0.51102,0 -0.92674,0.415727 -0.92674,0.92674 0,0.511013 0.41572,0.92674 0.92674,0.92674 z" /></clipPath><clipPath
       id="clipPath170"
       clipPathUnits="userSpaceOnUse"><path
         id="path168"
         d="M -222,-645 H 1041 V 618 H -222 Z" /></clipPath><clipPath
       id="clipPath180"
       clipPathUnits="userSpaceOnUse"><path
         style="clip-rule:evenodd"
         id="path178"
         d="m 9.846154,5.423077 c -0.975562,0 -1.769231,-0.793669 -1.769231,-1.769231 0,-0.975562 0.793669,-1.769231 1.769231,-1.769231 0.975566,0 1.769226,0.793669 1.769226,1.769231 0,0.975562 -0.79366,1.769231 -1.769226,1.769231 z m 0,-2.695971 c -0.511013,0 -0.92674,0.415727 -0.92674,0.92674 0,0.511013 0.415727,0.92674 0.92674,0.92674 0.511016,0 0.926736,-0.415727 0.926736,-0.92674 0,-0.511013 -0.41572,-0.92674 -0.926736,-0.92674 z" /></clipPath><clipPath
       id="clipPath186"
       clipPathUnits="userSpaceOnUse"><path
         id="path184"
         d="M -222,-645 H 1041 V 618 H -222 Z" /></clipPath><clipPath
       id="clipPath196"
       clipPathUnits="userSpaceOnUse"><path
         style="clip-rule:evenodd"
         id="path194"
         d="m 5.423077,10.73077 c -0.975562,0 -1.769231,-0.793669 -1.769231,-1.769232 0,-0.975562 0.793669,-1.76923 1.769231,-1.76923 0.975562,0 1.769231,0.793668 1.769231,1.76923 0,0.975563 -0.793669,1.769232 -1.769231,1.769232 z m 0,-2.695971 c -0.511013,0 -0.92674,0.415727 -0.92674,0.926739 0,0.511013 0.415727,0.92674 0.92674,0.92674 0.511013,0 0.92674,-0.415727 0.92674,-0.92674 0,-0.511012 -0.415727,-0.926739 -0.92674,-0.926739 z" /></clipPath><clipPath
       id="clipPath202"
       clipPathUnits="userSpaceOnUse"><path
         id="path200"
         d="M -222,-645 H 1041 V 618 H -222 Z" /></clipPath><clipPath
       id="clipPath212"
       clipPathUnits="userSpaceOnUse"><path
         style="clip-rule:evenodd"
         id="path210"
         d="m 15.15385,7.192308 c 0.97556,0 1.76923,0.793668 1.76923,1.76923 0,0.975563 -0.79367,1.769232 -1.76923,1.769232 -0.97557,0 -1.76923,-0.793669 -1.76923,-1.769232 0,-0.975562 0.79366,-1.76923 1.76923,-1.76923 z m 0,2.69597 c 0.51101,0 0.92674,-0.415727 0.92674,-0.92674 0,-0.511012 -0.41573,-0.926739 -0.92674,-0.926739 -0.51102,0 -0.92674,0.415727 -0.92674,0.926739 0,0.511013 0.41572,0.92674 0.92674,0.92674 z" /></clipPath><clipPath
       id="clipPath218"
       clipPathUnits="userSpaceOnUse"><path
         id="path216"
         d="M -222,-645 H 1041 V 618 H -222 Z" /></clipPath><clipPath
       id="clipPath228"
       clipPathUnits="userSpaceOnUse"><path
         style="clip-rule:evenodd"
         id="path226"
         d="m 9.846154,7.192308 c 0.975566,0 1.769226,0.793668 1.769226,1.76923 0,0.975563 -0.79366,1.769232 -1.769226,1.769232 -0.975562,0 -1.769231,-0.793669 -1.769231,-1.769232 0,-0.975562 0.793669,-1.76923 1.769231,-1.76923 z m 0,2.69597 c 0.511016,0 0.926736,-0.415727 0.926736,-0.92674 0,-0.511012 -0.41572,-0.926739 -0.926736,-0.926739 -0.511013,0 -0.92674,0.415727 -0.92674,0.926739 0,0.511013 0.415727,0.92674 0.92674,0.92674 z" /></clipPath><clipPath
       id="clipPath234"
       clipPathUnits="userSpaceOnUse"><path
         id="path232"
         d="M -222,-645 H 1041 V 618 H -222 Z" /></clipPath><clipPath
       id="clipPath244"
       clipPathUnits="userSpaceOnUse"><path
         style="clip-rule:evenodd"
         id="path242"
         d="M 10.28846,1 C 10.17169,1 10.05802,0.9526731 9.97575,0.8704038 9.893038,0.7881346 9.846154,0.6740192 9.846154,0.5576923 c 0,-0.1163269 0.046884,-0.2304423 0.129596,-0.3127115 0.08227,-0.0822693 0.19599,-0.1295962 0.31271,-0.1295962 0.11633,0 0.23044,0.0473269 0.31271,0.1295962 0.08223,0.0822692 0.1296,0.1963846 0.1296,0.3127115 0,0.1163269 -0.04733,0.2304423 -0.1296,0.3127115 C 10.5189,0.9526731 10.40479,1 10.28846,1 Z" /></clipPath><clipPath
       id="clipPath250"
       clipPathUnits="userSpaceOnUse"><path
         id="path248"
         d="M -222,-645 H 1041 V 618 H -222 Z" /></clipPath></defs><g
     transform="matrix(1.3333333,0,0,-1.3333333,0,32)"
     id="g10"><g
       id="g12" /><g
       id="g14"><g
         clip-path="url(#clipPath20)"
         id="g16"><g
           clip-path="url(#clipPath26)"
           id="g22"><path
             id="path28"
             style="fill:#fa9c93;fill-opacity:1;fill-rule:nonzero;stroke:none"
             d="M 12.80769,15.73077 H 26.34615 V 2.192308 H 12.80769 Z" /></g></g></g><g
       id="g30"><g
         clip-path="url(#clipPath36)"
         id="g32"><g
           clip-path="url(#clipPath42)"
           id="g38"><path
             id="path44"
             style="fill:#fa9c93;fill-opacity:1;fill-rule:nonzero;stroke:none"
             d="M 16.34615,22.80769 H 27.23077 V 11.92308 H 16.34615 Z" /></g></g></g><g
       id="g46"><g
         clip-path="url(#clipPath52)"
         id="g48"><g
           clip-path="url(#clipPath58)"
           id="g54"><path
             id="path60"
             style="fill:#fa9c93;fill-opacity:1;fill-rule:nonzero;stroke:none"
             d="M -4,29 H 29 V -4.884615 H -4 Z" /></g></g></g><g
       id="g62"><g
         clip-path="url(#clipPath68)"
         id="g64"><g
           clip-path="url(#clipPath74)"
           id="g70"><path
             id="path76"
             style="fill:#fa9c93;fill-opacity:1;fill-rule:nonzero;stroke:none"
             d="M -1.346154,20.15385 H 12.19231 V 6.615385 H -1.346154 Z" /></g></g></g><g
       id="g78"><g
         clip-path="url(#clipPath84)"
         id="g80"><g
           clip-path="url(#clipPath90)"
           id="g86"><path
             id="path92"
             style="fill:#fa9c93;fill-opacity:1;fill-rule:nonzero;stroke:none"
             d="M 12.80769,20.15385 H 26.34615 V 6.615385 H 12.80769 Z" /></g></g></g><g
       id="g94"><g
         clip-path="url(#clipPath100)"
         id="g96"><g
           clip-path="url(#clipPath106)"
           id="g102"><path
             id="path108"
             style="fill:#fa9c93;fill-opacity:1;fill-rule:nonzero;stroke:none"
             d="M 8.384615,20.15385 H 21.92308 V 6.615385 H 8.384615 Z" /></g></g></g><g
       id="g110"><g
         clip-path="url(#clipPath116)"
         id="g112"><g
           clip-path="url(#clipPath122)"
           id="g118"><path
             id="path124"
             style="fill:#fa9c93;fill-opacity:1;fill-rule:nonzero;stroke:none"
             d="M 3.076923,20.15385 H 16.61538 V 6.615385 H 3.076923 Z" /></g></g></g><g
       id="g126"><g
         clip-path="url(#clipPath132)"
         id="g128"><g
           clip-path="url(#clipPath138)"
           id="g134"><path
             id="path140"
             style="fill:#fa9c93;fill-opacity:1;fill-rule:nonzero;stroke:none"
             d="M -1.346154,10.42308 H 12.19231 V -3.115385 H -1.346154 Z" /></g></g></g><g
       id="g142"><g
         clip-path="url(#clipPath148)"
         id="g144"><g
           clip-path="url(#clipPath154)"
           id="g150"><path
             id="path156"
             style="fill:#fa9c93;fill-opacity:1;fill-rule:nonzero;stroke:none"
             d="M 12.80769,10.42308 H 26.34615 V -3.115385 H 12.80769 Z" /></g></g></g><g
       id="g158"><g
         clip-path="url(#clipPath164)"
         id="g160"><g
           clip-path="url(#clipPath170)"
           id="g166"><path
             id="path172"
             style="fill:#fa9c93;fill-opacity:1;fill-rule:nonzero;stroke:none"
             d="M 8.384615,10.42308 H 21.92308 V -3.115385 H 8.384615 Z" /></g></g></g><g
       id="g174"><g
         clip-path="url(#clipPath180)"
         id="g176"><g
           clip-path="url(#clipPath186)"
           id="g182"><path
             id="path188"
             style="fill:#fa9c93;fill-opacity:1;fill-rule:nonzero;stroke:none"
             d="M 3.076923,10.42308 H 16.61538 V -3.115385 H 3.076923 Z" /></g></g></g><g
       id="g190"><g
         clip-path="url(#clipPath196)"
         id="g192"><g
           clip-path="url(#clipPath202)"
           id="g198"><path
             id="path204"
             style="fill:#fa9c93;fill-opacity:1;fill-rule:nonzero;stroke:none"
             d="M -1.346154,15.73077 H 12.19231 V 2.192308 H -1.346154 Z" /></g></g></g><g
       id="g206"><g
         clip-path="url(#clipPath212)"
         id="g208"><g
           clip-path="url(#clipPath218)"
           id="g214"><path
             id="path220"
             style="fill:#fa9c93;fill-opacity:1;fill-rule:nonzero;stroke:none"
             d="M 8.384615,15.73077 H 21.92308 V 2.192308 H 8.384615 Z" /></g></g></g><g
       id="g222"><g
         clip-path="url(#clipPath228)"
         id="g224"><g
           clip-path="url(#clipPath234)"
           id="g230"><path
             id="path236"
             style="fill:#fa9c93;fill-opacity:1;fill-rule:nonzero;stroke:none"
             d="M 3.076923,15.73077 H 16.61538 V 2.192308 H 3.076923 Z" /></g></g></g><g
       id="g238"><g
         clip-path="url(#clipPath244)"
         id="g240"><g
           clip-path="url(#clipPath250)"
           id="g246"><path
             id="path252"
             style="fill:#fa9c93;fill-opacity:1;fill-rule:nonzero;stroke:none"
             d="M 4.846154,6 H 15.73077 V -4.884615 H 4.846154 Z" /></g></g></g></g></svg>