<?xml version="1.0" encoding="UTF-8" standalone="no"?>
<svg
   xmlns:dc="http://purl.org/dc/elements/1.1/"
   xmlns:cc="http://creativecommons.org/ns#"
   xmlns:rdf="http://www.w3.org/1999/02/22-rdf-syntax-ns#"
   xmlns:svg="http://www.w3.org/2000/svg"
   xmlns="http://www.w3.org/2000/svg"
   viewBox="0 0 29.333332 38.666668"
   height="38.666668"
   width="29.333332"
   xml:space="preserve"
   id="svg2"
   version="1.1"><metadata
     id="metadata8"><rdf:RDF><cc:Work
         rdf:about=""><dc:format>image/svg+xml</dc:format><dc:type
           rdf:resource="http://purl.org/dc/dcmitype/StillImage" /></cc:Work></rdf:RDF></metadata><defs
     id="defs6"><clipPath
       id="clipPath20"
       clipPathUnits="userSpaceOnUse"><path
         style="clip-rule:evenodd"
         id="path18"
         d="m 8,18 c 0.179855,0 0.32546,0.12719 0.32546,0.2843 v 0.63744 C 8.705585,19.01695 9,19.26839 9,19.53869 9,19.63773 8.956302,19.87723 8.551881,19.9608 8.419268,19.98821 8.25426,20 8,20 7.745909,20 7.580901,19.98821 7.448119,19.9608 7.043698,19.87723 7,19.63773 7,19.53869 7,19.26839 7.294415,19.01695 7.67454,18.92174 V 18.2843 C 7.67454,18.12719 7.820314,18 8,18 Z" /></clipPath><clipPath
       id="clipPath26"
       clipPathUnits="userSpaceOnUse"><path
         id="path24"
         d="M -530,-845 H 733 V 418 H -530 Z" /></clipPath><clipPath
       id="clipPath36"
       clipPathUnits="userSpaceOnUse"><path
         style="clip-rule:evenodd"
         id="path34"
         d="m 17.59662,16.85306 c 0.45158,-1.2073 1.01363,-2.70961 0.90372,-4.38797 C 18.41397,11.14799 18.09072,9.777279 17.58998,8.605499 17.50096,8.396984 17.57593,8.145329 17.75759,8.043141 17.80941,8.013945 17.86446,8 17.91855,8 c 0.13534,0 0.26537,0.0865 0.32915,0.235315 0.54059,1.265687 0.88967,2.745335 0.98287,4.166815 0.12357,1.88382 -0.47777,3.49115 -0.96105,4.78277 -0.27637,0.73884 -0.51516,1.37702 -0.53623,1.85484 -0.0224,0.50854 0.35667,1.02645 0.81147,1.10838 0.26384,0.04771 1.16908,0.01394 1.73511,-2.41808 0.0522,-0.2242 0.25284,-0.35733 0.44835,-0.29763 0.19532,0.05992 0.31149,0.29044 0.25929,0.51464 -0.2572,1.10424 -0.62602,1.92631 -1.09657,2.44335 -0.42918,0.47172 -0.94814,0.68045 -1.46007,0.58829 -0.8295,-0.14969 -1.4707,-1.03844 -1.42894,-1.98144 0.02771,-0.62859 0.29042,-1.33105 0.59469,-2.14419 z" /></clipPath><clipPath
       id="clipPath42"
       clipPathUnits="userSpaceOnUse"><path
         id="path40"
         d="M -530,-845 H 733 V 418 H -530 Z" /></clipPath><clipPath
       id="clipPath52"
       clipPathUnits="userSpaceOnUse"><path
         style="clip-rule:evenodd"
         id="path50"
         d="m 22,13.43511 c 0,1.14077 -0.05636,2.18044 -0.16822,3.09023 -0.0285,0.23386 -0.23303,0.39869 -0.4557,0.36882 -0.22311,-0.03009 -0.38056,-0.24404 -0.35207,-0.47768 0.10744,-0.87395 0.16168,-1.87688 0.16147,-2.98115 C 21.18506,11.3206 20.75279,9.420703 19.9007,7.788082 19.21957,6.482694 18.26786,5.340146 17.07214,4.392301 16.5489,3.977453 16.02313,3.636282 15.52964,3.357725 c 0.18743,0.43631 0.27988,0.937225 0.27988,1.508941 0,0.056862 -0.0013,0.117043 -0.0034,0.178772 0.65072,0.469055 1.23856,1.066215 1.74956,1.779533 0.13508,0.188507 0.09878,0.456001 -0.08105,0.597602 -0.17984,0.141602 -0.43502,0.103547 -0.57011,-0.08496 -0.35734,-0.498703 -0.75499,-0.9328 -1.18705,-1.297645 -0.3869,2.99819 -1.88528,8.442992 -2.32346,9.999722 0.71405,0.28099 1.39939,0.89784 1.82829,1.78794 l 0.57981,-0.33033 c 0.19524,-0.11085 0.44641,-0.03297 0.55215,0.17147 0.10744,0.20709 0.0342,0.46618 -0.16336,0.5788 l -0.67564,0.38475 c 0.08042,0.3102 0.13192,0.64318 0.14902,0.99741 l 0.66972,0.11992 c 0.22184,0.0396 0.37085,0.25997 0.33307,0.49251 -0.03799,0.23231 -0.24822,0.38829 -0.47005,0.34891 l -0.59058,-0.10554 c -0.30035,1.76604 -1.58682,3.98675 -1.91082,4.52594 0.01056,0.28652 0.02533,0.96776 -0.03482,1.67488 -0.11989,1.40982 -0.47744,2.16009 -1.09292,2.2935 -0.6043,0.13076 -1.21218,-0.37568 -1.85848,-1.54921 -0.27185,-0.49339 -0.48905,-0.99253 -0.61083,-1.2899 H 6.574118 C 6.45236,26.43811 6.235169,26.93725 5.963311,27.43064 5.317014,28.60417 4.709132,29.11083 4.104838,28.97985 3.489357,28.84644 3.131804,28.09617 3.011917,26.68635 2.951761,25.97945 2.966536,25.29799 2.977301,25.01147 2.653097,24.47228 1.366836,22.25157 1.066272,20.48553 L 0.4756974,20.59107 C 0.2540737,20.63067 0.04363679,20.47447 0.00585522,20.24216 -0.03192635,20.00962 0.1170892,19.78925 0.3387129,19.74965 L 1.008438,19.62973 C 1.025535,19.2755 1.077247,18.94252 1.157454,18.63232 L 0.4818184,18.24757 C 0.2842568,18.13495 0.2112265,17.87586 0.3184501,17.66877 0.4244074,17.46433 0.6753698,17.38623 0.8706097,17.4973 L 1.450419,17.82763 C 1.879525,16.93731 2.56487,16.32046 3.279131,16.03969 3.163043,15.62639 2.970547,14.93254 2.745124,14.08802 c -0.060577,-0.227 0.065854,-0.46264 0.282412,-0.52614 0.216558,-0.06372 0.441347,0.06903 0.501924,0.29604 0.365574,1.37044 0.643976,2.34041 0.646719,2.35014 0.068809,0.23895 -0.079784,0.49539 -0.313439,0.54229 -0.970711,0.19448 -1.984481,1.28083 -2.044003,2.98027 -0.024484,0.70093 0.292965,1.76825 0.918155,3.08625 0.486728,1.02572 0.989286,1.83794 0.994352,1.84591 0.04749,0.07655 0.070286,0.16682 0.06522,0.25798 -4.22e-4,0.0082 -0.04538,0.8412 0.026595,1.6897 0.102158,1.20052 0.357131,1.51403 0.446836,1.53328 0.089071,0.01991 0.439659,-0.14647 0.98422,-1.13281 0.387525,-0.70181 0.666137,-1.44478 0.668881,-1.4523 0.060788,-0.16373 0.211492,-0.27148 0.379293,-0.27148 h 4.068381 c 0.1678,0 0.31829,0.10775 0.37929,0.27148 0.0027,0.0075 0.27798,0.74296 0.66466,1.445 0.54688,0.99253 0.89916,1.15958 0.98844,1.14011 0.08928,-0.01925 0.34341,-0.33121 0.44599,-1.52531 0.07282,-0.84873 0.02786,-1.68949 0.02723,-1.69789 -0.0048,-0.09094 0.01794,-0.18143 0.06543,-0.25776 0.0051,-0.008 0.50763,-0.82019 0.99435,-1.84613 0.62519,-1.31778 0.94264,-2.3851 0.91795,-3.08603 -0.05931,-1.69944 -1.07329,-2.78579 -2.04401,-2.98027 -0.23365,-0.0469 -0.38203,-0.30356 -0.31343,-0.54251 0.02511,-0.08695 2.49864,-8.724865 2.49864,-11.341174 0,-0.875274 -0.25961,-1.497435 -0.81684,-1.958083 -0.47385,-0.391616 -1.17545,-0.674156 -2.13244,-0.858016 0.22585,0.93457 0.42615,2.230002 0.59564,3.850012 0.28706,2.74375 0.389,5.523121 0.39006,5.550781 0.0084,0.23563 -0.16675,0.43387 -0.39154,0.44272 -0.2231,0.01 -0.41369,-0.17479 -0.42235,-0.41042 C 12.2169,11.45799 12.12234,8.88483 11.85977,6.264096 11.70632,4.734358 11.52691,3.490034 11.32639,2.565863 11.03638,1.230163 10.78035,0.9261623 10.70711,0.8637691 10.59651,0.949615 10.06314,1.571998 9.755186,5.674238 9.577887,8.036327 9.567334,10.35859 9.567334,10.38182 c -8.45e-4,0.23519 -0.182998,0.42525 -0.407155,0.42525 -4.22e-4,0 -0.00105,0 -0.00169,0 -0.22479,-8.8e-4 -0.40631,-0.19271 -0.405466,-0.42834 0,-0.02523 0.011187,-2.534228 0.208959,-5.010706 C 9.078917,3.901342 9.237853,2.728263 9.434359,1.881087 9.440691,1.853652 9.447446,1.825996 9.453989,1.797897 9.104668,1.786613 8.735295,1.78086 8.336372,1.78086 c -0.398922,0 -0.768084,0.00575 -1.117616,0.017037 0.00675,0.028099 0.013297,0.055976 0.019629,0.08319 0.196507,0.847176 0.355654,2.020255 0.472586,3.486937 0.197562,2.476478 0.208749,4.985476 0.20896,5.010706 8.44e-4,0.23563 -0.180887,0.42746 -0.405677,0.42834 -6.33e-4,0 -0.00106,0 -0.00169,0 -0.224157,0 -0.406311,-0.19006 -0.407155,-0.42525 0,-0.02323 -0.010342,-2.341289 -0.18743,-4.703379 C 6.61003,1.572219 6.076233,0.949615 5.965632,0.8637691 5.914764,0.9071346 5.776091,1.066879 5.599215,1.605849 5.592249,1.643241 5.580851,1.679084 5.565232,1.712493 5.496423,1.935515 5.422549,2.214736 5.346352,2.565863 5.145836,3.490034 4.966426,4.734358 4.812978,6.264096 4.550407,8.88483 4.455847,11.45799 4.455003,11.48366 4.446349,11.71929 4.25723,11.90426 4.032652,11.89408 3.807862,11.88523 3.632674,11.68699 3.641117,11.45136 3.642172,11.4237 3.74433,8.644329 4.031174,5.900579 4.200664,4.280348 4.40118,2.985137 4.627025,2.050567 3.671933,2.233985 2.971391,2.515418 2.49775,2.905707 1.938203,3.366797 1.677531,3.989843 1.677531,4.866666 c 0,1.153831 0.492638,3.696463 1.424301,7.352884 C 3.159877,12.44744 3.030913,12.6813 2.81351,12.74214 2.59653,12.80277 2.373218,12.6678 2.314963,12.43991 1.351639,8.659595 0.8632222,6.111432 0.8632222,4.866666 0.8632222,3.722792 1.233228,2.861899 1.994347,2.234649 2.643177,1.700103 3.593415,1.340789 4.893607,1.139228 5.124307,0.5113142 5.453154,0 5.960778,0 6.438641,0 6.748703,0.4316633 6.959351,0.9531551 7.385923,0.9358974 7.839091,0.9272686 8.336372,0.9272686 c 0.497282,0 0.950449,0.008629 1.377022,0.0258865 C 9.924042,0.4316633 10.2341,0 10.71197,0 c 0.50783,0 0.83647,0.5113142 1.06738,1.139228 0.47406,0.073677 0.90106,0.168595 1.28436,0.284973 C 13.24312,1.463363 21.99789,3.55464 22,13.43511 Z" /></clipPath><clipPath
       id="clipPath58"
       clipPathUnits="userSpaceOnUse"><path
         id="path56"
         d="M -530,-845 H 733 V 418 H -530 Z" /></clipPath></defs><g
     transform="matrix(1.3333333,0,0,-1.3333333,0,38.666667)"
     id="g10"><g
       id="g12" /><g
       id="g14"><g
         clip-path="url(#clipPath20)"
         id="g16"><g
           clip-path="url(#clipPath26)"
           id="g22"><path
             id="path28"
             style="fill:#01748e;fill-opacity:1;fill-rule:nonzero;stroke:none"
             d="M 2,25 H 14 V 13 H 2 Z" /></g></g></g><g
       id="g30"><g
         clip-path="url(#clipPath36)"
         id="g32"><g
           clip-path="url(#clipPath42)"
           id="g38"><path
             id="path44"
             style="fill:#01748e;fill-opacity:1;fill-rule:nonzero;stroke:none"
             d="M 12,26 H 26 V 3 H 12 Z" /></g></g></g><g
       id="g46"><g
         clip-path="url(#clipPath52)"
         id="g48"><g
           clip-path="url(#clipPath58)"
           id="g54"><path
             id="path60"
             style="fill:#01748e;fill-opacity:1;fill-rule:nonzero;stroke:none"
             d="M -5,34 H 27 V -5 H -5 Z" /></g></g></g></g></svg>