<?xml version="1.0" encoding="UTF-8" standalone="no"?>
<svg
   xmlns:dc="http://purl.org/dc/elements/1.1/"
   xmlns:cc="http://creativecommons.org/ns#"
   xmlns:rdf="http://www.w3.org/1999/02/22-rdf-syntax-ns#"
   xmlns:svg="http://www.w3.org/2000/svg"
   xmlns="http://www.w3.org/2000/svg"
   viewBox="0 0 40 40"
   height="40"
   width="40"
   xml:space="preserve"
   id="svg2"
   version="1.1"><metadata
     id="metadata8"><rdf:RDF><cc:Work
         rdf:about=""><dc:format>image/svg+xml</dc:format><dc:type
           rdf:resource="http://purl.org/dc/dcmitype/StillImage" /></cc:Work></rdf:RDF></metadata><defs
     id="defs6"><clipPath
       id="clipPath20"
       clipPathUnits="userSpaceOnUse"><path
         style="clip-rule:evenodd"
         id="path18"
         d="m 14.15022,15 -2.97423,2.97423 c -0.23465,0.23466 -0.23465,0.61512 0,0.84978 0.23466,0.23465 0.61512,0.23465 0.84978,0 L 15,15.84978 l 2.97423,2.97423 c 0.23466,0.23465 0.61512,0.23465 0.84978,0 0.23465,-0.23466 0.23465,-0.61512 0,-0.84978 L 15.84978,15 18.82401,12.02577 c 0.23465,-0.23466 0.23465,-0.61512 0,-0.84978 -0.23466,-0.23465 -0.61512,-0.23465 -0.84978,0 L 15,14.15022 12.02577,11.17599 c -0.23466,-0.23465 -0.61512,-0.23465 -0.84978,0 -0.23465,0.23466 -0.23465,0.61512 0,0.84978 z" /></clipPath><clipPath
       id="clipPath26"
       clipPathUnits="userSpaceOnUse"><path
         id="path24"
         d="M -321,-613 H 54 V 54 h -375 z" /></clipPath></defs><g
     transform="matrix(1.3333333,0,0,-1.3333333,0,40)"
     id="g10"><g
       id="g12" /><g
       id="g14"><g
         clip-path="url(#clipPath20)"
         id="g16"><g
           clip-path="url(#clipPath26)"
           id="g22"><path
             id="path28"
             style="fill:#0e363d;fill-opacity:1;fill-rule:nonzero;stroke:none"
             d="M 6,24 H 24 V 6 H 6 Z" /></g></g></g></g></svg>