<?xml version="1.0" encoding="UTF-8" standalone="no"?>
<!DOCTYPE svg PUBLIC "-//W3C//DTD SVG 1.1//EN" "http://www.w3.org/Graphics/SVG/1.1/DTD/svg11.dtd">
<svg width="100%" height="100%" viewBox="0 0 32 32" version="1.1" xmlns="http://www.w3.org/2000/svg" xmlns:xlink="http://www.w3.org/1999/xlink" xml:space="preserve" xmlns:serif="http://www.serif.com/" style="fill-rule:evenodd;clip-rule:evenodd;stroke-linejoin:round;stroke-miterlimit:2;">
    <g id="g10" transform="matrix(1.33333,0,0,-1.33333,0,32)">
        <g id="g14">
            <g id="g16">
                <clipPath id="_clip1">
                    <path d="M5.8,14.954C5.713,15.041 5.592,15.091 5.469,15.091C5.345,15.091 5.225,15.041 5.137,14.954C5.05,14.866 5,14.746 5,14.622C5,14.498 5.05,14.378 5.137,14.29C5.225,14.203 5.345,14.153 5.469,14.153C5.592,14.153 5.713,14.203 5.8,14.29C5.887,14.378 5.938,14.498 5.938,14.622C5.938,14.746 5.887,14.866 5.8,14.954Z"/>
                </clipPath>
                <g clip-path="url(#_clip1)">
                    <g id="g22">
                        <rect id="path28" x="0" y="9.153" width="10.938" height="10.938" style="fill:rgb(1,116,142);fill-rule:nonzero;"/>
                    </g>
                </g>
            </g>
        </g>
        <g id="g30">
            <g id="g32">
                <clipPath id="_clip2">
                    <path d="M16.807,8.884C17.692,9.271 18.313,10.155 18.313,11.181L18.313,17.344C18.313,21.014 15.327,24 11.656,24C7.986,24 5,21.014 5,17.344L5,16.641C5,16.382 5.21,16.172 5.469,16.172C5.728,16.172 5.938,16.382 5.938,16.641L5.938,17.344C5.938,20.497 8.503,23.063 11.656,23.063C14.81,23.063 17.375,20.497 17.375,17.344L17.375,11.181C17.375,10.316 16.672,9.613 15.807,9.613L13.884,9.613C13.898,9.715 13.906,9.819 13.906,9.926L13.906,11.166C13.906,11.173 13.905,11.18 13.905,11.188C15.25,11.967 16.156,13.421 16.156,15.084L16.156,16.691C16.156,17.777 15.273,18.66 14.187,18.66L9.125,18.66C8.039,18.66 7.156,17.777 7.156,16.691L7.156,15.084C7.156,13.421 8.063,11.967 9.407,11.188C9.407,11.18 9.406,11.173 9.406,11.166L9.406,9.926C9.406,9.819 9.414,9.715 9.428,9.613L7.505,9.613C6.641,9.613 5.938,10.316 5.938,11.181L5.938,12.75C5.938,13.009 5.728,13.219 5.469,13.219C5.21,13.219 5,13.009 5,12.75L5,11.181C5,10.155 5.62,9.271 6.506,8.884C3.847,7.642 2,4.942 2,1.819L2,0.469C2,0.21 2.21,0 2.469,0L20.844,0C21.103,0 21.313,0.21 21.313,0.469L21.313,1.819C21.313,4.942 19.466,7.642 16.807,8.884ZM8.094,15.084L8.094,16.691C8.094,17.26 8.556,17.722 9.125,17.722L14.188,17.722C14.756,17.722 15.219,17.26 15.219,16.691L15.219,15.084C15.219,13.12 13.621,11.522 11.656,11.522C9.692,11.522 8.094,13.12 8.094,15.084ZM12.969,10.78L12.969,9.926C12.969,9.202 12.38,8.613 11.656,8.613C10.933,8.613 10.344,9.202 10.344,9.926L10.344,10.78C10.759,10.653 11.2,10.584 11.656,10.584C12.113,10.584 12.553,10.653 12.969,10.78ZM9.786,8.676C10.191,8.073 10.878,7.676 11.656,7.676C12.435,7.676 13.122,8.073 13.526,8.676C13.979,8.675 14.422,8.63 14.851,8.545L11.656,3.011L8.461,8.545C8.89,8.63 9.333,8.675 9.786,8.676ZM20.375,0.938L18.486,0.938L18.486,2.578C18.486,2.837 18.276,3.047 18.017,3.047C17.758,3.047 17.548,2.837 17.548,2.578L17.548,0.938L5.764,0.938L5.764,3.958C5.764,4.217 5.555,4.427 5.296,4.427C5.037,4.427 4.827,4.217 4.827,3.958L4.827,0.938L2.938,0.938L2.938,1.819C2.938,4.805 4.857,7.351 7.526,8.29L11.25,1.839C11.334,1.694 11.489,1.605 11.656,1.605C11.824,1.605 11.978,1.694 12.062,1.839L15.786,8.29C18.456,7.351 20.375,4.805 20.375,1.819L20.375,0.938Z"/>
                </clipPath>
                <g clip-path="url(#_clip2)">
                    <g id="g38">
                        <rect id="path44" x="-3" y="-5" width="29.313" height="34" style="fill:rgb(1,116,142);fill-rule:nonzero;"/>
                    </g>
                </g>
            </g>
        </g>
        <g id="g46">
            <g id="g48">
                <clipPath id="_clip3">
                    <path d="M10.294,15.528C10.207,15.615 10.086,15.666 9.963,15.666C9.839,15.666 9.719,15.615 9.631,15.528C9.544,15.441 9.494,15.321 9.494,15.197C9.494,15.074 9.544,14.953 9.631,14.865C9.719,14.778 9.839,14.728 9.963,14.728C10.086,14.728 10.207,14.778 10.294,14.865C10.382,14.953 10.432,15.074 10.432,15.197C10.432,15.32 10.382,15.441 10.294,15.528Z"/>
                </clipPath>
                <g clip-path="url(#_clip3)">
                    <g id="g54">
                        <rect id="path60" x="4.494" y="9.728" width="10.937" height="10.937" style="fill:rgb(1,116,142);fill-rule:nonzero;"/>
                    </g>
                </g>
            </g>
        </g>
        <g id="g62">
            <g id="g64">
                <clipPath id="_clip4">
                    <path d="M13.693,15.528C13.606,15.615 13.485,15.666 13.362,15.666C13.238,15.666 13.117,15.615 13.03,15.528C12.943,15.441 12.893,15.32 12.893,15.197C12.893,15.074 12.943,14.953 13.03,14.865C13.117,14.778 13.238,14.728 13.362,14.728C13.485,14.728 13.606,14.778 13.693,14.865C13.78,14.953 13.83,15.074 13.83,15.197C13.83,15.32 13.78,15.441 13.693,15.528Z"/>
                </clipPath>
                <g clip-path="url(#_clip4)">
                    <g id="g70">
                        <rect id="path76" x="7.893" y="9.728" width="10.937" height="10.937" style="fill:rgb(1,116,142);fill-rule:nonzero;"/>
                    </g>
                </g>
            </g>
        </g>
        <g id="g78">
            <g id="g80">
                <clipPath id="_clip5">
                    <path d="M12.347,13.793C12.164,13.976 11.868,13.976 11.684,13.793C11.637,13.745 11.559,13.745 11.511,13.793C11.328,13.976 11.031,13.976 10.848,13.793C10.665,13.61 10.665,13.313 10.848,13.13C11.055,12.923 11.326,12.82 11.598,12.82C11.869,12.82 12.141,12.923 12.347,13.13C12.53,13.313 12.53,13.61 12.347,13.793Z"/>
                </clipPath>
                <g clip-path="url(#_clip5)">
                    <g id="g86">
                        <rect id="path92" x="5.711" y="7.82" width="11.774" height="11.11" style="fill:rgb(1,116,142);fill-rule:nonzero;"/>
                    </g>
                </g>
            </g>
        </g>
        <g id="g94">
            <g id="g96">
                <clipPath id="_clip6">
                    <path d="M18.348,4.758C18.261,4.845 18.14,4.896 18.017,4.896C17.893,4.896 17.772,4.845 17.685,4.758C17.598,4.671 17.548,4.551 17.548,4.427C17.548,4.304 17.598,4.183 17.685,4.095C17.773,4.008 17.893,3.958 18.017,3.958C18.14,3.958 18.261,4.008 18.348,4.095C18.435,4.183 18.485,4.304 18.485,4.427C18.485,4.55 18.435,4.671 18.348,4.758Z"/>
                </clipPath>
                <g clip-path="url(#_clip6)">
                    <g id="g102">
                        <rect id="path108" x="12.548" y="-1.042" width="10.938" height="10.938" style="fill:rgb(1,116,142);fill-rule:nonzero;"/>
                    </g>
                </g>
            </g>
        </g>
    </g>
</svg>
