<?xml version="1.0" encoding="UTF-8" standalone="no"?>
<svg
   xmlns:dc="http://purl.org/dc/elements/1.1/"
   xmlns:cc="http://creativecommons.org/ns#"
   xmlns:rdf="http://www.w3.org/1999/02/22-rdf-syntax-ns#"
   xmlns:svg="http://www.w3.org/2000/svg"
   xmlns="http://www.w3.org/2000/svg"
   viewBox="0 0 32 32"
   height="32"
   width="32"
   xml:space="preserve"
   id="svg2"
   version="1.1"><metadata
     id="metadata8"><rdf:RDF><cc:Work
         rdf:about=""><dc:format>image/svg+xml</dc:format><dc:type
           rdf:resource="http://purl.org/dc/dcmitype/StillImage" /></cc:Work></rdf:RDF></metadata><defs
     id="defs6"><clipPath
       id="clipPath20"
       clipPathUnits="userSpaceOnUse"><path
         style="clip-rule:evenodd"
         id="path18"
         d="m 13.90625,14.625 c 0.25888,0 0.46875,0.20987 0.46875,0.46875 0,0.25888 -0.20987,0.46875 -0.46875,0.46875 -0.25888,0 -0.46875,-0.20987 -0.46875,-0.46875 0,-0.25888 0.20987,-0.46875 0.46875,-0.46875 z" /></clipPath><clipPath
       id="clipPath26"
       clipPathUnits="userSpaceOnUse"><path
         id="path24"
         d="M -246,-1068 H 1017 V 195 H -246 Z" /></clipPath><clipPath
       id="clipPath36"
       clipPathUnits="userSpaceOnUse"><path
         style="clip-rule:evenodd"
         id="path34"
         d="m 11.09375,14.625 c 0.25888,0 0.46875,0.20987 0.46875,0.46875 0,0.25888 -0.20987,0.46875 -0.46875,0.46875 -0.25888,0 -0.46875,-0.20987 -0.46875,-0.46875 0,-0.25888 0.20987,-0.46875 0.46875,-0.46875 z" /></clipPath><clipPath
       id="clipPath42"
       clipPathUnits="userSpaceOnUse"><path
         id="path40"
         d="M -246,-1068 H 1017 V 195 H -246 Z" /></clipPath><clipPath
       id="clipPath52"
       clipPathUnits="userSpaceOnUse"><path
         style="clip-rule:evenodd"
         id="path50"
         d="m 14.375,13.21875 c 0,0.25889 -0.20991,0.46875 -0.46875,0.46875 -0.25884,0 -0.46875,-0.20986 -0.46875,-0.46875 0,-0.51694 -0.42056,-0.9375 -0.9375,-0.9375 -0.51694,0 -0.9375,0.42056 -0.9375,0.9375 0,0.25889 -0.20986,0.46875 -0.46875,0.46875 -0.25889,0 -0.46875,-0.20986 -0.46875,-0.46875 0,-1.03388 0.84112,-1.875 1.875,-1.875 1.03388,0 1.875,0.84112 1.875,1.875 z" /></clipPath><clipPath
       id="clipPath58"
       clipPathUnits="userSpaceOnUse"><path
         id="path56"
         d="M -246,-1068 H 1017 V 195 H -246 Z" /></clipPath><clipPath
       id="clipPath68"
       clipPathUnits="userSpaceOnUse"><path
         style="clip-rule:evenodd"
         id="path66"
         d="m 12.5,0 c 0.25888,0 0.46875,0.2098665 0.46875,0.46875 0,0.2588835 -0.20987,0.46875 -0.46875,0.46875 -0.25888,0 -0.46875,-0.2098665 -0.46875,-0.46875 C 12.03125,0.2098665 12.24112,0 12.5,0 Z" /></clipPath><clipPath
       id="clipPath74"
       clipPathUnits="userSpaceOnUse"><path
         id="path72"
         d="M -246,-1068 H 1017 V 195 H -246 Z" /></clipPath><clipPath
       id="clipPath84"
       clipPathUnits="userSpaceOnUse"><path
         style="clip-rule:evenodd"
         id="path82"
         d="m 5.46875,0 h 4.92187 c 0.2589,0 0.46876,0.2098594 0.46876,0.46875 0,0.2588906 -0.20986,0.46875 -0.46876,0.46875 H 8.75 V 3.09375 C 8.75,3.352641 8.540141,3.5625 8.28125,3.5625 8.022359,3.5625 7.8125,3.352641 7.8125,3.09375 V 0.9375 H 5.9375 V 4.5 c 0,1.292344 1.051406,2.34375 2.34375,2.34375 h 2.40309 C 10.89303,6.035953 11.62794,5.4375 12.5,5.4375 c 0.87206,0 1.60697,0.598453 1.81566,1.40625 h 2.40309 c 1.29234,0 2.34375,-1.051406 2.34375,-2.34375 V 0.9375 h -1.875 v 2.15625 c 0,0.258891 -0.20991,0.46875 -0.46875,0.46875 C 16.45991,3.5625 16.25,3.352641 16.25,3.09375 V 0.9375 h -1.64062 c -0.25885,0 -0.46876,-0.2098594 -0.46876,-0.46875 C 14.14062,0.2098594 14.35053,0 14.60938,0 h 4.92187 C 19.79009,0 20,0.2098594 20,0.46875 V 4.5 c 0,1.809281 -1.47197,3.28125 -3.28125,3.28125 H 14.375 v 0.999469 c 1.69523,0.740109 2.8125,2.426761 2.8125,4.297401 v 1.13747 c 0.8078,0.20864 1.40625,0.9436 1.40625,1.81566 0,0.55959 -0.24675,1.06242 -0.6368,1.40625 0.39005,0.34383 0.6368,0.84666 0.6368,1.40625 0,1.80928 -1.47197,3.28125 -3.28125,3.28125 h -3.28125 c -0.77541,0 -1.40625,0.63084 -1.40625,1.40625 0,0.25889 -0.20986,0.46875 -0.46875,0.46875 -2.06775,0 -3.75,-1.68225 -3.75,-3.75 v -0.9375 c 0,-0.69694 0.306094,-1.32342 0.790547,-1.75313 C 6.718859,17.21925 6.40625,16.66125 6.40625,16.03125 c 0,-0.87206 0.598453,-1.60702 1.40625,-1.81566 v -1.13747 c 0,-1.87064 1.117219,-3.557339 2.8125,-4.297401 V 7.78125 H 8.28125 C 6.471969,7.78125 5,6.309281 5,4.5 V 0.46875 C 5,0.2098594 5.209859,0 5.46875,0 Z m 1.875,20.25 c 0,1.40977 1.042641,2.58061 2.397281,2.78194 0.229453,-1.05328 1.169199,-1.84444 2.290219,-1.84444 h 3.28125 c 1.29234,0 2.34375,-1.05141 2.34375,-2.34375 0,-0.51694 -0.42056,-0.9375 -0.9375,-0.9375 h -3.44203 c -1.5848,0 -3.07472,0.61716 -4.195267,1.7377 C 8.947344,19.77802 8.745828,19.81809 8.570609,19.74553 8.395484,19.67302 8.28125,19.50206 8.28125,19.3125 V 17.98655 C 7.735578,18.18 7.34375,18.70134 7.34375,19.3125 Z M 8.75,13.07812 V 14.625 c 0,0.25889 -0.209859,0.46875 -0.46875,0.46875 -0.516937,0 -0.9375,0.42056 -0.9375,0.9375 0,0.51694 0.420563,0.9375 0.9375,0.9375 H 8.75 c 0.258891,0 0.46875,0.20986 0.46875,0.46875 v 0.85584 c 1.17019,-0.86001 2.57841,-1.32459 4.05797,-1.32459 h 3.44203 c 0.51694,0 0.9375,-0.42056 0.9375,-0.9375 0,-0.51694 -0.42056,-0.9375 -0.9375,-0.9375 -0.25884,0 -0.46875,-0.20986 -0.46875,-0.46875 v -1.54688 c 0,-1.58681 -1.00467,-3.00815 -2.49998,-3.536807 C 13.5627,9.475078 13.4375,9.298031 13.4375,9.099375 V 7.3125 c 0,-0.516938 -0.42056,-0.9375 -0.9375,-0.9375 -0.51694,0 -0.9375,0.420562 -0.9375,0.9375 v 1.786875 c 0,0.198656 -0.1252,0.37575 -0.31252,0.441938 C 9.754672,10.06997 8.75,11.49131 8.75,13.07812 Z" /></clipPath><clipPath
       id="clipPath90"
       clipPathUnits="userSpaceOnUse"><path
         id="path88"
         d="M -246,-1068 H 1017 V 195 H -246 Z" /></clipPath></defs><g
     transform="matrix(1.3333333,0,0,-1.3333333,0,32)"
     id="g10"><g
       id="g12" /><g
       id="g14"><g
         clip-path="url(#clipPath20)"
         id="g16"><g
           clip-path="url(#clipPath26)"
           id="g22"><path
             id="path28"
             style="fill:#01748e;fill-opacity:1;fill-rule:nonzero;stroke:none"
             d="M 8.4375,20.5625 H 19.375 V 9.625 H 8.4375 Z" /></g></g></g><g
       id="g30"><g
         clip-path="url(#clipPath36)"
         id="g32"><g
           clip-path="url(#clipPath42)"
           id="g38"><path
             id="path44"
             style="fill:#01748e;fill-opacity:1;fill-rule:nonzero;stroke:none"
             d="M 5.625,20.5625 H 16.5625 V 9.625 H 5.625 Z" /></g></g></g><g
       id="g46"><g
         clip-path="url(#clipPath52)"
         id="g48"><g
           clip-path="url(#clipPath58)"
           id="g54"><path
             id="path60"
             style="fill:#01748e;fill-opacity:1;fill-rule:nonzero;stroke:none"
             d="m 5.625,18.6875 h 13.75 V 6.34375 H 5.625 Z" /></g></g></g><g
       id="g62"><g
         clip-path="url(#clipPath68)"
         id="g64"><g
           clip-path="url(#clipPath74)"
           id="g70"><path
             id="path76"
             style="fill:#01748e;fill-opacity:1;fill-rule:nonzero;stroke:none"
             d="m 7.03125,5.9375 h 10.9375 V -5 H 7.03125 Z" /></g></g></g><g
       id="g78"><g
         clip-path="url(#clipPath84)"
         id="g80"><g
           clip-path="url(#clipPath90)"
           id="g86"><path
             id="path92"
             style="fill:#01748e;fill-opacity:1;fill-rule:nonzero;stroke:none"
             d="M 0,29 H 25 V -5 H 0 Z" /></g></g></g></g></svg>