<?xml version="1.0" encoding="UTF-8" standalone="no"?>
<svg
   xmlns:dc="http://purl.org/dc/elements/1.1/"
   xmlns:cc="http://creativecommons.org/ns#"
   xmlns:rdf="http://www.w3.org/1999/02/22-rdf-syntax-ns#"
   xmlns:svg="http://www.w3.org/2000/svg"
   xmlns="http://www.w3.org/2000/svg"
   viewBox="0 0 32 32"
   height="32"
   width="32"
   xml:space="preserve"
   id="svg2"
   version="1.1"><metadata
     id="metadata8"><rdf:RDF><cc:Work
         rdf:about=""><dc:format>image/svg+xml</dc:format><dc:type
           rdf:resource="http://purl.org/dc/dcmitype/StillImage" /></cc:Work></rdf:RDF></metadata><defs
     id="defs6"><clipPath
       id="clipPath20"
       clipPathUnits="userSpaceOnUse"><path
         style="clip-rule:evenodd"
         id="path18"
         d="M 4.22113,5.43988 C 3.885132,5.43988 3.562134,5.356018 3.275574,5.198547 1.766052,7.133606 0.9375,9.537415 0.9375,12 c 0,6.09998 4.962524,11.0625 11.0625,11.0625 0.74158,0 1.48279,-0.07379 2.20312,-0.21936 0.25342,-0.05127 0.50098,0.11279 0.55225,0.36658 0.05127,0.25378 -0.11279,0.50097 -0.36658,0.55243 C 13.60748,23.91998 12.80383,24 12,24 8.794739,24 5.781189,22.75177 3.514709,20.48529 1.24823,18.21881 0,15.20526 0,12 0,9.303772 0.9155273,6.672546 2.582336,4.563171 2.367737,4.242554 2.25238,3.865723 2.25238,3.47113 2.25238,2.945251 2.457275,2.450867 2.829163,2.079163 3.200867,1.707275 3.695251,1.50238 4.22113,1.50238 c 0.525879,0 1.020264,0.204895 1.392151,0.576783 0.371887,0.371704 0.576599,0.866272 0.576599,1.392151 0,0.525695 -0.204712,1.020263 -0.576599,1.391967 C 5.241394,5.235168 4.747009,5.43988 4.22113,5.43988 Z M 4.950256,2.742004 C 4.755615,2.54718 4.496521,2.43988 4.22113,2.43988 3.94574,2.43988 3.686829,2.54718 3.492004,2.742004 3.29718,2.936829 3.18988,3.19574 3.18988,3.47113 c 0,0.275574 0.1073,0.534485 0.302124,0.729309 C 3.686646,4.395264 3.94574,4.50238 4.22113,4.50238 4.496521,4.50238 4.755432,4.395081 4.950256,4.200439 5.145081,4.005615 5.25238,3.746704 5.25238,3.47113 5.25238,3.19574 5.145081,2.936829 4.950256,2.742004 Z" /></clipPath><clipPath
       id="clipPath26"
       clipPathUnits="userSpaceOnUse"><path
         id="path24"
         d="M -300,-1068 H 963 V 195 H -300 Z" /></clipPath><clipPath
       id="clipPath36"
       clipPathUnits="userSpaceOnUse"><path
         style="clip-rule:evenodd"
         id="path34"
         d="m 21.4173,19.43738 c 0.50958,0.76446 0.42773,1.80963 -0.24628,2.48364 -0.37189,0.3717 -0.86627,0.5766 -1.39215,0.5766 -0.52588,0 -1.02026,-0.2049 -1.39215,-0.5766 -0.37189,-0.37189 -0.5766,-0.86627 -0.5766,-1.39215 0,-0.52588 0.20471,-1.02026 0.5766,-1.39215 0.37189,-0.37189 0.86627,-0.5766 1.39215,-0.5766 0.336,0 0.659,0.08386 0.94556,0.24133 C 22.23395,16.86621 23.0625,14.46259 23.0625,12 23.0625,5.900024 18.09998,0.9375 12,0.9375 11.26575,0.9375 10.53149,1.009827 9.817932,1.152649 9.564148,1.203369 9.317139,1.038757 9.266235,0.7849732 9.215515,0.5310059 9.380127,0.2841797 9.633911,0.2332763 10.4079,0.07855223 11.20404,0 12,0 15.20526,0 18.21881,1.24823 20.48529,3.514709 22.75177,5.781189 24,8.794739 24,12 c 0,2.69641 -0.91571,5.32782 -2.5827,7.43738 z m -2.36756,0.36218 c -0.19482,0.19482 -0.30212,0.45374 -0.30212,0.72931 0,0.27539 0.1073,0.5343 0.30212,0.72913 0.19464,0.19482 0.45374,0.30212 0.72913,0.30212 0.27539,0 0.53448,-0.1073 0.72931,-0.30212 0.40192,-0.4021 0.40192,-1.05634 0,-1.45844 -0.19483,-0.19464 -0.45392,-0.30194 -0.72931,-0.30194 -0.27557,0 -0.53449,0.1073 -0.72913,0.30194 z" /></clipPath><clipPath
       id="clipPath42"
       clipPathUnits="userSpaceOnUse"><path
         id="path40"
         d="M -300,-1068 H 963 V 195 H -300 Z" /></clipPath><clipPath
       id="clipPath52"
       clipPathUnits="userSpaceOnUse"><path
         style="clip-rule:evenodd"
         id="path50"
         d="m 10.06567,3.9375 c 0,-0.258911 0.21003,-0.46875 0.46875,-0.46875 h 2.93097 c 0.25891,0 0.46875,0.209839 0.46875,0.46875 v 0.908752 c 0.61634,0.165894 1.20557,0.410157 1.75928,0.729126 l 0.6416,-0.641601 c 0.08789,-0.087891 0.20709,-0.137329 0.33161,-0.137329 0.12414,0 0.24353,0.049438 0.33142,0.137512 l 2.07165,2.07312 c 0.18292,0.183106 0.18292,0.479919 0,0.662842 l -0.64087,0.640869 c 0.31897,0.553711 0.56324,1.142944 0.72913,1.759279 h 0.90527 c 0.25891,0 0.46875,0.20984 0.46875,0.46875 v 2.93097 c 0,0.25891 -0.20984,0.46875 -0.46875,0.46875 h -0.90545 c -0.1659,0.61615 -0.40998,1.20538 -0.72895,1.75909 l 0.63739,0.63739 c 0.08789,0.08789 0.13733,0.20728 0.13733,0.33161 -1.8e-4,0.12432 -0.04962,0.24371 -0.13751,0.3316 l -2.0733,2.07166 C 16.80981,19.25281 16.513,19.25281 16.3299,19.0697 l -0.63648,-0.63666 c -0.55371,0.31897 -1.14294,0.56324 -1.75928,0.72913 v 0.90033 c 0,0.25891 -0.20984,0.46875 -0.46875,0.46875 h -2.93097 c -0.25872,0 -0.46875,-0.20984 -0.46875,-0.46875 V 19.16199 C 9.449524,18.99628 8.860291,18.75201 8.30658,18.43304 L 7.669922,19.0697 C 7.487,19.25262 7.190186,19.25281 7.00708,19.06989 L 4.93396,16.99805 c -0.088074,-0.08789 -0.137512,-0.2071 -0.137512,-0.33142 0,-0.12433 0.049438,-0.24372 0.137329,-0.33161 l 0.63739,-0.63739 C 5.252197,15.14392 5.007935,14.55487 4.842041,13.93854 H 3.938416 c -0.258912,0 -0.46875,-0.20984 -0.46875,-0.46857 L 3.468017,10.539 c -1.83e-4,-0.12433 0.049256,-0.24371 0.137147,-0.3316 0.08789,-0.08789 0.207092,-0.13733 0.331604,-0.13733 H 4.842041 C 5.007935,9.453735 5.252197,8.864502 5.571167,8.310791 L 4.930298,7.669922 c -0.182922,-0.182923 -0.183106,-0.479736 0,-0.662842 L 7.001953,4.93396 C 7.089844,4.846069 7.209045,4.796448 7.333374,4.796448 h 1.83e-4 c 0.124329,0 0.24353,0.049438 0.331421,0.137329 L 8.306396,5.575378 C 8.860291,5.256409 9.449524,5.012146 10.06567,4.846252 Z M 8.490234,6.561218 C 8.304749,6.681152 8.060669,6.655151 7.904297,6.498962 L 7.333557,5.928223 5.924561,7.338318 6.494751,7.908691 C 6.65094,8.06488 6.676941,8.30896 6.557007,8.494446 6.132019,9.152161 5.833191,9.873047 5.669128,10.63733 5.62262,10.85321 5.431824,11.00757 5.210815,11.00757 H 4.405701 l 0.0011,1.99347 h 0.804016 c 0.221009,0 0.411805,0.15417 0.458313,0.37024 0.164063,0.7641 0.462891,1.48498 0.887879,2.1427 0.119934,0.18548 0.093933,0.42956 -0.062256,0.58575 l -0.566528,0.56671 1.410095,1.409 0.565979,-0.56616 c 0.156372,-0.15619 0.400268,-0.18201 0.585937,-0.06226 0.657532,0.42499 1.378418,0.72382 2.142696,0.88788 0.21589,0.04651 0.37024,0.23749 0.37024,0.45831 v 0.80054 h 1.99347 V 18.7934 c 0,-0.22101 0.15418,-0.41199 0.37024,-0.45832 0.7641,-0.16424 1.48517,-0.46289 2.1427,-0.88788 0.18549,-0.11993 0.42957,-0.09411 0.58576,0.06226 l 0.56616,0.56598 1.41009,-1.409 -0.56652,-0.56653 c -0.15638,-0.15637 -0.18219,-0.40045 -0.06226,-0.58593 0.42499,-0.65772 0.72363,-1.3786 0.88788,-2.1427 0.04632,-0.21607 0.2373,-0.37024 0.45831,-0.37024 h 0.80548 v -1.99347 h -0.80548 c -0.22101,0 -0.4118,-0.15436 -0.45831,-0.37024 C 18.16663,9.87323 17.8678,9.152161 17.44281,8.494629 17.32288,8.30896 17.34888,8.06488 17.50507,7.908691 l 0.57019,-0.57019 -1.409,-1.410095 -0.57074,0.570556 C 15.93915,6.655334 15.69507,6.681152 15.50958,6.561218 14.85187,6.13623 14.13098,5.837585 13.36688,5.67334 13.15082,5.626831 12.99664,5.436035 12.99664,5.215027 V 4.40625 h -1.99347 v 0.808777 c 0,0.220825 -0.15435,0.411804 -0.37024,0.458313 C 9.868835,5.837402 9.147949,6.13623 8.490234,6.561218 Z" /></clipPath><clipPath
       id="clipPath58"
       clipPathUnits="userSpaceOnUse"><path
         id="path56"
         d="M -300,-1068 H 963 V 195 H -300 Z" /></clipPath><clipPath
       id="clipPath68"
       clipPathUnits="userSpaceOnUse"><path
         style="clip-rule:evenodd"
         id="path66"
         d="m 15.87323,12 c 0,2.13574 -1.73749,3.87323 -3.87323,3.87323 -2.135742,0 -3.87323,-1.73749 -3.87323,-3.87323 0,-2.135742 1.737488,-3.87323 3.87323,-3.87323 2.13574,0 3.87323,1.737488 3.87323,3.87323 z m -6.80896,0 c 0,1.61884 1.31689,2.93573 2.93573,2.93573 1.61884,0 2.93573,-1.31708 2.93573,-2.93573 0,-1.61865 -1.31689,-2.93573 -2.93573,-2.93573 -1.61884,0 -2.93573,1.31689 -2.93573,2.93573 z" /></clipPath><clipPath
       id="clipPath74"
       clipPathUnits="userSpaceOnUse"><path
         id="path72"
         d="M -300,-1068 H 963 V 195 H -300 Z" /></clipPath><clipPath
       id="clipPath84"
       clipPathUnits="userSpaceOnUse"><path
         style="clip-rule:evenodd"
         id="path82"
         d="m 16.31616,22.22717 c 0.12342,0 0.24426,0.05017 0.33142,0.13733 0.08716,0.08771 0.13733,0.20856 0.13733,0.33197 0,0.12268 -0.04999,0.24372 -0.13733,0.33142 -0.08716,0.08716 -0.208,0.13733 -0.33142,0.13733 -0.12378,0 -0.24408,-0.05017 -0.33124,-0.13733 -0.08734,-0.0877 -0.13751,-0.20819 -0.13751,-0.33142 0,-0.12378 0.05017,-0.24426 0.13751,-0.33197 0.08716,-0.08716 0.20746,-0.13733 0.33124,-0.13733 z" /></clipPath><clipPath
       id="clipPath90"
       clipPathUnits="userSpaceOnUse"><path
         id="path88"
         d="M -300,-1068 H 963 V 195 H -300 Z" /></clipPath><clipPath
       id="clipPath100"
       clipPathUnits="userSpaceOnUse"><path
         style="clip-rule:evenodd"
         id="path98"
         d="m 7.704346,1.764404 c -0.12323,0 -0.244263,-0.050171 -0.331421,-0.137329 C 7.285767,1.539917 7.235596,1.418884 7.235596,1.295654 c 0,-0.123779 0.050171,-0.244262 0.137329,-0.3314206 0.087158,-0.0871582 0.208191,-0.1373291 0.331421,-0.1373291 0.12323,0 0.244262,0.0501709 0.331421,0.1373291 0.087158,0.0871586 0.137329,0.2081906 0.137329,0.3314206 0,0.12323 -0.050171,0.244263 -0.137329,0.331421 C 7.948608,1.714233 7.827576,1.764404 7.704346,1.764404 Z" /></clipPath><clipPath
       id="clipPath106"
       clipPathUnits="userSpaceOnUse"><path
         id="path104"
         d="M -300,-1068 H 963 V 195 H -300 Z" /></clipPath></defs><g
     transform="matrix(1.3333333,0,0,-1.3333333,0,32)"
     id="g10"><g
       id="g12" /><g
       id="g14"><g
         clip-path="url(#clipPath20)"
         id="g16"><g
           clip-path="url(#clipPath26)"
           id="g22"><path
             id="path28"
             style="fill:#01748e;fill-opacity:1;fill-rule:nonzero;stroke:none"
             d="M -5,29 H 19.76475 V -3.49762 l -24.76475,0 z" /></g></g></g><g
       id="g30"><g
         clip-path="url(#clipPath36)"
         id="g32"><g
           clip-path="url(#clipPath42)"
           id="g38"><path
             id="path44"
             style="fill:#01748e;fill-opacity:1;fill-rule:nonzero;stroke:none"
             d="M 4.257058,27.49762 H 29 V -5 H 4.257058 Z" /></g></g></g><g
       id="g46"><g
         clip-path="url(#clipPath52)"
         id="g48"><g
           clip-path="url(#clipPath58)"
           id="g54"><path
             id="path60"
             style="fill:#01748e;fill-opacity:1;fill-rule:nonzero;stroke:none"
             d="M -1.531983,25.53125 H 25.53198 V -1.53125 H -1.531983 Z" /></g></g></g><g
       id="g62"><g
         clip-path="url(#clipPath68)"
         id="g64"><g
           clip-path="url(#clipPath74)"
           id="g70"><path
             id="path76"
             style="fill:#01748e;fill-opacity:1;fill-rule:nonzero;stroke:none"
             d="M 3.12677,20.87323 H 20.87323 V 3.12677 H 3.12677 Z" /></g></g></g><g
       id="g78"><g
         clip-path="url(#clipPath84)"
         id="g80"><g
           clip-path="url(#clipPath90)"
           id="g86"><path
             id="path92"
             style="fill:#01748e;fill-opacity:1;fill-rule:nonzero;stroke:none"
             d="m 10.84741,28.16522 h 10.9375 V 17.22717 h -10.9375 z" /></g></g></g><g
       id="g94"><g
         clip-path="url(#clipPath100)"
         id="g96"><g
           clip-path="url(#clipPath106)"
           id="g102"><path
             id="path108"
             style="fill:#01748e;fill-opacity:1;fill-rule:nonzero;stroke:none"
             d="M 2.235596,6.764404 H 13.1731 v -10.9375 H 2.235596 Z" /></g></g></g></g></svg>