<?xml version="1.0" encoding="UTF-8" standalone="no"?>
<svg
   xmlns:dc="http://purl.org/dc/elements/1.1/"
   xmlns:cc="http://creativecommons.org/ns#"
   xmlns:rdf="http://www.w3.org/1999/02/22-rdf-syntax-ns#"
   xmlns:svg="http://www.w3.org/2000/svg"
   xmlns="http://www.w3.org/2000/svg"
   viewBox="0 0 32 32"
   height="32"
   width="32"
   xml:space="preserve"
   id="svg2"
   version="1.1"><metadata
     id="metadata8"><rdf:RDF><cc:Work
         rdf:about=""><dc:format>image/svg+xml</dc:format><dc:type
           rdf:resource="http://purl.org/dc/dcmitype/StillImage" /></cc:Work></rdf:RDF></metadata><defs
     id="defs6"><clipPath
       id="clipPath20"
       clipPathUnits="userSpaceOnUse"><path
         style="clip-rule:evenodd"
         id="path18"
         d="m 15.98822,20.41822 c -0.25978,0 -0.47058,-0.21084 -0.47058,-0.47058 0,-0.25978 0.21084,-0.47058 0.47058,-0.47058 0.25978,0 0.47058,0.21085 0.47058,0.47058 4e-5,0.25974 -0.2108,0.47058 -0.47058,0.47058 z" /></clipPath><clipPath
       id="clipPath26"
       clipPathUnits="userSpaceOnUse"><path
         id="path24"
         d="M -105,-1068 H 1158 V 195 H -105 Z" /></clipPath><clipPath
       id="clipPath36"
       clipPathUnits="userSpaceOnUse"><path
         style="clip-rule:evenodd"
         id="path34"
         d="m 14.97225,22.96644 c -1.26562,0 -2.37403,-0.68658 -2.97225,-1.70672 -0.59822,1.02014 -1.70662,1.70672 -2.97225,1.70672 -1.898344,0 -3.442828,-1.54444 -3.442828,-3.44283 0,-1.91175 1.088672,-3.79575 3.148266,-5.44847 1.517012,-1.21725 3.014392,-1.88175 3.077392,-1.90941 0.06033,-0.02648 0.12478,-0.03975 0.18933,-0.03975 0.0645,0 0.12904,0.01327 0.18932,0.03975 0.063,0.02766 1.56047,0.69216 3.07763,1.90941 2.05987,1.65272 3.14859,3.53677 3.14859,5.44847 0,1.89834 -1.54458,3.44283 -3.4432,3.44283 z M 12,13.11688 c -0.98606,0.48168 -5.473875,2.86949 -5.473875,6.40673 0,1.37944 1.122234,2.50162 2.501672,2.50162 1.379433,0 2.501623,-1.12223 2.501623,-2.50162 0,-0.25992 0.21071,-0.47058 0.47058,-0.47058 0.25992,0 0.47058,0.2107 0.47058,0.47058 0,1.37944 1.12228,2.50162 2.50162,2.50162 1.37967,0 2.50214,-1.12223 2.50214,-2.50162 0,-3.53724 -4.48814,-5.92505 -5.47434,-6.40673 z" /></clipPath><clipPath
       id="clipPath42"
       clipPathUnits="userSpaceOnUse"><path
         id="path40"
         d="M -105,-1068 H 1158 V 195 H -105 Z" /></clipPath><clipPath
       id="clipPath52"
       clipPathUnits="userSpaceOnUse"><path
         style="clip-rule:evenodd"
         id="path50"
         d="m 16.08014,18.93378 c -0.24427,0.08902 -0.51431,-0.03694 -0.60323,-0.28106 -0.36132,-0.99197 -1.25846,-1.85911 -1.94738,-2.41191 -0.20273,-0.1627 -0.23522,-0.45881 -0.07256,-0.66154 0.093,-0.11588 0.2295,-0.17611 0.36736,-0.17611 0.10331,0 0.20733,0.03389 0.29419,0.10359 1.13831,0.91331 1.89286,1.86338 2.24273,2.82384 0.08892,0.24418 -0.03694,0.51422 -0.28111,0.60319 z" /></clipPath><clipPath
       id="clipPath58"
       clipPathUnits="userSpaceOnUse"><path
         id="path56"
         d="M -105,-1068 H 1158 V 195 H -105 Z" /></clipPath><clipPath
       id="clipPath68"
       clipPathUnits="userSpaceOnUse"><path
         style="clip-rule:evenodd"
         id="path66"
         d="m 10.16367,7.576578 c -3.7e-4,0.00797 -4.2e-4,0.015891 -0.0012,0.023859 C 10.15144,7.718 10.09706,7.822484 10.01559,7.898703 L 6.654984,11.25927 4.727016,14.2918 c -0.309938,0.48764 -0.83761,0.76692 -1.385813,0.77508 v 5.02664 c 0,0.92118 -0.749391,1.67057 -1.670578,1.67057 -0.446859,0 -0.8664844,-0.17395 -1.1815313,-0.48975 C 0.173625,20.95836 0,20.53897 0,20.09338 L 0.00328125,10.619 c 4.688e-5,-0.10627 0.03604688,-0.20939 0.10218755,-0.29259 L 4.453172,4.854969 V 2.222938 c 0,-0.259922 0.210703,-0.470579 0.470578,-0.470579 h 4.770375 c 0.259922,0 0.470575,0.210704 0.470575,0.470579 v 5.333156 c 0,0.00689 -7.5e-4,0.013687 -10e-4,0.020484 z M 9.223547,2.693469 H 5.394375 v 2.325656 c 0,0.106312 -0.036,0.209484 -0.102188,0.292734 l -4.3477495,5.471581 -0.003281,9.31008 c 0,0.19443 0.0759848,0.37771 0.2140778,0.51609 0.13725,0.13753 0.320297,0.21333 0.515344,0.21333 C 2.072812,20.82294 2.4,20.49575 2.4,20.09352 V 14.7912 C 1.927734,14.48113 1.646109,13.96133 1.646109,13.3947 c 0,-0.31734 0.090422,-0.627 0.261235,-0.89531 L 3.969,9.25625 C 3.991594,9.209797 4.021922,9.167 4.059281,9.129641 L 6.831984,6.356938 C 6.923906,6.265016 7.044328,6.219125 7.16475,6.219125 c 0.120422,0 0.240891,0.045938 0.332766,0.137813 0.18375,0.18375 0.18375,0.481734 0,0.665531 L 4.771125,9.748812 2.701406,13.00466 c -0.074672,0.11723 -0.11414,0.25209 -0.11414,0.39004 0,0.25135 0.126515,0.48178 0.338906,0.61669 0.038109,0.02428 0.078,0.04477 0.120234,0.06159 0.324985,0.13083 0.697735,0.01065 0.886313,-0.28612 l 1.955765,-3.07622 c 0.018469,-0.02901 0.040032,-0.05597 0.06436,-0.0803 L 9.223547,7.359641 V 2.693469 Z" /></clipPath><clipPath
       id="clipPath74"
       clipPathUnits="userSpaceOnUse"><path
         id="path72"
         d="M -105,-1068 H 1158 V 195 H -105 Z" /></clipPath><clipPath
       id="clipPath84"
       clipPathUnits="userSpaceOnUse"><path
         style="clip-rule:evenodd"
         id="path82"
         d="m 23.511,21.27434 c -0.31509,0.3158 -0.73472,0.48975 -1.18158,0.48975 -0.92119,0 -1.67058,-0.74939 -1.67058,-1.67057 V 15.06664 C 20.11022,15.05858 19.58278,14.7793 19.27298,14.29189 L 17.34497,11.25931 13.97686,7.89125 C 13.95328,7.868141 13.93209,7.842641 13.91381,7.815078 13.91095,7.810813 13.90856,7.806266 13.90584,7.801906 13.90059,7.793328 13.89525,7.784844 13.89052,7.775938 13.88742,7.770078 13.8848,7.764078 13.88194,7.758125 13.87819,7.750297 13.8743,7.742563 13.87097,7.7345 13.8683,7.727984 13.86619,7.721422 13.86375,7.714813 13.86094,7.706984 13.85789,7.69925 13.8555,7.691234 13.8534,7.684154 13.8518,7.676984 13.85,7.669813 13.8481,7.662123 13.8459,7.654531 13.8444,7.646703 13.8427,7.638033 13.8417,7.629359 13.8404,7.620641 13.83951,7.614121 13.8382,7.607797 13.8376,7.601188 13.8361,7.585625 13.8353,7.570016 13.8353,7.554406 V 2.222844 c 0,-0.259922 0.2107,-0.470578 0.47058,-0.470578 h 4.77037 c 0.25993,0 0.47058,0.210703 0.47058,0.470578 v 2.632031 l 4.3477,5.471435 c 0.06615,0.08321 0.10214,0.18633 0.10219,0.2926 L 24,20.09352 c 0,0.44545 -0.17362,0.86484 -0.489,1.18082 z M 23.05556,10.78344 18.70781,5.311906 C 18.64163,5.228656 18.60563,5.125438 18.60563,5.019172 V 2.693516 h -3.82918 v 4.666172 l 3.27066,3.270652 c 0.02433,0.02433 0.04594,0.05124 0.06436,0.0803 l 1.95581,3.07627 c 0.18858,0.29667 0.56128,0.41695 0.88795,0.28537 0.04055,-0.01617 0.08044,-0.03665 0.11902,-0.06122 0.21197,-0.13462 0.33844,-0.36506 0.33844,-0.6164 0,-0.13796 -0.03942,-0.27282 -0.11428,-0.39038 L 19.22892,9.748859 16.50253,7.022516 c -0.18375,-0.18375 -0.18375,-0.481735 0,-0.665532 0.09192,-0.091921 0.21235,-0.137812 0.33277,-0.137812 0.12042,0 0.24089,0.045937 0.33276,0.137812 l 2.77271,2.772704 c 0.03618,0.036234 0.06567,0.077765 0.08784,0.122812 l 2.06381,3.24656 c 0.171,0.2686 0.26142,0.57825 0.26142,0.89564 0,0.56677 -0.28171,1.0868 -0.75389,1.39655 v 5.30227 c 0,0.40223 0.32719,0.72942 0.72943,0.72942 0.19504,0 0.37809,-0.07575 0.51534,-0.21338 0.13805,-0.13833 0.21408,-0.32161 0.21408,-0.5159 l -0.0032,-9.31022 z" /></clipPath><clipPath
       id="clipPath90"
       clipPathUnits="userSpaceOnUse"><path
         id="path88"
         d="M -105,-1068 H 1158 V 195 H -105 Z" /></clipPath></defs><g
     transform="matrix(1.3333333,0,0,-1.3333333,0,32)"
     id="g10"><g
       id="g12" /><g
       id="g14"><g
         clip-path="url(#clipPath20)"
         id="g16"><g
           clip-path="url(#clipPath26)"
           id="g22"><path
             id="path28"
             style="fill:#01748e;fill-opacity:1;fill-rule:nonzero;stroke:none"
             d="M 10.51764,25.41822 H 21.4588 V 14.47706 H 10.51764 Z" /></g></g></g><g
       id="g30"><g
         clip-path="url(#clipPath36)"
         id="g32"><g
           clip-path="url(#clipPath42)"
           id="g38"><path
             id="path44"
             style="fill:#01748e;fill-opacity:1;fill-rule:nonzero;stroke:none"
             d="M 0.5849219,27.96644 H 23.41545 V 7.125984 H 0.5849219 Z" /></g></g></g><g
       id="g46"><g
         clip-path="url(#clipPath52)"
         id="g48"><g
           clip-path="url(#clipPath58)"
           id="g54"><path
             id="path60"
             style="fill:#01748e;fill-opacity:1;fill-rule:nonzero;stroke:none"
             d="M 8.353406,23.96235 H 21.38978 V 10.40316 H 8.353406 Z" /></g></g></g><g
       id="g62"><g
         clip-path="url(#clipPath68)"
         id="g64"><g
           clip-path="url(#clipPath74)"
           id="g70"><path
             id="path76"
             style="fill:#01748e;fill-opacity:1;fill-rule:nonzero;stroke:none"
             d="M -5,26.76409 H 15.1647 V -3.247641 H -5 Z" /></g></g></g><g
       id="g78"><g
         clip-path="url(#clipPath84)"
         id="g80"><g
           clip-path="url(#clipPath90)"
           id="g86"><path
             id="path92"
             style="fill:#01748e;fill-opacity:1;fill-rule:nonzero;stroke:none"
             d="M 8.83525,26.76409 H 29 V -3.247734 H 8.83525 Z" /></g></g></g></g></svg>