<?xml version="1.0" encoding="UTF-8" standalone="no"?>
<svg
   xmlns:dc="http://purl.org/dc/elements/1.1/"
   xmlns:cc="http://creativecommons.org/ns#"
   xmlns:rdf="http://www.w3.org/1999/02/22-rdf-syntax-ns#"
   xmlns:svg="http://www.w3.org/2000/svg"
   xmlns="http://www.w3.org/2000/svg"
   viewBox="0 0 32 32"
   height="32"
   width="32"
   xml:space="preserve"
   id="svg2"
   version="1.1"><metadata
     id="metadata8"><rdf:RDF><cc:Work
         rdf:about=""><dc:format>image/svg+xml</dc:format><dc:type
           rdf:resource="http://purl.org/dc/dcmitype/StillImage" /></cc:Work></rdf:RDF></metadata><defs
     id="defs6"><clipPath
       id="clipPath20"
       clipPathUnits="userSpaceOnUse"><path
         style="clip-rule:evenodd"
         id="path18"
         d="m 7.336121,23.0625 c 0.258911,0 0.46875,0.20984 0.46875,0.46875 C 7.804871,23.79016 7.595032,24 7.336121,24 h -3.67e-4 c -0.258911,0 -0.468566,-0.20984 -0.468566,-0.46875 0,-0.25891 0.210021,-0.46875 0.468933,-0.46875 z" /></clipPath><clipPath
       id="clipPath26"
       clipPathUnits="userSpaceOnUse"><path
         id="path24"
         d="M -899,-1155 H 364 V 108 H -899 Z" /></clipPath><clipPath
       id="clipPath36"
       clipPathUnits="userSpaceOnUse"><path
         style="clip-rule:evenodd"
         id="path34"
         d="m 16.80487,0.9375 h -3.7e-4 c -0.25891,0 -0.46856,-0.2098388 -0.46856,-0.46875 C 16.33594,0.2098388 16.54596,0 16.80487,0 c 0.25891,0 0.46875,0.2098388 0.46875,0.46875 0,0.2589112 -0.20984,0.46875 -0.46875,0.46875 z" /></clipPath><clipPath
       id="clipPath42"
       clipPathUnits="userSpaceOnUse"><path
         id="path40"
         d="M -899,-1155 H 364 V 108 H -899 Z" /></clipPath><clipPath
       id="clipPath52"
       clipPathUnits="userSpaceOnUse"><path
         style="clip-rule:evenodd"
         id="path50"
         d="m 20.83594,4.21875 v 18.5625 C 20.83594,23.45325 20.28918,24 19.61719,24 H 9.210938 c -0.258912,0 -0.46875,-0.20984 -0.46875,-0.46875 0,-0.25891 0.209838,-0.46875 0.46875,-0.46875 H 19.61719 c 0.15252,0 0.28125,-0.12872 0.28125,-0.28125 V 4.21875 c 0,-0.152527 -0.12873,-0.28125 -0.28125,-0.28125 H 5.929688 V 23.53125 C 5.929688,23.79016 5.719849,24 5.460938,24 H 4.992188 C 3.906555,24 3.023438,23.11688 3.023438,22.03125 V 1.96875 C 3.023438,0.8831177 3.906555,0 4.992188,0 h 9.937502 c 0.25891,0 0.46875,0.2098388 0.46875,0.46875 0,0.2589112 -0.20984,0.46875 -0.46875,0.46875 H 4.992188 c -0.568543,0 -1.03125,0.462524 -1.03125,1.03125 C 3.960938,2.537476 4.423462,3 4.992188,3 H 19.14844 V 0.9375 h -0.46875 c -0.25891,0 -0.46875,-0.2098388 -0.46875,-0.46875 C 18.21094,0.2098388 18.42078,0 18.67969,0 h 1.6875 c 0.25891,0 0.46875,0.2098388 0.46875,0.46875 0,0.2589112 -0.20984,0.46875 -0.46875,0.46875 h -0.28125 v 2.156433 c 0.44,0.184021 0.75,0.618713 0.75,1.124817 z M 4.992188,3.9375 c -0.377747,0 -0.731141,-0.106934 -1.03125,-0.292236 V 22.03125 c 0,0.56873 0.462524,1.03125 1.03125,1.03125 z" /></clipPath><clipPath
       id="clipPath58"
       clipPathUnits="userSpaceOnUse"><path
         id="path56"
         d="M -899,-1155 H 364 V 108 H -899 Z" /></clipPath><clipPath
       id="clipPath68"
       clipPathUnits="userSpaceOnUse"><path
         style="clip-rule:evenodd"
         id="path66"
         d="m 9.19043,10.81696 c 0,-0.62915 0.158386,-1.08582 0.484497,-1.396001 0.541623,-0.515441 1.365413,-0.474243 2.319393,-0.426818 0.29663,0.014831 0.60352,0.030029 0.91974,0.030029 0.31623,0 0.62311,-0.015198 0.91974,-0.030029 0.26935,-0.013367 0.52826,-0.026368 0.77344,-0.026368 0.62329,0 1.15723,0.083313 1.54596,0.453186 0.32611,0.310181 0.4845,0.766851 0.4845,1.396001 0,2.05316 -1.67048,3.72363 -3.72364,3.72363 -2.05334,0 -3.72363,-1.67047 -3.72363,-3.72363 z m 3.72363,2.78613 c 1.53626,0 2.78614,-1.24988 2.78614,-2.78613 0,-0.35376 -0.06501,-0.59473 -0.19318,-0.71686 C 15.25671,9.862061 14.5882,9.895203 13.88031,9.930359 13.57233,9.94574 13.25354,9.96167 12.91406,9.96167 c -0.33966,0 -0.65826,-0.01593 -0.96643,-0.031311 -0.7077,-0.035156 -1.37622,-0.068482 -1.62652,0.169741 -0.12818,0.12213 -0.19318,0.3631 -0.19318,0.71686 0,1.53625 1.24988,2.78613 2.78613,2.78613 z" /></clipPath><clipPath
       id="clipPath74"
       clipPathUnits="userSpaceOnUse"><path
         id="path72"
         d="M -899,-1155 H 364 V 108 H -899 Z" /></clipPath><clipPath
       id="clipPath84"
       clipPathUnits="userSpaceOnUse"><path
         style="clip-rule:evenodd"
         id="path82"
         d="m 14.38953,16.45532 c 0,0.86957 -0.66193,1.57691 -1.47547,1.57691 -0.81354,0 -1.47546,-0.70734 -1.47546,-1.57691 0,-0.86938 0.66192,-1.5769 1.47546,-1.5769 0.81354,0 1.47547,0.70752 1.47547,1.5769 z m -2.01343,0 c 0,0.34662 0.24628,0.63941 0.53796,0.63941 0.29151,0 0.53797,-0.29279 0.53797,-0.63941 0,-0.34643 -0.24646,-0.6394 -0.53797,-0.6394 -0.29168,0 -0.53796,0.29297 -0.53796,0.6394 z" /></clipPath><clipPath
       id="clipPath90"
       clipPathUnits="userSpaceOnUse"><path
         id="path88"
         d="M -899,-1155 H 364 V 108 H -899 Z" /></clipPath><clipPath
       id="clipPath100"
       clipPathUnits="userSpaceOnUse"><path
         style="clip-rule:evenodd"
         id="path98"
         d="m 7.981934,14.50836 c 0.299743,-0.5191 0.833129,-0.81427 1.366699,-0.81427 0.240234,0 0.480652,0.06006 0.699467,0.1864 0.34881,0.20142 0.5896,0.53632 0.67804,0.94355 0.08477,0.39038 0.01776,0.80236 -0.1886,1.15979 -0.4347,0.75293 -1.361576,1.03472 -2.066166,0.62786 C 8.122559,16.41046 7.881775,16.07538 7.793335,15.66833 7.708557,15.27777 7.775574,14.86578 7.981934,14.50836 Z m 0.727661,0.96094 c 0.031494,0.14557 0.113342,0.26294 0.230346,0.3305 0.256897,0.1485 0.609375,0.0207 0.785706,-0.28472 C 9.815186,15.35999 9.845215,15.18512 9.809876,15.02289 9.778381,14.87732 9.696533,14.75995 9.579346,14.69238 9.322449,14.54407 8.970154,14.67188 8.793823,14.97711 8.704285,15.1322 8.674255,15.30707 8.709595,15.4693 Z" /></clipPath><clipPath
       id="clipPath106"
       clipPathUnits="userSpaceOnUse"><path
         id="path104"
         d="M -899,-1155 H 364 V 108 H -899 Z" /></clipPath><clipPath
       id="clipPath116"
       clipPathUnits="userSpaceOnUse"><path
         style="clip-rule:evenodd"
         id="path114"
         d="M 15.7126,14.18016 C 15.93128,14.05805 16.17116,14 16.41123,14 c 0.53261,0 1.0654,0.28528 1.36471,0.78701 0.20606,0.34545 0.27298,0.74365 0.18832,1.12096 -0.08831,0.39341 -0.32874,0.71728 -0.67705,0.91195 -0.70356,0.39324 -1.62909,0.12087 -2.06315,-0.60685 -0.20606,-0.34563 -0.27298,-0.74365 -0.18832,-1.12114 0.08831,-0.39341 0.32874,-0.71727 0.67686,-0.91177 z m 0.37484,1.53828 C 16.19933,15.89633 16.39147,16 16.57519,16 c 0.07248,0 0.14366,-0.01621 0.20803,-0.05027 0.10362,-0.05489 0.1761,-0.15023 0.20399,-0.26847 0.03129,-0.13178 0.0047,-0.27368 -0.07459,-0.3998 -0.15615,-0.2481 -0.46829,-0.35162 -0.69578,-0.23129 -0.10361,0.05489 -0.1761,0.15022 -0.20415,0.26847 -0.03113,0.13178 -0.0045,0.27382 0.07475,0.3998 z" /></clipPath><clipPath
       id="clipPath122"
       clipPathUnits="userSpaceOnUse"><path
         id="path120"
         d="M -899,-1155 H 364 V 108 H -899 Z" /></clipPath></defs><g
     transform="matrix(1.3333333,0,0,-1.3333333,0,32)"
     id="g10"><g
       id="g12" /><g
       id="g14"><g
         clip-path="url(#clipPath20)"
         id="g16"><g
           clip-path="url(#clipPath26)"
           id="g22"><path
             id="path28"
             style="fill:#01748e;fill-opacity:1;fill-rule:nonzero;stroke:none"
             d="M 1.867188,29 H 12.80487 V 18.0625 H 1.867188 Z" /></g></g></g><g
       id="g30"><g
         clip-path="url(#clipPath36)"
         id="g32"><g
           clip-path="url(#clipPath42)"
           id="g38"><path
             id="path44"
             style="fill:#01748e;fill-opacity:1;fill-rule:nonzero;stroke:none"
             d="M 11.33594,5.9375 H 22.27362 V -5 H 11.33594 Z" /></g></g></g><g
       id="g46"><g
         clip-path="url(#clipPath52)"
         id="g48"><g
           clip-path="url(#clipPath58)"
           id="g54"><path
             id="path60"
             style="fill:#01748e;fill-opacity:1;fill-rule:nonzero;stroke:none"
             d="M -1.976562,29 H 25.83594 V -5 H -1.976562 Z" /></g></g></g><g
       id="g62"><g
         clip-path="url(#clipPath68)"
         id="g64"><g
           clip-path="url(#clipPath74)"
           id="g70"><path
             id="path76"
             style="fill:#01748e;fill-opacity:1;fill-rule:nonzero;stroke:none"
             d="M 4.19043,19.54059 H 21.6377 V 3.967773 H 4.19043 Z" /></g></g></g><g
       id="g78"><g
         clip-path="url(#clipPath84)"
         id="g80"><g
           clip-path="url(#clipPath90)"
           id="g86"><path
             id="path92"
             style="fill:#01748e;fill-opacity:1;fill-rule:nonzero;stroke:none"
             d="M 6.438599,23.03223 H 19.38953 V 9.878418 H 6.438599 Z" /></g></g></g><g
       id="g94"><g
         clip-path="url(#clipPath100)"
         id="g96"><g
           clip-path="url(#clipPath106)"
           id="g102"><path
             id="path108"
             style="fill:#01748e;fill-opacity:1;fill-rule:nonzero;stroke:none"
             d="M 2.757547,21.79802 H 15.76192 V 8.694092 H 2.757547 Z" /></g></g></g><g
       id="g110"><g
         clip-path="url(#clipPath116)"
         id="g112"><g
           clip-path="url(#clipPath122)"
           id="g118"><path
             id="path124"
             style="fill:#01748e;fill-opacity:1;fill-rule:nonzero;stroke:none"
             d="M 10,22 H 23 V 9 H 10 Z" /></g></g></g></g></svg>