<?xml version="1.0" encoding="UTF-8" standalone="no"?>
<svg
   xmlns:dc="http://purl.org/dc/elements/1.1/"
   xmlns:cc="http://creativecommons.org/ns#"
   xmlns:rdf="http://www.w3.org/1999/02/22-rdf-syntax-ns#"
   xmlns:svg="http://www.w3.org/2000/svg"
   xmlns="http://www.w3.org/2000/svg"
   viewBox="0 0 32 32"
   height="32"
   width="32"
   xml:space="preserve"
   id="svg2"
   version="1.1"><metadata
     id="metadata8"><rdf:RDF><cc:Work
         rdf:about=""><dc:format>image/svg+xml</dc:format><dc:type
           rdf:resource="http://purl.org/dc/dcmitype/StillImage" /></cc:Work></rdf:RDF></metadata><defs
     id="defs6"><clipPath
       id="clipPath20"
       clipPathUnits="userSpaceOnUse"><path
         style="clip-rule:evenodd"
         id="path18"
         d="M 21.65625,21 H 2.34375 C 1.051406,21 0,19.93753 0,18.63158 V 5.368421 C 0,4.062474 1.051406,3 2.34375,3 h 19.3125 C 22.94859,3 24,4.062474 24,5.368421 V 18.63158 C 24,19.93753 22.94859,21 21.65625,21 Z m -0.52486,-0.94737 -1.59375,-1.61052 h -8.22886 c -0.25889,0 -0.46875,-0.21212 -0.46875,-0.47369 0,-0.26157 0.20986,-0.47368 0.46875,-0.47368 h 7.29136 l -1.3125,-1.32632 h -3.46762 c -0.2589,0 -0.46875,-0.21211 -0.46875,-0.47368 0,-0.26157 0.20985,-0.47369 0.46875,-0.47369 h 2.53012 l -2.29223,-2.31636 c -1.13475,-1.14665 -2.98107,-1.14665 -4.115816,0 L 2.868609,20.05263 Z M 21.65625,3.947368 H 2.34375 c -0.231328,0 -0.449625,0.057127 -0.642328,0.157548 l 2.232609,2.25611 c 0.183047,0.184974 0.183047,0.484911 0,0.669885 -0.091547,0.09251 -0.2115,0.138742 -0.331453,0.138742 -0.119953,0 -0.239953,-0.046279 -0.331453,-0.138742 L 1.057828,4.794316 C 0.9807187,4.970005 0.9375,5.164168 0.9375,5.368421 V 18.63158 c 0,0.54995 0.310969,1.02756 0.764344,1.26369 0.00989,-0.01222 0.020484,-0.02411 0.031781,-0.03552 L 8.85,12.66851 5.890031,9.677384 c -0.183047,-0.184973 -0.183047,-0.48491 0,-0.669931 0.183047,-0.185021 0.47986,-0.184974 0.662953,0 l 2.970657,3.001977 c 1.426449,-1.21429 3.526309,-1.21429 4.952809,0 l 7.82218,-7.904562 c -0.19276,-0.100373 -0.41105,-0.1575 -0.64238,-0.1575 z m 1.40625,1.421053 c 0,-0.204253 -0.04322,-0.398416 -0.12033,-0.574105 l -7.79212,7.874244 7.11637,7.19123 c 0.0113,0.01142 0.02185,0.02326 0.03178,0.03553 0.45333,-0.23618 0.7643,-0.71379 0.7643,-1.26374 z" /></clipPath><clipPath
       id="clipPath26"
       clipPathUnits="userSpaceOnUse"><path
         id="path24"
         d="M -51,-644 H 1212 V 619 H -51 Z" /></clipPath><clipPath
       id="clipPath36"
       clipPathUnits="userSpaceOnUse"><path
         style="clip-rule:evenodd"
         id="path34"
         d="M 9.8535,17.85345 C 9.7605,17.9465 9.632,18 9.5,18 9.3685,18 9.2395,17.9465 9.1465,17.85345 9.0535,17.7605 9,17.6315 9,17.5 9,17.3685 9.0535,17.2395 9.1465,17.1465 9.2395,17.0535 9.3685,17 9.5,17 9.632,17 9.7605,17.05345 9.8535,17.1465 9.947,17.2395 10,17.3685 10,17.5 c 0,0.1315 -0.053,0.2605 -0.1465,0.35345 z" /></clipPath><clipPath
       id="clipPath42"
       clipPathUnits="userSpaceOnUse"><path
         id="path40"
         d="M -51,-644 H 1212 V 619 H -51 Z" /></clipPath><clipPath
       id="clipPath52"
       clipPathUnits="userSpaceOnUse"><path
         style="clip-rule:evenodd"
         id="path50"
         d="M 4.853927,7.8535 C 4.76088,7.9465 4.631816,8 4.49975,8 4.368184,8 4.23962,7.9465 4.146073,7.8535 4.053027,7.7605 4,7.6315 4,7.5 4,7.368 4.053027,7.2395 4.146073,7.1465 4.23962,7.053 4.368184,7 4.49975,7 4.631816,7 4.76088,7.053 4.853927,7.1465 4.946973,7.2395 5,7.368 5,7.5 5,7.6315 4.946973,7.7605 4.853927,7.8535 Z" /></clipPath><clipPath
       id="clipPath58"
       clipPathUnits="userSpaceOnUse"><path
         id="path56"
         d="M -51,-644 H 1212 V 619 H -51 Z" /></clipPath></defs><g
     transform="matrix(1.3333333,0,0,-1.3333333,0,32)"
     id="g10"><g
       id="g12" /><g
       id="g14"><g
         clip-path="url(#clipPath20)"
         id="g16"><g
           clip-path="url(#clipPath26)"
           id="g22"><path
             id="path28"
             style="fill:#fa9c93;fill-opacity:1;fill-rule:nonzero;stroke:none"
             d="M -5,26 H 29 V -2 H -5 Z" /></g></g></g><g
       id="g30"><g
         clip-path="url(#clipPath36)"
         id="g32"><g
           clip-path="url(#clipPath42)"
           id="g38"><path
             id="path44"
             style="fill:#fa9c93;fill-opacity:1;fill-rule:nonzero;stroke:none"
             d="M 4,23 H 15 V 12 H 4 Z" /></g></g></g><g
       id="g46"><g
         clip-path="url(#clipPath52)"
         id="g48"><g
           clip-path="url(#clipPath58)"
           id="g54"><path
             id="path60"
             style="fill:#fa9c93;fill-opacity:1;fill-rule:nonzero;stroke:none"
             d="M -1,13 H 10 V 2 H -1 Z" /></g></g></g></g></svg>