<?xml version="1.0" encoding="UTF-8" standalone="no"?>
<svg
   xmlns:dc="http://purl.org/dc/elements/1.1/"
   xmlns:cc="http://creativecommons.org/ns#"
   xmlns:rdf="http://www.w3.org/1999/02/22-rdf-syntax-ns#"
   xmlns:svg="http://www.w3.org/2000/svg"
   xmlns="http://www.w3.org/2000/svg"
   viewBox="0 0 32 32"
   height="32"
   width="32"
   xml:space="preserve"
   id="svg2"
   version="1.1"><metadata
     id="metadata8"><rdf:RDF><cc:Work
         rdf:about=""><dc:format>image/svg+xml</dc:format><dc:type
           rdf:resource="http://purl.org/dc/dcmitype/StillImage" /></cc:Work></rdf:RDF></metadata><defs
     id="defs6"><clipPath
       id="clipPath20"
       clipPathUnits="userSpaceOnUse"><path
         style="clip-rule:evenodd"
         id="path18"
         d="M 22.875,7.343672 V 20.69531 c 0,0.78835 -0.64139,1.42969 -1.42969,1.42969 h -3.39843 v 0.46875 C 18.04688,23.36916 17.41603,24 16.64062,24 15.86522,24 15.23438,23.36916 15.23438,22.59375 V 22.125 H 7.640625 v 0.46875 C 7.640625,23.36916 7.009781,24 6.234375,24 5.458969,24 4.828125,23.36916 4.828125,22.59375 V 22.125 H 1.429688 C 0.6413906,22.125 0,21.48366 0,20.69531 V 3.304688 C 0,2.516344 0.6413906,1.875 1.429688,1.875 h 6.389109 c 0.258844,0 0.46875,0.209859 0.46875,0.46875 0,0.258891 -0.209906,0.46875 -0.46875,0.46875 H 1.429688 C 1.158281,2.8125 0.9375,3.033281 0.9375,3.304688 V 20.69531 c 0,0.27141 0.220781,0.49219 0.492188,0.49219 h 3.398437 v -0.46875 c 0,-0.77541 0.630844,-1.40625 1.40625,-1.40625 0.775406,0 1.40625,0.63084 1.40625,1.40625 v 0.46875 h 7.593755 v -0.46875 c 0,-0.77541 0.63084,-1.40625 1.40624,-1.40625 0.77541,0 1.40626,0.63084 1.40626,1.40625 v 0.46875 h 3.39843 c 0.27141,0 0.49219,-0.22078 0.49219,-0.49219 V 18.375 H 4.21875 C 3.959906,18.375 3.75,18.16514 3.75,17.90625 3.75,17.64736 3.959906,17.4375 4.21875,17.4375 H 21.9375 V 8.135766 C 21.53841,8.387484 21.09637,8.576859 20.625,8.690344 v 6.965906 c 0,0.25889 -0.20991,0.46875 -0.46875,0.46875 H 2.71875 C 2.459906,16.125 2.25,15.91514 2.25,15.65625 V 4.59375 C 2.25,4.334859 2.459906,4.125 2.71875,4.125 h 12.47798 c 0.02911,-0.460078 0.129,-0.901172 0.28918,-1.3125 H 11.56875 C 11.30991,2.8125 11.1,2.602641 11.1,2.34375 11.1,2.084859 11.30991,1.875 11.56875,1.875 H 15.9892 C 16.78734,0.7418438 18.10547,0 19.59375,0 22.02338,0 24,1.976625 24,4.40625 24,5.533781 23.57409,6.563531 22.875,7.343672 Z M 6.703125,20.71875 c 0,-0.25847 -0.210281,-0.46875 -0.46875,-0.46875 -0.258469,0 -0.46875,0.21028 -0.46875,0.46875 v 1.875 c 0,0.25847 0.210281,0.46875 0.46875,0.46875 0.258469,0 0.46875,-0.21028 0.46875,-0.46875 z m 10.406255,0 c 0,-0.25847 -0.21029,-0.46875 -0.46875,-0.46875 -0.25847,0 -0.46875,0.21028 -0.46875,0.46875 v 1.875 c 0,0.25847 0.21028,0.46875 0.46875,0.46875 0.25846,0 0.46875,-0.21028 0.46875,-0.46875 z M 19.59375,8.8125 c -0.21792,0 -0.43214,-0.016172 -0.64172,-0.046875 H 17.1375 v 2.718745 h 2.55 V 8.811328 C 19.65633,8.811984 19.62511,8.8125 19.59375,8.8125 Z m -4.35736,-3.75 H 13.65 V 7.828125 H 16.2 V 7.213406 C 15.70017,6.610172 15.3578,5.871984 15.23639,5.0625 Z M 3.1875,11.48437 h 2.55 V 8.765625 h -2.55 z m 3.4875,0 h 2.55 V 8.765625 h -2.55 z m 6.975,0 H 16.2 V 8.765625 H 13.65 Z M 12.7125,8.765625 h -2.55 v 2.718745 h 2.55 z M 13.65,12.42187 v 2.76563 h 2.55 v -2.76563 z m -0.9375,0 h -2.55 v 2.76563 h 2.55 z m -3.4875,0 h -2.55 v 2.76563 h 2.55 z m 0,-4.593745 V 5.0625 h -2.55 v 2.765625 z m 0.9375,0 h 2.55 V 5.0625 h -2.55 v 2.765625 z m 9.525,4.593745 h -2.55 v 2.76563 h 2.55 z m -13.95,2.76563 v -2.76563 h -2.55 v 2.76563 z m -2.55,-7.359375 h 2.55 V 5.0625 h -2.55 z M 19.59375,0.9375 c -1.91269,0 -3.46875,1.556062 -3.46875,3.46875 0,1.912687 1.55606,3.46875 3.46875,3.46875 1.91269,0 3.46875,-1.556063 3.46875,-3.46875 0,-1.912688 -1.55606,-3.46875 -3.46875,-3.46875 z" /></clipPath><clipPath
       id="clipPath26"
       clipPathUnits="userSpaceOnUse"><path
         id="path24"
         d="M -336,-1068 H 927 V 195 H -336 Z" /></clipPath><clipPath
       id="clipPath36"
       clipPathUnits="userSpaceOnUse"><path
         style="clip-rule:evenodd"
         id="path34"
         d="M 20.9145,5.620626 19.455,4.148829 18.80559,4.803711 c -0.18422,0.185825 -0.48293,0.185825 -0.66739,0 -0.18427,-0.185824 -0.18427,-0.487141 0,-0.672965 L 19.12129,3.13938 C 19.20981,3.050156 19.32981,3 19.45496,3 19.5801,3 19.7001,3.050156 19.78863,3.13938 l 1.79317,1.80828 c 0.18427,0.185825 0.18427,0.487141 0,0.673013 -0.18428,0.185777 -0.48298,0.185777 -0.6673,-4.7e-5 z" /></clipPath><clipPath
       id="clipPath42"
       clipPathUnits="userSpaceOnUse"><path
         id="path40"
         d="M -336,-1068 H 927 V 195 H -336 Z" /></clipPath><clipPath
       id="clipPath52"
       clipPathUnits="userSpaceOnUse"><path
         style="clip-rule:evenodd"
         id="path50"
         d="M 9.72,2.88 C 9.59376,2.88 9.46992,2.82864 9.38064,2.73936 9.291408,2.65008 9.24,2.52624 9.24,2.4 9.24,2.27376 9.29136,2.14992 9.38064,2.06064 9.46992,1.97136 9.59376,1.92 9.72,1.92 9.84624,1.92 9.97008,1.97136 10.05936,2.06064 10.14859,2.14992 10.2,2.27376 10.2,2.4 10.2,2.52624 10.14864,2.65008 10.05936,2.73936 9.97008,2.82864 9.84624,2.88 9.72,2.88 Z" /></clipPath><clipPath
       id="clipPath58"
       clipPathUnits="userSpaceOnUse"><path
         id="path56"
         d="M -336,-1068 H 927 V 195 H -336 Z" /></clipPath><clipPath
       id="clipPath68"
       clipPathUnits="userSpaceOnUse"><path
         style="clip-rule:evenodd"
         id="path66"
         d="M 2.739312,17.54064 C 2.82864,17.62992 2.88,17.75376 2.88,17.88 2.88,18.00624 2.82864,18.13008 2.739312,18.21936 2.65008,18.30864 2.52624,18.36 2.4,18.36 2.273232,18.36 2.14992,18.30864 2.06064,18.21936 1.97136,18.13008 1.92,18.00624 1.92,17.88 1.92,17.75376 1.971312,17.62992 2.06064,17.54064 2.149968,17.45136 2.273232,17.4 2.4,17.4 c 0.12624,0 0.25008,0.05136 0.339312,0.14064 z" /></clipPath><clipPath
       id="clipPath74"
       clipPathUnits="userSpaceOnUse"><path
         id="path72"
         d="M -336,-1068 H 927 V 195 H -336 Z" /></clipPath></defs><g
     transform="matrix(1.3333333,0,0,-1.3333333,0,32)"
     id="g10"><g
       id="g12" /><g
       id="g14"><g
         clip-path="url(#clipPath20)"
         id="g16"><g
           clip-path="url(#clipPath26)"
           id="g22"><path
             id="path28"
             style="fill:#01748e;fill-opacity:1;fill-rule:nonzero;stroke:none"
             d="M -5,29 H 29 V -5 H -5 Z" /></g></g></g><g
       id="g30"><g
         clip-path="url(#clipPath36)"
         id="g32"><g
           clip-path="url(#clipPath42)"
           id="g38"><path
             id="path44"
             style="fill:#01748e;fill-opacity:1;fill-rule:nonzero;stroke:none"
             d="M 13,10.76 H 26.72 V -2 H 13 Z" /></g></g></g><g
       id="g46"><g
         clip-path="url(#clipPath52)"
         id="g48"><g
           clip-path="url(#clipPath58)"
           id="g54"><path
             id="path60"
             style="fill:#01748e;fill-opacity:1;fill-rule:nonzero;stroke:none"
             d="M 4.24,7.88 H 15.2 V -3.08 H 4.24 Z" /></g></g></g><g
       id="g62"><g
         clip-path="url(#clipPath68)"
         id="g64"><g
           clip-path="url(#clipPath74)"
           id="g70"><path
             id="path76"
             style="fill:#01748e;fill-opacity:1;fill-rule:nonzero;stroke:none"
             d="M -3.08,23.36 H 7.88 V 12.4 H -3.08 Z" /></g></g></g></g></svg>