<?xml version="1.0" encoding="UTF-8" standalone="no"?>
<!DOCTYPE svg PUBLIC "-//W3C//DTD SVG 1.1//EN" "http://www.w3.org/Graphics/SVG/1.1/DTD/svg11.dtd">
<svg width="100%" height="100%" viewBox="0 0 32 32" version="1.1" xmlns="http://www.w3.org/2000/svg" xmlns:xlink="http://www.w3.org/1999/xlink" xml:space="preserve" xmlns:serif="http://www.serif.com/" style="fill-rule:evenodd;clip-rule:evenodd;stroke-linejoin:round;stroke-miterlimit:2;">
    <g id="g10" transform="matrix(1.33333,0,0,-1.33333,0,32)">
        <g id="g14">
            <g id="g16">
                <clipPath id="_clip1">
                    <path d="M11.417,2.017C11.579,1.876 11.781,1.806 11.982,1.806C12.184,1.806 12.386,1.876 12.548,2.017C19.592,8.121 23.949,11.211 23.949,16.012C23.949,19.809 21.26,22.957 17.483,22.957C15.002,22.957 13.102,21.527 11.879,19.381C10.658,21.522 8.761,22.957 6.276,22.957C3.384,22.957 0.967,21.083 0.117,18.183C-0.017,17.725 0.245,17.246 0.703,17.112C1.16,16.977 1.64,17.24 1.774,17.697C2.403,19.844 4.17,21.23 6.276,21.23C8.739,21.23 10.467,19.043 11.047,17.007C11.151,16.633 11.491,16.374 11.879,16.374C12.267,16.374 12.607,16.633 12.711,17.007C12.723,17.049 13.922,21.23 17.483,21.23C20.185,21.23 22.222,18.987 22.222,16.012C22.222,12.171 18.468,9.403 11.982,3.81C8.03,7.204 4.891,9.593 3.106,11.93C2.817,12.309 2.275,12.382 1.896,12.092C1.517,11.803 1.445,11.261 1.734,10.882C3.745,8.248 7.14,5.724 11.417,2.017Z"/>
                </clipPath>
                <g clip-path="url(#_clip1)">
                    <g id="g22">
                        <rect id="path28" x="-4.918" y="-3.194" width="33.867" height="31.151" style="fill:rgb(1,116,142);fill-rule:nonzero;"/>
                    </g>
                </g>
            </g>
        </g>
        <g id="g30">
            <g id="g32">
                <clipPath id="_clip2">
                    <path d="M0.863,15.351C0.387,15.351 0,14.964 0,14.488C0,14.011 0.387,13.625 0.863,13.625C1.34,13.625 1.727,14.011 1.727,14.488C1.727,14.964 1.34,15.351 0.863,15.351Z"/>
                </clipPath>
                <g clip-path="url(#_clip2)">
                    <g id="g38">
                        <rect id="path44" x="-5" y="8.625" width="11.727" height="11.727" style="fill:rgb(1,116,142);fill-rule:nonzero;"/>
                    </g>
                </g>
            </g>
        </g>
    </g>
</svg>
