<?xml version="1.0" encoding="UTF-8" standalone="no"?>
<svg
   xmlns:dc="http://purl.org/dc/elements/1.1/"
   xmlns:cc="http://creativecommons.org/ns#"
   xmlns:rdf="http://www.w3.org/1999/02/22-rdf-syntax-ns#"
   xmlns:svg="http://www.w3.org/2000/svg"
   xmlns="http://www.w3.org/2000/svg"
   viewBox="0 0 32 32"
   height="32"
   width="32"
   xml:space="preserve"
   id="svg2"
   version="1.1"><metadata
     id="metadata8"><rdf:RDF><cc:Work
         rdf:about=""><dc:format>image/svg+xml</dc:format><dc:type
           rdf:resource="http://purl.org/dc/dcmitype/StillImage" /></cc:Work></rdf:RDF></metadata><defs
     id="defs6"><clipPath
       id="clipPath20"
       clipPathUnits="userSpaceOnUse"><path
         style="clip-rule:evenodd"
         id="path18"
         d="m 11.41693,2.016861 c 0.16254,-0.140625 0.36387,-0.210768 0.56553,-0.210768 0.20167,0 0.40333,0.070143 0.56554,0.210768 7.04373,6.104542 11.40074,9.193909 11.40074,13.994719 0,3.79788 -2.68874,6.94525 -6.46605,6.94525 -2.48067,0 -4.38028,-1.42985 -5.60376,-3.57565 -1.22077,2.14108 -3.118363,3.57565 -5.602738,3.57565 -2.89175,0 -5.3093529,-1.87398 -6.1591731,-4.77383 -0.13421766,-0.45762 0.1281475,-0.93716 0.5857689,-1.07138 0.4576212,-0.13421 0.9371632,0.12815 1.0710432,0.58577 0.628934,2.14614 2.396021,3.53283 4.502361,3.53283 2.462792,0 4.190418,-2.18694 4.770798,-4.22314 0.10353,-0.37399 0.44413,-0.63298 0.83194,-0.63298 0.38816,0 0.72842,0.25899 0.83195,0.63298 0.0118,0.04216 1.211,4.22314 4.77181,4.22314 2.70189,0 4.73943,-2.24326 4.73943,-5.21864 0,-3.84038 -3.75404,-6.60904 -10.24033,-12.201665 C 8.029789,7.203799 4.890513,9.592738 3.106228,11.92974 2.816884,12.30879 2.275292,12.38163 1.896246,12.09229 1.517199,11.80295 1.444694,11.26135 1.733701,10.88197 3.744942,8.247864 7.140175,5.724033 11.41693,2.016861 Z" /></clipPath><clipPath
       id="clipPath26"
       clipPathUnits="userSpaceOnUse"><path
         id="path24"
         d="M -234,-607 H 1029 V 656 H -234 Z" /></clipPath><clipPath
       id="clipPath36"
       clipPathUnits="userSpaceOnUse"><path
         style="clip-rule:evenodd"
         id="path34"
         d="M 0.8633094,15.35128 C 0.3868031,15.35128 0,14.96448 0,14.48797 c 0,-0.4765 0.3868031,-0.86331 0.8633094,-0.86331 0.4765066,0 0.8633096,0.38681 0.8633096,0.86331 0,0.47651 -0.386803,0.86331 -0.8633096,0.86331 z" /></clipPath><clipPath
       id="clipPath42"
       clipPathUnits="userSpaceOnUse"><path
         id="path40"
         d="M -234,-607 H 1029 V 656 H -234 Z" /></clipPath></defs><g
     transform="matrix(1.3333333,0,0,-1.3333333,0,32)"
     id="g10"><g
       id="g12" /><g
       id="g14"><g
         clip-path="url(#clipPath20)"
         id="g16"><g
           clip-path="url(#clipPath26)"
           id="g22"><path
             id="path28"
             style="fill:#fa9c93;fill-opacity:1;fill-rule:nonzero;stroke:none"
             d="M -4.918093,27.95683 H 28.94874 V -3.193907 H -4.918093 Z" /></g></g></g><g
       id="g30"><g
         clip-path="url(#clipPath36)"
         id="g32"><g
           clip-path="url(#clipPath42)"
           id="g38"><path
             id="path44"
             style="fill:#fa9c93;fill-opacity:1;fill-rule:nonzero;stroke:none"
             d="M -5,20.35128 H 6.726619 V 8.624663 H -5 Z" /></g></g></g></g></svg>