<?xml version="1.0" encoding="UTF-8" standalone="no"?>
<svg
   xmlns:dc="http://purl.org/dc/elements/1.1/"
   xmlns:cc="http://creativecommons.org/ns#"
   xmlns:rdf="http://www.w3.org/1999/02/22-rdf-syntax-ns#"
   xmlns:svg="http://www.w3.org/2000/svg"
   xmlns="http://www.w3.org/2000/svg"
   viewBox="0 0 36 49.333332"
   height="49.333332"
   width="36"
   xml:space="preserve"
   id="svg2"
   version="1.1"><metadata
     id="metadata8"><rdf:RDF><cc:Work
         rdf:about=""><dc:format>image/svg+xml</dc:format><dc:type
           rdf:resource="http://purl.org/dc/dcmitype/StillImage" /></cc:Work></rdf:RDF></metadata><defs
     id="defs6"><clipPath
       id="clipPath20"
       clipPathUnits="userSpaceOnUse"><path
         style="clip-rule:evenodd"
         id="path18"
         d="M 13.49996,13 C 19.28968,13 24,17.7103 24,23.5 24,29.2897 19.28968,34 13.49996,34 7.710246,34 3,29.2897 3,23.5 3,17.7103 7.710246,13 13.49996,13 Z m 0,19.6 c 5.01783,0 9.10004,-4.08219 9.10004,-9.1 0,-5.01781 -4.08221,-9.1 -9.10004,-9.1 -5.017752,0 -9.099955,4.08219 -9.099955,9.1 0,5.01781 4.082203,9.1 9.099955,9.1 z" /></clipPath><clipPath
       id="clipPath26"
       clipPathUnits="userSpaceOnUse"><path
         id="path24"
         d="M -527,-1048 H 736 V 215 H -527 Z" /></clipPath><clipPath
       id="clipPath36"
       clipPathUnits="userSpaceOnUse"><path
         style="clip-rule:evenodd"
         id="path34"
         d="M 13.5,37 C 11.08414,37 8.7129,36.34224 6.642568,35.0979 6.304713,34.89476 6.192734,34.4517 6.392392,34.10807 6.59205,33.76445 7.027674,33.65056 7.3656,33.85363 c 1.851489,1.11282 3.97269,1.70106 6.1344,1.70106 6.66033,0 12.07895,-5.51112 12.07895,-12.28516 0,-6.27251 -4.61544,-11.52167 -10.73598,-12.20993 -0.36003,-0.04054 -0.63244,-0.34991 -0.63244,-0.71824 V 7.226707 c 0,-0.399051 0.31817,-0.722656 0.71052,-0.722656 h 1.42106 c 0.39178,0 0.71052,-0.324184 0.71052,-0.722656 0,-0.398473 -0.31874,-0.722657 -0.71052,-0.722657 h -1.42106 c -0.39235,0 -0.71052,-0.323605 -0.71052,-0.722656 V 2.167969 c 0,-0.398473 -0.31875,-0.722657 -0.71053,-0.722657 -0.39178,0 -0.71053,0.324184 -0.71053,0.722657 v 2.168113 c 0,0.399051 -0.31817,0.722656 -0.71052,0.722656 h -1.42106 c -0.39178,0 -0.710522,0.324184 -0.710522,0.722657 0,0.398472 0.318742,0.722656 0.710522,0.722656 h 1.42106 c 0.39235,0 0.71052,0.323605 0.71052,0.722656 v 3.114653 c 0,0.36841 -0.27241,0.67777 -0.63244,0.71824 -6.120541,0.68826 -10.735977,5.93742 -10.735977,12.20993 0,2.19847 0.57851,4.3561 1.672863,6.23963 0.199658,0.34363 0.087537,0.78683 -0.250177,0.98982 -0.337855,0.203 -0.773621,0.08904 -0.973207,-0.25444 C 0.6468632,28.13836 0,25.72649 0,23.26953 0,19.88779 1.222105,16.63562 3.441221,14.1121 5.518018,11.75046 8.3133,10.20275 11.36842,9.709537 V 7.949363 h -0.71053 c -1.175348,0 -2.131574,-0.972551 -2.131574,-2.167968 0,-1.195418 0.956226,-2.167969 2.131574,-2.167969 h 0.71053 V 2.167969 C 11.36842,0.9725508 12.32465,0 13.5,0 c 1.17535,0 2.13158,0.9725508 2.13158,2.167969 v 1.445457 h 0.71053 c 1.17535,0 2.13157,0.972551 2.13157,2.167969 0,1.195417 -0.95622,2.167968 -2.13157,2.167968 H 15.63158 V 9.709537 C 18.6867,10.20275 21.48205,11.75046 23.55878,14.1121 25.77789,16.63555 27,19.88772 27,23.26953 27,30.84058 20.94397,37 13.5,37 Z" /></clipPath><clipPath
       id="clipPath42"
       clipPathUnits="userSpaceOnUse"><path
         id="path40"
         d="M -527,-1048 H 736 V 215 H -527 Z" /></clipPath><clipPath
       id="clipPath52"
       clipPathUnits="userSpaceOnUse"><path
         style="clip-rule:evenodd"
         id="path50"
         d="M 4.179893,32.11584 C 4.273324,32.03795 4.386802,32 4.499629,32 4.6428,32 4.785021,32.0613 4.883951,32.17994 l 2.5e-4,3e-4 c 0.176715,0.21208 0.147921,0.5272 -0.064137,0.70399 -0.212157,0.17668 -0.527444,0.14789 -0.704208,-0.0642 -0.176714,-0.21213 -0.14807,-0.5274 0.064037,-0.70419 z" /></clipPath><clipPath
       id="clipPath58"
       clipPathUnits="userSpaceOnUse"><path
         id="path56"
         d="M -527,-1048 H 736 V 215 H -527 Z" /></clipPath></defs><g
     transform="matrix(1.3333333,0,0,-1.3333333,0,49.333333)"
     id="g10"><g
       id="g12" /><g
       id="g14"><g
         clip-path="url(#clipPath20)"
         id="g16"><g
           clip-path="url(#clipPath26)"
           id="g22"><path
             id="path28"
             style="fill:#01748e;fill-opacity:1;fill-rule:nonzero;stroke:none"
             d="M -2,39 H 29 V 8 H -2 Z" /></g></g></g><g
       id="g30"><g
         clip-path="url(#clipPath36)"
         id="g32"><g
           clip-path="url(#clipPath42)"
           id="g38"><path
             id="path44"
             style="fill:#01748e;fill-opacity:1;fill-rule:nonzero;stroke:none"
             d="M -5,42 H 32 V -5 H -5 Z" /></g></g></g><g
       id="g46"><g
         clip-path="url(#clipPath52)"
         id="g48"><g
           clip-path="url(#clipPath58)"
           id="g54"><path
             id="path60"
             style="fill:#01748e;fill-opacity:1;fill-rule:nonzero;stroke:none"
             d="M -1,38 H 10 V 27 H -1 Z" /></g></g></g></g></svg>