<?xml version="1.0" encoding="UTF-8" standalone="no"?>
<svg
   xmlns:dc="http://purl.org/dc/elements/1.1/"
   xmlns:cc="http://creativecommons.org/ns#"
   xmlns:rdf="http://www.w3.org/1999/02/22-rdf-syntax-ns#"
   xmlns:svg="http://www.w3.org/2000/svg"
   xmlns="http://www.w3.org/2000/svg"
   viewBox="0 0 32 32"
   height="32"
   width="32"
   xml:space="preserve"
   id="svg2"
   version="1.1"><metadata
     id="metadata8"><rdf:RDF><cc:Work
         rdf:about=""><dc:format>image/svg+xml</dc:format><dc:type
           rdf:resource="http://purl.org/dc/dcmitype/StillImage" /></cc:Work></rdf:RDF></metadata><defs
     id="defs6"><clipPath
       id="clipPath20"
       clipPathUnits="userSpaceOnUse"><path
         style="clip-rule:evenodd"
         id="path18"
         d="M 7.111111,11.1 C 6.652825,12.10511 5.749285,12.84603 4.662222,13.10813 V 22.125 C 4.662222,22.60825 4.264253,23 3.773333,23 3.282414,23 2.884444,22.60825 2.884444,22.125 V 13.1125 C 2.671683,13.05894 2.463612,12.98871 2.262222,12.9025 0.8426971,12.26971 -0.01457694,10.82197 0.1256018,9.294244 0.2657805,7.766515 1.372708,6.493418 2.884444,6.12125 V 2.875 C 2.884444,2.391751 3.282414,2 3.773333,2 4.264253,2 4.662222,2.391751 4.662222,2.875 v 3.241875 c 1.168804,0.281093 2.120626,1.11321 2.542222,2.2225 C 7.550379,9.234718 7.516754,10.22928 7.111111,11.1 Z M 5.542222,8.95625 C 5.240826,8.168724 4.439662,7.678653 3.588888,7.761398 2.738114,7.844142 2.049867,8.479071 1.910858,9.30943 c -0.139009,0.83036 0.305882,1.6491 1.084698,1.9962 0.242472,0.10998 0.506355,0.16671 0.773333,0.16625 0.743045,9e-5 1.417459,-0.42766 1.724444,-1.09375 0.211986,-0.447206 0.2328,-0.959441 0.057778,-1.42188 h -0.00889 z" /></clipPath><clipPath
       id="clipPath26"
       clipPathUnits="userSpaceOnUse"><path
         id="path24"
         d="M -93,-644 H 1170 V 619 H -93 Z" /></clipPath><clipPath
       id="clipPath36"
       clipPathUnits="userSpaceOnUse"><path
         style="clip-rule:evenodd"
         id="path34"
         d="m 23.55556,11.1 c -0.45829,1.00511 -1.36183,1.74603 -2.44889,2.00813 V 22.125 c 0,0.48325 -0.39797,0.875 -0.88889,0.875 -0.49092,0 -0.88889,-0.39175 -0.88889,-0.875 v -9.0125 c -0.21276,-0.05356 -0.42083,-0.12379 -0.62222,-0.21 -1.41953,-0.63279 -2.2768,-2.08053 -2.13662,-3.608256 0.14017,-1.527729 1.2471,-2.800826 2.75884,-3.172994 V 2.875 c 0,-0.483249 0.39797,-0.875 0.88889,-0.875 0.49092,0 0.88889,0.391751 0.88889,0.875 v 3.241875 c 1.1688,0.281093 2.12062,1.11321 2.54222,2.2225 C 23.99482,9.234718 23.9612,10.22928 23.55556,11.1 Z M 21.98667,8.95625 C 21.68527,8.168724 20.88411,7.678653 20.03333,7.761398 19.18256,7.844142 18.49431,8.479071 18.3553,9.30943 c -0.13901,0.83036 0.30588,1.6491 1.0847,1.9962 0.24261,0.10959 0.5064,0.1663 0.77333,0.16625 0.74305,9e-5 1.41746,-0.42766 1.72445,-1.09375 0.20909,-0.448389 0.2267,-0.960605 0.04889,-1.42188 z" /></clipPath><clipPath
       id="clipPath42"
       clipPathUnits="userSpaceOnUse"><path
         id="path40"
         d="M -93,-644 H 1170 V 619 H -93 Z" /></clipPath><clipPath
       id="clipPath52"
       clipPathUnits="userSpaceOnUse"><path
         style="clip-rule:evenodd"
         id="path50"
         d="m 13.28889,18.625 c -0.13333,0.04812 -0.26667,0.0875 -0.40445,0.1225 v 3.3775 c 0,0.48325 -0.39796,0.875 -0.88888,0.875 -0.49092,0 -0.88889,-0.39175 -0.88889,-0.875 V 18.73438 C 10.05373,18.47272 9.172513,17.76561 8.699936,16.80313 8.227358,15.84066 8.211922,14.72162 8.657778,13.74688 c 0.398072,-0.87324 1.134125,-1.55369 2.044442,-1.89 0.13334,-0.04813 0.27111,-0.0875 0.40445,-0.1225 V 2.875 c 0,-0.483249 0.39797,-0.875 0.88889,-0.875 0.49092,0 0.88888,0.391751 0.88888,0.875 v 8.86375 c 0.21377,0.0502 0.42214,0.12052 0.62223,0.21 1.36193,0.59553 2.22144,1.94406 2.17361,3.41027 -0.04783,1.46622 -0.99345,2.75768 -2.39139,3.26598 z m 0.48889,-4.04687 c -0.26961,-0.70389 -0.9435,-1.17852 -1.70731,-1.20246 -0.76381,-0.02395 -1.46703,0.40751 -1.78158,1.09308 -0.26404,0.57522 -0.21359,1.24302 0.13398,1.77346 0.34757,0.53045 0.94478,0.8511 1.58602,0.85154 0.22758,-1.7e-4 0.45331,-0.04017 0.66667,-0.11812 0.46446,-0.17645 0.83861,-0.52744 1.04,-0.97563 v 0 c 0.21343,-0.44661 0.23585,-0.95885 0.06222,-1.42187 z" /></clipPath><clipPath
       id="clipPath58"
       clipPathUnits="userSpaceOnUse"><path
         id="path56"
         d="M -93,-644 H 1170 V 619 H -93 Z" /></clipPath></defs><g
     transform="matrix(1.3333333,0,0,-1.3333333,0,32)"
     id="g10"><g
       id="g12" /><g
       id="g14"><g
         clip-path="url(#clipPath20)"
         id="g16"><g
           clip-path="url(#clipPath26)"
           id="g22"><path
             id="path28"
             style="fill:#fa9c93;fill-opacity:1;fill-rule:nonzero;stroke:none"
             d="M -4.889328,28 H 12.44163 V -3 H -4.889328 Z" /></g></g></g><g
       id="g30"><g
         clip-path="url(#clipPath36)"
         id="g32"><g
           clip-path="url(#clipPath42)"
           id="g38"><path
             id="path44"
             style="fill:#fa9c93;fill-opacity:1;fill-rule:nonzero;stroke:none"
             d="M 11.55512,28 H 28.88607 V -3 H 11.55512 Z" /></g></g></g><g
       id="g46"><g
         clip-path="url(#clipPath52)"
         id="g48"><g
           clip-path="url(#clipPath58)"
           id="g54"><path
             id="path60"
             style="fill:#fa9c93;fill-opacity:1;fill-rule:nonzero;stroke:none"
             d="M 3.334105,28 H 20.68218 V -3 H 3.334105 Z" /></g></g></g></g></svg>