<?xml version="1.0" encoding="UTF-8" standalone="no"?>
<svg
   xmlns:dc="http://purl.org/dc/elements/1.1/"
   xmlns:cc="http://creativecommons.org/ns#"
   xmlns:rdf="http://www.w3.org/1999/02/22-rdf-syntax-ns#"
   xmlns:svg="http://www.w3.org/2000/svg"
   xmlns="http://www.w3.org/2000/svg"
   viewBox="0 0 38.666668 38.666668"
   height="38.666668"
   width="38.666668"
   xml:space="preserve"
   id="svg2"
   version="1.1"><metadata
     id="metadata8"><rdf:RDF><cc:Work
         rdf:about=""><dc:format>image/svg+xml</dc:format><dc:type
           rdf:resource="http://purl.org/dc/dcmitype/StillImage" /></cc:Work></rdf:RDF></metadata><defs
     id="defs6"><clipPath
       id="clipPath20"
       clipPathUnits="userSpaceOnUse"><path
         style="clip-rule:evenodd"
         id="path18"
         d="m 27.83179,20.06993 c -0.74477,1.71604 -1.80429,3.26799 -3.14911,4.61275 -1.34476,1.34476 -2.89671,2.40428 -4.61275,3.14911 C 18.2841,28.60697 16.41009,29 14.5,29 12.58991,29 10.7159,28.60697 8.930074,27.83179 7.214033,27.08696 5.66208,26.02744 4.317318,24.68268 2.972557,23.33792 1.913037,21.78597 1.168213,20.06993 0.3930293,18.2841 0,16.41009 0,14.5 0,12.58991 0.3930293,10.7159 1.168213,8.930074 1.913037,7.214033 2.972557,5.66208 4.317318,4.317318 5.66208,2.972557 7.214033,1.913037 8.930074,1.168213 10.7159,0.3930293 12.58991,0 14.5,0 c 1.91009,0 3.7841,0.3930293 5.56993,1.168213 1.71604,0.744824 3.26799,1.804344 4.61275,3.149105 1.34476,1.344762 2.40428,2.896715 3.14911,4.612756 C 28.60697,10.7159 29,12.58991 29,14.5 c 0,1.91009 -0.39303,3.7841 -1.16821,5.56993 z M 14.5,1.132812 C 7.254248,1.132812 1.132813,7.254248 1.132813,14.5 c 0,7.24575 6.121435,13.36719 13.367187,13.36719 7.24575,0 13.36719,-6.12144 13.36719,-13.36719 C 27.86719,7.254248 21.74575,1.132812 14.5,1.132812 Z" /></clipPath><clipPath
       id="clipPath26"
       clipPathUnits="userSpaceOnUse"><path
         id="path24"
         d="M -704,-949 H 559 V 314 H -704 Z" /></clipPath><clipPath
       id="clipPath36"
       clipPathUnits="userSpaceOnUse"><path
         style="clip-rule:evenodd"
         id="path34"
         d="m 25.67761,19.18812 c -0.61998,1.4405 -1.50364,2.74024 -2.62644,3.86299 -1.12281,1.12286 -2.42249,2.00646 -3.86305,2.6265 -1.49707,0.64434 -3.0744,0.97104 -4.68812,0.97104 -2.19372,0 -4.48046,-0.74911 -6.613028,-2.16628 -0.262366,-0.17436 -0.333718,-0.52838 -0.159359,-0.79069 0.174359,-0.26237 0.528438,-0.33366 0.790689,-0.15936 1.944928,1.29243 4.013328,1.97561 5.981698,1.97561 5.96693,0 11.00793,-5.041 11.00793,-11.00793 0,-5.966926 -5.041,-11.00793 -11.00793,-11.00793 -5.966926,0 -11.00793,5.041004 -11.00793,11.00793 0,1.96797 0.683005,4.03649 1.975096,5.98176 0.174302,0.26242 0.102893,0.61638 -0.159472,0.79068 C 5.045214,21.44675 4.69125,21.37528 4.517005,21.11291 3.100233,18.97994 2.351351,16.69326 2.351351,14.5 c 0,-1.61372 0.326702,-3.19105 0.971037,-4.688124 C 3.942368,8.371377 4.826025,7.071643 5.948834,5.948891 7.071643,4.826082 8.37132,3.942425 9.811819,3.322445 11.30895,2.678053 12.88628,2.351351 14.5,2.351351 c 1.61372,0 3.19105,0.326702 4.68812,0.971037 1.4405,0.61998 2.74024,1.503637 3.86299,2.626446 1.12281,1.122809 2.00646,2.422486 2.62645,3.862985 0.64439,1.497131 0.97109,3.074461 0.97109,4.688181 0,1.61372 -0.3267,3.19105 -0.97104,4.68812 z" /></clipPath><clipPath
       id="clipPath42"
       clipPathUnits="userSpaceOnUse"><path
         id="path40"
         d="M -704,-949 H 559 V 314 H -704 Z" /></clipPath><clipPath
       id="clipPath52"
       clipPathUnits="userSpaceOnUse"><path
         style="clip-rule:evenodd"
         id="path50"
         d="m 18.11606,14.10811 2.37792,2.37791 c 0.43088,0.43054 0.66818,1.00307 0.66818,1.61226 0,0.60919 -0.2373,1.18172 -0.66801,1.61209 -0.43077,0.43076 -1.00324,0.66801 -1.61209,0.66801 -0.60884,0 -1.18132,-0.23725 -1.61208,-0.66801 l -2.37809,-2.37809 -2.37808,2.37809 c -0.43077,0.43076 -1.00325,0.66801 -1.61209,0.66801 -0.60884,0 -1.181319,-0.23725 -1.611916,-0.66784 C 8.858923,19.28 8.621622,18.70747 8.621622,18.09828 c 0,-0.60919 0.237301,-1.18172 0.668011,-1.61209 L 11.66772,14.10811 9.289804,11.73019 C 8.858923,11.29965 8.621622,10.72712 8.621622,10.11794 c 0,-0.609189 0.237301,-1.181722 0.668011,-1.61209 0.430768,-0.430768 1.003297,-0.668012 1.612087,-0.668012 0.60879,0 1.18132,0.237244 1.61209,0.668012 l 2.37808,2.37809 2.37809,-2.37809 c 0.43076,-0.430768 1.0033,-0.668012 1.61208,-0.668012 0.60879,0 1.18132,0.237244 1.61192,0.667841 0.43088,0.430539 0.66818,1.003072 0.66818,1.612261 0,0.60918 -0.2373,1.18171 -0.66801,1.61208 z M 19.68802,9.311978 C 19.47255,9.096566 19.18634,8.977887 18.88206,8.977887 c -0.30428,0 -0.59048,0.118679 -0.80595,0.334091 l -2.78115,2.781152 c -0.11133,0.11132 -0.2572,0.16696 -0.40307,0.16696 -0.14587,0 -0.29179,-0.05564 -0.40306,-0.16696 L 11.70768,9.311978 C 11.49221,9.096566 11.206,8.977887 10.90172,8.977887 c -0.30428,0 -0.59049,0.118679 -0.80613,0.334262 -0.215297,0.215185 -0.333919,0.501337 -0.333919,0.805791 0,0.30445 0.118622,0.5906 0.334089,0.80595 l 2.78115,2.78115 c 0.2226,0.2226 0.2226,0.58354 0,0.80613 l -2.78132,2.78132 c -0.215297,0.21519 -0.333919,0.50134 -0.333919,0.80579 0,0.30445 0.118622,0.5906 0.334089,0.80596 0.21547,0.21541 0.50168,0.33409 0.80596,0.33409 0.30428,0 0.59049,-0.11868 0.80596,-0.33409 l 2.78115,-2.78115 c 0.22259,-0.2226 0.58353,-0.2226 0.80618,0 l 2.78115,2.7812 c 0.21542,0.21536 0.50162,0.33404 0.8059,0.33404 0.30428,0 0.59049,-0.11868 0.80613,-0.33426 0.2153,-0.21519 0.33392,-0.50134 0.33392,-0.80579 0,-0.30445 -0.11862,-0.5906 -0.33409,-0.80596 l -2.78115,-2.7812 c -0.22259,-0.2226 -0.22259,-0.58354 0,-0.80613 l 2.78132,-2.78132 c 0.2153,-0.21513 0.33392,-0.50128 0.33392,-0.80573 0,-0.304454 -0.11862,-0.590606 -0.33409,-0.805962 z" /></clipPath><clipPath
       id="clipPath58"
       clipPathUnits="userSpaceOnUse"><path
         id="path56"
         d="M -704,-949 H 559 V 314 H -704 Z" /></clipPath><clipPath
       id="clipPath68"
       clipPathUnits="userSpaceOnUse"><path
         style="clip-rule:evenodd"
         id="path66"
         d="m 6.662162,22.72973 c -0.216324,0 -0.391892,-0.17557 -0.391892,-0.39189 0,-0.21633 0.175568,-0.39189 0.391892,-0.39189 0.216324,0 0.391892,0.17556 0.391892,0.39189 0,0.21632 -0.175568,0.39189 -0.391892,0.39189 z" /></clipPath><clipPath
       id="clipPath74"
       clipPathUnits="userSpaceOnUse"><path
         id="path72"
         d="M -704,-949 H 559 V 314 H -704 Z" /></clipPath></defs><g
     transform="matrix(1.3333333,0,0,-1.3333333,0,38.666667)"
     id="g10"><g
       id="g12" /><g
       id="g14"><g
         clip-path="url(#clipPath20)"
         id="g16"><g
           clip-path="url(#clipPath26)"
           id="g22"><path
             id="path28"
             style="fill:#01748e;fill-opacity:1;fill-rule:nonzero;stroke:none"
             d="M -5,34 H 34 V -5 H -5 Z" /></g></g></g><g
       id="g30"><g
         clip-path="url(#clipPath36)"
         id="g32"><g
           clip-path="url(#clipPath42)"
           id="g38"><path
             id="path44"
             style="fill:#01748e;fill-opacity:1;fill-rule:nonzero;stroke:none"
             d="M -2.648649,31.64865 H 31.64865 V -2.648649 H -2.648649 Z" /></g></g></g><g
       id="g46"><g
         clip-path="url(#clipPath52)"
         id="g48"><g
           clip-path="url(#clipPath58)"
           id="g54"><path
             id="path60"
             style="fill:#01748e;fill-opacity:1;fill-rule:nonzero;stroke:none"
             d="M 3.621622,25.37838 H 26.16216 V 2.837838 H 3.621622 Z" /></g></g></g><g
       id="g62"><g
         clip-path="url(#clipPath68)"
         id="g64"><g
           clip-path="url(#clipPath74)"
           id="g70"><path
             id="path76"
             style="fill:#01748e;fill-opacity:1;fill-rule:nonzero;stroke:none"
             d="M 1.27027,27.72973 H 12.05405 V 16.94595 H 1.27027 Z" /></g></g></g></g></svg>