<?xml version="1.0" encoding="UTF-8" standalone="no"?>
<svg
   xmlns:dc="http://purl.org/dc/elements/1.1/"
   xmlns:cc="http://creativecommons.org/ns#"
   xmlns:rdf="http://www.w3.org/1999/02/22-rdf-syntax-ns#"
   xmlns:svg="http://www.w3.org/2000/svg"
   xmlns="http://www.w3.org/2000/svg"
   viewBox="0 0 38.666668 38.666668"
   height="38.666668"
   width="38.666668"
   xml:space="preserve"
   id="svg2"
   version="1.1"><metadata
     id="metadata8"><rdf:RDF><cc:Work
         rdf:about=""><dc:format>image/svg+xml</dc:format><dc:type
           rdf:resource="http://purl.org/dc/dcmitype/StillImage" /></cc:Work></rdf:RDF></metadata><defs
     id="defs6"><clipPath
       id="clipPath20"
       clipPathUnits="userSpaceOnUse"><path
         style="clip-rule:evenodd"
         id="path18"
         d="M 21.3239,18.35545 C 20.88792,18.77109 20.30852,19 19.69231,19 19.0761,19 18.49669,18.77109 18.06071,18.35545 l -5.29148,-5.04454 -1.82994,1.74454 C 10.50331,15.47109 9.923904,15.7 9.307692,15.7 8.691481,15.7 8.112077,15.47109 7.676269,15.05562 7.240173,14.6402 7,14.08778 7,13.5 7,12.91221 7.240173,12.35979 7.676096,11.94454 L 11.13763,8.644545 C 11.57362,8.22891 12.15308,8 12.76923,8 c 0.61615,0 1.19562,0.22891 1.6316,0.644545 l 6.9229,6.599835 C 21.75983,15.65979 22,16.21221 22,16.8 c 0,0.58778 -0.24017,1.1402 -0.6761,1.55545 z M 20.50802,16.02235 13.58494,9.422355 C 13.36687,9.21451 13.07719,9.1 12.76923,9.1 12.46127,9.1 12.1716,9.21451 11.95352,9.422355 L 8.491808,12.72252 C 8.273904,12.93014 8.153846,13.20624 8.153846,13.5 c 0,0.29375 0.120058,0.56985 0.338135,0.77764 0.218077,0.20785 0.50775,0.32236 0.815711,0.32236 0.307962,0 0.597635,-0.11451 0.815708,-0.32236 l 2.64583,-2.52235 6.10737,5.82235 c 0.21807,0.20785 0.50775,0.32236 0.81571,0.32236 0.30796,0 0.59763,-0.11451 0.81588,-0.32252 0.21791,-0.20763 0.33796,-0.48373 0.33796,-0.77748 0,-0.29376 -0.12005,-0.56986 -0.33813,-0.77765 z" /></clipPath><clipPath
       id="clipPath26"
       clipPathUnits="userSpaceOnUse"><path
         id="path24"
         d="M -531,-948 H 732 V 315 H -531 Z" /></clipPath><clipPath
       id="clipPath36"
       clipPathUnits="userSpaceOnUse"><path
         style="clip-rule:evenodd"
         id="path34"
         d="m 27.83179,20.06993 c -0.74477,1.71604 -1.80429,3.26799 -3.14911,4.61275 -1.34476,1.34476 -2.89671,2.40428 -4.61275,3.14911 C 18.2841,28.60697 16.41009,29 14.5,29 12.58991,29 10.7159,28.60697 8.930074,27.83179 7.214033,27.08696 5.66208,26.02744 4.317318,24.68268 2.972557,23.33792 1.913037,21.78597 1.168213,20.06993 0.3930293,18.2841 0,16.41009 0,14.5 0,12.58991 0.3930293,10.7159 1.168213,8.930074 1.913037,7.214033 2.972557,5.66208 4.317318,4.317318 5.66208,2.972557 7.214033,1.913037 8.930074,1.168213 10.7159,0.3930293 12.58991,0 14.5,0 c 1.91009,0 3.7841,0.3930293 5.56993,1.168213 1.71604,0.744824 3.26799,1.804344 4.61275,3.149105 1.34476,1.344762 2.40428,2.896715 3.14911,4.612756 C 28.60697,10.7159 29,12.58991 29,14.5 c 0,1.91009 -0.39303,3.7841 -1.16821,5.56993 z M 14.5,1.132812 C 7.254248,1.132812 1.132813,7.254248 1.132813,14.5 c 0,7.24575 6.121435,13.36719 13.367187,13.36719 7.24575,0 13.36719,-6.12144 13.36719,-13.36719 C 27.86719,7.254248 21.74575,1.132812 14.5,1.132812 Z" /></clipPath><clipPath
       id="clipPath42"
       clipPathUnits="userSpaceOnUse"><path
         id="path40"
         d="M -531,-948 H 732 V 315 H -531 Z" /></clipPath><clipPath
       id="clipPath52"
       clipPathUnits="userSpaceOnUse"><path
         style="clip-rule:evenodd"
         id="path50"
         d="m 25.67761,19.18812 c -0.61998,1.4405 -1.50364,2.74024 -2.62644,3.86299 -1.12281,1.12286 -2.42249,2.00646 -3.86305,2.6265 -1.49707,0.64434 -3.0744,0.97104 -4.68812,0.97104 -2.19372,0 -4.48046,-0.74911 -6.613028,-2.16628 -0.262366,-0.17436 -0.333718,-0.52838 -0.159359,-0.79069 0.174359,-0.26237 0.528438,-0.33366 0.790689,-0.15936 1.944928,1.29243 4.013328,1.97561 5.981698,1.97561 5.96693,0 11.00793,-5.041 11.00793,-11.00793 0,-5.966926 -5.041,-11.00793 -11.00793,-11.00793 -5.966926,0 -11.00793,5.041004 -11.00793,11.00793 0,1.96797 0.683005,4.03649 1.975096,5.98176 0.174302,0.26242 0.102893,0.61638 -0.159472,0.79068 C 5.045214,21.44675 4.69125,21.37528 4.517005,21.11291 3.100233,18.97994 2.351351,16.69326 2.351351,14.5 c 0,-1.61372 0.326702,-3.19105 0.971037,-4.688124 C 3.942368,8.371377 4.826025,7.071643 5.948834,5.948891 7.071643,4.826082 8.37132,3.942425 9.811819,3.322445 11.30895,2.678053 12.88628,2.351351 14.5,2.351351 c 1.61372,0 3.19105,0.326702 4.68812,0.971037 1.4405,0.61998 2.74024,1.503637 3.86299,2.626446 1.12281,1.122809 2.00646,2.422486 2.62645,3.862985 0.64439,1.497131 0.97109,3.074461 0.97109,4.688181 0,1.61372 -0.3267,3.19105 -0.97104,4.68812 z" /></clipPath><clipPath
       id="clipPath58"
       clipPathUnits="userSpaceOnUse"><path
         id="path56"
         d="M -531,-948 H 732 V 315 H -531 Z" /></clipPath><clipPath
       id="clipPath68"
       clipPathUnits="userSpaceOnUse"><path
         style="clip-rule:evenodd"
         id="path66"
         d="m 6.662162,22.72973 c -0.216324,0 -0.391892,-0.17557 -0.391892,-0.39189 0,-0.21633 0.175568,-0.39189 0.391892,-0.39189 0.216324,0 0.391892,0.17556 0.391892,0.39189 0,0.21632 -0.175568,0.39189 -0.391892,0.39189 z" /></clipPath><clipPath
       id="clipPath74"
       clipPathUnits="userSpaceOnUse"><path
         id="path72"
         d="M -531,-948 H 732 V 315 H -531 Z" /></clipPath></defs><g
     transform="matrix(1.3333333,0,0,-1.3333333,0,38.666667)"
     id="g10"><g
       id="g12" /><g
       id="g14"><g
         clip-path="url(#clipPath20)"
         id="g16"><g
           clip-path="url(#clipPath26)"
           id="g22"><path
             id="path28"
             style="fill:#01748e;fill-opacity:1;fill-rule:nonzero;stroke:none"
             d="M 2,24 H 27 V 3 H 2 Z" /></g></g></g><g
       id="g30"><g
         clip-path="url(#clipPath36)"
         id="g32"><g
           clip-path="url(#clipPath42)"
           id="g38"><path
             id="path44"
             style="fill:#01748e;fill-opacity:1;fill-rule:nonzero;stroke:none"
             d="M -5,34 H 34 V -5 H -5 Z" /></g></g></g><g
       id="g46"><g
         clip-path="url(#clipPath52)"
         id="g48"><g
           clip-path="url(#clipPath58)"
           id="g54"><path
             id="path60"
             style="fill:#01748e;fill-opacity:1;fill-rule:nonzero;stroke:none"
             d="M -2.648649,31.64865 H 31.64865 V -2.648649 H -2.648649 Z" /></g></g></g><g
       id="g62"><g
         clip-path="url(#clipPath68)"
         id="g64"><g
           clip-path="url(#clipPath74)"
           id="g70"><path
             id="path76"
             style="fill:#01748e;fill-opacity:1;fill-rule:nonzero;stroke:none"
             d="M 1.27027,27.72973 H 12.05405 V 16.94595 H 1.27027 Z" /></g></g></g></g></svg>