<?xml version="1.0" encoding="UTF-8" standalone="no"?>
<svg
   xmlns:dc="http://purl.org/dc/elements/1.1/"
   xmlns:cc="http://creativecommons.org/ns#"
   xmlns:rdf="http://www.w3.org/1999/02/22-rdf-syntax-ns#"
   xmlns:svg="http://www.w3.org/2000/svg"
   xmlns="http://www.w3.org/2000/svg"
   viewBox="0 0 42.666668 30.666668"
   height="30.666668"
   width="42.666668"
   xml:space="preserve"
   id="svg2"
   version="1.1"><metadata
     id="metadata8"><rdf:RDF><cc:Work
         rdf:about=""><dc:format>image/svg+xml</dc:format><dc:type
           rdf:resource="http://purl.org/dc/dcmitype/StillImage" /></cc:Work></rdf:RDF></metadata><defs
     id="defs6"><clipPath
       id="clipPath20"
       clipPathUnits="userSpaceOnUse"><path
         id="path18"
         d="M 0,0 H 32 V 23 H 0 Z" /></clipPath><clipPath
       id="clipPath26"
       clipPathUnits="userSpaceOnUse"><path
         id="path24"
         d="M 0,0 H 33 V 23 H 0 Z" /></clipPath><clipPath
       id="clipPath30"
       clipPathUnits="userSpaceOnUse"><path
         style="clip-rule:evenodd"
         id="path28"
         d="m 30.96082,18.66683 c -3.1e-4,0 -3.1e-4,0 -6.2e-4,3.1e-4 -1.01164,0.79282 -2.40415,1.69572 -4.33016,1.80479 0.0012,0.03828 0.0019,0.07655 0.0019,0.11491 0,1.37567 -0.94977,2.41316 -2.20922,2.41316 -1.25422,0 -2.16462,-1.01501 -2.16462,-2.41316 0,-0.83631 0.34305,-1.60424 0.88782,-2.0823 -0.4111,-0.77944 -0.74008,-1.8072 -1.01813,-3.16623 -0.07289,-0.3577 0.15875,-0.70654 0.51789,-0.77921 0.04492,-0.0094 0.08914,-0.01369 0.13305,-0.01369 0.30891,0 0.58563,0.21612 0.64977,0.5291 0.31367,1.53499 0.69609,2.60376 1.1682,3.26806 0.12149,0.17045 0.15438,0.38836 0.08938,0.58682 -0.065,0.19877 -0.22063,0.3549 -0.41961,0.4215 -0.33844,0.11335 -0.6811,0.57406 -0.6811,1.23564 0,0.65302 0.33657,1.09187 0.83735,1.09187 0.51945,0 0.88195,-0.4492 0.88195,-1.09187 0,-0.1994 -0.03203,-0.39054 -0.09515,-0.56799 -0.07696,-0.21604 -0.03602,-0.45612 0.10796,-0.63451 0.14407,-0.1787 0.36993,-0.2705 0.59883,-0.24226 0.10524,0.01284 0.21391,0.01945 0.32344,0.01945 1.72243,0 2.98891,-0.81927 3.89954,-1.53282 0.26945,-0.21122 0.54781,-0.73782 0.53289,-1.18484 -0.0107,-0.33063 -0.17523,-0.48015 -0.29789,-0.56402 -0.82305,-0.56161 -2.06086,-0.9807 -4.27188,-1.44592 C 25.79577,14.36889 25.576,14.09933 25.576,13.7869 V 5.456319 C 25.47253,2.810701 23.48034,2.727382 23.25815,2.726526 c -0.0027,0 -0.0055,0 -0.0079,0 -0.17461,0 -0.34211,-0.068383 -0.46633,-0.190601 C 22.65761,2.411684 22.58675,2.2424 22.58675,2.065802 V 1.335918 c -0.08149,0.013925 -0.15899,0.037653 -0.22797,0.073828 -0.68969,0.35763 -1.07055,0.91045 -1.16391,1.690824 -0.12391,1.030801 0.30609,2.062224 0.31492,2.083151 C 21.65385,5.518945 21.49823,5.906682 21.16221,6.05076 20.82526,6.195072 20.43526,6.040102 20.29034,5.704956 20.26987,5.658123 19.85971,4.692982 19.84627,3.54152 18.58072,3.32758 17.12135,3.582829 16.38377,3.747835 16.32642,4.39969 16.08408,5.083442 15.65775,5.788509 15.46884,6.101172 15.06111,6.201763 14.74712,6.013963 14.43306,5.82554 14.33173,5.41991 14.52064,5.106858 14.92626,4.435865 15.10908,3.82322 15.06353,3.286892 V 3.285959 C 14.96408,2.118392 13.7629,1.493922 13.40985,1.334984 h -0.63843 c -0.54813,0 -1.38555,0.127897 -1.75845,0.318498 C 10.36657,1.984349 9.925629,2.511964 9.700706,3.221232 9.621331,3.539419 9.321643,3.750636 8.996017,3.719284 8.986564,3.718428 8.977424,3.716561 8.967971,3.715316 8.956955,3.713838 8.94633,3.712905 8.935002,3.710804 8.921017,3.708393 7.508046,3.475315 5.589058,4.429175 5.270464,4.58749 4.9564,4.769845 4.646947,4.973749 5.142573,4.860088 5.679371,4.789605 6.2507,4.789605 c 1.301252,0 2.778599,0.363464 4.34048,1.405467 2.67977,1.788148 3.29836,1.786047 5.34032,1.787525 h 0.09945 c 1.95258,0 2.71063,-0.158315 3.26392,-0.274076 0.35851,-0.075073 0.69726,-0.145557 1.19195,-0.145557 0.9568,0 1.61352,0.629605 1.95164,1.871312 3.2e-4,3.11e-4 3.2e-4,6.22e-4 3.2e-4,9.33e-4 0.16695,0.614121 0.29265,1.352951 0.39367,1.994771 0.05703,0.36067 -0.19047,0.69893 -0.55266,0.75541 -0.36164,0.05686 -0.70164,-0.18991 -0.75836,-0.55034 -0.09555,-0.60688 -0.21336,-1.30122 -0.36351,-1.854036 -3.2e-4,0 -3.2e-4,-3.12e-4 -3.2e-4,-3.12e-4 -0.24414,-0.896135 -0.5432,-0.896135 -0.67078,-0.896135 -0.35672,0 -0.5807,0.046756 -0.91945,0.117628 C 18.95697,9.129781 18.12111,9.3042 16.03095,9.3042 h -0.09914 c -2.16766,0 -3.0643,6.23e-4 -6.079463,-2.0108 C 7.863203,5.966274 5.813668,5.751712 3.761086,6.655782 2.177801,7.353226 1.173503,8.482827 1.164596,8.493174 1.134674,8.527171 1.102018,8.55759 1.067252,8.584274 1.057174,8.592209 1.046549,8.598899 1.035846,8.605901 1.028502,8.611036 1.021471,8.616248 1.014127,8.621071 0.9974085,8.631418 0.9806116,8.64052 0.9631897,8.649 0.9613927,8.649934 0.9598307,8.65118 0.9580337,8.65211 0.9399868,8.6609 0.9217055,8.668758 0.9031117,8.67576 0.9018617,8.676382 0.9006117,8.677 0.8994397,8.67732 0.8820178,8.68401 0.8642834,8.689456 0.8466271,8.694591 c -0.002734,6.22e-4 -0.005469,0.00187 -0.008281,0.00249 -0.0158594,0.0042 -0.0317188,0.00755 -0.0475782,0.010581 -0.005156,9.33e-4 -0.009766,0.00249 -0.0149219,0.00335 -0.0134375,0.00218 -0.0271875,0.00334 -0.0406251,0.0049 -0.007891,9.33e-4 -0.0152344,0.00241 -0.0232031,0.00303 -0.0109376,6.22e-4 -0.0219532,6.22e-4 -0.0329688,9.34e-4 -0.0103126,0 -0.0207032,8.55e-4 -0.0310939,5.44e-4 C 0.6391271,8.720187 0.6305332,8.71925 0.6217051,8.71863 0.6092051,8.718007 0.5967051,8.71738 0.5838925,8.71591 0.5762365,8.714976 0.5688925,8.7135 0.5613144,8.71225 0.5475639,8.710148 0.5341264,8.708281 0.5206889,8.705247 0.5118607,8.703458 0.5030326,8.700423 0.4941263,8.698245 0.4822513,8.6949 0.4703763,8.692488 0.4587356,8.688521 0.4441262,8.683697 0.4297512,8.67794 0.4153762,8.672106 0.4095949,8.670005 0.4038137,8.667905 0.3980324,8.665415 0.3577198,8.648144 0.3186572,8.626206 0.2817041,8.600144 c -2.344e-4,0 -2.344e-4,0 -2.344e-4,0 C 0.2246727,8.560312 0.1764695,8.513479 0.1364694,8.461511 0.1352194,8.460033 0.13436,8.458477 0.1334225,8.456999 0.1215475,8.441206 0.1099069,8.425102 0.09951621,8.408687 0.09342245,8.398652 0.08826619,8.388305 0.08279743,8.378269 0.07787554,8.369789 0.07271928,8.361543 0.0684224,8.352752 0.06201614,8.339682 0.05654738,8.32599 0.05100049,8.312609 0.04826611,8.306541 0.04553173,8.300784 0.04310985,8.294405 0.03787547,8.280713 0.03365671,8.26702 0.02967233,8.253095 0.02756295,8.246716 0.02506294,8.240336 0.02326606,8.233646 0.01990668,8.221121 0.0174848,8.208362 0.01475042,8.195603 0.01318792,8.187435 0.01076604,8.1795 0.00951604,8.171331 0.00771916,8.160673 0.00678166,8.14947 0.00521916,8.138812 0.00404728,8.128465 0.00248478,8.11843 0.0016254,8.108083 0.0010004,8.098981 0.0013129,8.09019 0.0010004,8.081087 6.878967e-4,8.068873 0,8.056426 0,8.04429 3.753961e-4,8.036666 0.0013129,8.029431 0.0016254,8.021807 0.00248478,8.008114 0.00279728,7.994422 0.00467228,7.980808 0.00553166,7.973495 0.00709416,7.966493 0.00803166,7.959492 0.01014104,7.945488 0.01225042,7.931563 0.0152973,7.917871 0.0171723,7.908457 0.02021918,7.899355 0.02264106,7.890253 0.02568794,7.878661 0.02842232,7.867459 0.03209421,7.856178 0.03756297,7.83883 0.04459423,7.821559 0.05162549,7.804522 0.0528755,7.801799 0.053813,7.798765 0.05498487,7.796042 0.07271928,7.755588 0.09467245,7.716378 0.1209225,7.679347 1.575691,5.623192 3.216006,4.131993 4.996088,3.247061 6.495153,2.501928 7.755546,2.362128 8.490079,2.362128 c 0.042109,0 0.08211,6.22e-4 0.12086,0.00148 C 8.980158,1.54099 9.592659,0.8949703 10.40625,0.4782935 11.07337,0.1370012 12.18602,0.01338296 12.77142,0.01338296 h 0.7675 c 0.0015,0 0.0034,0 0.0048,0 0.0016,0 0.003,0 0.0046,0 h 3.28672 c 0.36657,0 0.66376,0.29593704 0.66376,0.66095714 0,0.3646309 -0.29719,0.6606459 -0.66376,0.6606459 h -1.23656 c 0.25914,0.302939 0.48617,0.665547 0.63172,1.092493 0.61375,-0.131009 1.55578,-0.287768 2.55344,-0.287535 0.41258,0 0.83461,0.027073 1.24665,0.093667 C 20.30682,1.364158 20.8894,0.6812619 21.74542,0.2375898 22.04417,0.08230845 22.38776,0 22.73847,0 h 2.3932 c 0.36618,0 0.66344,0.295937 0.66344,0.6609571 0,0.3649419 -0.29726,0.6606459 -0.66344,0.6606459 H 23.9137 v 0.160183 c 0.31672,0.066827 0.71164,0.190523 1.11414,0.420566 0.81337,0.464599 1.79876,1.45199 1.87501,3.517247 3.1e-4,0.00817 3.1e-4,0.016104 3.1e-4,0.024273 v 7.810668 c 2.09688,0.46678 3.30509,0.90952 4.22157,1.53492 0.54133,0.36984 0.85172,0.9418 0.87399,1.6103 0.02781,0.8339 -0.39914,1.76598 -1.0379,2.26707 z" /></clipPath><clipPath
       id="clipPath34"
       clipPathUnits="userSpaceOnUse"><path
         id="path32"
         d="M 0,0 H 32 V 23 H 0 Z" /></clipPath></defs><g
     transform="matrix(1.3333333,0,0,-1.3333333,0,30.666667)"
     id="g10"><g
       id="g12" /><g
       id="g14"><g
         clip-path="url(#clipPath20)"
         id="g16"><g
           id="g22" /><g
           id="g48"><g
             id="g46"
             clip-path="url(#clipPath26)"><g
               id="g36" /><g
               id="g44"><g
                 id="g42"
                 clip-path="url(#clipPath30)"><g
                   id="g40"
                   clip-path="url(#clipPath34)"><path
                     id="path38"
                     style="fill:#01748e;fill-opacity:1;fill-rule:nonzero;stroke:none"
                     d="M -5,28 H 37 V -5 H -5 Z" /></g></g></g></g></g></g></g></g></svg>