<?xml version="1.0" encoding="UTF-8" standalone="no"?>
<svg
   xmlns:dc="http://purl.org/dc/elements/1.1/"
   xmlns:cc="http://creativecommons.org/ns#"
   xmlns:rdf="http://www.w3.org/1999/02/22-rdf-syntax-ns#"
   xmlns:svg="http://www.w3.org/2000/svg"
   xmlns="http://www.w3.org/2000/svg"
   viewBox="0 0 32 25.333332"
   height="25.333332"
   width="32"
   xml:space="preserve"
   id="svg2"
   version="1.1"><metadata
     id="metadata8"><rdf:RDF><cc:Work
         rdf:about=""><dc:format>image/svg+xml</dc:format><dc:type
           rdf:resource="http://purl.org/dc/dcmitype/StillImage" /></cc:Work></rdf:RDF></metadata><defs
     id="defs6"><clipPath
       id="clipPath20"
       clipPathUnits="userSpaceOnUse"><path
         id="path18"
         d="M 0,-2 H 24 V 22 H 0 Z" /></clipPath><clipPath
       id="clipPath30"
       clipPathUnits="userSpaceOnUse"><path
         style="clip-rule:evenodd"
         id="path28"
         d="M 22.04828,16.69893 H 19.28101 L 18.6546,18.67526 C 18.59326,18.86847 18.41199,19 18.20728,19 H 5.792725 C 5.58783,19 5.406738,18.86847 5.345398,18.67526 L 4.718994,16.69893 H 1.951721 C 0.8756104,16.69893 0,15.83397 0,14.77072 V 1.928386 C 0,0.8651412 0.8756104,0 1.951721,0 H 22.04828 C 23.12439,0 24,0.8651412 24,1.928386 V 14.77072 c 0,1.06325 -0.87561,1.92821 -1.95172,1.92821 z M 6.137146,18.07371 H 17.86285 l 0.4358,-1.37478 H 5.701355 Z M 23.0625,1.928386 c 0,-0.552518 -0.45483,-1.0020951 -1.01422,-1.0020951 H 1.951721 C 1.392334,0.9262909 0.9375,1.375868 0.9375,1.928386 v 2.039468 h 5.778442 c 1.125733,-1.325935 2.688355,-2.16412 4.403318,-2.378686 0.58429,-0.073452 1.17719,-0.072909 1.76148,0 1.71496,0.214747 3.27759,1.052751 4.40332,2.378686 H 23.0625 Z M 6.076538,7.692557 c -0.02417,0.218185 -0.03717,0.437455 -0.03717,0.656906 0,3.247447 2.673889,5.889547 5.960632,5.889547 3.28674,0 5.96063,-2.6421 5.96063,-5.889547 0,-0.299959 -0.02325,-0.60028 -0.06885,-0.896801 C 17.49152,4.875872 15.39514,2.844184 12.76794,2.508765 12.76172,2.508041 12.75531,2.507137 12.74908,2.506413 12.24591,2.443635 11.73505,2.445444 11.23224,2.508765 8.523926,2.854496 6.380127,5.003057 6.076538,7.692557 Z M 23.0625,4.894145 h -5.11414 c 0.52515,0.876901 0.83826,1.851135 0.9245,2.873854 0.01667,0.193218 0.02527,0.387522 0.02527,0.581464 0,3.758357 -3.09448,6.815837 -6.89813,6.815837 -0.58026,0 -1.16016,-0.07182 -1.72192,-0.21493 -2.97327,-0.75768 -5.176395,-3.42981 -5.176395,-6.600907 0,-0.191771 0.00861,-0.383723 0.024719,-0.57477 C 5.211914,6.749622 5.525391,5.773036 6.051453,4.894145 H 0.9375 v 9.876575 c 0,0.55252 0.454834,1.00192 1.014221,1.00192 H 22.04846 c 0.55921,0 1.01404,-0.4494 1.01404,-1.00192 z" /></clipPath><clipPath
       id="clipPath36"
       clipPathUnits="userSpaceOnUse"><path
         id="path34"
         d="M -182,-425 H 193 V 326 H -182 Z" /></clipPath><clipPath
       id="clipPath46"
       clipPathUnits="userSpaceOnUse"><path
         style="clip-rule:evenodd"
         id="path44"
         d="M 12.5,13 C 9.467348,13 7,10.75692 7,7.999914 7,5.24291 9.467348,3 12.5,3 15.53265,3 18,5.24291 18,7.999914 18,10.75692 15.53265,13 12.5,13 Z m 0,-9.120562 c -2.49928,0 -4.532635,1.848366 -4.532635,4.120476 0,2.272286 2.033355,4.120646 4.532635,4.120646 2.49928,0 4.53263,-1.84836 4.53263,-4.120646 0,-2.27211 -2.03335,-4.120476 -4.53263,-4.120476 z" /></clipPath><clipPath
       id="clipPath52"
       clipPathUnits="userSpaceOnUse"><path
         id="path50"
         d="M -182,-425 H 193 V 326 H -182 Z" /></clipPath><clipPath
       id="clipPath62"
       clipPathUnits="userSpaceOnUse"><path
         style="clip-rule:evenodd"
         id="path60"
         d="m 14.59026,11.91918 c -0.17758,0.15136 -0.41451,0.08398 -0.52901,-0.15076 -0.11465,-0.23473 -0.06368,-0.54771 0.1139,-0.69927 0.66339,-0.56589 1.05951,-1.524199 1.05951,-2.563321 C 15.23466,8.226635 15.40597,8 15.61733,8 15.8287,8 16,8.226635 16,8.505829 16,9.889941 15.47294,11.16597 14.59026,11.91918 Z" /></clipPath><clipPath
       id="clipPath68"
       clipPathUnits="userSpaceOnUse"><path
         id="path66"
         d="M -182,-425 H 193 V 326 H -182 Z" /></clipPath><clipPath
       id="clipPath78"
       clipPathUnits="userSpaceOnUse"><path
         style="clip-rule:evenodd"
         id="path76"
         d="m 19.51785,12 h 2.9643 C 22.76798,12 23,12.23182 23,12.51785 v 2.9643 C 23,15.76798 22.76798,16 22.48215,16 h -2.9643 C 19.23202,16 19,15.76798 19,15.48215 v -2.9643 C 19,12.23182 19.23202,12 19.51785,12 Z m 0.51785,2.9643 h 1.9286 v -1.9286 h -1.9286 z" /></clipPath><clipPath
       id="clipPath84"
       clipPathUnits="userSpaceOnUse"><path
         id="path82"
         d="M -182,-425 H 193 V 326 H -182 Z" /></clipPath><clipPath
       id="clipPath94"
       clipPathUnits="userSpaceOnUse"><path
         style="clip-rule:evenodd"
         id="path92"
         d="M 3.5,16 C 2.672951,16 2,15.10273 2,14 2,12.89727 2.672951,12 3.5,12 4.327049,12 5,12.89727 5,14 5,15.10273 4.327049,16 3.5,16 Z m 0,-2.88087 c -0.364262,0 -0.660656,0.39519 -0.660656,0.88087 0,0.48568 0.296394,0.88087 0.660656,0.88087 0.364262,0 0.660656,-0.39519 0.660656,-0.88087 0,-0.48568 -0.296394,-0.88087 -0.660656,-0.88087 z" /></clipPath><clipPath
       id="clipPath100"
       clipPathUnits="userSpaceOnUse"><path
         id="path98"
         d="M -182,-425 H 193 V 326 H -182 Z" /></clipPath><clipPath
       id="clipPath110"
       clipPathUnits="userSpaceOnUse"><path
         style="clip-rule:evenodd"
         id="path108"
         d="m 12.96293,11.69091 c -0.08202,0.19654 -0.285,0.32327 -0.49816,0.30782 -0.20807,-0.01506 -0.38835,-0.16193 -0.4459,-0.36219 -0.05755,-0.20007 0.01958,-0.42321 0.18967,-0.54407 0.16912,-0.11988 0.39716,-0.1234 0.57,-0.0094 0.1977,0.13064 0.27364,0.38997 0.18439,0.60783 z" /></clipPath><clipPath
       id="clipPath116"
       clipPathUnits="userSpaceOnUse"><path
         id="path114"
         d="M -182,-425 H 193 V 326 H -182 Z" /></clipPath></defs><g
     transform="matrix(1.3333333,0,0,-1.3333333,0,25.333333)"
     id="g10"><g
       id="g12" /><g
       id="g14"><g
         clip-path="url(#clipPath20)"
         id="g16"><path
           id="path22"
           style="fill:#d8d8d8;fill-opacity:0;fill-rule:nonzero;stroke:none"
           d="M -5,27 H 29 V -7 H -5 Z" /></g></g><g
       id="g24"><g
         clip-path="url(#clipPath30)"
         id="g26"><g
           clip-path="url(#clipPath36)"
           id="g32"><path
             id="path38"
             style="fill:#fa9c93;fill-opacity:1;fill-rule:nonzero;stroke:none"
             d="M -5,24 H 29 V -5 H -5 Z" /></g></g></g><g
       id="g40"><g
         clip-path="url(#clipPath46)"
         id="g42"><g
           clip-path="url(#clipPath52)"
           id="g48"><path
             id="path54"
             style="fill:#fa9c93;fill-opacity:1;fill-rule:nonzero;stroke:none"
             d="M 2,18 H 23 V -2 H 2 Z" /></g></g></g><g
       id="g56"><g
         clip-path="url(#clipPath62)"
         id="g58"><g
           clip-path="url(#clipPath68)"
           id="g64"><path
             id="path70"
             style="fill:#fa9c93;fill-opacity:1;fill-rule:nonzero;stroke:none"
             d="M 9,17 H 21 V 3 H 9 Z" /></g></g></g><g
       id="g72"><g
         clip-path="url(#clipPath78)"
         id="g74"><g
           clip-path="url(#clipPath84)"
           id="g80"><path
             id="path86"
             style="fill:#fa9c93;fill-opacity:1;fill-rule:nonzero;stroke:none"
             d="M 14,21 H 28 V 7 H 14 Z" /></g></g></g><g
       id="g88"><g
         clip-path="url(#clipPath94)"
         id="g90"><g
           clip-path="url(#clipPath100)"
           id="g96"><path
             id="path102"
             style="fill:#fa9c93;fill-opacity:1;fill-rule:nonzero;stroke:none"
             d="M -3,21 H 10 V 7 H -3 Z" /></g></g></g><g
       id="g104"><g
         clip-path="url(#clipPath110)"
         id="g106"><g
           clip-path="url(#clipPath116)"
           id="g112"><path
             id="path118"
             style="fill:#fa9c93;fill-opacity:1;fill-rule:nonzero;stroke:none"
             d="M 7,17 H 18 V 6 H 7 Z" /></g></g></g></g></svg>