<?xml version="1.0" encoding="UTF-8" standalone="no"?>
<svg
   xmlns:dc="http://purl.org/dc/elements/1.1/"
   xmlns:cc="http://creativecommons.org/ns#"
   xmlns:rdf="http://www.w3.org/1999/02/22-rdf-syntax-ns#"
   xmlns:svg="http://www.w3.org/2000/svg"
   xmlns="http://www.w3.org/2000/svg"
   viewBox="0 0 25.333332 46.666668"
   height="46.666668"
   width="25.333332"
   xml:space="preserve"
   id="svg2"
   version="1.1"><metadata
     id="metadata8"><rdf:RDF><cc:Work
         rdf:about=""><dc:format>image/svg+xml</dc:format><dc:type
           rdf:resource="http://purl.org/dc/dcmitype/StillImage" /></cc:Work></rdf:RDF></metadata><defs
     id="defs6"><clipPath
       id="clipPath20"
       clipPathUnits="userSpaceOnUse"><path
         style="clip-rule:evenodd"
         id="path18"
         d="M 5.448647,6.895303 C 3.648641,6.560947 2.278739,4.944945 2.278739,3.006207 V 1.469893 H 0.6901782 C 0.3089431,1.469893 0,1.153466 0,0.7630789 0,0.3726917 0.3089431,0.05651381 0.6901782,0.05651381 H 18.30982 C 18.69098,0.05651381 19,0.3726917 19,0.7630789 19,1.153466 18.69098,1.469893 18.30982,1.469893 h -1.58864 v 1.536314 c 0,1.938738 -1.36982,3.55474 -3.16991,3.889096 V 7.76556 c 0,0.714036 -0.17757,1.403336 -0.50904,2.013279 2.97613,1.209761 4.91586,3.845931 4.91586,6.807331 0,0.55864 -0.06962,1.11604 -0.20707,1.65626 -0.0962,0.37777 -0.47298,0.60405 -0.84173,0.50585 -0.36884,-0.09861 -0.59017,-0.48443 -0.49389,-0.8622 0.10795,-0.42409 0.16241,-0.86121 0.16241,-1.29991 0,-2.61675 -1.94127,-4.93384 -4.83108,-5.76583 C 11.02429,10.61216 10.26831,10.50649 9.5,10.50649 c -0.768387,0 -1.524373,0.10567 -2.247131,0.31418 -2.889413,0.83166 -4.830681,3.14875 -4.830681,5.7655 0,2.04208 1.187146,3.93732 3.17623,5.07063 0.705334,0.40201 1.480366,0.68897 2.303458,0.85208 1.044425,0.20752 2.152144,0.20719 3.196244,0 0.8231,-0.16311 1.59805,-0.45007 2.3037,-0.85241 0.30011,-0.17091 0.5879,-0.36349 0.85511,-0.57201 0.30295,-0.23665 0.73605,-0.17705 0.96719,0.13364 0.23106,0.31029 0.17254,0.75388 -0.13048,0.99054 -0.14564,0.11347 -0.2963,0.22246 -0.45077,0.32722 0.41721,0.86054 0.88387,1.92637 1.41666,3.23532 1.37144,3.37063 1.76337,5.75479 1.16502,7.08582 -0.24346,0.54255 -0.65533,0.92289 -1.19128,1.10053 -0.5353,0.17705 -1.08649,0.11579 -1.59367,-0.17739 -1.24541,-0.71977 -2.29081,-2.8881 -3.10661,-6.44409 -0.30076,-1.31227 -0.52395,-2.40856 -0.67745,-3.32713 -0.764904,0.09172 -1.546257,0.09172 -2.311078,0 -0.15358,0.91857 -0.376778,2.01486 -0.677454,3.32713 C 6.851129,30.89204 5.806136,33.06037 4.560639,33.78014 4.053217,34.07332 3.501706,34.13458 2.966405,33.95719 2.431022,33.77989 2.019152,33.39955 1.775369,32.857 1.177015,31.52597 1.569272,29.14181 2.940714,25.77118 3.473503,24.46223 3.939835,23.39674 4.356811,22.53611 2.269581,21.1224 1.041832,18.94119 1.041832,16.58617 1.041832,13.62444 2.98156,10.9886 5.957771,9.778839 5.626298,9.168564 5.448972,8.479596 5.448972,7.76556 V 6.895303 Z M 15.11771,32.54896 c 0.17449,0.10086 0.32102,0.1197 0.49105,0.06359 0.16995,-0.05645 0.27855,-0.16021 0.36211,-0.34665 0.40619,-0.90362 -0.03672,-3.12832 -1.1852,-5.95093 -0.51002,-1.25226 -0.95487,-2.27135 -1.35118,-3.09305 -0.45556,0.21242 -0.93145,0.38557 -1.4234,0.52046 0.14848,0.89425 0.36787,1.97178 0.66546,3.27036 0.68321,2.97791 1.59586,5.04764 2.44116,5.53622 z M 3.029052,32.2659 c 0.083558,0.18644 0.192158,0.2902 0.361866,0.34631 0.170275,0.05645 0.316885,0.03727 0.491294,-0.06325 C 4.727834,32.06038 5.640238,29.99065 6.323365,27.01307 6.621286,25.71416 6.84035,24.63663 6.988824,23.74238 6.496882,23.60749 6.021067,23.43434 5.565514,23.22192 5.169448,24.04362 4.724349,25.06238 4.214658,26.31497 3.065766,29.13758 2.622856,31.36228 3.029052,32.2659 Z M 3.658771,3.006207 c 0,1.155307 0.757203,2.132313 1.789876,2.43936 V 1.469893 H 3.658771 Z m 11.682459,0 V 1.469893 H 13.55127 V 5.445567 C 14.58395,5.13852 15.34123,4.161514 15.34123,3.006207 Z M 11.68027,9.345952 C 11.99878,8.886502 12.171,8.337901 12.171,7.76556 V 1.469893 H 10.1901 V 5.77046 c 0,0.390388 -0.308946,0.706815 -0.6901,0.706815 -0.381154,0 -0.690178,-0.316427 -0.690178,-0.706815 V 1.469893 H 6.829004 V 7.76556 c 0,0.572341 0.17222,1.120942 0.490321,1.580392 C 8.028225,9.17894 8.759493,9.093026 9.5,9.093026 c 0.74043,0 1.47178,0.085914 2.18027,0.252926 z" /></clipPath><clipPath
       id="clipPath26"
       clipPathUnits="userSpaceOnUse"><path
         id="path24"
         d="M -1115,-945 H 148 V 318 h -1263 z" /></clipPath><clipPath
       id="clipPath36"
       clipPathUnits="userSpaceOnUse"><path
         style="clip-rule:evenodd"
         id="path34"
         d="m 15.35773,20.87992 c -0.39738,-0.28987 -0.47559,-0.83556 -0.17463,-1.21884 0.0587,-0.07553 0.11794,-0.15372 0.17463,-0.23242 0.17549,-0.24234 0.45577,-0.37215 0.74051,-0.37215 0.17845,0 0.3585,0.05111 0.51575,0.157 0.40862,0.27504 0.50876,0.81767 0.2236,1.21168 -0.07037,0.09659 -0.14285,0.19328 -0.21607,0.28629 -0.30053,0.38328 -0.8664,0.45871 -1.26379,0.16844 z" /></clipPath><clipPath
       id="clipPath42"
       clipPathUnits="userSpaceOnUse"><path
         id="path40"
         d="M -1115,-945 H 148 V 318 h -1263 z" /></clipPath><clipPath
       id="clipPath52"
       clipPathUnits="userSpaceOnUse"><path
         style="clip-rule:evenodd"
         id="path50"
         d="M 9.214112,16.00089 C 8.929496,15.88511 8,15.448 8,14.69261 c 0,-0.35129 0.3132,-0.6361 0.699504,-0.6361 0.352628,0 0.643896,0.23723 0.692359,0.54565 0.024724,0.0239 0.06259,0.0531 0.108178,0.08343 0.045259,-0.03033 0.083372,-0.05953 0.108096,-0.08343 0.048134,-0.30842 0.339814,-0.54565 0.692443,-0.54565 0.3863,0 0.69942,0.28481 0.69942,0.6361 0,0.75539 -0.9295,1.1925 -1.214112,1.30828 -0.18194,0.07417 -0.389836,0.07417 -0.571776,0 z" /></clipPath><clipPath
       id="clipPath58"
       clipPathUnits="userSpaceOnUse"><path
         id="path56"
         d="M -1115,-945 H 148 V 318 h -1263 z" /></clipPath></defs><g
     transform="matrix(1.3333333,0,0,-1.3333333,0,46.666667)"
     id="g10"><g
       id="g12" /><g
       id="g14"><g
         clip-path="url(#clipPath20)"
         id="g16"><g
           clip-path="url(#clipPath26)"
           id="g22"><path
             id="path28"
             style="fill:#01748e;fill-opacity:1;fill-rule:nonzero;stroke:none"
             d="M -5,39.05651 H 24 V -4.943486 H -5 Z" /></g></g></g><g
       id="g30"><g
         clip-path="url(#clipPath36)"
         id="g32"><g
           clip-path="url(#clipPath42)"
           id="g38"><path
             id="path44"
             style="fill:#01748e;fill-opacity:1;fill-rule:nonzero;stroke:none"
             d="m 10,26.05651 h 12 v -12 H 10 Z" /></g></g></g><g
       id="g46"><g
         clip-path="url(#clipPath52)"
         id="g48"><g
           clip-path="url(#clipPath58)"
           id="g54"><path
             id="path60"
             style="fill:#01748e;fill-opacity:1;fill-rule:nonzero;stroke:none"
             d="M 3,21.05651 H 16 V 9.056514 H 3 Z" /></g></g></g></g></svg>