<?xml version="1.0" encoding="UTF-8" standalone="no"?>
<svg
   xmlns:dc="http://purl.org/dc/elements/1.1/"
   xmlns:cc="http://creativecommons.org/ns#"
   xmlns:rdf="http://www.w3.org/1999/02/22-rdf-syntax-ns#"
   xmlns:svg="http://www.w3.org/2000/svg"
   xmlns="http://www.w3.org/2000/svg"
   viewBox="0 0 20 17.333332"
   height="17.333332"
   width="20"
   xml:space="preserve"
   id="svg2"
   version="1.1"><metadata
     id="metadata8"><rdf:RDF><cc:Work
         rdf:about=""><dc:format>image/svg+xml</dc:format><dc:type
           rdf:resource="http://purl.org/dc/dcmitype/StillImage" /></cc:Work></rdf:RDF></metadata><defs
     id="defs6"><clipPath
       id="clipPath20"
       clipPathUnits="userSpaceOnUse"><path
         style="clip-rule:evenodd"
         id="path18"
         d="M 11.90651,13 10.89125,12.50611 10.49457,11.41167 C 9.99653,10.55122 9.74751,10.121 9.74751,10.121 c 0,0 -0.277979,-0.4534 -0.833938,-1.360194 L 8.228869,8.464925 H 7.425247 5.755671 4.788547 L 2.763464,7.916886 2.295511,7.0992 2.122091,5.664735 1.842802,3.961887 1.666667,2.222971 V 1.329683 l 0.455424,-0.199248 0.472283,0.199248 0.46237,0.38543 0.337445,0.507858 c 0,0.195329 0,0.292993 0,0.292993 0,0 0.083003,-0.26695 0.249011,-0.800851 L 4.208669,1.329683 5.126304,1.130435 c 0.381536,0.132832 0.503345,0.199248 0.365426,0.199248 -0.206879,0 -0.206879,0.664929 -0.206879,0.664929 0,0 -0.052849,0.323259 -0.158547,0.969777 -0.225171,0.491905 -0.337757,0.737857 -0.337757,0.737857 0,0 0,0.086547 0,0.259641 -0.398272,0.310868 -0.470102,0.466301 -0.215491,0.466301 0.254611,0 0.439027,-0.102317 0.553248,-0.30695 0.523011,0 0.857218,0 1.002623,0 0.145404,0 0.364625,0 0.657661,0 h 0.638659 0.803622 c 0,-0.106234 0,-0.159351 0,-0.159351 0,0 -0.223118,-0.851273 -0.223118,-0.997498 0,-0.097483 -0.106078,-0.246958 -0.318233,-0.448425 V 1.994612 L 7.425247,1.329683 C 7.81225,1.196851 8.005751,1.130435 8.005751,1.130435 c 0,0 0.72302,0 0.72302,0 0,0 0.328712,0.584678 0.328712,0.584678 0,0 0.075613,0.169286 0.226839,0.507858 0.288389,0.034093 0.432584,-0.042027 0.432584,-0.228359 0,-0.279499 -0.029556,-0.664929 0.374054,-0.664929 0.26907,0 0.58916,-0.066416 0.96025,-0.199248 l 0.22102,0.199248 c 0,0.291047 0,0.51269 0,0.664929 0,0.152239 -0.07367,0.423251 -0.22102,0.813037 0.0082,0.320727 -0.04511,0.550008 -0.15996,0.687843 -0.11484,0.137836 -0.3034,0.293301 -0.56566,0.466395 l -0.23463,0.466301 0.80029,0.566967 0.38098,1.491858 0.20663,0.877517 0.24746,0.552356 0.59281,0.166473 h 0.91575 l 0.65401,0.677447 V 9.214203 C 13.45288,9.516468 13.23488,9.6676 13.23488,9.6676 c 0,0 -0.30525,0.209044 -0.91575,0.62713 l -0.41262,0.67616 v 0.94853 z" /></clipPath><clipPath
       id="clipPath26"
       clipPathUnits="userSpaceOnUse"><path
         id="path24"
         d="M -789,-660 H 474 V 603 H -789 Z" /></clipPath><clipPath
       id="clipPath36"
       clipPathUnits="userSpaceOnUse"><path
         id="path34"
         d="m 6.176471,7.892857 c 0.115981,0 0.229894,0.049149 0.311925,0.136021 0.082031,0.086328 0.129251,0.205664 0.129251,0.328265 0,0.122056 -0.04722,0.241936 -0.129251,0.328264 C 6.406365,8.771735 6.292452,8.821429 6.176471,8.821429 6.060489,8.821429 5.946576,8.771735 5.864545,8.685407 5.782514,8.599079 5.735294,8.479199 5.735294,8.357143 c 0,-0.122601 0.04722,-0.241937 0.129251,-0.328265 C 5.946576,7.942006 6.060489,7.892857 6.176471,7.892857 Z" /></clipPath><clipPath
       id="clipPath42"
       clipPathUnits="userSpaceOnUse"><path
         id="path40"
         d="M -789,-660 H 474 V 603 H -789 Z" /></clipPath><clipPath
       id="clipPath52"
       clipPathUnits="userSpaceOnUse"><path
         id="path50"
         d="m 11.91176,8.821429 c 0.11599,0 0.22973,0.049664 0.31176,0.135941 0.0822,0.086821 0.12942,0.206088 0.12942,0.328616 0,0.121985 -0.04722,0.241614 -0.12942,0.327891 C 12.14149,9.700155 12.02775,9.75 11.91176,9.75 11.79561,9.75 11.68187,9.700336 11.59984,9.613877 11.51764,9.5276 11.47059,9.407971 11.47059,9.285986 c 0,-0.122528 0.04705,-0.241795 0.12925,-0.328616 0.08203,-0.086277 0.19577,-0.135941 0.31192,-0.135941 z" /></clipPath><clipPath
       id="clipPath58"
       clipPathUnits="userSpaceOnUse"><path
         id="path56"
         d="M -789,-660 H 474 V 603 H -789 Z" /></clipPath><clipPath
       id="clipPath68"
       clipPathUnits="userSpaceOnUse"><path
         id="path66"
         d="m 12.33165,7.107873 h 0.89048 c 0.71396,0 1.34498,0.446341 1.60752,1.137242 l 0.1451,0.381514 c 0.05837,0.153307 0.01319,0.328368 -0.11114,0.430718 l -2.06216,1.697473 v 1.87136 c 0,0.10016 -0.03859,0.19608 -0.10706,0.26631 C 12.62591,12.96272 12.53414,13.00156 12.4369,13 11.64801,12.98754 10.93097,12.49492 10.61005,11.74503 L 10.34835,11.13312 8.81773,8.527199 H 7.664289 c -0.198414,0 -0.359223,-0.167323 -0.359223,-0.373776 0,-0.206453 0.160809,-0.373776 0.359223,-0.373776 H 8.713752 L 11.20445,5.188184 C 11.0755,4.86989 10.88775,4.583572 10.65075,4.343976 10.6405,4.334923 10.63082,4.325433 10.62156,4.315505 10.45893,4.156212 10.27469,4.01809 10.07122,3.906395 9.987728,3.860695 9.925005,3.782728 9.896379,3.689284 L 9.003515,0.7780669 C 8.998042,0.7598162 8.981905,0.7475516 8.963383,0.7475516 H 8.076132 c -0.00519,0 -0.021048,0 -0.033677,0.0175208 C 8.029826,0.7825931 8.034316,0.7983618 8.035719,0.803618 L 8.77409,3.446476 C 8.805522,3.559339 8.784193,3.681108 8.716418,3.775136 8.648502,3.86931 8.542139,3.9245 8.42918,3.9245 H 4.096901 C 3.953914,3.9245 3.824538,3.836312 3.767427,3.699797 3.64661,3.410558 2.992152,1.47656 2.746309,0.7475516 H 1.871687 c -0.012629,0 -0.023153,0.004964 -0.031432,0.0146007 -0.00842,0.009782 -0.011927,0.0213168 -0.010384,0.0343114 L 2.391296,5.767828 c 0.129517,1.146879 1.064057,2.011819 2.173857,2.011819 h 0.225356 c 0.198415,0 0.359223,0.167323 0.359223,0.373776 0,0.206307 -0.160808,0.373776 -0.359223,0.373776 H 4.565153 C 3.794509,8.527199 3.087851,8.212702 2.564032,7.695402 2.559963,7.692044 2.555753,7.689123 2.551964,7.685619 1.962475,7.156785 1.18313,6.923467 0.4133279,7.045382 0.2170185,7.076627 0.03389925,6.936316 0.00415118,6.732199 -0.02573728,6.528228 0.1089711,6.337544 0.3051403,6.306445 0.4754903,6.279434 0.6461209,6.266147 0.8157693,6.266147 1.149173,6.266147 1.478507,6.318125 1.794229,6.417702 1.739224,6.237238 1.699653,6.049182 1.677763,5.85514 L 1.116337,0.8837754 C 1.090939,0.6595099 1.159135,0.4342224 1.303386,0.2654392 1.447636,0.09680207 1.65475,0 1.871687,0 H 3.000992 C 3.153662,0 3.289633,0.1004523 3.340009,0.2504006 3.417045,0.4793383 3.531828,0.8195327 3.658678,1.193454 L 3.86046,0.5469391 C 3.962474,0.2197393 4.253219,0 4.583816,0 H 5.479487 C 5.719155,0 5.939881,0.1137388 6.084973,0.3123072 6.230065,0.5108756 6.276512,0.7624442 6.212525,1.00277 L 5.633139,3.176948 H 7.950684 L 7.3459,1.012261 C 7.278405,0.7709126 7.323027,0.5171539 7.467979,0.3162494 7.613072,0.1151989 7.834779,0 8.076272,0 H 8.963523 C 9.295804,0 9.586971,0.2213454 9.688142,0.5507353 L 9.80082,0.9185249 10.099,0.3904205 C 10.23511,0.1496563 10.48629,0 10.75486,0 h 0.90115 c 0.25075,0 0.48495,0.1281934 0.62695,0.3432605 0.14201,0.2149211 0.17302,0.4885367 0.08307,0.7319285 l -1.06742,2.890923 c 0.39248,0.453203 0.66091,1.015181 0.76952,1.635853 z M 5.52018,0.80318 C 5.521443,0.7979238 5.525652,0.7821551 5.513024,0.7649263 5.500395,0.7475516 5.484679,0.7475516 5.479487,0.7475516 H 4.583816 c -0.018382,0 -0.034379,0.0122646 -0.040132,0.0303693 L 4.053261,2.349677 C 4.168185,2.68374 4.271321,2.97984 4.342183,3.177094 H 4.887612 Z M 9.740342,8.664299 11.50109,6.832213 C 11.51527,6.817466 11.53042,6.804618 11.54614,6.792937 L 11.41255,6.028741 9.413814,8.108453 Z m 1.233148,2.099711 c 0.0081,0.01373 0.01543,0.02818 0.02174,0.04293 l 0.27125,0.6341 c 0.15645,0.36575 0.45857,0.63674 0.81653,0.75135 v -1.61848 c 0,-0.11417 0.05023,-0.22207 0.13639,-0.29303 L 14.20845,8.643274 14.16158,8.520045 C 14.00821,8.116337 13.63945,7.855424 13.22213,7.855424 h -1.19034 c -0.13317,0 -0.2516,-0.076215 -0.31348,-0.191998 L 10.12566,9.32045 Z M 11.69081,0.7665324 C 11.67818,0.7475516 11.66162,0.7475516 11.65601,0.7475516 h -0.90115 c -0.01487,0 -0.02876,0.008322 -0.03634,0.0216089 l -0.62443,1.1057045 0.44356,1.446338 c 0.063,0.038545 0.12446,0.079427 0.18438,0.121769 l 0.97341,-2.6358498 c 0.002,-0.005402 0.008,-0.021609 -0.0046,-0.0405898 v 0 z" /></clipPath><clipPath
       id="clipPath74"
       clipPathUnits="userSpaceOnUse"><path
         id="path72"
         d="M -789,-660 H 474 V 603 H -789 Z" /></clipPath></defs><g
     transform="matrix(1.3333333,0,0,-1.3333333,0,17.333333)"
     id="g10"><g
       id="g12" /><g
       id="g14"><g
         clip-path="url(#clipPath20)"
         id="g16"><g
           clip-path="url(#clipPath26)"
           id="g22"><path
             id="path28"
             style="fill:#ffd9d5;fill-opacity:1;fill-rule:nonzero;stroke:none"
             d="M -3.333333,18 H 18.88889 V -3.869565 H -3.333333 Z" /></g></g></g><g
       id="g30"><g
         clip-path="url(#clipPath36)"
         id="g32"><g
           clip-path="url(#clipPath42)"
           id="g38"><path
             id="path44"
             style="fill:#fa9c93;fill-opacity:1;fill-rule:nonzero;stroke:none"
             d="M 0.7352941,13.82143 H 11.61765 V 2.892857 H 0.7352941 Z" /></g></g></g><g
       id="g46"><g
         clip-path="url(#clipPath52)"
         id="g48"><g
           clip-path="url(#clipPath58)"
           id="g54"><path
             id="path60"
             style="fill:#fa9c93;fill-opacity:1;fill-rule:nonzero;stroke:none"
             d="M 6.470588,14.75 H 17.35294 V 3.821429 H 6.470588 Z" /></g></g></g><g
       id="g62"><g
         clip-path="url(#clipPath68)"
         id="g64"><g
           clip-path="url(#clipPath74)"
           id="g70"><path
             id="path76"
             style="fill:#fa9c93;fill-opacity:1;fill-rule:nonzero;stroke:none"
             d="M -5,18.00005 H 20 V -5 H -5 Z" /></g></g></g></g></svg>