<?xml version="1.0" encoding="UTF-8" standalone="no"?>
<svg
   xmlns:dc="http://purl.org/dc/elements/1.1/"
   xmlns:cc="http://creativecommons.org/ns#"
   xmlns:rdf="http://www.w3.org/1999/02/22-rdf-syntax-ns#"
   xmlns:svg="http://www.w3.org/2000/svg"
   xmlns="http://www.w3.org/2000/svg"
   viewBox="0 0 41.333332 44"
   height="44"
   width="41.333332"
   xml:space="preserve"
   id="svg2"
   version="1.1"><metadata
     id="metadata8"><rdf:RDF><cc:Work
         rdf:about=""><dc:format>image/svg+xml</dc:format><dc:type
           rdf:resource="http://purl.org/dc/dcmitype/StillImage" /></cc:Work></rdf:RDF></metadata><defs
     id="defs6"><clipPath
       id="clipPath20"
       clipPathUnits="userSpaceOnUse"><path
         id="path18"
         d="M 0,0 H 31 V 33 H 0 Z" /></clipPath><clipPath
       id="clipPath26"
       clipPathUnits="userSpaceOnUse"><path
         id="path24"
         d="M -1,0 H 32 V 34 H -1 Z" /></clipPath><clipPath
       id="clipPath30"
       clipPathUnits="userSpaceOnUse"><path
         style="clip-rule:evenodd"
         id="path28"
         d="m 29.7192,7.402969 c 0.13133,-0.20649 0.35733,-0.319766 0.58842,-0.319766 0.12549,0 0.2523,0.033354 0.36628,0.103205 0.32486,0.198917 0.4234,0.61778 0.2209,0.936257 l -3.42021,5.370285 c -0.09755,0.15356 -0.25386,0.26241 -0.43367,0.30269 l -6.44835,1.44012 c -0.03336,0.13003 -0.06993,0.25781 -0.10946,0.3843 l 6.54499,2.66117 c 0.20701,0.08436 0.35987,0.26152 0.40992,0.47583 l 1.79738,7.68366 c 0.08539,0.36577 -0.14768,0.73017 -0.5207,0.8142 -0.37368,0.08403 -0.74472,-0.14478 -0.83011,-0.51047 l -1.7175,-7.34222 -6.20468,-2.52268 c -0.06131,0.11577 -0.12418,0.23033 -0.19165,0.34208 -0.0029,0.005 -0.0061,0.0098 -0.009,0.01442 -0.0013,0.0023 -0.0025,0.0041 -0.0039,0.0064 -0.07963,0.1318 -0.16371,0.25893 -0.25041,0.38236 l 4.97007,4.63343 c 0.13289,0.124 0.21022,0.29496 0.21507,0.47462 l 0.25616,9.56971 c 0.0099,0.3752 -0.29215,0.68739 -0.67446,0.69746 -0.0064,0 -0.01249,0 -0.01865,0 -0.37426,0 -0.68277,-0.2927 -0.69238,-0.66153 l -0.24852,-9.28902 -4.71613,-4.39657 c -0.32256,0.28803 -0.67027,0.5294 -1.03425,0.71946 l 0.87285,1.61196 c 0.17973,0.33137 0.05103,0.74274 -0.28706,0.91862 -0.33801,0.17595 -0.75755,0.05003 -0.93703,-0.28134 L 16.2382,19.82144 c -0.23528,0.03964 -0.47385,0.06043 -0.71366,0.06043 h -0.04939 c -0.21383,0 -0.42701,-0.01636 -0.63756,-0.0481 l -0.96851,1.78784 C 13.6896,21.95298 13.27007,22.0789 12.93197,21.90295 12.59396,21.72707 12.46559,21.3157 12.645,20.98433 L 13.50017,19.4054 C 13.11219,19.21024 12.74271,18.95759 12.40141,18.65288 L 7.685359,23.04945 7.436843,32.33847 C 7.4269,32.71359 7.110091,33.00975 6.725812,33 6.343176,32.98993 6.041078,32.67774 6.051351,32.30254 L 6.30751,22.73283 c 0.00485,-0.17966 0.082181,-0.35062 0.215068,-0.47462 l 4.970072,-4.63343 c -0.09122,-0.13003 -0.17981,-0.26345 -0.2629,-0.40226 -0.06714,-0.11167 -0.131,-0.22752 -0.19263,-0.34458 L 4.833097,19.40191 3.115593,26.74445 C 3.030206,27.11014 2.658172,27.33863 2.285481,27.2546 1.91246,27.17089 1.679394,26.80649 1.764781,26.44072 l 1.797384,-7.68399 c 0.050049,-0.21398 0.202823,-0.39114 0.40992,-0.4755 L 10.51609,15.61877 C 10.47656,15.4926 10.43999,15.36482 10.40662,15.23576 L 3.959265,13.79564 C 3.779452,13.75536 3.623144,13.64651 3.525512,13.49295 L 0.1053782,8.122665 C -0.09752716,7.804188 0.00141899,7.385003 0.3262812,7.186408 0.4401843,7.116557 0.5673186,7.083203 0.6925627,7.083203 c 0.2310935,0 0.4570913,0.113276 0.5884173,0.319766 l 3.267359,5.130681 5.617821,1.25474 c -0.01767,-0.22494 -0.02695,-0.4519 -0.02695,-0.67941 0,-0.06075 0.0022,-0.12117 0.0035,-0.1816 L 6.171089,10.53054 C 5.995796,10.42476 5.877373,10.24759 5.848446,10.04779 L 4.50051,0.7754479 C 4.446517,0.4037969 4.709825,0.05977998 5.088598,0.00692868 5.121964,0.00217528 5.154754,0 5.187462,0 5.526788,0 5.82338,0.2448401 5.872525,0.5834591 L 7.174603,9.540466 10.3039,11.42901 c 0.226,-1.13453 0.67988,-2.178098 1.33322,-3.035643 1.01083,-1.326841 2.37422,-2.057575 3.83844,-2.057575 0.38264,0 0.69271,0.304298 0.69271,0.679413 0,0.375115 -0.31007,0.679494 -0.69271,0.679494 -2.17813,0 -3.9502,2.428581 -3.9502,5.413951 0,0.48525 0.04717,0.96583 0.14028,1.42788 0.08473,0.42103 0.20743,0.82765 0.36439,1.20937 0.02375,0.05793 0.04882,0.11521 0.07446,0.17185 1.10912,-0.59514 2.29113,-0.90387 3.47437,-0.90387 0.15442,0 0.30917,0.0054 0.46326,0.01579 1.02151,0.06985 2.01376,0.36915 2.86804,0.85601 0.18581,-0.42047 0.32839,-0.8718 0.42438,-1.34915 0.09303,-0.46205 0.14029,-0.94263 0.14029,-1.42788 0,-1.49989 -0.46614,-2.94855 -1.27866,-3.974801 -0.23463,-0.296482 -0.17973,-0.723241 0.12261,-0.953257 0.30243,-0.230016 0.73774,-0.176197 0.97237,0.120205 0.69312,0.874947 1.1724,1.951233 1.40645,3.127653 L 23.82558,9.540466 25.12766,0.5837813 C 25.17705,0.2448401 25.47339,0 25.81305,0 25.84543,0 25.87855,0.00249755 25.91158,0.00725094 26.29069,0.06010225 26.55391,0.4041191 26.5,0.7754479 L 25.15207,10.04811 c -0.02926,0.19981 -0.14736,0.37665 -0.32298,0.48243 l -3.97165,2.39684 c 0.0012,0.06043 0.0035,0.12085 0.0035,0.1816 0,0.22751 -0.009,0.45447 -0.02662,0.67941 l 5.61752,-1.25474 z M 12.80821,17.08878 c 0.04552,0.0576 0.09212,0.11335 0.13962,0.16741 0.49818,0.5725 1.09309,0.97058 1.72227,1.15185 0.26191,0.07622 0.53287,0.11489 0.80513,0.11489 h 0.04939 c 0.29281,0 0.583,-0.04439 0.86521,-0.13277 0.6051,-0.18756 1.18004,-0.57943 1.66384,-1.13518 0.05456,-0.06268 0.10782,-0.1281 0.1605,-0.19513 -1.32197,-0.7553 -3.31421,-1.08103 -5.40596,0.02893 z" /></clipPath><clipPath
       id="clipPath34"
       clipPathUnits="userSpaceOnUse"><path
         id="path32"
         d="M 0,0 H 31 V 33 H 0 Z" /></clipPath></defs><g
     transform="matrix(1.3333333,0,0,-1.3333333,0,44)"
     id="g10"><g
       id="g12" /><g
       id="g14"><g
         clip-path="url(#clipPath20)"
         id="g16"><g
           id="g22" /><g
           id="g48"><g
             id="g46"
             clip-path="url(#clipPath26)"><g
               id="g36" /><g
               id="g44"><g
                 id="g42"
                 clip-path="url(#clipPath30)"><g
                   id="g40"
                   clip-path="url(#clipPath34)"><path
                     id="path38"
                     style="fill:#01748e;fill-opacity:1;fill-rule:nonzero;stroke:none"
                     d="M -5,38.00023 H 36 V -5 H -5 Z" /></g></g></g></g></g></g></g></g></svg>