<?xml version="1.0" encoding="UTF-8" standalone="no"?>
<svg
   xmlns:dc="http://purl.org/dc/elements/1.1/"
   xmlns:cc="http://creativecommons.org/ns#"
   xmlns:rdf="http://www.w3.org/1999/02/22-rdf-syntax-ns#"
   xmlns:svg="http://www.w3.org/2000/svg"
   xmlns="http://www.w3.org/2000/svg"
   viewBox="0 0 41.333332 42.666668"
   height="42.666668"
   width="41.333332"
   xml:space="preserve"
   id="svg2"
   version="1.1"><metadata
     id="metadata8"><rdf:RDF><cc:Work
         rdf:about=""><dc:format>image/svg+xml</dc:format><dc:type
           rdf:resource="http://purl.org/dc/dcmitype/StillImage" /></cc:Work></rdf:RDF></metadata><defs
     id="defs6"><clipPath
       id="clipPath20"
       clipPathUnits="userSpaceOnUse"><path
         id="path18"
         d="M 0,0 H 31 V 32 H 0 Z" /></clipPath><clipPath
       id="clipPath26"
       clipPathUnits="userSpaceOnUse"><path
         id="path24"
         d="M 0,0 H 31 V 32 H 0 Z" /></clipPath><clipPath
       id="clipPath30"
       clipPathUnits="userSpaceOnUse"><path
         style="clip-rule:evenodd"
         id="path28"
         d="m 12.89626,30 c 0.15169,0 0.30581,0.02014 0.4467,0.0628 0.05987,0.0182 0.1207,0.03579 0.18226,0.0531 0.43676,0.12183 0.60199,0.40638 0.36938,0.63523 -0.23261,0.22885 -0.77472,0.31551 -1.21106,0.19373 C 12.6042,30.9225 12.52561,30.89976 12.44839,30.87635 12.01988,30.74675 11.87285,30.45964 12.11984,30.2349 12.2856,30.08405 12.58686,30 12.89626,30 Z" /></clipPath><clipPath
       id="clipPath34"
       clipPathUnits="userSpaceOnUse"><path
         id="path32"
         d="M 0,0 H 31 V 32 H 0 Z" /></clipPath><clipPath
       id="clipPath38"
       clipPathUnits="userSpaceOnUse"><path
         style="clip-rule:evenodd"
         id="path36"
         d="M 0,3.307171 C 0,1.483821 1.52505,0 3.399637,0 H 27.60036 c 0.9079,0 1.76159,0.3442952 2.4038,0.9689796 C 30.64637,1.593664 31,2.424051 31,3.307171 c 0,1.533196 -1.07833,2.825924 -2.53599,3.198578 0.497,0.589294 0.7671,1.3214 0.7671,2.093818 0,1.526473 -1.06885,2.813973 -2.51712,3.193343 0.49981,0.5893 0.77184,1.3232 0.77184,2.09804 0,1.82405 -1.52513,3.30779 -3.39996,3.30779 h -7.66492 v 8.18723 h 7.53216 c 0.01068,-3.1e-4 0.02104,-0.0016 0.03173,-0.0016 h 2.63695 c 0.37556,0 0.67988,0.29601 0.67988,0.66132 0,0.36531 -0.30432,0.66133 -0.67988,0.66133 h -1.9574 v 3.74724 C 24.66471,31.30664 23.95158,32 23.07533,32 H 15.7389 c -0.37556,0 -0.67988,-0.29601 -0.67988,-0.66132 0,-0.365 0.30432,-0.66133 0.67988,-0.66133 h 7.33643 c 0.12642,0 0.22963,-0.10008 0.22963,-0.22305 v -3.74568 h -7.56389 c -0.37556,0 -0.67956,-0.29609 -0.67956,-0.66133 v -8.84855 h -4.08136 v 1.56093 h 1.34402 c 0.37556,0 0.67987,0.2961 0.67987,0.66102 0,0.36531 -0.30431,0.66132 -0.67987,0.66132 h -1.34402 v 1.83718 h 1.34402 c 0.37556,0 0.67987,0.29601 0.67987,0.66132 0,0.365 -0.30431,0.66102 -0.67987,0.66102 h -1.34402 v 1.83624 h 1.34402 c 0.37556,0 0.67987,0.29632 0.67987,0.66124 0,0.36532 -0.30431,0.66133 -0.67987,0.66133 h -1.33021 c 0.06434,0.84015 0.35982,1.63944 0.86493,2.32944 0.21774,0.2975 0.14626,0.71039 -0.15967,0.92218 -0.3056,0.2118 -0.7304,0.14227 -0.94781,-0.15531 -0.7398,-1.0107 -1.130698,-2.20241 -1.130698,-3.44693 V 17.19874 H 6.914126 c -0.907978,0 -1.761662,-0.34421 -2.403551,-0.96835 -0.642532,-0.62406 -0.996086,-1.45476 -0.996086,-2.33944 0,-0.79531 0.290184,-1.52585 0.772725,-2.09718 C 3.716807,11.6458 3.193545,11.35463 2.764655,10.93776 2.122444,10.31307 1.76881,9.482376 1.76881,8.599255 1.76881,7.806056 2.057468,7.077309 2.537841,6.506999 1.959883,6.360516 1.429714,6.067236 0.995764,5.645441 0.3535532,5.020757 0,4.19037 0,3.307171 Z M 5.471561,15.29477 c 0.3856,0.37476 0.897618,0.58132 1.442565,0.58132 h 0.368653 v -1.13733 c 0,-0.36531 0.304319,-0.66133 0.679879,-0.66133 0.375158,0 0.679558,0.29602 0.679558,0.66133 v 1.13733 h 2.409494 v -1.13733 c 0,-0.36531 0.30464,-0.66133 0.6798,-0.66133 0.37556,0 0.67988,0.29602 0.67988,0.66133 v 1.13733 h 2.40885 v -1.13733 c 0,-0.36531 0.30432,-0.66133 0.67956,-0.66133 0.37556,0 0.67988,0.29602 0.67988,0.66133 v 1.13733 h 2.40885 v -1.13733 c 0,-0.36531 0.30432,-0.66133 0.67956,-0.66133 0.37556,0 0.67988,0.29602 0.67988,0.66133 v 1.13733 h 2.40949 v -1.13733 c 0,-0.36531 0.30432,-0.66133 0.67988,-0.66133 0.37556,0 0.67988,0.29602 0.67988,0.66133 v 1.13733 h 0.36865 c 1.12476,0 2.03988,-0.89077 2.03988,-1.98514 0,-0.5307 -0.21203,-1.02875 -0.59763,-1.4032 -0.38528,-0.37507 -0.89762,-0.58132 -1.44225,-0.58132 H 6.914126 c -1.125073,0 -2.0402,0.89015 -2.0402,1.98421 0,0.53132 0.212036,1.02968 0.597635,1.40413 z M 3.726284,10.00245 c 0.385198,0.375 0.897537,0.58133 1.442484,0.58133 H 5.259124 V 9.446438 c 0,-0.36531 0.3044,-0.661325 0.679558,-0.661325 0.37556,0 0.679879,0.296015 0.679879,0.661325 V 10.58378 H 9.028056 V 9.446438 c 0,-0.36531 0.304641,-0.661325 0.67988,-0.661325 0.375564,0 0.679874,0.296015 0.679874,0.661325 v 1.137342 h 2.40886 V 9.446438 c 0,-0.36531 0.30432,-0.661325 0.67956,-0.661325 0.37555,0 0.67987,0.296015 0.67987,0.661325 v 1.137342 h 2.4095 V 9.446438 c 0,-0.36531 0.30432,-0.661325 0.67988,-0.661325 0.37556,0 0.67988,0.296015 0.67988,0.661325 v 1.137342 h 2.40853 V 9.446438 c 0,-0.36531 0.30432,-0.661325 0.67988,-0.661325 0.37548,0 0.67988,0.296015 0.67988,0.661325 v 1.137342 h 2.40949 V 9.446438 c 0,-0.36531 0.30432,-0.661325 0.6798,-0.661325 0.37524,0 0.67988,0.296015 0.67988,0.661325 v 1.137342 h 0.36865 c 1.12475,0 2.03996,-0.890155 2.03996,-1.984213 0,-0.5307 -0.21211,-1.029057 -0.59771,-1.404133 C 26.88844,6.82067 26.3761,6.614108 25.83115,6.614108 H 5.168527 c -1.124752,0 -2.039958,0.890777 -2.039958,1.985459 0,0.529763 0.212115,1.02812 0.597715,1.402883 z M 1.957393,4.710133 C 2.342672,5.085131 2.855011,5.291459 3.399637,5.291459 H 3.514489 V 4.154042 c 0,-0.365232 0.30432,-0.661325 0.679558,-0.661325 0.37556,0 0.679879,0.296327 0.679879,0.661325 V 5.291459 H 7.282779 V 4.154042 c 0,-0.365232 0.304319,-0.661325 0.679558,-0.661325 0.375479,0 0.679879,0.296327 0.679879,0.661325 V 5.291459 H 11.05171 V 4.154042 c 0,-0.365232 0.30432,-0.661325 0.6798,-0.661325 0.37556,0 0.67988,0.296327 0.67988,0.661325 V 5.291459 H 14.82 V 4.154042 c 0,-0.365232 0.30432,-0.661325 0.6798,-0.661325 0.37556,0 0.67988,0.296327 0.67988,0.661325 v 1.137417 h 2.40861 V 4.154042 c 0,-0.365232 0.30456,-0.661325 0.6798,-0.661325 0.37556,0 0.67988,0.296327 0.67988,0.661325 v 1.137417 h 2.40949 V 4.154042 c 0,-0.365232 0.30432,-0.661325 0.67988,-0.661325 0.37524,0 0.67988,0.296327 0.67988,0.661325 v 1.137417 h 2.40853 V 4.154042 c 0,-0.365232 0.30432,-0.661325 0.67988,-0.661325 0.37556,0 0.67988,0.296327 0.67988,0.661325 v 1.137417 h 0.11453 c 1.12475,0 2.03988,-0.89023 2.03988,-1.984288 0,-0.530075 -0.21212,-1.028432 -0.59763,-1.403118 C 28.65701,1.529289 28.14467,1.32265 27.60004,1.32265 H 3.399637 c -1.124752,0 -2.039879,0.89023 -2.039879,1.984521 0,0.529842 0.212036,1.028198 0.597635,1.402962 z" /></clipPath><clipPath
       id="clipPath42"
       clipPathUnits="userSpaceOnUse"><path
         id="path40"
         d="M 0,0 H 31 V 32 H 0 Z" /></clipPath></defs><g
     transform="matrix(1.3333333,0,0,-1.3333333,0,42.666667)"
     id="g10"><g
       id="g12" /><g
       id="g14"><g
         clip-path="url(#clipPath20)"
         id="g16"><g
           id="g22" /><g
           id="g64"><g
             id="g62"
             clip-path="url(#clipPath26)"><g
               id="g44" /><g
               id="g52"><g
                 id="g50"
                 clip-path="url(#clipPath30)"><g
                   id="g48"
                   clip-path="url(#clipPath34)"><path
                     id="path46"
                     style="fill:#01748e;fill-opacity:1;fill-rule:nonzero;stroke:none"
                     d="M 7,36 H 19 V 25 H 7 Z" /></g></g></g><g
               id="g60"><g
                 id="g58"
                 clip-path="url(#clipPath38)"><g
                   id="g56"
                   clip-path="url(#clipPath42)"><path
                     id="path54"
                     style="fill:#01748e;fill-opacity:1;fill-rule:nonzero;stroke:none"
                     d="M -5,37 H 36 V -5 H -5 Z" /></g></g></g></g></g></g></g></g></svg>