<?xml version="1.0" encoding="UTF-8" standalone="no"?>
<svg
   xmlns:dc="http://purl.org/dc/elements/1.1/"
   xmlns:cc="http://creativecommons.org/ns#"
   xmlns:rdf="http://www.w3.org/1999/02/22-rdf-syntax-ns#"
   xmlns:svg="http://www.w3.org/2000/svg"
   xmlns="http://www.w3.org/2000/svg"
   viewBox="0 0 38.666668 38.666668"
   height="38.666668"
   width="38.666668"
   xml:space="preserve"
   id="svg2"
   version="1.1"><metadata
     id="metadata8"><rdf:RDF><cc:Work
         rdf:about=""><dc:format>image/svg+xml</dc:format><dc:type
           rdf:resource="http://purl.org/dc/dcmitype/StillImage" /></cc:Work></rdf:RDF></metadata><defs
     id="defs6"><clipPath
       id="clipPath20"
       clipPathUnits="userSpaceOnUse"><path
         style="clip-rule:evenodd"
         id="path18"
         d="m 16.44016,17.69988 c 0,0 -0.006,0.0058 -0.006,0.0058 -0.58549,0.35489 -1.25994,0.54435 -1.94016,0.54435 -0.76894,0 -1.50832,-0.23082 -2.13516,-0.66842 C 12.18715,17.46329 12.0275,17.3272 11.87962,17.18534 11.15203,16.47556 10.75,15.52319 10.75,14.49988 10.75,12.43572 12.42976,10.75 14.5,10.75 c 2.07024,0 3.75,1.67971 3.75,3.74988 -0.01756,1.29548 -0.70379,2.5198 -1.80984,3.2 z m -1.95194,-5.76692 c -1.41382,0 -2.56724,1.15338 -2.56724,2.56692 0,0.698 0.27819,1.34862 0.77495,1.8396 0.10051,0.1005 0.21303,0.18922 0.33133,0.27194 0.43161,0.29574 0.93439,0.45562 1.46096,0.45562 0.46719,0 0.92259,-0.13031 1.33087,-0.37268 0.76293,-0.4674 1.23613,-1.30726 1.23613,-2.19448 0,-1.41354 -1.15342,-2.56692 -2.567,-2.56692 z" /></clipPath><clipPath
       id="clipPath26"
       clipPathUnits="userSpaceOnUse"><path
         id="path24"
         d="M -617,-949 H 646 V 314 H -617 Z" /></clipPath><clipPath
       id="clipPath36"
       clipPathUnits="userSpaceOnUse"><path
         style="clip-rule:evenodd"
         id="path34"
         d="m 21.35367,15.31293 h 0.06394 c 0.17477,0 0.33792,0.07447 0.44851,0.21179 0.11082,0.13172 0.15747,0.30929 0.12243,0.47524 -0.31448,1.52858 -1.10091,2.90262 -2.2719,3.979 -0.12812,0.12032 -0.30288,0.17176 -0.47764,0.14895 -0.17476,-0.02304 -0.32631,-0.12614 -0.41938,-0.26927 -0.07009,-0.1145 -0.16316,-0.20597 -0.27398,-0.28044 -0.0057,-0.0058 -0.01729,-0.01141 -0.02321,-0.01722 -0.0059,-0.0056 -0.50676,-0.36073 -1.06017,0.04003 -0.03504,0.02304 -0.04073,0.02863 -0.06986,0.04585 -0.05825,0.04003 -0.32631,0.24622 -0.30879,0.79593 0,0.10288 0.04665,0.2232 0.11651,0.34911 0.08738,0.14894 0.1049,0.3321 0.04073,0.49245 -0.06417,0.16035 -0.19797,0.28626 -0.36113,0.34351 C 16.11652,21.87409 15.31848,22 14.50885,22 c -0.7457,0 -1.48547,-0.10891 -2.19635,-0.31489 -0.16293,-0.04584 -0.29696,-0.16616 -0.36682,-0.3207 -0.07009,-0.15453 -0.06417,-0.3321 0.0116,-0.48082 0.2155,-0.42939 0.05234,-0.95047 -0.36704,-1.18507 L 11.56111,19.6813 C 11.13013,19.43507 10.5824,19.56679 10.32026,19.98478 10.22719,20.12791 10.08156,20.22519 9.906796,20.248 9.737724,20.27104 9.562962,20.21938 9.434849,20.11069 8.269773,19.09156 7.460136,17.77476 7.093091,16.29762 7.052359,16.13168 7.087175,15.95992 7.186161,15.8282 7.285374,15.69088 7.442614,15.60501 7.611459,15.59338 8.089095,15.55916 8.462056,15.1584 8.462056,14.68898 v -0.03444 c 0,-0.49246 -0.396171,-0.89322 -0.897245,-0.90463 C 7.395966,13.74432 7.232809,13.66403 7.127907,13.53812 7.023232,13.4064 6.976584,13.23464 7.011399,13.0687 7.308585,11.56293 8.059968,10.20029 9.184312,9.129726 9.312425,9.009408 9.481498,8.952156 9.656259,8.969376 9.831021,8.986596 9.982344,9.08388 10.08156,9.22701 c 0.26783,0.406578 0.80963,0.538302 1.24062,0.297665 L 11.35131,9.507678 C 11.79413,9.255636 11.94568,8.700337 11.68923,8.265133 L 11.67762,8.248136 C 11.59024,8.099192 11.57864,7.921622 11.63689,7.761495 11.69514,7.601145 11.82917,7.475236 11.9921,7.417984 12.80197,7.14313 13.64665,7 14.50885,7 c 0.71634,0 1.42722,0.097283 2.11443,0.291851 0.17476,0.05166 0.31471,0.171755 0.37865,0.33792 0.07009,0.16035 0.05256,0.349102 -0.03482,0.498047 -0.25645,0.435204 -0.1049,0.990503 0.33792,1.236731 l 0.02913,0.016996 c 0.44259,0.252043 1.00761,0.103098 1.25814,-0.331882 l 0.03505,-0.063067 c 0.08738,-0.148944 0.2387,-0.251818 0.40777,-0.280444 0.16885,-0.028626 0.34953,0.022811 0.47764,0.1315 1.21172,1.036349 2.05049,2.393178 2.41753,3.927568 0.04073,0.17176 0,0.34933 -0.11059,0.48664 -0.11082,0.13732 -0.27966,0.21761 -0.45442,0.21761 h -0.01753 c -0.50676,0 -0.92045,0.40635 -0.92045,0.90462 v 0.03422 c 0,0.49804 0.41938,0.90462 0.92637,0.90462 z M 20.6371,12.45034 c -0.30287,-0.87019 -0.78642,-1.66612 -1.43882,-2.33593 -0.65263,0.57834 -1.64294,0.71006 -2.44666,0.25205 L 16.72249,10.34924 C 15.95336,9.914033 15.57471,9.061069 15.70305,8.242322 c -0.39048,-0.074473 -0.79234,-0.10869 -1.1942,-0.10869 -0.5302,0 -1.05449,0.062843 -1.56717,0.188753 0.16316,0.835967 -0.22141,1.711965 -1.00783,2.158575 l -0.02913,0.017 c -0.75138,0.4238 -1.66023,0.34351 -2.306715,-0.14313 -0.605976,0.69284 -1.048568,1.49436 -1.305022,2.37036 0.786427,0.29185 1.339838,1.03613 1.339838,1.91794 v 0.03422 c 0,0.83015 -0.512451,1.55743 -1.24654,1.8779 0.297185,0.85878 0.774821,1.6375 1.415613,2.30149 C 10.45429,18.34147 11.38044,18.25 12.14957,18.68498 l 0.02912,0.01722 c 0.73978,0.41798 1.12412,1.23092 1.03105,2.02104 0.89702,0.18316 1.8466,0.17175 2.73793,-0.02863 -0.0116,-0.07447 -0.01752,-0.14894 -0.02344,-0.22319 -0.02912,-1.01913 0.52429,-1.60887 0.88564,-1.81507 0.9728,-0.6812 1.98632,-0.32047 2.40001,-0.02281 0.04665,0.02863 0.08739,0.06307 0.12812,0.0917 0.62327,-0.68703 1.08361,-1.48855 1.35736,-2.37037 -0.83308,-0.26904 -1.43314,-1.04194 -1.43314,-1.94656 v -0.03422 c 0.0059,-0.88181 0.57685,-1.63749 1.37488,-1.92375 z" /></clipPath><clipPath
       id="clipPath42"
       clipPathUnits="userSpaceOnUse"><path
         id="path40"
         d="M -617,-949 H 646 V 314 H -617 Z" /></clipPath><clipPath
       id="clipPath52"
       clipPathUnits="userSpaceOnUse"><path
         style="clip-rule:evenodd"
         id="path50"
         d="m 27.83179,20.06993 c -0.74477,1.71604 -1.80429,3.26799 -3.14911,4.61275 -1.34476,1.34476 -2.89671,2.40428 -4.61275,3.14911 C 18.2841,28.60697 16.41009,29 14.5,29 12.58991,29 10.7159,28.60697 8.930074,27.83179 7.214033,27.08696 5.66208,26.02744 4.317318,24.68268 2.972557,23.33792 1.913037,21.78597 1.168213,20.06993 0.3930293,18.2841 0,16.41009 0,14.5 0,12.58991 0.3930293,10.7159 1.168213,8.930074 1.913037,7.214033 2.972557,5.66208 4.317318,4.317318 5.66208,2.972557 7.214033,1.913037 8.930074,1.168213 10.7159,0.3930293 12.58991,0 14.5,0 c 1.91009,0 3.7841,0.3930293 5.56993,1.168213 1.71604,0.744824 3.26799,1.804344 4.61275,3.149105 1.34476,1.344762 2.40428,2.896715 3.14911,4.612756 C 28.60697,10.7159 29,12.58991 29,14.5 c 0,1.91009 -0.39303,3.7841 -1.16821,5.56993 z M 14.5,1.132812 C 7.254248,1.132812 1.132813,7.254248 1.132813,14.5 c 0,7.24575 6.121435,13.36719 13.367187,13.36719 7.24575,0 13.36719,-6.12144 13.36719,-13.36719 C 27.86719,7.254248 21.74575,1.132812 14.5,1.132812 Z" /></clipPath><clipPath
       id="clipPath58"
       clipPathUnits="userSpaceOnUse"><path
         id="path56"
         d="M -617,-949 H 646 V 314 H -617 Z" /></clipPath><clipPath
       id="clipPath68"
       clipPathUnits="userSpaceOnUse"><path
         style="clip-rule:evenodd"
         id="path66"
         d="m 25.67761,19.18812 c -0.61998,1.4405 -1.50364,2.74024 -2.62644,3.86299 -1.12281,1.12286 -2.42249,2.00646 -3.86305,2.6265 -1.49707,0.64434 -3.0744,0.97104 -4.68812,0.97104 -2.19372,0 -4.48046,-0.74911 -6.613028,-2.16628 -0.262366,-0.17436 -0.333718,-0.52838 -0.159359,-0.79069 0.174359,-0.26237 0.528438,-0.33366 0.790689,-0.15936 1.944928,1.29243 4.013328,1.97561 5.981698,1.97561 5.96693,0 11.00793,-5.041 11.00793,-11.00793 0,-5.966926 -5.041,-11.00793 -11.00793,-11.00793 -5.966926,0 -11.00793,5.041004 -11.00793,11.00793 0,1.96797 0.683005,4.03649 1.975096,5.98176 0.174302,0.26242 0.102893,0.61638 -0.159472,0.79068 C 5.045214,21.44675 4.69125,21.37528 4.517005,21.11291 3.100233,18.97994 2.351351,16.69326 2.351351,14.5 c 0,-1.61372 0.326702,-3.19105 0.971037,-4.688124 C 3.942368,8.371377 4.826025,7.071643 5.948834,5.948891 7.071643,4.826082 8.37132,3.942425 9.811819,3.322445 11.30895,2.678053 12.88628,2.351351 14.5,2.351351 c 1.61372,0 3.19105,0.326702 4.68812,0.971037 1.4405,0.61998 2.74024,1.503637 3.86299,2.626446 1.12281,1.122809 2.00646,2.422486 2.62645,3.862985 0.64439,1.497131 0.97109,3.074461 0.97109,4.688181 0,1.61372 -0.3267,3.19105 -0.97104,4.68812 z" /></clipPath><clipPath
       id="clipPath74"
       clipPathUnits="userSpaceOnUse"><path
         id="path72"
         d="M -617,-949 H 646 V 314 H -617 Z" /></clipPath><clipPath
       id="clipPath84"
       clipPathUnits="userSpaceOnUse"><path
         style="clip-rule:evenodd"
         id="path82"
         d="m 6.662162,22.72973 c -0.216324,0 -0.391892,-0.17557 -0.391892,-0.39189 0,-0.21633 0.175568,-0.39189 0.391892,-0.39189 0.216324,0 0.391892,0.17556 0.391892,0.39189 0,0.21632 -0.175568,0.39189 -0.391892,0.39189 z" /></clipPath><clipPath
       id="clipPath90"
       clipPathUnits="userSpaceOnUse"><path
         id="path88"
         d="M -617,-949 H 646 V 314 H -617 Z" /></clipPath></defs><g
     transform="matrix(1.3333333,0,0,-1.3333333,0,38.666667)"
     id="g10"><g
       id="g12" /><g
       id="g14"><g
         clip-path="url(#clipPath20)"
         id="g16"><g
           clip-path="url(#clipPath26)"
           id="g22"><path
             id="path28"
             style="fill:#01748e;fill-opacity:1;fill-rule:nonzero;stroke:none"
             d="m 5.75,23.25 h 17.5 V 5.75 H 5.75 Z" /></g></g></g><g
       id="g30"><g
         clip-path="url(#clipPath36)"
         id="g32"><g
           clip-path="url(#clipPath42)"
           id="g38"><path
             id="path44"
             style="fill:#01748e;fill-opacity:1;fill-rule:nonzero;stroke:none"
             d="M 2,27 H 27 V 2 H 2 Z" /></g></g></g><g
       id="g46"><g
         clip-path="url(#clipPath52)"
         id="g48"><g
           clip-path="url(#clipPath58)"
           id="g54"><path
             id="path60"
             style="fill:#01748e;fill-opacity:1;fill-rule:nonzero;stroke:none"
             d="M -5,34 H 34 V -5 H -5 Z" /></g></g></g><g
       id="g62"><g
         clip-path="url(#clipPath68)"
         id="g64"><g
           clip-path="url(#clipPath74)"
           id="g70"><path
             id="path76"
             style="fill:#01748e;fill-opacity:1;fill-rule:nonzero;stroke:none"
             d="M -2.648649,31.64865 H 31.64865 V -2.648649 H -2.648649 Z" /></g></g></g><g
       id="g78"><g
         clip-path="url(#clipPath84)"
         id="g80"><g
           clip-path="url(#clipPath90)"
           id="g86"><path
             id="path92"
             style="fill:#01748e;fill-opacity:1;fill-rule:nonzero;stroke:none"
             d="M 1.27027,27.72973 H 12.05405 V 16.94595 H 1.27027 Z" /></g></g></g></g></svg>