<?xml version="1.0" encoding="UTF-8" standalone="no"?>
<svg
   xmlns:dc="http://purl.org/dc/elements/1.1/"
   xmlns:cc="http://creativecommons.org/ns#"
   xmlns:rdf="http://www.w3.org/1999/02/22-rdf-syntax-ns#"
   xmlns:svg="http://www.w3.org/2000/svg"
   xmlns="http://www.w3.org/2000/svg"
   viewBox="0 0 32 32"
   height="32"
   width="32"
   xml:space="preserve"
   id="svg2"
   version="1.1"><metadata
     id="metadata8"><rdf:RDF><cc:Work
         rdf:about=""><dc:format>image/svg+xml</dc:format><dc:type
           rdf:resource="http://purl.org/dc/dcmitype/StillImage" /></cc:Work></rdf:RDF></metadata><defs
     id="defs6"><clipPath
       id="clipPath20"
       clipPathUnits="userSpaceOnUse"><path
         style="clip-rule:evenodd"
         id="path18"
         d="M 11.06269,15.79608 H 9.187687 c -0.258843,0 -0.46875,-0.20991 -0.46875,-0.4688 v -1.87519 c 0,-0.25889 0.209907,-0.46879 0.46875,-0.46879 h 1.875003 c 0.25884,0 0.46875,0.2099 0.46875,0.46879 v 1.87519 c 0,0.25889 -0.20991,0.4688 -0.46875,0.4688 z m -0.4688,-1.87519 H 9.656391 v 0.93759 h 0.937499 z" /></clipPath><clipPath
       id="clipPath26"
       clipPathUnits="userSpaceOnUse"><path
         id="path24"
         d="M -985,-1155 H 278 V 108 H -985 Z" /></clipPath><clipPath
       id="clipPath36"
       clipPathUnits="userSpaceOnUse"><path
         style="clip-rule:evenodd"
         id="path34"
         d="m 14.81269,15.79608 h -1.875 c -0.25885,0 -0.46875,-0.20991 -0.46875,-0.4688 v -1.87519 c 0,-0.25889 0.2099,-0.46879 0.46875,-0.46879 h 1.875 c 0.25884,0 0.46875,0.2099 0.46875,0.46879 v 1.87519 c 0,0.25889 -0.20991,0.4688 -0.46875,0.4688 z m -0.46875,-1.87519 h -0.9375 v 0.93759 h 0.9375 z" /></clipPath><clipPath
       id="clipPath42"
       clipPathUnits="userSpaceOnUse"><path
         id="path40"
         d="M -985,-1155 H 278 V 108 H -985 Z" /></clipPath><clipPath
       id="clipPath52"
       clipPathUnits="userSpaceOnUse"><path
         style="clip-rule:evenodd"
         id="path50"
         d="M 11.06269,19.54641 H 9.187687 c -0.258843,0 -0.46875,-0.20991 -0.46875,-0.4688 v -1.87519 c 0,-0.25889 0.209907,-0.4688 0.46875,-0.4688 h 1.875003 c 0.25884,0 0.46875,0.20991 0.46875,0.4688 v 1.87519 c 0,0.25889 -0.20991,0.4688 -0.46875,0.4688 z m -0.4688,-1.87514 H 9.656391 v 0.93759 h 0.937499 z" /></clipPath><clipPath
       id="clipPath58"
       clipPathUnits="userSpaceOnUse"><path
         id="path56"
         d="M -985,-1155 H 278 V 108 H -985 Z" /></clipPath><clipPath
       id="clipPath68"
       clipPathUnits="userSpaceOnUse"><path
         style="clip-rule:evenodd"
         id="path66"
         d="m 14.81269,19.54641 h -1.875 c -0.25885,0 -0.46875,-0.20991 -0.46875,-0.4688 v -1.87519 c 0,-0.25889 0.2099,-0.4688 0.46875,-0.4688 h 1.875 c 0.25884,0 0.46875,0.20991 0.46875,0.4688 v 1.87519 c 0,0.25889 -0.20991,0.4688 -0.46875,0.4688 z m -0.46875,-1.87514 h -0.9375 v 0.93759 h 0.9375 z" /></clipPath><clipPath
       id="clipPath74"
       clipPathUnits="userSpaceOnUse"><path
         id="path72"
         d="M -985,-1155 H 278 V 108 H -985 Z" /></clipPath><clipPath
       id="clipPath84"
       clipPathUnits="userSpaceOnUse"><path
         style="clip-rule:evenodd"
         id="path82"
         d="m 5.437641,14.34281 h -1.875 c -0.258844,0 -0.46875,-0.2099 -0.46875,-0.46879 v -1.87519 c 0,-0.25889 0.209906,-0.4688 0.46875,-0.4688 h 1.875 c 0.258843,0 0.46875,0.20991 0.46875,0.4688 v 1.87519 c 0,0.25889 -0.20986,0.46879 -0.46875,0.46879 z m -0.46875,-1.87519 h -0.9375 v 0.9376 h 0.9375 z" /></clipPath><clipPath
       id="clipPath90"
       clipPathUnits="userSpaceOnUse"><path
         id="path88"
         d="M -985,-1155 H 278 V 108 H -985 Z" /></clipPath><clipPath
       id="clipPath100"
       clipPathUnits="userSpaceOnUse"><path
         style="clip-rule:evenodd"
         id="path98"
         d="m 23.87644,16.06659 -2.15625,2.34399 c -0.08878,0.09651 -0.21389,0.1514 -0.34496,0.1514 H 17.15648 V 20.484 c 0,0 0.46707,0 0.46875,0 0.47916,0 0.6376,0.6922 0.19533,0.89498 l -5.625,2.57836 c -0.12403,0.05686 -0.26662,0.05686 -0.39065,0 0,0 -5.612254,-2.5725 -5.625004,-2.57836 C 5.745094,21.17967 5.873859,20.484 6.375234,20.484 h 0.46875 v -1.92206 h -4.21875 c -0.131109,0 -0.256218,-0.05489 -0.344953,-0.15141 0,0 -2.1499216,-2.33705 -2.1562498,-2.34394 C -0.1457813,15.7733 0.07232812,15.28041 0.4689844,15.28041 H 1.218984 v -5.10985 c 0,-0.258888 0.209907,-0.468794 0.46875,-0.468794 h 5.15625 V 8.764172 c 0,-0.258891 0.209907,-0.468797 0.46875,-0.468797 h 9.375046 c 0.25884,0 0.46875,0.209906 0.46875,0.468797 v 0.937547 h 5.15625 c 0.25884,0 0.46875,0.209906 0.46875,0.468801 v 5.10984 c 0,0 0.747,0 0.75,0 0.39272,5e-5 0.61209,0.4958 0.34491,0.78623 z M 6.843891,10.63931 h -4.6875 v 4.6411 h 4.6875 z m 4.6e-5,5.57864 H 1.537078 l 1.293797,1.40639 h 4.013062 z m 5.156253,6.79753 3.47723,-1.59389 H 8.522953 Z M 12.46894,9.232922 h -1.125 v 1.313628 c 0,0.30965 0.25233,0.56156 0.5625,0.56156 0.31017,0 0.5625,-0.25191 0.5625,-0.56156 z m 3.75,0 h -2.8125 v 1.313628 c 0,0.82664 -0.67289,1.49915 -1.5,1.49915 -0.82711,0 -1.5,-0.67251 -1.5,-1.49915 V 9.232922 H 7.781437 V 20.484 h 8.437503 z m 5.625,1.406388 h -4.6875 v 4.6411 h 4.6875 z m -4.6875,5.57864 v 1.40639 h 4.01301 l 1.2938,-1.40639 z" /></clipPath><clipPath
       id="clipPath106"
       clipPathUnits="userSpaceOnUse"><path
         id="path104"
         d="M -985,-1155 H 278 V 108 H -985 Z" /></clipPath><clipPath
       id="clipPath116"
       clipPathUnits="userSpaceOnUse"><path
         style="clip-rule:evenodd"
         id="path114"
         d="m 20.43769,14.34281 h -1.875 c -0.25885,0 -0.46875,-0.2099 -0.46875,-0.46879 v -1.87519 c 0,-0.25889 0.2099,-0.4688 0.46875,-0.4688 h 1.875 c 0.25884,0 0.46875,0.20991 0.46875,0.4688 v 1.87519 c 0,0.25889 -0.20991,0.46879 -0.46875,0.46879 z m -0.46875,-1.87519 h -0.9375 v 0.9376 h 0.9375 z" /></clipPath><clipPath
       id="clipPath122"
       clipPathUnits="userSpaceOnUse"><path
         id="path120"
         d="M -985,-1155 H 278 V 108 H -985 Z" /></clipPath><clipPath
       id="clipPath132"
       clipPathUnits="userSpaceOnUse"><path
         style="clip-rule:evenodd"
         id="path130"
         d="M 12.48633,5.083781 11.86987,6.854719 C 11.78475,7.099125 11.5177,7.228406 11.27306,7.143328 L 9.502312,6.526781 C 9.257812,6.441609 9.128625,6.174422 9.21375,5.929875 L 9.376031,5.463703 7.827562,4.806281 C 7.767,4.995047 7.590187,5.131781 7.381312,5.131781 h -1.875 c -0.258843,0 -0.46875,-0.209906 -0.46875,-0.468797 V 3.62175 L 2.800266,2.671875 2.682375,3.010594 C 2.597297,3.255 2.330203,3.384375 2.085562,3.299203 L 0.3147656,2.682656 C 0.07026562,2.597484 -0.05892188,2.330297 0.02620312,2.08575 c 0,0 0.61462498,-1.7655938 0.61645308,-1.7709375 C 0.7216406,0.0879375 0.99975,-0.05732813 1.239516,0.02620312 L 3.010266,0.64275 c 0.2445,0.0851719 0.373687,0.3523594 0.288562,0.596906 L 3.109172,1.784437 5.037516,2.603156 V 1.381453 H 4.826578 c -0.258844,0 -0.46875,-0.209906 -0.46875,-0.4687968 0,-0.2588906 0.209906,-0.4687968 0.46875,-0.4687968 h 3.234375 c 0.258844,0 0.46875,0.2099062 0.46875,0.4687968 0,0.2588908 -0.209906,0.4687968 -0.46875,0.4687968 H 7.850016 V 3.79725 l 1.834875,0.779062 c 0,0 0.145265,-0.417328 0.145312,-0.417375 0.064547,-0.185203 0.247267,-0.314718 0.442687,-0.314718 0.05109,-4.7e-5 1.92488,0.642656 1.92488,0.642656 0.2445,0.085172 0.37368,0.352359 0.28856,0.596906 z M 1.373953,1.065844 1.065703,1.951312 1.951125,2.259609 2.259375,1.374141 Z m 5.538563,0.315609 h -0.9375 v 0.937594 h 0.9375 z m 0,1.875141 h -0.9375 c 0,0 0,0.937593 0,0.937593 h 0.9375 z m 3.648934,1.653328 -0.30825,0.885469 0.88542,0.308343 0.30825,-0.885515 z" /></clipPath><clipPath
       id="clipPath138"
       clipPathUnits="userSpaceOnUse"><path
         id="path136"
         d="M -985,-1155 H 278 V 108 H -985 Z" /></clipPath><clipPath
       id="clipPath148"
       clipPathUnits="userSpaceOnUse"><path
         style="clip-rule:evenodd"
         id="path146"
         d="M 23.99316,0.5499844 23.06269,5.854219 c -1.9e-4,0.539156 -0.007,1.199344 -0.28392,1.752703 -0.35405,0.707344 -1.0471,1.065984 -2.05983,1.065984 -1.01274,0 -1.70578,-0.35864 -2.05983,-1.065984 -0.22144,-0.442406 -0.27,-0.95311 -0.28073,-1.415719 C 16.68764,5.388844 15.76331,4.613906 14.62186,3.472875 13.32952,2.179922 12.37327,1.563938 11.79806,1.274672 11.46202,1.105594 11.06986,0.9375938 10.68764,0.9375938 c -0.24159,0 -0.45169,-0.1969688 -0.46781,-0.4378125 C 10.20352,0.2558438 10.3845,0.03567188 10.62675,0.00426562 10.64456,0.001875 13.23675,0 13.23675,0 c 0.2587,0 0.46875,0.2104688 0.46875,0.46875 5e-5,0.3735469 -0.33342,0.4688438 -0.6375,0.4688438 0.69422,0.4655622 1.44,1.0951402 2.21667,1.8719532 0.89921,0.899578 1.91161,1.859391 3.09052,2.378578 V 0.4689844 c 0,-0.2588906 0.2099,-0.4687969 0.46875,-0.4687969 0,0 4.67962,0 4.6875,0 0.2864,0 0.51112,0.2682187 0.46172,0.5497969 z M 22.5292,3.469266 22.69369,2.531672 h -1.506 v 0.937594 z m -0.16443,0.937593 h -1.17704 v 0.937594 h 1.01255 z m -1.64583,3.328454 c 1.15256,0 1.36289,-0.541735 1.39912,-1.453266 h -2.7982 c 0.03619,0.911531 0.24652,1.453266 1.39908,1.453266 z M 20.25019,0.9377813 h -0.9375 V 5.344453 h 0.9375 z m 0.9375,-1e-7 V 1.594078 h 1.67048 L 22.9733,0.9377812 Z" /></clipPath><clipPath
       id="clipPath154"
       clipPathUnits="userSpaceOnUse"><path
         id="path152"
         d="M -985,-1155 H 278 V 108 H -985 Z" /></clipPath><clipPath
       id="clipPath164"
       clipPathUnits="userSpaceOnUse"><path
         style="clip-rule:evenodd"
         id="path162"
         d="m 15.11175,0.9375938 c -0.25828,0 -0.46875,-0.21 -0.46875,-0.4687969 C 14.643,0.2105156 14.85347,0 15.11175,0 c 0.25875,0 0.46875,0.2105156 0.46875,0.4687969 0,0.2587969 -0.21005,0.4687969 -0.46875,0.4687969 z" /></clipPath><clipPath
       id="clipPath170"
       clipPathUnits="userSpaceOnUse"><path
         id="path168"
         d="M -985,-1155 H 278 V 108 H -985 Z" /></clipPath></defs><g
     transform="matrix(1.3333333,0,0,-1.3333333,0,32)"
     id="g10"><g
       id="g12" /><g
       id="g14"><g
         clip-path="url(#clipPath20)"
         id="g16"><g
           clip-path="url(#clipPath26)"
           id="g22"><path
             id="path28"
             style="fill:#01748e;fill-opacity:1;fill-rule:nonzero;stroke:none"
             d="M 3.718937,20.79608 H 16.53144 V 7.983297 H 3.718937 Z" /></g></g></g><g
       id="g30"><g
         clip-path="url(#clipPath36)"
         id="g32"><g
           clip-path="url(#clipPath42)"
           id="g38"><path
             id="path44"
             style="fill:#01748e;fill-opacity:1;fill-rule:nonzero;stroke:none"
             d="M 7.468937,20.79608 H 20.28144 V 7.983297 H 7.468937 Z" /></g></g></g><g
       id="g46"><g
         clip-path="url(#clipPath52)"
         id="g48"><g
           clip-path="url(#clipPath58)"
           id="g54"><path
             id="path60"
             style="fill:#01748e;fill-opacity:1;fill-rule:nonzero;stroke:none"
             d="M 3.718937,24.54641 H 16.53144 V 11.73362 H 3.718937 Z" /></g></g></g><g
       id="g62"><g
         clip-path="url(#clipPath68)"
         id="g64"><g
           clip-path="url(#clipPath74)"
           id="g70"><path
             id="path76"
             style="fill:#01748e;fill-opacity:1;fill-rule:nonzero;stroke:none"
             d="M 7.468937,24.54641 H 20.28144 V 11.73362 H 7.468937 Z" /></g></g></g><g
       id="g78"><g
         clip-path="url(#clipPath84)"
         id="g80"><g
           clip-path="url(#clipPath90)"
           id="g86"><path
             id="path92"
             style="fill:#01748e;fill-opacity:1;fill-rule:nonzero;stroke:none"
             d="M -1.906109,19.34281 H 10.90639 V 6.530031 H -1.906109 Z" /></g></g></g><g
       id="g94"><g
         clip-path="url(#clipPath100)"
         id="g96"><g
           clip-path="url(#clipPath106)"
           id="g102"><path
             id="path108"
             style="fill:#01748e;fill-opacity:1;fill-rule:nonzero;stroke:none"
             d="M -4.99546,28.99999 H 28.99401 V 3.295375 H -4.99546 Z" /></g></g></g><g
       id="g110"><g
         clip-path="url(#clipPath116)"
         id="g112"><g
           clip-path="url(#clipPath122)"
           id="g118"><path
             id="path124"
             style="fill:#01748e;fill-opacity:1;fill-rule:nonzero;stroke:none"
             d="m 13.09394,19.34281 h 12.8125 V 6.530031 h -12.8125 z" /></g></g></g><g
       id="g126"><g
         clip-path="url(#clipPath132)"
         id="g128"><g
           clip-path="url(#clipPath138)"
           id="g134"><path
             id="path140"
             style="fill:#01748e;fill-opacity:1;fill-rule:nonzero;stroke:none"
             d="M -4.99999,12.16949 H 17.51252 V -4.997654 H -4.99999 Z" /></g></g></g><g
       id="g142"><g
         clip-path="url(#clipPath148)"
         id="g144"><g
           clip-path="url(#clipPath154)"
           id="g150"><path
             id="path156"
             style="fill:#01748e;fill-opacity:1;fill-rule:nonzero;stroke:none"
             d="M 5.218807,13.67291 H 29 V -5 H 5.218807 Z" /></g></g></g><g
       id="g158"><g
         clip-path="url(#clipPath164)"
         id="g160"><g
           clip-path="url(#clipPath170)"
           id="g166"><path
             id="path172"
             style="fill:#01748e;fill-opacity:1;fill-rule:nonzero;stroke:none"
             d="M 9.643,5.937594 H 20.5805 V -5 H 9.643 Z" /></g></g></g></g></svg>