<?xml version="1.0" encoding="UTF-8" standalone="no"?>
<svg
   xmlns:dc="http://purl.org/dc/elements/1.1/"
   xmlns:cc="http://creativecommons.org/ns#"
   xmlns:rdf="http://www.w3.org/1999/02/22-rdf-syntax-ns#"
   xmlns:svg="http://www.w3.org/2000/svg"
   xmlns="http://www.w3.org/2000/svg"
   viewBox="0 0 32 32"
   height="32"
   width="32"
   xml:space="preserve"
   id="svg2"
   version="1.1"><metadata
     id="metadata8"><rdf:RDF><cc:Work
         rdf:about=""><dc:format>image/svg+xml</dc:format><dc:type
           rdf:resource="http://purl.org/dc/dcmitype/StillImage" /></cc:Work></rdf:RDF></metadata><defs
     id="defs6"><clipPath
       id="clipPath20"
       clipPathUnits="userSpaceOnUse"><path
         style="clip-rule:evenodd"
         id="path18"
         d="m 20.6478,10.58678 h -3.31213 c -0.19448,0 -0.3522,-0.14989 -0.3522,-0.33471 0,-0.18483 0.15772,-0.334715 0.3522,-0.334715 h 3.31213 c 0.19449,0 0.3522,0.149885 0.3522,0.334715 0,0.18482 -0.15768,0.33471 -0.3522,0.33471 z" /></clipPath><clipPath
       id="clipPath26"
       clipPathUnits="userSpaceOnUse"><path
         id="path24"
         d="M -142,-1068 H 1121 V 195 H -142 Z" /></clipPath><clipPath
       id="clipPath36"
       clipPathUnits="userSpaceOnUse"><path
         style="clip-rule:evenodd"
         id="path34"
         d="m 16.21595,10.48871 c -0.06256,0.06229 -0.14858,0.09807 -0.23661,0.09807 -0.0884,0 -0.17439,-0.03578 -0.23664,-0.09807 -0.06226,-0.06229 -0.09807,-0.14861 -0.09807,-0.23664 0,-0.08803 0.03578,-0.17439 0.09807,-0.23661 0.06225,-0.062257 0.14828,-0.098105 0.23664,-0.098105 0.08803,0 0.17438,0.035814 0.23661,0.098105 0.06225,0.06222 0.0981,0.14858 0.0981,0.23661 0,0.08803 -0.03581,0.17438 -0.0981,0.23664 z" /></clipPath><clipPath
       id="clipPath42"
       clipPathUnits="userSpaceOnUse"><path
         id="path40"
         d="M -142,-1068 H 1121 V 195 H -142 Z" /></clipPath><clipPath
       id="clipPath52"
       clipPathUnits="userSpaceOnUse"><path
         style="clip-rule:evenodd"
         id="path50"
         d="m 14.2536,10.58678 h -2.75437 c -0.12006,0 -0.2317,-0.06182 -0.29577,-0.1637 L 6.921781,3.612818 C 6.818713,3.448843 6.867536,3.232036 7.030899,3.128582 7.088851,3.091897 7.153413,3.07438 7.217205,3.07438 c 0.116044,0 0.229569,0.057923 0.296124,0.163729 L 11.69204,9.88468 h 2.56153 c 0.19312,0 0.34974,0.1572 0.34974,0.35105 0,0.19385 -0.15655,0.35105 -0.34971,0.35105 z" /></clipPath><clipPath
       id="clipPath58"
       clipPathUnits="userSpaceOnUse"><path
         id="path56"
         d="M -142,-1068 H 1121 V 195 H -142 Z" /></clipPath><clipPath
       id="clipPath68"
       clipPathUnits="userSpaceOnUse"><path
         style="clip-rule:evenodd"
         id="path66"
         d="m 8.401061,12.04207 -4.783888,4.76438 c -0.137446,0.13685 -0.36019,0.13685 -0.497672,0 -0.137411,-0.13685 -0.137411,-0.35875 0,-0.49561 L 7.704292,11.74478 3.054613,4.43054 C 2.950666,4.266984 2.999508,4.050475 3.163698,3.946952 3.222111,3.91012 3.287245,3.892562 3.351605,3.892562 c 0.11658,0 0.230696,0.057684 0.29766,0.162995 l 4.800321,7.551213 c 0.088007,0.13853 0.067879,0.31933 -0.048525,0.4353 z" /></clipPath><clipPath
       id="clipPath74"
       clipPathUnits="userSpaceOnUse"><path
         id="path72"
         d="M -142,-1068 H 1121 V 195 H -142 Z" /></clipPath><clipPath
       id="clipPath84"
       clipPathUnits="userSpaceOnUse"><path
         style="clip-rule:evenodd"
         id="path82"
         d="M 7.210347,18.33177 4.645809,20.8963 c -0.138306,0.13827 -0.362442,0.13827 -0.500784,0 -0.13827,-0.13828 -0.13827,-0.36248 0,-0.50079 l 2.564573,-2.56452 c 0.069153,-0.06916 0.159764,-0.10372 0.250375,-0.10372 0.09061,0 0.181221,0.03456 0.250374,0.10372 0.13827,0.13827 0.13827,0.36248 0,0.50078 z" /></clipPath><clipPath
       id="clipPath90"
       clipPathUnits="userSpaceOnUse"><path
         id="path88"
         d="M -142,-1068 H 1121 V 195 H -142 Z" /></clipPath><clipPath
       id="clipPath100"
       clipPathUnits="userSpaceOnUse"><path
         style="clip-rule:evenodd"
         id="path98"
         d="m 8.034128,17.48078 c -0.062223,0.06225 -0.148578,0.09773 -0.236607,0.09773 -0.088029,0 -0.174385,-0.03548 -0.236641,-0.09773 -0.062256,-0.06226 -0.09807,-0.14861 -0.09807,-0.23698 0,-0.08803 0.03578,-0.17405 0.09807,-0.2363 0.062256,-0.06263 0.148612,-0.09841 0.236641,-0.09841 0.088029,0 0.174384,0.03581 0.236607,0.09841 0.062591,0.06225 0.098103,0.14827 0.098103,0.2363 0,0.08837 -0.035512,0.17439 -0.098103,0.23698 z" /></clipPath><clipPath
       id="clipPath106"
       clipPathUnits="userSpaceOnUse"><path
         id="path104"
         d="M -142,-1068 H 1121 V 195 H -142 Z" /></clipPath><clipPath
       id="clipPath116"
       clipPathUnits="userSpaceOnUse"><path
         style="clip-rule:evenodd"
         id="path114"
         d="m 20.58002,12.3719 h -1.01954 c -0.19084,0 -0.3456,-0.14985 -0.3456,-0.33471 0,-0.18483 0.15476,-0.33471 0.3456,-0.33471 h 1.01954 c 0.19084,0 0.3456,0.14988 0.3456,0.33471 0,0.18486 -0.15473,0.33471 -0.3456,0.33471 z" /></clipPath><clipPath
       id="clipPath122"
       clipPathUnits="userSpaceOnUse"><path
         id="path120"
         d="M -142,-1068 H 1121 V 195 H -142 Z" /></clipPath><clipPath
       id="clipPath132"
       clipPathUnits="userSpaceOnUse"><path
         style="clip-rule:evenodd"
         id="path130"
         d="m 18.05438,12.3719 h -0.80297 c -0.18903,0 -0.34232,-0.14985 -0.34232,-0.33471 0,-0.18483 0.15326,-0.33471 0.34232,-0.33471 h 0.80297 c 0.18903,0 0.34231,0.14988 0.34231,0.33471 0,0.18486 -0.15328,0.33471 -0.34231,0.33471 z" /></clipPath><clipPath
       id="clipPath138"
       clipPathUnits="userSpaceOnUse"><path
         id="path136"
         d="M -142,-1068 H 1121 V 195 H -142 Z" /></clipPath><clipPath
       id="clipPath148"
       clipPathUnits="userSpaceOnUse"><path
         style="clip-rule:evenodd"
         id="path146"
         d="m 20.57607,14.21909 h -3.19786 l 0.68167,0.8737 c 7.3e-4,9.8e-4 0.0015,0.002 0.0022,0.0029 0.52034,0.64252 0.80677,1.45159 0.80677,2.27967 0,1.99864 -1.62609,3.62464 -3.62484,3.62464 -1.99871,0 -3.62483,-1.626 -3.62483,-3.62464 0,-0.82899 0.28632,-1.63726 0.80691,-2.28005 0.0045,-0.0067 0.0093,-0.01321 0.01426,-0.01965 l 0.66863,-0.85657 h -1.75225 l -2.404609,2.40449 c -0.136536,0.13649 -0.357803,0.13646 -0.494374,0 -0.1365,-0.13649 -0.1365,-0.35782 0,-0.49435 L 10.96474,13.6224 c 0.06558,-0.06553 0.15447,-0.10237 0.24717,-0.10237 h 2.30328 c 0.043,0 0.084,0.0081 0.12203,0.02233 l 0.89052,-1.14081 h -0.1387 c -0.19302,0 -0.34955,-0.15649 -0.34955,-0.34954 0,-0.19301 0.15653,-0.34953 0.34955,-0.34953 h 1.28171 c 0.19306,0 0.34955,0.15652 0.34955,0.34953 0,0.10724 -0.04841,0.20308 -0.12444,0.26722 l 0.93691,1.20083 h 3.7433 c 0.19302,0 0.34955,0.15649 0.34955,0.34954 0,0.19304 -0.15653,0.34949 -0.34955,0.34949 z m -5.33213,-1.59891 -2.23179,2.85909 c -0.0075,0.01178 -0.01584,0.02318 -0.02485,0.03412 -0.43142,0.52213 -0.66901,1.18342 -0.66901,1.86197 0,1.61314 1.3125,2.92557 2.92572,2.92557 1.61323,0 2.92573,-1.31243 2.92573,-2.92557 0,-0.67139 -0.23322,-1.32725 -0.65667,-1.84673 -0.0038,-0.0047 -0.0075,-0.0095 -0.01105,-0.01433 z" /></clipPath><clipPath
       id="clipPath154"
       clipPathUnits="userSpaceOnUse"><path
         id="path152"
         d="M -142,-1068 H 1121 V 195 H -142 Z" /></clipPath><clipPath
       id="clipPath164"
       clipPathUnits="userSpaceOnUse"><path
         style="clip-rule:evenodd"
         id="path162"
         d="m 12.61196,12.3719 h -1.14954 c -0.19602,0 -0.35498,-0.14985 -0.35498,-0.33471 0,-0.18483 0.15896,-0.33471 0.35498,-0.33471 h 1.14954 c 0.19602,0 0.35498,0.14988 0.35498,0.33471 -3e-5,0.18486 -0.15896,0.33471 -0.35498,0.33471 z" /></clipPath><clipPath
       id="clipPath170"
       clipPathUnits="userSpaceOnUse"><path
         id="path168"
         d="M -142,-1068 H 1121 V 195 H -142 Z" /></clipPath><clipPath
       id="clipPath180"
       clipPathUnits="userSpaceOnUse"><path
         style="clip-rule:evenodd"
         id="path178"
         d="m 4.534229,18.54573 -0.864504,0.86453 c -0.136179,0.13618 -0.356926,0.13618 -0.49321,0 -0.13618,-0.13618 -0.13618,-0.35699 0,-0.49317 l 0.864539,-0.86453 c 0.068107,-0.06811 0.157347,-0.10215 0.246587,-0.10215 0.089241,0 0.178481,0.03407 0.246588,0.10215 0.136179,0.13617 0.136179,0.35699 0,0.49317 z" /></clipPath><clipPath
       id="clipPath186"
       clipPathUnits="userSpaceOnUse"><path
         id="path184"
         d="M -142,-1068 H 1121 V 195 H -142 Z" /></clipPath><clipPath
       id="clipPath196"
       clipPathUnits="userSpaceOnUse"><path
         style="clip-rule:evenodd"
         id="path194"
         d="m 6.393733,16.61187 -0.864539,0.8645 c -0.136214,0.13621 -0.356961,0.13617 -0.493175,0 -0.13618,-0.13618 -0.13618,-0.35699 0,-0.49317 l 0.864539,-0.86453 c 0.068107,-0.06811 0.157347,-0.10214 0.246588,-0.10214 0.08924,0 0.17848,0.03407 0.246587,0.10214 0.13618,0.13621 0.13618,0.35703 0,0.4932 z" /></clipPath><clipPath
       id="clipPath202"
       clipPathUnits="userSpaceOnUse"><path
         id="path200"
         d="M -142,-1068 H 1121 V 195 H -142 Z" /></clipPath><clipPath
       id="clipPath212"
       clipPathUnits="userSpaceOnUse"><path
         style="clip-rule:evenodd"
         id="path210"
         d="m 8.253237,14.75234 -0.864539,0.86452 c -0.136179,0.13621 -0.356926,0.13618 -0.493175,0 -0.136179,-0.13618 -0.136179,-0.35699 0,-0.49317 l 0.864539,-0.86452 c 0.068107,-0.06811 0.157347,-0.10215 0.246588,-0.10215 0.08924,0 0.17848,0.03408 0.246587,0.10215 0.13618,0.13617 0.13618,0.35699 0,0.49317 z" /></clipPath><clipPath
       id="clipPath218"
       clipPathUnits="userSpaceOnUse"><path
         id="path216"
         d="M -142,-1068 H 1121 V 195 H -142 Z" /></clipPath><clipPath
       id="clipPath228"
       clipPathUnits="userSpaceOnUse"><path
         style="clip-rule:evenodd"
         id="path226"
         d="m 10.03708,13.04909 -0.781365,0.78138 c -0.137925,0.13789 -0.361445,0.13789 -0.499405,0 -0.13789,-0.1379 -0.13789,-0.36149 0,-0.49938 l 0.781399,-0.78138 c 0.068963,-0.06896 0.159324,-0.10343 0.249685,-0.10343 0.090361,0 0.180722,0.0345 0.249686,0.10343 0.13789,0.13789 0.13789,0.36149 0,0.49938 z" /></clipPath><clipPath
       id="clipPath234"
       clipPathUnits="userSpaceOnUse"><path
         id="path232"
         d="M -142,-1068 H 1121 V 195 H -142 Z" /></clipPath><clipPath
       id="clipPath244"
       clipPathUnits="userSpaceOnUse"><path
         style="clip-rule:evenodd"
         id="path242"
         d="M 5.962723,4.879782 C 5.801214,4.983044 5.587783,4.934075 5.485872,4.770495 L 4.764131,3.611636 C 4.662255,3.448021 4.710514,3.23169 4.871988,3.128463 4.92927,3.091824 4.993085,3.07438 5.056139,3.07438 c 0.114702,0 0.226914,0.057796 0.2927,0.16337 l 0.72174,1.158859 C 6.172456,4.560223 6.124197,4.776555 5.962723,4.879782 Z" /></clipPath><clipPath
       id="clipPath250"
       clipPathUnits="userSpaceOnUse"><path
         id="path248"
         d="M -142,-1068 H 1121 V 195 H -142 Z" /></clipPath><clipPath
       id="clipPath260"
       clipPathUnits="userSpaceOnUse"><path
         style="clip-rule:evenodd"
         id="path258"
         d="M 7.525965,7.409213 C 7.365709,7.511494 7.153933,7.463025 7.052812,7.300965 L 6.325692,6.135457 C 6.224606,5.973397 6.272525,5.759121 6.432713,5.656875 6.48955,5.620584 6.55287,5.603306 6.615436,5.603306 c 0.113812,0 0.225154,0.057246 0.290429,0.161817 l 0.72712,1.165508 c 0.101086,0.16206 0.053167,0.376336 -0.10702,0.478582 z" /></clipPath><clipPath
       id="clipPath266"
       clipPathUnits="userSpaceOnUse"><path
         id="path264"
         d="M -142,-1068 H 1121 V 195 H -142 Z" /></clipPath><clipPath
       id="clipPath276"
       clipPathUnits="userSpaceOnUse"><path
         style="clip-rule:evenodd"
         id="path274"
         d="M 8.939764,9.566982 C 8.780085,9.667864 8.569002,9.620006 8.468314,9.460251 L 7.961865,8.656926 C 7.861143,8.497137 7.90889,8.285863 8.068501,8.18505 8.125133,8.149267 8.188226,8.132231 8.250566,8.132231 c 0.113403,0 0.224378,0.056445 0.289385,0.15955 L 9.046399,9.095106 C 9.147121,9.254895 9.099375,9.466169 8.939764,9.566982 Z" /></clipPath><clipPath
       id="clipPath282"
       clipPathUnits="userSpaceOnUse"><path
         id="path280"
         d="M -142,-1068 H 1121 V 195 H -142 Z" /></clipPath><clipPath
       id="clipPath292"
       clipPathUnits="userSpaceOnUse"><path
         style="clip-rule:evenodd"
         id="path290"
         d="M 10.20284,11.57465 C 10.04178,11.67668 9.828941,11.62826 9.727313,11.46673 L 9.226793,10.671 C 9.1252,10.50944 9.173325,10.29583 9.33435,10.1939 c 0.057123,-0.03618 0.120761,-0.0534 0.18364,-0.0534 0.114383,0 0.226284,0.05707 0.291887,0.16131 l 0.500523,0.79573 c 0.10159,0.16156 0.05347,0.37518 -0.10756,0.47711 z" /></clipPath><clipPath
       id="clipPath298"
       clipPathUnits="userSpaceOnUse"><path
         id="path296"
         d="M -142,-1068 H 1121 V 195 H -142 Z" /></clipPath><clipPath
       id="clipPath308"
       clipPathUnits="userSpaceOnUse"><path
         style="clip-rule:evenodd"
         id="path306"
         d="m 15.27271,19.06612 c -0.98434,0 -1.78511,-0.8008 -1.78511,-1.78513 0,-0.98432 0.80081,-1.78512 1.78511,-1.78512 0.9843,0 1.78514,0.80083 1.78514,1.78512 0,0.98429 -0.80084,1.78513 -1.78514,1.78513 z m 0,-2.8702 c -0.5983,4e-5 -1.08505,0.48677 -1.08505,1.08507 0,0.5983 0.48675,1.08507 1.08505,1.08507 0.59834,0 1.08508,-0.48674 1.08508,-1.08507 -4e-5,-0.59833 -0.48678,-1.08507 -1.08508,-1.08507 z" /></clipPath><clipPath
       id="clipPath314"
       clipPathUnits="userSpaceOnUse"><path
         id="path312"
         d="M -142,-1068 H 1121 V 195 H -142 Z" /></clipPath></defs><g
     transform="matrix(1.3333333,0,0,-1.3333333,0,32)"
     id="g10"><g
       id="g12" /><g
       id="g14"><g
         clip-path="url(#clipPath20)"
         id="g16"><g
           clip-path="url(#clipPath26)"
           id="g22"><path
             id="path28"
             style="fill:#01748e;fill-opacity:1;fill-rule:nonzero;stroke:none"
             d="M 11.98347,15.58678 H 26 V 4.917355 H 11.98347 Z" /></g></g></g><g
       id="g30"><g
         clip-path="url(#clipPath36)"
         id="g32"><g
           clip-path="url(#clipPath42)"
           id="g38"><path
             id="path44"
             style="fill:#01748e;fill-opacity:1;fill-rule:nonzero;stroke:none"
             d="M 10.64463,15.58678 H 21.31405 V 4.917355 H 10.64463 Z" /></g></g></g><g
       id="g46"><g
         clip-path="url(#clipPath52)"
         id="g48"><g
           clip-path="url(#clipPath58)"
           id="g54"><path
             id="path60"
             style="fill:#01748e;fill-opacity:1;fill-rule:nonzero;stroke:none"
             d="M 1.867769,15.58678 H 19.60331 V -1.92562 H 1.867769 Z" /></g></g></g><g
       id="g62"><g
         clip-path="url(#clipPath68)"
         id="g64"><g
           clip-path="url(#clipPath74)"
           id="g70"><path
             id="path76"
             style="fill:#01748e;fill-opacity:1;fill-rule:nonzero;stroke:none"
             d="M -2,21.90909 H 13.50413 V -1.107438 H -2 Z" /></g></g></g><g
       id="g78"><g
         clip-path="url(#clipPath84)"
         id="g80"><g
           clip-path="url(#clipPath90)"
           id="g86"><path
             id="path92"
             style="fill:#01748e;fill-opacity:1;fill-rule:nonzero;stroke:none"
             d="M -0.9586777,26 H 12.31405 V 12.72727 H -0.9586777 Z" /></g></g></g><g
       id="g94"><g
         clip-path="url(#clipPath100)"
         id="g96"><g
           clip-path="url(#clipPath106)"
           id="g102"><path
             id="path108"
             style="fill:#01748e;fill-opacity:1;fill-rule:nonzero;stroke:none"
             d="M 2.46281,22.57851 H 13.13223 V 11.90909 H 2.46281 Z" /></g></g></g><g
       id="g110"><g
         clip-path="url(#clipPath116)"
         id="g112"><g
           clip-path="url(#clipPath122)"
           id="g118"><path
             id="path124"
             style="fill:#01748e;fill-opacity:1;fill-rule:nonzero;stroke:none"
             d="M 14.21488,17.3719 H 25.92562 V 6.702479 H 14.21488 Z" /></g></g></g><g
       id="g126"><g
         clip-path="url(#clipPath132)"
         id="g128"><g
           clip-path="url(#clipPath138)"
           id="g134"><path
             id="path140"
             style="fill:#01748e;fill-opacity:1;fill-rule:nonzero;stroke:none"
             d="m 11.90909,17.3719 h 11.4876 V 6.702479 h -11.4876 z" /></g></g></g><g
       id="g142"><g
         clip-path="url(#clipPath148)"
         id="g144"><g
           clip-path="url(#clipPath154)"
           id="g150"><path
             id="path156"
             style="fill:#01748e;fill-opacity:1;fill-rule:nonzero;stroke:none"
             d="M 3.355372,26 H 25.92562 V 6.702479 H 3.355372 Z" /></g></g></g><g
       id="g158"><g
         clip-path="url(#clipPath164)"
         id="g160"><g
           clip-path="url(#clipPath170)"
           id="g166"><path
             id="path172"
             style="fill:#01748e;fill-opacity:1;fill-rule:nonzero;stroke:none"
             d="M 6.107438,17.3719 H 17.96694 V 6.702479 H 6.107438 Z" /></g></g></g><g
       id="g174"><g
         clip-path="url(#clipPath180)"
         id="g176"><g
           clip-path="url(#clipPath186)"
           id="g182"><path
             id="path188"
             style="fill:#01748e;fill-opacity:1;fill-rule:nonzero;stroke:none"
             d="M -1.92562,24.5124 H 9.636364 V 12.95041 H -1.92562 Z" /></g></g></g><g
       id="g190"><g
         clip-path="url(#clipPath196)"
         id="g192"><g
           clip-path="url(#clipPath202)"
           id="g198"><path
             id="path204"
             style="fill:#01748e;fill-opacity:1;fill-rule:nonzero;stroke:none"
             d="M -0.0661157,22.57851 H 11.49587 V 11.01653 H -0.0661157 Z" /></g></g></g><g
       id="g206"><g
         clip-path="url(#clipPath212)"
         id="g208"><g
           clip-path="url(#clipPath218)"
           id="g214"><path
             id="path220"
             style="fill:#01748e;fill-opacity:1;fill-rule:nonzero;stroke:none"
             d="M 1.793388,20.71901 H 13.35537 V 9.157025 H 1.793388 Z" /></g></g></g><g
       id="g222"><g
         clip-path="url(#clipPath228)"
         id="g224"><g
           clip-path="url(#clipPath234)"
           id="g230"><path
             id="path236"
             style="fill:#01748e;fill-opacity:1;fill-rule:nonzero;stroke:none"
             d="M 3.652893,18.93388 H 15.1405 V 7.446281 H 3.652893 Z" /></g></g></g><g
       id="g238"><g
         clip-path="url(#clipPath244)"
         id="g240"><g
           clip-path="url(#clipPath250)"
           id="g246"><path
             id="path252"
             style="fill:#01748e;fill-opacity:1;fill-rule:nonzero;stroke:none"
             d="M -0.2892562,9.933884 H 11.12397 V -1.92562 H -0.2892562 Z" /></g></g></g><g
       id="g254"><g
         clip-path="url(#clipPath260)"
         id="g256"><g
           clip-path="url(#clipPath266)"
           id="g262"><path
             id="path268"
             style="fill:#01748e;fill-opacity:1;fill-rule:nonzero;stroke:none"
             d="M 1.272727,12.46281 H 12.68595 V 0.6033058 H 1.272727 Z" /></g></g></g><g
       id="g270"><g
         clip-path="url(#clipPath276)"
         id="g272"><g
           clip-path="url(#clipPath282)"
           id="g278"><path
             id="path284"
             style="fill:#01748e;fill-opacity:1;fill-rule:nonzero;stroke:none"
             d="M 2.909091,14.61983 H 14.09917 V 3.132231 H 2.909091 Z" /></g></g></g><g
       id="g286"><g
         clip-path="url(#clipPath292)"
         id="g288"><g
           clip-path="url(#clipPath298)"
           id="g294"><path
             id="path300"
             style="fill:#01748e;fill-opacity:1;fill-rule:nonzero;stroke:none"
             d="M 4.173554,16.6281 H 15.36364 V 5.140496 H 4.173554 Z" /></g></g></g><g
       id="g302"><g
         clip-path="url(#clipPath308)"
         id="g304"><g
           clip-path="url(#clipPath314)"
           id="g310"><path
             id="path316"
             style="fill:#01748e;fill-opacity:1;fill-rule:nonzero;stroke:none"
             d="M 8.487603,24.06612 H 22.05785 V 10.49587 H 8.487603 Z" /></g></g></g></g></svg>