<?xml version="1.0" encoding="UTF-8" standalone="no"?>
<svg
   xmlns:dc="http://purl.org/dc/elements/1.1/"
   xmlns:cc="http://creativecommons.org/ns#"
   xmlns:rdf="http://www.w3.org/1999/02/22-rdf-syntax-ns#"
   xmlns:svg="http://www.w3.org/2000/svg"
   xmlns="http://www.w3.org/2000/svg"
   viewBox="0 0 46.666668 46.666668"
   height="46.666668"
   width="46.666668"
   xml:space="preserve"
   id="svg2"
   version="1.1"><metadata
     id="metadata8"><rdf:RDF><cc:Work
         rdf:about=""><dc:format>image/svg+xml</dc:format><dc:type
           rdf:resource="http://purl.org/dc/dcmitype/StillImage" /></cc:Work></rdf:RDF></metadata><defs
     id="defs6"><clipPath
       id="clipPath20"
       clipPathUnits="userSpaceOnUse"><path
         style="clip-rule:evenodd"
         id="path18"
         d="m 32.94915,35 h -7.08201 c -1.1308,0 -2.05078,-0.91998 -2.05078,-2.05078 0,-1.1308 0.91998,-2.05078 2.05078,-2.05078 h 2.13123 l -4.38476,-4.38478 c -2.54222,1.9181 -5.6689,2.96803 -8.87276,2.96803 -2.80464,0 -5.533339,-0.7914 -7.890981,-2.2886 -0.31869,-0.20242 -0.413026,-0.62488 -0.210614,-0.94357 0.202411,-0.31869 0.624735,-0.41296 0.943562,-0.21061 2.138141,1.35782 4.613363,2.07552 7.158033,2.07552 3.09599,0 6.11179,-1.08007 8.49193,-3.04131 0.27179,-0.2238 0.6691,-0.20473 0.91813,0.04417 l 5.98116,5.98124 c 0.19544,0.1955 0.25402,0.48959 0.1482,0.74498 -0.10582,0.25552 -0.35512,0.42211 -0.63164,0.42211 h -3.78149 c -0.37694,0 -0.6836,0.30667 -0.6836,0.6836 0,0.37693 0.30666,0.68359 0.6836,0.68359 h 7.08201 c 0.37694,0 0.6836,-0.30666 0.6836,-0.68359 v -7.08203 c 0,-0.37694 -0.30666,-0.6836 -0.6836,-0.6836 -0.377,0 -0.68366,0.30666 -0.68366,0.6836 v 3.7815 c 0,0.27645 -0.16659,0.52575 -0.42198,0.63157 -0.25539,0.10589 -0.54947,0.04731 -0.74498,-0.14813 l -5.98116,-5.98124 c -0.24896,-0.24903 -0.2681,-0.64634 -0.04416,-0.91807 1.96123,-2.3802 3.04131,-5.39608 3.04131,-8.49194 0,-7.374269 -5.99942,-13.373692 -13.37367,-13.373692 -7.374253,0 -13.373665,5.999423 -13.373665,13.373692 0,2.54468 0.717772,5.02004 2.075728,7.15852 0.202344,0.31876 0.108076,0.74116 -0.210615,0.94357 C 2.913539,23.04538 2.491216,22.95111 2.288736,22.63229 0.7914633,20.2743 0,17.54553 0,14.74088 0,10.80345 1.533298,7.101719 4.317501,4.31751 7.101705,1.533301 10.80343,0 14.74085,0 18.67827,0 22.38,1.533301 25.1642,4.31751 c 2.7842,2.784209 4.3175,6.48594 4.3175,10.42337 0,3.20387 -1.04993,6.33049 -2.96802,8.87277 l 4.3847,4.38471 v -2.13117 c 0,-1.1308 0.91998,-2.05078 2.05084,-2.05078 1.1308,0 2.05078,0.91998 2.05078,2.05078 v 7.08203 C 35,34.08002 34.07995,35 32.94915,35 Z" /></clipPath><clipPath
       id="clipPath26"
       clipPathUnits="userSpaceOnUse"><path
         id="path24"
         d="M -600,-1049 H 663 V 214 H -600 Z" /></clipPath><clipPath
       id="clipPath36"
       clipPathUnits="userSpaceOnUse"><path
         style="clip-rule:evenodd"
         id="path34"
         d="M 14.5,2 C 21.39251,2 27,7.607501 27,14.50004 27,17.83902 25.69981,20.97801 23.33899,23.33898 20.9781,25.69981 17.83904,27 14.5,27 7.607485,27 2,21.3925 2,14.50004 2,7.607501 7.607485,2 14.5,2 Z m 0,23.57661 c 2.95886,0 5.74043,-1.15209 7.83245,-3.24411 2.09208,-2.09209 3.24417,-4.87374 3.24417,-7.83246 0,-6.107684 -4.96896,-11.076654 -11.07662,-11.076654 -6.107662,0 -11.076618,4.96897 -11.076618,11.076654 0,6.10767 4.968956,11.07657 11.076618,11.07657 z" /></clipPath><clipPath
       id="clipPath42"
       clipPathUnits="userSpaceOnUse"><path
         id="path40"
         d="M -600,-1049 H 663 V 214 H -600 Z" /></clipPath><clipPath
       id="clipPath52"
       clipPathUnits="userSpaceOnUse"><path
         style="clip-rule:evenodd"
         id="path50"
         d="m 4.4999,25 c 0.127928,0 0.255855,0.04885 0.353488,0.14645 l 2.5e-4,2.5e-4 c 0.195216,0.19524 0.195116,0.51168 -10e-5,0.70692 -0.195266,0.1953 -0.51191,0.1951 -0.707126,-1.5e-4 -0.195216,-0.19524 -0.195216,-0.51183 0,-0.70707 C 4.244045,25.04885 4.371972,25 4.4999,25 Z" /></clipPath><clipPath
       id="clipPath58"
       clipPathUnits="userSpaceOnUse"><path
         id="path56"
         d="M -600,-1049 H 663 V 214 H -600 Z" /></clipPath></defs><g
     transform="matrix(1.3333333,0,0,-1.3333333,0,46.666667)"
     id="g10"><g
       id="g12" /><g
       id="g14"><g
         clip-path="url(#clipPath20)"
         id="g16"><g
           clip-path="url(#clipPath26)"
           id="g22"><path
             id="path28"
             style="fill:#01748e;fill-opacity:1;fill-rule:nonzero;stroke:none"
             d="M -5,40 H 40 V -5 H -5 Z" /></g></g></g><g
       id="g30"><g
         clip-path="url(#clipPath36)"
         id="g32"><g
           clip-path="url(#clipPath42)"
           id="g38"><path
             id="path44"
             style="fill:#01748e;fill-opacity:1;fill-rule:nonzero;stroke:none"
             d="M -3,32 H 32 V -3 H -3 Z" /></g></g></g><g
       id="g46"><g
         clip-path="url(#clipPath52)"
         id="g48"><g
           clip-path="url(#clipPath58)"
           id="g54"><path
             id="path60"
             style="fill:#01748e;fill-opacity:1;fill-rule:nonzero;stroke:none"
             d="M -1,31 H 10 V 20 H -1 Z" /></g></g></g></g></svg>