<?xml version="1.0" encoding="UTF-8" standalone="no"?>
<svg
   xmlns:dc="http://purl.org/dc/elements/1.1/"
   xmlns:cc="http://creativecommons.org/ns#"
   xmlns:rdf="http://www.w3.org/1999/02/22-rdf-syntax-ns#"
   xmlns:svg="http://www.w3.org/2000/svg"
   xmlns="http://www.w3.org/2000/svg"
   viewBox="0 0 32 33.333332"
   height="33.333332"
   width="32"
   xml:space="preserve"
   id="svg2"
   version="1.1"><metadata
     id="metadata8"><rdf:RDF><cc:Work
         rdf:about=""><dc:format>image/svg+xml</dc:format><dc:type
           rdf:resource="http://purl.org/dc/dcmitype/StillImage" /></cc:Work></rdf:RDF></metadata><defs
     id="defs6"><clipPath
       id="clipPath20"
       clipPathUnits="userSpaceOnUse"><path
         style="clip-rule:evenodd"
         id="path18"
         d="m 7.62931,20.2588 c 0,1.04095 -0.846982,1.88793 -1.88811,1.88793 -1.040949,0 -1.887931,-0.84698 -1.887931,-1.88793 0,-1.04113 0.846982,-1.88793 1.887931,-1.88793 1.041128,-1.8e-4 1.88811,0.8468 1.88811,1.88793 z m -2.856501,0 c 0,0.53394 0.434447,0.96839 0.968391,0.96839 0.534123,0 0.96857,-0.43445 0.96857,-0.96839 0,-0.53394 -0.434447,-0.96839 -0.96857,-0.96839 -0.533944,-1.8e-4 -0.968391,0.43445 -0.968391,0.96839 z" /></clipPath><clipPath
       id="clipPath26"
       clipPathUnits="userSpaceOnUse"><path
         id="path24"
         d="M -102,-13 H 273 V 1261 H -102 Z" /></clipPath><clipPath
       id="clipPath36"
       clipPathUnits="userSpaceOnUse"><path
         style="clip-rule:evenodd"
         id="path34"
         d="m 18.4305,11.95384 c -1.18481,0 -2.19181,-0.29526 -2.80047,-0.76436 l -1.64889,0.36709 c -0.2473,0.05514 -0.49335,-0.10093 -0.54867,-0.34878 -0.05514,-0.24784 0.10094,-0.49353 0.34896,-0.54867 l 1.26383,-0.28143 c -0.02353,-0.09177 -0.0361,-0.18624 -0.0361,-0.28268 0,-0.624644 0.51131,-1.158408 1.33028,-1.491741 L 15.60327,7.845905 c -0.17691,-0.182112 -0.17277,-0.47324 0.0093,-0.650144 0.08926,-0.086925 0.20492,-0.130028 0.3204,-0.130028 0.11979,0 0.23958,0.046516 0.32974,0.139188 l 1.08765,1.119073 c 0.33692,-0.056932 0.69917,-0.087823 1.0801,-0.087823 1.95043,0 3.42133,0.79921 3.42133,1.858839 0,1.05962 -1.4709,1.85883 -3.42133,1.85883 v 0 z m 0,-2.798129 c -1.50396,0 -2.5018,0.565374 -2.5018,0.939299 0,0.0783 0.04418,0.16487 0.12698,0.25287 0.01418,0.01239 0.02765,0.0255 0.04005,0.03987 0.34321,0.32058 1.1927,0.64655 2.33477,0.64655 1.50395,0 2.50179,-0.56537 2.50179,-0.93929 0,-0.373925 -0.99784,-0.939299 -2.50179,-0.939299 z" /></clipPath><clipPath
       id="clipPath42"
       clipPathUnits="userSpaceOnUse"><path
         id="path40"
         d="M -102,-13 H 273 V 1261 H -102 Z" /></clipPath><clipPath
       id="clipPath52"
       clipPathUnits="userSpaceOnUse"><path
         style="clip-rule:evenodd"
         id="path50"
         d="m 12.96318,3.810165 0.73617,0.757543 c 0.17691,0.182112 0.17278,0.473061 -0.0093,0.650144 -0.18193,0.176904 -0.47306,0.172773 -0.65014,-0.00934 L 11.95223,4.089619 c -0.33693,0.056933 -0.69918,0.087824 -1.0801,0.087824 -1.950435,0 -3.42134,-0.79921 -3.42134,-1.858837 0,-1.059626 1.470905,-1.8588359 3.42134,-1.8588359 1.95043,0 3.42133,0.7992099 3.42133,1.8588359 0,0.624641 -0.51131,1.158405 -1.33028,1.491559 z M 10.87213,1.37931 c -1.503955,0 -2.5018,0.565374 -2.5018,0.939296 0,0.373923 0.997845,0.939296 2.5018,0.939296 1.50395,0 2.50179,-0.565373 2.50179,-0.939296 0,-0.373922 -0.99784,-0.939296 -2.50179,-0.939296 z" /></clipPath><clipPath
       id="clipPath58"
       clipPathUnits="userSpaceOnUse"><path
         id="path56"
         d="M -102,-13 H 273 V 1261 H -102 Z" /></clipPath><clipPath
       id="clipPath68"
       clipPathUnits="userSpaceOnUse"><path
         style="clip-rule:evenodd"
         id="path66"
         d="m 10.19055,11.45869 c 0.03377,-0.0075 0.06717,-0.01113 0.1004,-0.01113 0.21067,0 0.40068,0.14583 0.44827,0.35991 0.05514,0.24785 -0.10093,0.49354 -0.34877,0.54867 l -1.264013,0.28161 c 0.023707,0.09178 0.036099,0.18606 0.036099,0.28269 0,0.86153 -0.958333,1.44342 -2.056035,1.7051 l 2.051545,4.10901 c 0.00323,0.0067 0.00646,0.01347 0.00952,0.0203 C 9.376438,19.23024 9.4824,19.73617 9.4824,20.2588 9.482399,22.32166 7.804239,24 5.7412,24 3.678341,24 2,22.32166 2,20.2588 c 0,-0.52245 0.105963,-1.02838 0.315014,-1.50395 0.00287,-0.0068 0.00611,-0.01365 0.00952,-0.0203 l 2.05352,-4.11314 c -1.100575,-0.26796 -2.05819,-0.85004 -2.05819,-1.70115 0,-1.05963 1.470906,-1.85866 3.421337,-1.85866 1.184806,0 2.19199,0.29526 2.800646,0.76419 l 1.648704,-0.3671 z M 2.91954,20.2588 c 0,1.55586 1.265805,2.82166 2.82166,2.82166 1.555855,0 2.821659,-1.2658 2.821659,-2.82166 0,-0.3908 -0.078304,-0.76886 -0.232758,-1.12392 L 5.7412,13.94953 3.152478,19.13488 C 2.997845,19.49012 2.91954,19.86818 2.91954,20.2588 Z m 0.319864,-7.33854 c 0,0.24156 0.598778,0.66146 1.561961,0.85327 L 5.329921,12.71498 C 5.407687,12.55909 5.56699,12.46067 5.7412,12.46067 c 0.174209,0 0.333513,0.09842 0.411458,0.25431 l 0.529813,1.06142 c 0.974138,-0.18481 1.560525,-0.60363 1.560525,-0.85596 0,-0.07849 -0.044541,-0.16541 -0.127694,-0.25377 C 8.101293,12.65427 8.088003,12.64134 8.075611,12.62733 7.732399,12.30693 6.882902,11.98114 5.7412,11.98114 c -1.503951,0 -2.501796,0.5652 -2.501796,0.93912 z" /></clipPath><clipPath
       id="clipPath74"
       clipPathUnits="userSpaceOnUse"><path
         id="path72"
         d="M -102,-13 H 273 V 1261 H -102 Z" /></clipPath><clipPath
       id="clipPath84"
       clipPathUnits="userSpaceOnUse"><path
         style="clip-rule:evenodd"
         id="path82"
         d="m 14.65122,6.666487 c -0.25323,0 -0.45977,-0.206358 -0.45977,-0.45977 0,-0.253233 0.20654,-0.45977 0.45977,-0.45977 0.25323,0 0.45977,0.206537 0.45977,0.45977 0,0.253412 -0.20654,0.45977 -0.45977,0.45977 z" /></clipPath><clipPath
       id="clipPath90"
       clipPathUnits="userSpaceOnUse"><path
         id="path88"
         d="M -102,-13 H 273 V 1261 H -102 Z" /></clipPath><clipPath
       id="clipPath100"
       clipPathUnits="userSpaceOnUse"><path
         style="clip-rule:evenodd"
         id="path98"
         d="m 12.08585,11.04795 c 0.25323,0 0.45977,0.20654 0.45977,0.45977 0,0.25324 -0.20654,0.45977 -0.45977,0.45977 -0.25324,0 -0.45977,-0.20653 -0.45977,-0.45977 0,-0.25323 0.20653,-0.45977 0.45977,-0.45977 z" /></clipPath><clipPath
       id="clipPath106"
       clipPathUnits="userSpaceOnUse"><path
         id="path104"
         d="M -102,-13 H 273 V 1261 H -102 Z" /></clipPath></defs><g
     transform="matrix(1.3333333,0,0,-1.3333333,0,33.333333)"
     id="g10"><g
       id="g12" /><g
       id="g14"><g
         clip-path="url(#clipPath20)"
         id="g16"><g
           clip-path="url(#clipPath26)"
           id="g22"><path
             id="path28"
             style="fill:#01748e;fill-opacity:1;fill-rule:nonzero;stroke:none"
             d="M -1.146731,27.14673 H 12.62931 V 13.37087 H -1.146731 Z" /></g></g></g><g
       id="g30"><g
         clip-path="url(#clipPath36)"
         id="g32"><g
           clip-path="url(#clipPath42)"
           id="g38"><path
             id="path44"
             style="fill:#01748e;fill-opacity:1;fill-rule:nonzero;stroke:none"
             d="M 8.421395,16.95384 H 26.85183 V 2.065733 H 8.421395 Z" /></g></g></g><g
       id="g46"><g
         clip-path="url(#clipPath52)"
         id="g48"><g
           clip-path="url(#clipPath58)"
           id="g54"><path
             id="path60"
             style="fill:#01748e;fill-opacity:1;fill-rule:nonzero;stroke:none"
             d="M 2.45079,10.34786 H 19.29346 V -4.54023 H 2.45079 Z" /></g></g></g><g
       id="g62"><g
         clip-path="url(#clipPath68)"
         id="g64"><g
           clip-path="url(#clipPath74)"
           id="g70"><path
             id="path76"
             style="fill:#01748e;fill-opacity:1;fill-rule:nonzero;stroke:none"
             d="M -3,29 H 15.7503 V 6.061602 H -3 Z" /></g></g></g><g
       id="g78"><g
         clip-path="url(#clipPath84)"
         id="g80"><g
           clip-path="url(#clipPath90)"
           id="g86"><path
             id="path92"
             style="fill:#01748e;fill-opacity:1;fill-rule:nonzero;stroke:none"
             d="M 9.191451,11.66649 H 20.11099 V 0.7469469 H 9.191451 Z" /></g></g></g><g
       id="g94"><g
         clip-path="url(#clipPath100)"
         id="g96"><g
           clip-path="url(#clipPath106)"
           id="g102"><path
             id="path108"
             style="fill:#01748e;fill-opacity:1;fill-rule:nonzero;stroke:none"
             d="M 6.626078,16.96749 H 17.54562 V 6.047953 H 6.626078 Z" /></g></g></g></g></svg>