<?xml version="1.0" encoding="UTF-8" standalone="no"?>
<svg
   xmlns:dc="http://purl.org/dc/elements/1.1/"
   xmlns:cc="http://creativecommons.org/ns#"
   xmlns:rdf="http://www.w3.org/1999/02/22-rdf-syntax-ns#"
   xmlns:svg="http://www.w3.org/2000/svg"
   xmlns="http://www.w3.org/2000/svg"
   viewBox="0 0 64 65.333336"
   height="65.333336"
   width="64"
   xml:space="preserve"
   id="svg2"
   version="1.1"><metadata
     id="metadata8"><rdf:RDF><cc:Work
         rdf:about=""><dc:format>image/svg+xml</dc:format><dc:type
           rdf:resource="http://purl.org/dc/dcmitype/StillImage" /></cc:Work></rdf:RDF></metadata><defs
     id="defs6"><clipPath
       id="clipPath20"
       clipPathUnits="userSpaceOnUse"><path
         style="clip-rule:evenodd"
         id="path18"
         d="m 45.22754,31.28943 c 0.4845,2.42248 -0.10803,4.69153 -1.71314,6.56177 -0.4226,0.49218 -0.82836,0.97668 -1.22058,1.44543 -1.65857,1.97974 -3.09118,3.68921 -4.69995,4.70691 -1.87793,1.18762 -3.83423,1.28394 -5.97986,0.29443 -0.11645,-0.05383 -0.30798,-0.15747 -1.02978,-0.64453 -1.88123,0.86682 -3.9397,1.32422 -6.06555,1.32422 h -1.66187 c -4.11072,0 -9.53613,2.88172 -9.58996,2.91065 -0.30506,0.16369 -0.67493,0.14611 -0.96277,-0.04541 -0.28784,-0.19153 -0.44715,-0.52588 -0.41382,-0.87012 0.0084,-0.08936 0.09558,-0.93604 0.38379,-2.03797 C 11.16479,44.79492 10.09875,44.30273 8.998657,43.42932 7.701538,42.39917 6.496338,40.96069 5.100708,39.2948 4.708496,38.82678 4.303101,38.34302 3.881226,37.8512 2.266968,35.9707 1.675171,33.6709 2.169556,31.19971 2.882935,27.63318 5.689575,24.44495 8.272461,22.93323 V 19.79041 C 7.572632,19.15283 6.988159,18.4021 6.540283,17.55212 5.681152,15.92322 5.365112,13.98669 5.649658,12.09924 5.937866,10.19019 6.832886,8.408203 8.170288,7.081787 9.19458,6.065918 11.41528,4.431885 15.0957,4.432251 c 1.01404,0 2.13904,0.124512 3.37976,0.419678 C 18.67578,2.143433 20.94043,0 23.69763,0 c 2.75391,0 5.01673,2.13794 5.22144,4.842041 1.24914,-0.295532 2.37744,-0.418213 3.38891,-0.418213 2.67701,0 4.53846,0.854737 5.66382,1.614624 0.4292,0.289673 0.54199,0.872315 0.25232,1.301514 C 37.93445,7.769165 37.35181,7.882324 36.92261,7.592285 33.89587,5.548828 29.40759,5.929321 24.26819,8.66272 24.11035,8.784302 23.9126,8.857544 23.69763,8.857544 c -0.16516,0 -0.32007,-0.043213 -0.45483,-0.118286 -0.0015,-7.33e-4 -0.0029,-0.0011 -0.0044,-0.00183 C 17.43872,5.618408 12.42786,5.500122 9.490479,8.41333 c -2.149292,2.13171 -2.69275,5.60742 -1.291626,8.26428 0.390747,0.74158 0.901977,1.37403 1.518676,1.89441 0.057495,0.03699 0.110962,0.07984 0.158936,0.12818 1.757445,1.3883 4.320195,1.90686 7.400755,1.45715 0.31787,-2.49683 3.00989,-5.18079 6.42041,-5.18079 3.40357,0 6.09155,2.67261 6.41858,5.16504 3.09375,0.4541 5.65357,-0.05786 7.44177,-1.49597 0.01245,-0.01062 0.02527,-0.02051 0.03809,-0.0304 0.0088,-0.0073 0.01794,-0.01391 0.0271,-0.02124 1.48791,-1.22827 2.34375,-3.09668 2.34778,-5.12658 0.0011,-0.51746 0.42041,-0.93604 0.9375,-0.93567 h 0.0018 c 0.51782,7.3e-4 0.93677,0.42151 0.93567,0.93933 -0.0048,2.45801 -1.00012,4.7395 -2.74292,6.32007 v 3.31677 c 2.60302,1.51611 5.42395,4.67871 6.12451,8.18152 v 0 z M 27.06091,5.241577 c 0,-1.856323 -1.50879,-3.366577 -3.36328,-3.366577 -1.85412,0 -3.36291,1.510254 -3.36291,3.366577 v 0.15564 c 0.76977,0.266968 1.578,0.596924 2.42541,0.997925 V 4.97644 c 0,-0.517822 0.42005,-0.9375 0.9375,-0.9375 0.51782,0 0.9375,0.419678 0.9375,0.9375 V 6.379028 C 25.48328,5.978394 26.29187,5.649902 27.06091,5.384033 Z M 40.85645,38.09253 c 0.39587,-0.47278 0.80529,-0.96167 1.23522,-1.46228 1.2334,-1.43701 1.66993,-3.11023 1.29712,-4.97315 -0.50171,-2.50891 -2.38476,-4.87609 -4.28576,-6.29992 v 5.03613 c 0,3.88037 -1.52124,7.53882 -4.28321,10.30078 -0.73022,0.73059 -1.5238,1.37293 -2.36682,1.92444 3.20142,1.44653 4.99292,-0.45557 8.40345,-4.526 z M 23.69763,16.8512 c -2.65503,0 -4.5769,2.26574 -4.5769,3.79284 0,0.93091 0.76574,1.50769 4.5769,1.50769 3.81153,0 4.57727,-0.57678 4.57727,-1.50769 0,-1.5271 -1.92224,-3.79284 -4.57727,-3.79284 z m 6.15454,5.14636 c -0.30359,0.61597 -0.88586,1.19934 -1.95117,1.56409 -1.19604,0.40979 -2.79602,0.46508 -4.20337,0.46508 -1.40735,0 -3.00732,-0.05529 -4.203,-0.46508 -1.05689,-0.36182 -1.6388,-0.93897 -1.94421,-1.54944 -2.53675,0.37317 -4.78565,0.17175 -6.69361,-0.60535 -0.24316,-0.09888 -0.47973,-0.20728 -0.70935,-0.32446 v 9.31054 c 0,0.83606 0.08313,1.67359 0.24683,2.48951 0.1018,0.50756 -0.22705,1.00158 -0.734622,1.10339 C 9.1521,34.08801 8.657715,33.75879 8.555908,33.25122 8.368042,32.31409 8.272461,31.35242 8.272461,30.39294 v -5.20459 c -1.883057,1.42859 -3.752197,3.81922 -4.26416,6.37903 -0.382324,1.91199 0.053467,3.61524 1.295654,5.0625 0.429566,0.50025 0.838623,0.98841 1.234131,1.46082 2.384766,2.84656 4.155394,4.95923 6.358154,5.0072 0.20691,-0.48303 0.4541,-0.9657 0.74963,-1.41797 -0.49548,-0.40576 -0.96533,-0.84411 -1.40441,-1.31103 -0.3545,-0.37683 -0.33655,-0.97046 0.04064,-1.32495 0.37684,-0.35486 0.97046,-0.33655 1.32532,0.04064 0.39881,0.42408 0.82727,0.82178 1.27954,1.18799 0.01831,-0.01501 0.03699,-0.03003 0.05567,-0.04467 -0.99976,-1.71937 -1.13452,-4.2649 -0.245,-6.4076 0.1355,-0.32666 0.44348,-0.54931 0.79614,-0.57531 0.35267,-0.02637 0.69031,0.14794 0.87269,0.45117 0.94116,1.56225 2.63415,2.85241 4.56518,3.52038 0.13733,-1.20483 0.49585,-3.17285 1.43042,-5.28405 0.20947,-0.47352 0.76355,-0.68738 1.23669,-0.47791 0.47352,0.20984 0.68738,0.76355 0.47791,1.23706 -1.32312,2.98901 -1.35535,5.71399 -1.35571,5.73962 -7.4e-4,0.28345 -0.12964,0.55115 -0.35047,0.7284 -0.22082,0.17724 -0.51013,0.24536 -0.78662,0.18493 -2.16577,-0.47168 -4.14294,-1.57507 -5.58105,-3.06958 -0.13697,1.49598 0.2959,2.87732 0.96826,3.54969 0.21863,0.21862 0.31531,0.531 0.25854,0.83532 -0.05676,0.30396 -0.26001,0.56031 -0.54309,0.68518 -1.3927,0.61451 -2.19543,2.51441 -2.60266,4.06604 2.07129,-0.92944 5.66712,-2.30859 8.77332,-2.30859 h 1.66186 c 2.01856,0 3.92835,-0.47388 5.62537,-1.31506 0.06006,-0.03955 0.12378,-0.07141 0.19006,-0.09595 4.09095,-2.11414 6.89392,-6.38525 6.89392,-11.29871 v -9.3175 c -1.6582,0.84192 -4.04626,1.41101 -7.37622,0.92212 z" /></clipPath><clipPath
       id="clipPath26"
       clipPathUnits="userSpaceOnUse"><path
         id="path24"
         d="M -76,-1037 H 299 V 237 H -76 Z" /></clipPath><clipPath
       id="clipPath36"
       clipPathUnits="userSpaceOnUse"><path
         style="clip-rule:evenodd"
         id="path34"
         d="m 16.8363,29.44336 c -1.00195,0 -1.93505,-0.53906 -2.43603,-1.40625 -0.25891,-0.44861 -0.1051,-1.02173 0.34314,-1.28064 0.44861,-0.25928 1.02173,-0.1051 1.28064,0.34277 0.16699,0.28931 0.47827,0.46875 0.81225,0.46875 0.33362,0 0.6449,-0.17944 0.81189,-0.46875 0.17359,-0.30066 0.48853,-0.46875 0.81263,-0.46875 0.15893,0 0.32043,0.04065 0.46801,0.12598 0.44825,0.25891 0.60205,0.83203 0.34278,1.28064 -0.50061,0.86719 -1.43409,1.40625 -2.43531,1.40625 z" /></clipPath><clipPath
       id="clipPath42"
       clipPathUnits="userSpaceOnUse"><path
         id="path40"
         d="M -76,-1037 H 299 V 237 H -76 Z" /></clipPath><clipPath
       id="clipPath52"
       clipPathUnits="userSpaceOnUse"><path
         style="clip-rule:evenodd"
         id="path50"
         d="m 30.55969,29.44336 c -1.00158,0 -1.93506,-0.53906 -2.43603,-1.40625 -0.25891,-0.44861 -0.10511,-1.02173 0.34314,-1.28064 0.44861,-0.25928 1.02173,-0.1051 1.28064,0.34277 0.16699,0.28931 0.47827,0.46875 0.81225,0.46875 0.33362,0 0.6449,-0.17944 0.81189,-0.46875 0.17359,-0.30066 0.48853,-0.46875 0.81262,-0.46875 0.15894,0 0.32044,0.04065 0.46802,0.12598 0.44824,0.25891 0.60205,0.83203 0.34278,1.28064 -0.50062,0.86719 -1.43409,1.40625 -2.43531,1.40625 z" /></clipPath><clipPath
       id="clipPath58"
       clipPathUnits="userSpaceOnUse"><path
         id="path56"
         d="M -76,-1037 H 299 V 237 H -76 Z" /></clipPath><clipPath
       id="clipPath68"
       clipPathUnits="userSpaceOnUse"><path
         style="clip-rule:evenodd"
         id="path66"
         d="m 12.56006,15.98181 c -0.34827,0.38306 -0.94116,0.41126 -1.32422,0.06299 -0.38306,-0.34827 -0.41126,-0.94116 -0.06299,-1.32422 l 3.7e-4,-3.7e-4 c 0.18493,-0.20361 0.43872,-0.30688 0.6936,-0.30688 0.22485,0 0.45081,0.08057 0.63062,0.2439 0.38305,0.34826 0.41089,0.94152 0.06262,1.32458 z" /></clipPath><clipPath
       id="clipPath74"
       clipPathUnits="userSpaceOnUse"><path
         id="path72"
         d="M -76,-1037 H 299 V 237 H -76 Z" /></clipPath><clipPath
       id="clipPath84"
       clipPathUnits="userSpaceOnUse"><path
         style="clip-rule:evenodd"
         id="path82"
         d="m 12.42639,9.758423 3.7e-4,-3.66e-4 c 0.17541,-0.146118 0.38782,-0.217163 0.59949,-0.217163 0.26843,0 0.5354,0.11499 0.7207,0.33728 0.33142,0.398076 0.27759,0.989136 -0.12012,1.320556 -0.3977,0.33142 -0.98913,0.27795 -1.32056,-0.11975 -0.33142,-0.39807 -0.27758,-0.98914 0.12012,-1.320557 z" /></clipPath><clipPath
       id="clipPath90"
       clipPathUnits="userSpaceOnUse"><path
         id="path88"
         d="M -76,-1037 H 299 V 237 H -76 Z" /></clipPath><clipPath
       id="clipPath100"
       clipPathUnits="userSpaceOnUse"><path
         style="clip-rule:evenodd"
         id="path98"
         d="m 17.00146,15.45154 c -0.34826,0.38305 -0.94116,0.41125 -1.32421,0.06299 -0.38306,-0.34827 -0.41126,-0.94117 -0.06299,-1.32422 l 3.6e-4,-3.7e-4 c 0.18494,-0.20361 0.43872,-0.30688 0.69361,-0.30688 0.22485,0 0.4508,0.08056 0.63061,0.24389 0.38306,0.34827 0.41089,0.94117 0.06262,1.32459 z" /></clipPath><clipPath
       id="clipPath106"
       clipPathUnits="userSpaceOnUse"><path
         id="path104"
         d="M -76,-1037 H 299 V 237 H -76 Z" /></clipPath><clipPath
       id="clipPath116"
       clipPathUnits="userSpaceOnUse"><path
         style="clip-rule:evenodd"
         id="path114"
         d="m 16.80151,9.824707 3.7e-4,-3.66e-4 c 0.17541,-0.146118 0.38818,-0.217163 0.59949,-0.217163 0.2688,0 0.5354,0.11499 0.7207,0.33728 0.33142,0.398072 0.27759,0.989132 -0.12012,1.320552 -0.3977,0.33143 -0.98877,0.27796 -1.32055,-0.11975 -0.33142,-0.39807 -0.27759,-0.98913 0.12011,-1.320553 z" /></clipPath><clipPath
       id="clipPath122"
       clipPathUnits="userSpaceOnUse"><path
         id="path120"
         d="M -76,-1037 H 299 V 237 H -76 Z" /></clipPath><clipPath
       id="clipPath132"
       clipPathUnits="userSpaceOnUse"><path
         style="clip-rule:evenodd"
         id="path130"
         d="m 36.16235,14.66016 c 0.38196,0.34973 0.4076,0.94262 0.05786,1.32458 -0.34973,0.38159 -0.94299,0.40759 -1.32458,0.0575 l -7.3e-4,-3.7e-4 c -0.38159,-0.3501 -0.40723,-0.94299 -0.05713,-1.32458 0.18494,-0.20142 0.43762,-0.30396 0.69104,-0.30396 0.22668,0 0.45373,0.08167 0.63354,0.24683 z" /></clipPath><clipPath
       id="clipPath138"
       clipPathUnits="userSpaceOnUse"><path
         id="path136"
         d="M -76,-1037 H 299 V 237 H -76 Z" /></clipPath><clipPath
       id="clipPath148"
       clipPathUnits="userSpaceOnUse"><path
         style="clip-rule:evenodd"
         id="path146"
         d="m 33.70581,11.1416 -3.7e-4,-3.6e-4 c -0.36584,-0.36622 -0.36584,-0.95948 3.7e-4,-1.325688 0.18311,-0.183106 0.42297,-0.274658 0.66284,-0.274658 0.23987,0 0.4801,0.091919 0.66321,0.275024 0.36621,0.365842 0.36621,0.959472 0,1.325682 -0.36621,0.36621 -0.95984,0.36621 -1.32605,0 z" /></clipPath><clipPath
       id="clipPath154"
       clipPathUnits="userSpaceOnUse"><path
         id="path152"
         d="M -76,-1037 H 299 V 237 H -76 Z" /></clipPath><clipPath
       id="clipPath164"
       clipPathUnits="userSpaceOnUse"><path
         style="clip-rule:evenodd"
         id="path162"
         d="m 31.78101,14.19031 c 0.34826,0.38305 0.32006,0.97595 -0.06299,1.32422 -0.38306,0.34826 -0.97595,0.32043 -1.32422,-0.06299 l -7.3e-4,-7.3e-4 c -0.34827,-0.38306 -0.31971,-0.97559 0.06335,-1.32386 0.17981,-0.16333 0.4054,-0.24389 0.63025,-0.24389 0.25525,0 0.5094,0.10363 0.69434,0.30725 z" /></clipPath><clipPath
       id="clipPath170"
       clipPathUnits="userSpaceOnUse"><path
         id="path168"
         d="M -76,-1037 H 299 V 237 H -76 Z" /></clipPath><clipPath
       id="clipPath180"
       clipPathUnits="userSpaceOnUse"><path
         style="clip-rule:evenodd"
         id="path178"
         d="m 29.33069,11.20789 -3.7e-4,-3.7e-4 c -0.36621,-0.36621 -0.36584,-0.95947 3.7e-4,-1.325684 0.18274,-0.183106 0.42297,-0.274658 0.66247,-0.274658 0.24024,0 0.48047,0.091919 0.66358,0.275024 0.36584,0.365848 0.36584,0.959468 0,1.325688 -0.36621,0.36621 -0.95984,0.36621 -1.32605,0 z" /></clipPath><clipPath
       id="clipPath186"
       clipPathUnits="userSpaceOnUse"><path
         id="path184"
         d="M -76,-1037 H 299 V 237 H -76 Z" /></clipPath><clipPath
       id="clipPath196"
       clipPathUnits="userSpaceOnUse"><path
         style="clip-rule:evenodd"
         id="path194"
         d="m 11.22595,37.44031 c -0.44092,0.27136 -1.01843,0.13366 -1.289793,-0.30725 -0.271362,-0.44092 -0.134033,-1.01844 0.306883,-1.2898 0.15344,-0.09448 0.323,-0.13916 0.49036,-0.13916 0.31494,0 0.62256,0.15857 0.79944,0.44605 l 3.6e-4,7.3e-4 c 0.27137,0.44092 0.13367,1.01807 -0.30725,1.28943 z" /></clipPath><clipPath
       id="clipPath202"
       clipPathUnits="userSpaceOnUse"><path
         id="path200"
         d="M -76,-1037 H 299 V 237 H -76 Z" /></clipPath><clipPath
       id="clipPath212"
       clipPathUnits="userSpaceOnUse"><path
         style="clip-rule:evenodd"
         id="path210"
         d="m 40.37708,10.56628 c -0.47571,0.20398 -1.02723,-0.01684 -1.23121,-0.49255 -0.20398,-0.476074 0.01648,-1.027221 0.49256,-1.231201 0.12048,-0.051635 0.24573,-0.075805 0.36877,-0.075805 0.36402,0 0.70972,0.212768 0.86206,0.568359 l 3.7e-4,7.32e-4 c 0.20398,0.475708 -0.01648,1.026485 -0.49255,1.230465 z" /></clipPath><clipPath
       id="clipPath218"
       clipPathUnits="userSpaceOnUse"><path
         id="path216"
         d="M -76,-1037 H 299 V 237 H -76 Z" /></clipPath></defs><g
     transform="matrix(1.3333333,0,0,-1.3333333,0,65.333333)"
     id="g10"><g
       id="g12" /><g
       id="g14"><g
         clip-path="url(#clipPath20)"
         id="g16"><g
           clip-path="url(#clipPath26)"
           id="g22"><path
             id="path28"
             style="fill:#01748e;fill-opacity:1;fill-rule:nonzero;stroke:none"
             d="M -2.999971,52.99986 H 50.39174 V -5 H -2.999971 Z" /></g></g></g><g
       id="g30"><g
         clip-path="url(#clipPath36)"
         id="g32"><g
           clip-path="url(#clipPath42)"
           id="g38"><path
             id="path44"
             style="fill:#01748e;fill-opacity:1;fill-rule:nonzero;stroke:none"
             d="M 9.27453,34.44336 H 24.3976 V 21.63049 H 9.27453 Z" /></g></g></g><g
       id="g46"><g
         clip-path="url(#clipPath52)"
         id="g48"><g
           clip-path="url(#clipPath58)"
           id="g54"><path
             id="path60"
             style="fill:#01748e;fill-opacity:1;fill-rule:nonzero;stroke:none"
             d="M 22.99792,34.44336 H 38.12099 V 21.63049 H 22.99792 Z" /></g></g></g><g
       id="g62"><g
         clip-path="url(#clipPath68)"
         id="g64"><g
           clip-path="url(#clipPath74)"
           id="g70"><path
             id="path76"
             style="fill:#01748e;fill-opacity:1;fill-rule:nonzero;stroke:none"
             d="M 5.929034,21.28862 H 17.80404 V 9.41333 H 5.929034 Z" /></g></g></g><g
       id="g78"><g
         clip-path="url(#clipPath84)"
         id="g80"><g
           clip-path="url(#clipPath90)"
           id="g86"><path
             id="path92"
             style="fill:#01748e;fill-opacity:1;fill-rule:nonzero;stroke:none"
             d="M 7.089029,16.41613 H 18.96419 V 4.540894 H 7.089029 Z" /></g></g></g><g
       id="g94"><g
         clip-path="url(#clipPath100)"
         id="g96"><g
           clip-path="url(#clipPath106)"
           id="g102"><path
             id="path108"
             style="fill:#01748e;fill-opacity:1;fill-rule:nonzero;stroke:none"
             d="M 10.37044,20.75834 H 22.24545 V 8.883057 H 10.37044 Z" /></g></g></g><g
       id="g110"><g
         clip-path="url(#clipPath116)"
         id="g112"><g
           clip-path="url(#clipPath122)"
           id="g118"><path
             id="path124"
             style="fill:#01748e;fill-opacity:1;fill-rule:nonzero;stroke:none"
             d="M 11.46415,16.48241 H 23.33932 V 4.607178 H 11.46415 Z" /></g></g></g><g
       id="g126"><g
         clip-path="url(#clipPath132)"
         id="g128"><g
           clip-path="url(#clipPath138)"
           id="g134"><path
             id="path140"
             style="fill:#01748e;fill-opacity:1;fill-rule:nonzero;stroke:none"
             d="M 29.59107,21.28877 H 41.46656 V 9.41333 H 29.59107 Z" /></g></g></g><g
       id="g142"><g
         clip-path="url(#clipPath148)"
         id="g144"><g
           clip-path="url(#clipPath154)"
           id="g150"><path
             id="path156"
             style="fill:#01748e;fill-opacity:1;fill-rule:nonzero;stroke:none"
             d="M 28.43111,16.41626 H 40.30652 V 4.540894 H 28.43111 Z" /></g></g></g><g
       id="g158"><g
         clip-path="url(#clipPath164)"
         id="g160"><g
           clip-path="url(#clipPath170)"
           id="g166"><path
             id="path172"
             style="fill:#01748e;fill-opacity:1;fill-rule:nonzero;stroke:none"
             d="m 25.14942,20.75847 h 11.8754 V 8.883057 h -11.8754 z" /></g></g></g><g
       id="g174"><g
         clip-path="url(#clipPath180)"
         id="g176"><g
           clip-path="url(#clipPath186)"
           id="g182"><path
             id="path188"
             style="fill:#01748e;fill-opacity:1;fill-rule:nonzero;stroke:none"
             d="M 24.05585,16.48254 H 35.93112 V 4.607178 H 24.05585 Z" /></g></g></g><g
       id="g190"><g
         clip-path="url(#clipPath196)"
         id="g192"><g
           clip-path="url(#clipPath202)"
           id="g198"><path
             id="path204"
             style="fill:#01748e;fill-opacity:1;fill-rule:nonzero;stroke:none"
             d="M 4.796908,42.57946 H 16.67235 V 30.7041 H 4.796908 Z" /></g></g></g><g
       id="g206"><g
         clip-path="url(#clipPath212)"
         id="g208"><g
           clip-path="url(#clipPath218)"
           id="g214"><path
             id="path220"
             style="fill:#01748e;fill-opacity:1;fill-rule:nonzero;stroke:none"
             d="M 34.06982,15.64228 H 45.94568 V 3.766724 H 34.06982 Z" /></g></g></g></g></svg>