<?xml version="1.0" encoding="UTF-8" standalone="no"?>
<svg
   xmlns:dc="http://purl.org/dc/elements/1.1/"
   xmlns:cc="http://creativecommons.org/ns#"
   xmlns:rdf="http://www.w3.org/1999/02/22-rdf-syntax-ns#"
   xmlns:svg="http://www.w3.org/2000/svg"
   xmlns="http://www.w3.org/2000/svg"
   viewBox="0 0 32 33.333332"
   height="33.333332"
   width="32"
   xml:space="preserve"
   id="svg2"
   version="1.1"><metadata
     id="metadata8"><rdf:RDF><cc:Work
         rdf:about=""><dc:format>image/svg+xml</dc:format><dc:type
           rdf:resource="http://purl.org/dc/dcmitype/StillImage" /></cc:Work></rdf:RDF></metadata><defs
     id="defs6"><clipPath
       id="clipPath20"
       clipPathUnits="userSpaceOnUse"><path
         style="clip-rule:evenodd"
         id="path18"
         d="M 11.5,3 C 16.74671,3 21,7.253295 21,12.5 21,17.74671 16.74671,22 11.5,22 6.253295,22 2,17.74671 2,12.5 2,7.253295 6.253295,3 11.5,3 Z" /></clipPath><clipPath
       id="clipPath26"
       clipPathUnits="userSpaceOnUse"><path
         id="path24"
         d="M -119,-1233 H 256 V 123 h -375 z" /></clipPath><clipPath
       id="clipPath36"
       clipPathUnits="userSpaceOnUse"><path
         style="clip-rule:evenodd"
         id="path34"
         d="m 11.5,17 c 0.27614,0 0.5,-0.22386 0.5,-0.5 v -9 C 12,7.223858 11.77614,7 11.5,7 11.22386,7 11,7.223858 11,7.5 v 9 c 0,0.27614 0.22386,0.5 0.5,0.5 z" /></clipPath><clipPath
       id="clipPath42"
       clipPathUnits="userSpaceOnUse"><path
         id="path40"
         d="M -119,-1233 H 256 V 123 h -375 z" /></clipPath><clipPath
       id="clipPath52"
       clipPathUnits="userSpaceOnUse"><path
         id="path50"
         d="M -119,-1233 H 256 V 123 h -375 z" /></clipPath><clipPath
       id="clipPath64"
       clipPathUnits="userSpaceOnUse"><path
         style="clip-rule:evenodd"
         id="path62"
         d="m 6.5,12 c 0,0.26299 0.213198,0.47619 0.47619,0.47619 h 9.04762 C 16.2868,12.47619 16.5,12.26299 16.5,12 c 0,-0.26299 -0.2132,-0.47619 -0.47619,-0.47619 H 6.97619 C 6.713198,11.52381 6.5,11.73701 6.5,12 Z" /></clipPath><clipPath
       id="clipPath70"
       clipPathUnits="userSpaceOnUse"><path
         id="path68"
         d="M -119,-1233 H 256 V 123 h -375 z" /></clipPath><clipPath
       id="clipPath80"
       clipPathUnits="userSpaceOnUse"><path
         id="path78"
         d="M -119,-1233 H 256 V 123 h -375 z" /></clipPath></defs><g
     transform="matrix(1.3333333,0,0,-1.3333333,0,33.333333)"
     id="g10"><g
       id="g12" /><g
       id="g14"><g
         clip-path="url(#clipPath20)"
         id="g16"><g
           clip-path="url(#clipPath26)"
           id="g22"><path
             id="path28"
             style="fill:#fa9c93;fill-opacity:1;fill-rule:nonzero;stroke:none"
             d="M -3,27 H 26 V -2 H -3 Z" /></g></g></g><g
       id="g30"><g
         clip-path="url(#clipPath36)"
         id="g32"><g
           clip-path="url(#clipPath42)"
           id="g38"><path
             id="path44"
             style="fill:#ffffff;fill-opacity:1;fill-rule:nonzero;stroke:none"
             d="M 6,22 H 17 V 2 H 6 Z" /></g></g></g><g
       id="g46"><g
         clip-path="url(#clipPath52)"
         id="g48"><g
           transform="matrix(1,0,0,-1,11,17)"
           id="g54"><path
             id="path56"
             style="fill:none;stroke:#ffffff;stroke-width:1;stroke-linecap:butt;stroke-linejoin:miter;stroke-miterlimit:10;stroke-dasharray:none;stroke-opacity:1"
             d="M 0.5,0 C 0.7761424,0 1,0.2238576 1,0.5 v 9 C 1,9.776142 0.7761424,10 0.5,10 0.2238576,10 0,9.776142 0,9.5 v -9 C 0,0.2238576 0.2238576,0 0.5,0 Z" /></g></g></g><g
       id="g58"><g
         clip-path="url(#clipPath64)"
         id="g60"><g
           clip-path="url(#clipPath70)"
           id="g66"><path
             id="path72"
             style="fill:#ffffff;fill-opacity:1;fill-rule:nonzero;stroke:none"
             d="m 1.5,6.52381 v 10.95238 h 20 V 6.52381 Z" /></g></g></g><g
       id="g74"><g
         clip-path="url(#clipPath80)"
         id="g76"><g
           transform="matrix(0,1,1,0,6.5,11.5)"
           id="g82"><path
             id="path84"
             style="fill:none;stroke:#ffffff;stroke-width:1;stroke-linecap:butt;stroke-linejoin:miter;stroke-miterlimit:10;stroke-dasharray:none;stroke-opacity:1"
             d="M 0.5,0 C 0.7629927,0 0.9761905,0.2131977 0.9761905,0.4761905 V 9.52381 C 0.9761905,9.786802 0.7629927,10 0.5,10 0.2370073,10 0.02380952,9.786802 0.02380952,9.52381 V 0.4761905 C 0.02380952,0.2131977 0.2370073,0 0.5,0 Z" /></g></g></g></g></svg>