<?xml version="1.0" encoding="UTF-8" standalone="no"?>
<!DOCTYPE svg PUBLIC "-//W3C//DTD SVG 1.1//EN" "http://www.w3.org/Graphics/SVG/1.1/DTD/svg11.dtd">
<svg version="1.1" xmlns="http://www.w3.org/2000/svg" xmlns:xlink="http://www.w3.org/1999/xlink" preserveAspectRatio="xMidYMid meet" viewBox="0 0 640 640" width="640" height="640"><defs><path d="M0 0L640 0L640 640L0 640L0 0Z" id="bOIIcdx18"></path><path d="M418.44 221.56C418.44 203.2 418.44 193.01 418.44 190.97C418.44 182.79 411.78 176.13 403.6 176.13C403.55 176.13 403.19 176.13 403.14 176.13C394.81 176.13 388.15 182.79 388.15 190.97C388.15 193.01 388.15 203.2 388.15 221.56C369.89 221.56 359.74 221.56 357.71 221.56C349.53 221.56 342.87 228.22 342.72 236.4C342.72 236.45 342.72 236.81 342.72 236.86C342.72 245.19 349.38 251.85 357.71 251.85C359.74 251.85 369.89 251.85 388.15 251.85C388.15 270.11 388.15 280.26 388.15 282.29C388.15 290.47 394.81 297.28 403.14 297.13C403.19 297.13 403.55 297.13 403.6 297.13C411.78 297.13 418.44 290.47 418.44 282.29C418.44 280.26 418.44 270.11 418.44 251.85C436.8 251.85 446.99 251.85 449.03 251.85C457.21 251.85 463.87 245.19 463.87 237.01C463.87 236.95 463.87 236.46 463.87 236.4C463.87 228.22 457.21 221.56 449.03 221.56C444.95 221.56 434.76 221.56 418.44 221.56ZM373.01 266.99C363.83 266.99 358.73 266.99 357.71 266.99C349.68 266.99 342.11 263.81 336.36 258.21C330.75 252.45 327.57 244.88 327.57 236.4C327.57 230.95 329.09 225.95 331.66 221.56C319.14 221.56 218.94 221.56 206.42 221.56C189.76 221.56 176.13 235.19 176.13 251.85C176.13 270.02 176.13 415.41 176.13 433.58C176.13 450.24 189.76 463.87 206.42 463.87C224.59 463.87 369.98 463.87 388.15 463.87C404.81 463.87 418.44 450.24 418.44 433.58C418.44 421.05 418.44 320.73 418.44 308.19C413.9 310.76 408.75 312.43 402.99 312.43C386.48 312.28 373.01 298.8 373.01 282.29C373.01 280.25 373.01 275.15 373.01 266.99ZM221.56 433.58C215.35 433.58 211.72 426.47 215.5 421.47C218.5 417.49 242.49 385.62 245.49 381.64C248.67 377.4 254.88 377.7 257.91 381.94C259.52 384.37 267.6 396.54 282.14 418.44C305.85 386.82 319.03 369.25 321.67 365.74C324.69 361.8 330.6 361.65 333.63 365.59C338.1 371.16 373.84 415.74 378.31 421.32C382.24 426.32 378.76 433.58 372.4 433.58C342.23 433.58 236.64 433.58 221.56 433.58Z" id="a2uJFuagS8"></path></defs><g><g><g><use xlink:href="#bOIIcdx18" opacity="1" fill="#d7d7d7" fill-opacity="1"></use></g><g><use xlink:href="#a2uJFuagS8" opacity="1" fill="#9b9b9b" fill-opacity="1"></use><g><use xlink:href="#a2uJFuagS8" opacity="1" fill-opacity="0" stroke="#000000" stroke-width="1" stroke-opacity="0"></use></g></g></g></g></svg>