<?xml version="1.0" encoding="UTF-8" standalone="no"?>
<svg
   xmlns:dc="http://purl.org/dc/elements/1.1/"
   xmlns:cc="http://creativecommons.org/ns#"
   xmlns:rdf="http://www.w3.org/1999/02/22-rdf-syntax-ns#"
   xmlns:svg="http://www.w3.org/2000/svg"
   xmlns="http://www.w3.org/2000/svg"
   viewBox="0 0 32 32"
   height="32"
   width="32"
   xml:space="preserve"
   id="svg2"
   version="1.1"><metadata
     id="metadata8"><rdf:RDF><cc:Work
         rdf:about=""><dc:format>image/svg+xml</dc:format><dc:type
           rdf:resource="http://purl.org/dc/dcmitype/StillImage" /></cc:Work></rdf:RDF></metadata><defs
     id="defs6"><clipPath
       id="clipPath20"
       clipPathUnits="userSpaceOnUse"><path
         style="clip-rule:evenodd"
         id="path18"
         d="M 20.48531,20.48527 C 18.21877,22.75181 15.20531,24 12,24 8.794688,24 5.781234,22.75181 3.514687,20.48527 1.248234,18.21877 0,15.20531 0,12 0,8.794688 1.248234,5.781234 3.514687,3.514734 5.781234,1.248188 8.794688,0 12,0 15.20531,0 18.21877,1.248188 20.48531,3.514734 22.75177,5.781234 24,8.794688 24,12 c 0,3.20531 -1.24823,6.21877 -3.51469,8.48527 z M 12,0.9375 C 5.900109,0.9375 0.9375,5.900109 0.9375,12 0.9375,18.09989 5.900109,23.0625 12,23.0625 18.09989,23.0625 23.0625,18.09989 23.0625,12 23.0625,5.900109 18.09989,0.9375 12,0.9375 Z" /></clipPath><clipPath
       id="clipPath26"
       clipPathUnits="userSpaceOnUse"><path
         id="path24"
         d="M -69,-1068 H 1194 V 195 H -69 Z" /></clipPath><clipPath
       id="clipPath36"
       clipPathUnits="userSpaceOnUse"><path
         style="clip-rule:evenodd"
         id="path34"
         d="m 16.72547,20.64023 c -0.22702,0.12441 -0.51192,0.04125 -0.63633,-0.18581 -0.12441,-0.22701 -0.04125,-0.51192 0.18581,-0.63633 2.85825,-1.56642 4.63378,-4.56211 4.63378,-7.81809 0,-0.25889 0.20991,-0.46875 0.46875,-0.46875 0.25885,0 0.46875,0.20986 0.46875,0.46875 0,3.5985 -1.96214,6.90919 -5.12076,8.64023 z" /></clipPath><clipPath
       id="clipPath42"
       clipPathUnits="userSpaceOnUse"><path
         id="path40"
         d="M -69,-1068 H 1194 V 195 H -69 Z" /></clipPath><clipPath
       id="clipPath52"
       clipPathUnits="userSpaceOnUse"><path
         style="clip-rule:evenodd"
         id="path50"
         d="m 19.09847,7.763297 h -0.63933 v 4.812283 c 0,2.97881 -2.03269,5.55398 -4.88686,6.26606 v 0.70655 c 0,0.867 -0.70533,1.57228 -1.57228,1.57228 -0.86695,0 -1.57228,-0.70533 -1.57228,-1.57228 V 18.84164 C 7.573547,18.12961 5.540859,15.55444 5.540859,12.57558 V 7.763297 H 4.901531 c -0.258844,0 -0.46875,-0.20986 -0.46875,-0.46875 0,-0.258891 0.209906,-0.46875 0.46875,-0.46875 h 1.108078 3.81375 V 6.573 c 0,-1.200188 0.976411,-2.176641 2.176641,-2.176641 1.20023,0 2.17664,0.976453 2.17664,2.176641 v 0.252797 h 3.81375 1.10808 c 0.25884,0 0.46875,0.209859 0.46875,0.46875 0,0.25889 -0.20991,0.46875 -0.46875,0.46875 z M 12,5.333906 c -0.6833,0 -1.23914,0.555844 -1.23914,1.239141 v 0.252797 h 2.47823 V 6.573047 h 5e-5 C 13.23914,5.889797 12.6833,5.333906 12,5.333906 Z m 5.52164,2.429391 H 13.70789 10.29216 6.478359 v 4.812283 0 c 0,2.65898 1.894172,4.9417 4.503941,5.42775 0.22195,0.04134 0.38292,0.23503 0.38292,0.46083 v 1.08403 c 0,0.35001 0.28476,0.63478 0.63478,0.63478 0.35002,0 0.63478,-0.28477 0.63478,-0.63478 v -1.08403 c 0,-0.2258 0.16097,-0.41949 0.38292,-0.46083 2.60977,-0.48605 4.50394,-2.76872 4.50394,-5.42775 V 7.763297 Z" /></clipPath><clipPath
       id="clipPath58"
       clipPathUnits="userSpaceOnUse"><path
         id="path56"
         d="M -69,-1068 H 1194 V 195 H -69 Z" /></clipPath><clipPath
       id="clipPath68"
       clipPathUnits="userSpaceOnUse"><path
         style="clip-rule:evenodd"
         id="path66"
         d="m 21.52636,10.1925 c -0.01172,0.02813 -0.02625,0.05531 -0.04313,0.08063 -0.01682,0.02578 -0.03651,0.04968 -0.05812,0.07125 -0.02156,0.02156 -0.04547,0.04125 -0.07125,0.05859 -0.02531,0.01687 -0.0525,0.03141 -0.08109,0.04312 -0.02813,0.01172 -0.05761,0.02063 -0.08761,0.02672 -0.15235,0.03047 -0.31407,-0.01968 -0.42286,-0.12843 -0.02157,-0.02157 -0.04125,-0.04547 -0.05813,-0.07125 -0.01734,-0.02532 -0.0314,-0.0525 -0.04312,-0.08063 -0.01172,-0.02859 -0.0211,-0.05812 -0.02668,-0.08766 -0.0061,-0.03046 -0.0094,-0.0614 -0.0094,-0.09187 0,-0.03047 0.0032,-0.061407 0.0094,-0.091407 0.0056,-0.03 0.01496,-0.059532 0.02668,-0.087657 C 20.67277,9.805313 20.68683,9.778125 20.70417,9.752813 20.72105,9.727031 20.74073,9.703125 20.7623,9.681563 20.78386,9.66 20.80777,9.640313 20.83359,9.623438 20.85891,9.606563 20.88605,9.592031 20.91464,9.580313 20.94281,9.568594 20.9723,9.559688 21.0023,9.553594 c 0.03,-0.00609 0.06093,-0.00938 0.0914,-0.00938 0.03042,0 0.06141,0.00328 0.09141,0.00938 0.03,0.00609 0.05953,0.015 0.08761,0.026719 0.02859,0.011718 0.05578,0.02625 0.08109,0.043125 0.02578,0.016875 0.04969,0.036562 0.07125,0.058125 0.02161,0.021562 0.0413,0.045468 0.05813,0.07125 0.01687,0.025312 0.0314,0.0525 0.04312,0.081093 0.01172,0.028125 0.02063,0.057657 0.02672,0.087657 0.0061,0.03 0.0094,0.060937 0.0094,0.091407 0,0.03047 -0.0033,0.06141 -0.0094,0.09187 -0.006,0.02954 -0.01495,0.05907 -0.02667,0.08766 z" /></clipPath><clipPath
       id="clipPath74"
       clipPathUnits="userSpaceOnUse"><path
         id="path72"
         d="M -69,-1068 H 1194 V 195 H -69 Z" /></clipPath><clipPath
       id="clipPath84"
       clipPathUnits="userSpaceOnUse"><path
         style="clip-rule:evenodd"
         id="path82"
         d="M 10.14262,16.7025 C 7.498453,15.6742 7.523578,13.10986 7.541953,11.23748 c 0.00258,-0.25729 0.211922,-0.46415 0.468656,-0.46415 0.00155,0 0.00309,0 0.00469,0 0.25889,0.0025 0.466687,0.21445 0.464109,0.47334 -0.02175,2.21836 0.109219,3.84558 2.002964,4.58208 0.24127,0.09384 0.3608,0.36548 0.267,0.6068 -0.09384,0.24126 -0.36562,0.36084 -0.60675,0.26695 z" /></clipPath><clipPath
       id="clipPath90"
       clipPathUnits="userSpaceOnUse"><path
         id="path88"
         d="M -69,-1068 H 1194 V 195 H -69 Z" /></clipPath><clipPath
       id="clipPath100"
       clipPathUnits="userSpaceOnUse"><path
         style="clip-rule:evenodd"
         id="path98"
         d="M 8.440734,9.507188 C 8.429016,9.535781 8.414484,9.562969 8.397609,9.588281 8.380781,9.614063 8.361094,9.637969 8.339531,9.659531 8.317969,9.681094 8.294016,9.700781 8.268234,9.717656 8.242922,9.734531 8.215266,9.749063 8.187188,9.760781 8.159016,9.7725 8.129531,9.781875 8.099531,9.7875 8.039063,9.799688 7.976719,9.799688 7.91625,9.7875 7.88625,9.781875 7.856672,9.7725 7.828594,9.760781 7.800516,9.749063 7.773281,9.734531 7.747547,9.717656 7.722234,9.700781 7.698281,9.681094 7.676719,9.659531 7.654688,9.637969 7.635469,9.614063 7.618125,9.588281 7.601297,9.562969 7.586719,9.535781 7.575,9.507188 7.563281,9.479063 7.554422,9.449531 7.548328,9.419531 c -0.00614,-0.03 -0.00891,-0.060937 -0.00891,-0.091406 0,-0.123281 0.049687,-0.244219 0.137344,-0.331406 C 7.698328,8.975156 7.722281,8.955469 7.747594,8.938594 7.773375,8.921719 7.800563,8.907188 7.828641,8.895469 7.856719,8.88375 7.886297,8.874375 7.916297,8.86875 7.946766,8.86266 7.977703,8.85937 8.008172,8.85937 c 0.030469,0 0.061406,0.00328 0.091406,0.00938 0.03,0.00563 0.059531,0.015 0.087656,0.026719 0.028547,0.011719 0.055735,0.02625 0.081047,0.043125 0.025782,0.016875 0.049735,0.036562 0.071297,0.058125 0.087141,0.087187 0.137344,0.208125 0.137344,0.331406 0,0.030469 -0.00328,0.061406 -0.00938,0.091406 -0.00609,0.03 -0.015094,0.059532 -0.026813,0.087657 z" /></clipPath><clipPath
       id="clipPath106"
       clipPathUnits="userSpaceOnUse"><path
         id="path104"
         d="M -69,-1068 H 1194 V 195 H -69 Z" /></clipPath></defs><g
     transform="matrix(1.3333333,0,0,-1.3333333,0,32)"
     id="g10"><g
       id="g12" /><g
       id="g14"><g
         clip-path="url(#clipPath20)"
         id="g16"><g
           clip-path="url(#clipPath26)"
           id="g22"><path
             id="path28"
             style="fill:#01748e;fill-opacity:1;fill-rule:nonzero;stroke:none"
             d="M -5,29 H 29 V -5 H -5 Z" /></g></g></g><g
       id="g30"><g
         clip-path="url(#clipPath36)"
         id="g32"><g
           clip-path="url(#clipPath42)"
           id="g38"><path
             id="path44"
             style="fill:#01748e;fill-opacity:1;fill-rule:nonzero;stroke:none"
             d="M 11.03137,25.698 H 26.84623 V 6.53125 H 11.03137 Z" /></g></g></g><g
       id="g46"><g
         clip-path="url(#clipPath52)"
         id="g48"><g
           clip-path="url(#clipPath58)"
           id="g54"><path
             id="path60"
             style="fill:#01748e;fill-opacity:1;fill-rule:nonzero;stroke:none"
             d="M -0.5672188,26.12047 H 24.56722 V -0.6036406 H -0.5672188 Z" /></g></g></g><g
       id="g62"><g
         clip-path="url(#clipPath68)"
         id="g64"><g
           clip-path="url(#clipPath74)"
           id="g70"><path
             id="path76"
             style="fill:#01748e;fill-opacity:1;fill-rule:nonzero;stroke:none"
             d="M 15.625,15.4816 H 26.56241 V 4.544219 H 15.625 Z" /></g></g></g><g
       id="g78"><g
         clip-path="url(#clipPath84)"
         id="g80"><g
           clip-path="url(#clipPath90)"
           id="g86"><path
             id="path92"
             style="fill:#01748e;fill-opacity:1;fill-rule:nonzero;stroke:none"
             d="M 2.538765,21.73452 H 15.78136 V 5.773328 H 2.538765 Z" /></g></g></g><g
       id="g94"><g
         clip-path="url(#clipPath100)"
         id="g96"><g
           clip-path="url(#clipPath106)"
           id="g102"><path
             id="path108"
             style="fill:#01748e;fill-opacity:1;fill-rule:nonzero;stroke:none"
             d="M 2.539422,14.79664 H 13.47692 V 3.859375 H 2.539422 Z" /></g></g></g></g></svg>