<?xml version="1.0" encoding="UTF-8" standalone="no"?>
<svg
   xmlns:dc="http://purl.org/dc/elements/1.1/"
   xmlns:cc="http://creativecommons.org/ns#"
   xmlns:rdf="http://www.w3.org/1999/02/22-rdf-syntax-ns#"
   xmlns:svg="http://www.w3.org/2000/svg"
   xmlns="http://www.w3.org/2000/svg"
   viewBox="0 0 32 32"
   height="32"
   width="32"
   xml:space="preserve"
   id="svg2"
   version="1.1"><metadata
     id="metadata8"><rdf:RDF><cc:Work
         rdf:about=""><dc:format>image/svg+xml</dc:format><dc:type
           rdf:resource="http://purl.org/dc/dcmitype/StillImage" /></cc:Work></rdf:RDF></metadata><defs
     id="defs6"><clipPath
       id="clipPath20"
       clipPathUnits="userSpaceOnUse"><path
         id="path18"
         d="m 10.23004,11.16754 c -0.10966,0.10995 -0.287924,0.10995 -0.397584,0 -0.109941,-0.10966 -0.109941,-0.28792 0,-0.39758 0.10966,-0.10995 0.287924,-0.10995 0.397584,0 0.10995,0.10966 0.10995,0.28792 0,0.39758 z" /></clipPath><clipPath
       id="clipPath26"
       clipPathUnits="userSpaceOnUse"><path
         id="path24"
         d="M -33,-1068 H 1230 V 195 H -33 Z" /></clipPath><clipPath
       id="clipPath36"
       clipPathUnits="userSpaceOnUse"><path
         id="path34"
         d="m 12,10.6875 c -0.62033,0 -1.125,-0.50468 -1.125,-1.125 0,-0.620325 0.50467,-1.125 1.125,-1.125 0.62032,0 1.125,0.504675 1.125,1.125 0,0.62032 -0.50468,1.125 -1.125,1.125 z m 0,-1.5 c -0.20678,0 -0.375,0.168225 -0.375,0.375 0,0.206775 0.16822,0.375 0.375,0.375 0.20677,0 0.375,-0.168225 0.375,-0.375 0,-0.206775 -0.16823,-0.375 -0.375,-0.375 z" /></clipPath><clipPath
       id="clipPath42"
       clipPathUnits="userSpaceOnUse"><path
         id="path40"
         d="M -33,-1068 H 1230 V 195 H -33 Z" /></clipPath><clipPath
       id="clipPath52"
       clipPathUnits="userSpaceOnUse"><path
         id="path50"
         d="m 12,12.375 c -0.39298,0 -0.77298,-0.07942 -1.12936,-0.23607 -0.17775,-0.07816 -0.2585,-0.28558 -0.18039,-0.46333 0.07812,-0.17775 0.28558,-0.25847 0.46333,-0.18039 0.26666,0.11722 0.55146,0.17667 0.84642,0.17667 1.16311,0 2.10937,-0.94627 2.10937,-2.10938 0,-1.163109 -0.94626,-2.109375 -2.10937,-2.109375 -1.16311,0 -2.109375,0.946266 -2.109375,2.109375 0,0.012023 -3.5e-5,0.023766 2.46e-4,0.035789 C 9.895371,9.792387 9.741668,9.953402 9.54757,9.957902 9.353156,9.962754 9.192457,9.808734 9.187957,9.614602 9.1875,9.597094 9.1875,9.580008 9.1875,9.5625 9.1875,8.011687 10.44919,6.75 12,6.75 c 1.55081,0 2.8125,1.261687 2.8125,2.8125 0,1.55081 -1.26169,2.8125 -2.8125,2.8125 z" /></clipPath><clipPath
       id="clipPath58"
       clipPathUnits="userSpaceOnUse"><path
         id="path56"
         d="M -33,-1068 H 1230 V 195 H -33 Z" /></clipPath><clipPath
       id="clipPath68"
       clipPathUnits="userSpaceOnUse"><path
         id="path66"
         d="M 11.71875,18 C 11.56342,18 11.4375,17.84261 11.4375,17.64844 v -2.10938 c 0,-0.19417 0.12592,-0.35156 0.28125,-0.35156 0.15533,0 0.28125,0.15739 0.28125,0.35156 v 2.10938 C 12,17.84261 11.87408,18 11.71875,18 Z" /></clipPath><clipPath
       id="clipPath74"
       clipPathUnits="userSpaceOnUse"><path
         id="path72"
         d="M -33,-1068 H 1230 V 195 H -33 Z" /></clipPath><clipPath
       id="clipPath84"
       clipPathUnits="userSpaceOnUse"><path
         id="path82"
         d="m 7.956931,15.24038 -1.529065,1.52905 c -0.140759,0.14076 -0.369002,0.14076 -0.509797,0 -0.140759,-0.14076 -0.140759,-0.369 0,-0.50979 l 1.529065,-1.52906 c 0.140759,-0.14076 0.369038,-0.14079 0.509797,0 0.140759,0.14076 0.140759,0.369 0,0.5098 z" /></clipPath><clipPath
       id="clipPath90"
       clipPathUnits="userSpaceOnUse"><path
         id="path88"
         d="M -33,-1068 H 1230 V 195 H -33 Z" /></clipPath><clipPath
       id="clipPath100"
       clipPathUnits="userSpaceOnUse"><path
         id="path98"
         d="m 18.08193,16.76943 c -0.14076,0.14076 -0.369,0.14076 -0.5098,0 l -1.52906,-1.52905 c -0.14076,-0.14076 -0.14076,-0.369 0,-0.5098 0.14072,-0.14076 0.369,-0.14079 0.5098,0 l 1.52906,1.52906 c 0.14076,0.14076 0.14076,0.369 0,0.50979 z" /></clipPath><clipPath
       id="clipPath106"
       clipPathUnits="userSpaceOnUse"><path
         id="path104"
         d="M -33,-1068 H 1230 V 195 H -33 Z" /></clipPath><clipPath
       id="clipPath116"
       clipPathUnits="userSpaceOnUse"><path
         id="path114"
         d="M 20.91194,9.780858 C 18.67864,12.42596 15.36256,14.625 12,14.625 8.636987,14.625 5.320943,12.4254 3.088063,9.780858 2.959532,9.628594 2.973313,9.396188 3.118825,9.261725 3.264372,9.127261 3.48656,9.141679 3.615056,9.293906 3.689974,9.382654 3.76672,9.47107 3.84445,9.558935 5.581697,6.812879 8.730925,5.0625 12,5.0625 c 3.26908,0 6.4183,1.750379 8.15555,4.496435 0.07773,-0.087902 0.15448,-0.176318 0.22939,-0.265029 0.12811,-0.151749 0.35027,-0.167049 0.49623,-0.032181 0.14552,0.134463 0.1593,0.366906 0.03077,0.519133 z M 12,5.798077 c -3.090763,0 -6.063436,1.680021 -7.653132,4.302393 1.252548,1.28398 4.146682,3.78895 7.653132,3.78895 3.50649,0 6.40058,-2.50497 7.65313,-3.78892 C 18.06344,7.478098 15.09076,5.798077 12,5.798077 Z" /></clipPath><clipPath
       id="clipPath122"
       clipPathUnits="userSpaceOnUse"><path
         id="path120"
         d="M -33,-1068 H 1230 V 195 H -33 Z" /></clipPath></defs><g
     transform="matrix(1.3333333,0,0,-1.3333333,0,32)"
     id="g10"><g
       id="g12" /><g
       id="g14"><g
         clip-path="url(#clipPath20)"
         id="g16"><g
           clip-path="url(#clipPath26)"
           id="g22"><path
             id="path28"
             style="fill:#01748e;fill-opacity:1;fill-rule:nonzero;stroke:none"
             d="M 4.75,16.25 H 15.3125 V 5.6875 H 4.75 Z" /></g></g></g><g
       id="g30"><g
         clip-path="url(#clipPath36)"
         id="g32"><g
           clip-path="url(#clipPath42)"
           id="g38"><path
             id="path44"
             style="fill:#01748e;fill-opacity:1;fill-rule:nonzero;stroke:none"
             d="m 5.875,15.6875 h 12.25 V 3.4375 H 5.875 Z" /></g></g></g><g
       id="g46"><g
         clip-path="url(#clipPath52)"
         id="g48"><g
           clip-path="url(#clipPath58)"
           id="g54"><path
             id="path60"
             style="fill:#01748e;fill-opacity:1;fill-rule:nonzero;stroke:none"
             d="m 4.1875,17.375 h 15.625 V 1.75 H 4.1875 Z" /></g></g></g><g
       id="g62"><g
         clip-path="url(#clipPath68)"
         id="g64"><g
           clip-path="url(#clipPath74)"
           id="g70"><path
             id="path76"
             style="fill:#01748e;fill-opacity:1;fill-rule:nonzero;stroke:none"
             d="M 6.4375,23 H 17 V 10.1875 H 6.4375 Z" /></g></g></g><g
       id="g78"><g
         clip-path="url(#clipPath84)"
         id="g80"><g
           clip-path="url(#clipPath90)"
           id="g86"><path
             id="path92"
             style="fill:#01748e;fill-opacity:1;fill-rule:nonzero;stroke:none"
             d="m 0.8125,21.875 h 12.25 V 9.625 h -12.25 z" /></g></g></g><g
       id="g94"><g
         clip-path="url(#clipPath100)"
         id="g96"><g
           clip-path="url(#clipPath106)"
           id="g102"><path
             id="path108"
             style="fill:#01748e;fill-opacity:1;fill-rule:nonzero;stroke:none"
             d="m 10.9375,21.875 h 12.25 V 9.625 h -12.25 z" /></g></g></g><g
       id="g110"><g
         clip-path="url(#clipPath116)"
         id="g112"><g
           clip-path="url(#clipPath122)"
           id="g118"><path
             id="path124"
             style="fill:#01748e;fill-opacity:1;fill-rule:nonzero;stroke:none"
             d="M -2,19.625 H 26 V 0.0625 H -2 Z" /></g></g></g></g></svg>