<?xml version="1.0" encoding="UTF-8" standalone="no"?>
<svg
   xmlns:dc="http://purl.org/dc/elements/1.1/"
   xmlns:cc="http://creativecommons.org/ns#"
   xmlns:rdf="http://www.w3.org/1999/02/22-rdf-syntax-ns#"
   xmlns:svg="http://www.w3.org/2000/svg"
   xmlns="http://www.w3.org/2000/svg"
   viewBox="0 0 32 32"
   height="32"
   width="32"
   xml:space="preserve"
   id="svg2"
   version="1.1"><metadata
     id="metadata8"><rdf:RDF><cc:Work
         rdf:about=""><dc:format>image/svg+xml</dc:format><dc:type
           rdf:resource="http://purl.org/dc/dcmitype/StillImage" /></cc:Work></rdf:RDF></metadata><defs
     id="defs6"><clipPath
       id="clipPath20"
       clipPathUnits="userSpaceOnUse"><path
         style="clip-rule:evenodd"
         id="path18"
         d="m 10.96917,19.63939 c -0.70288,1.48856 -2.220258,2.45039 -3.865685,2.45039 -0.258386,0 -0.467836,-0.2095 -0.467836,-0.46784 0,-0.25834 0.209497,-0.46788 0.467883,-0.46788 1.28524,0 2.470503,-0.75139 3.019598,-1.9142 0.07986,-0.16912 0.24796,-0.26816 0.42335,-0.26816 0.0669,0 0.13492,0.01445 0.19944,0.04486 0.23364,0.11032 0.33361,0.38919 0.22325,0.62283 z" /></clipPath><clipPath
       id="clipPath26"
       clipPathUnits="userSpaceOnUse"><path
         id="path24"
         d="M -534,-1155 H 729 V 108 H -534 Z" /></clipPath><clipPath
       id="clipPath36"
       clipPathUnits="userSpaceOnUse"><path
         style="clip-rule:evenodd"
         id="path34"
         d="m 11.37633,17.83949 c -0.0018,0.25829 -0.21334,0.46764 -0.47111,0.46451 -0.25839,-0.0018 -0.46634,-0.21277 -0.46452,-0.47116 V 17.8168 c 0,-0.25834 0.20945,-0.46784 0.46784,-0.46784 0.25838,0 0.46783,0.2095 0.46783,0.46784 z" /></clipPath><clipPath
       id="clipPath42"
       clipPathUnits="userSpaceOnUse"><path
         id="path40"
         d="M -534,-1155 H 729 V 108 H -534 Z" /></clipPath><clipPath
       id="clipPath52"
       clipPathUnits="userSpaceOnUse"><path
         style="clip-rule:evenodd"
         id="path50"
         d="m 8.507088,18.74423 c -0.258386,0 -0.467837,-0.20949 -0.467837,-0.46783 v -2.008 c 0,-0.25834 0.209451,-0.46784 0.467837,-0.46784 0.258386,0 0.467836,0.2095 0.467836,0.46784 v 2.008 c 0,0.25838 -0.20945,0.46783 -0.467836,0.46783 z" /></clipPath><clipPath
       id="clipPath58"
       clipPathUnits="userSpaceOnUse"><path
         id="path56"
         d="M -534,-1155 H 729 V 108 H -534 Z" /></clipPath><clipPath
       id="clipPath68"
       clipPathUnits="userSpaceOnUse"><path
         style="clip-rule:evenodd"
         id="path66"
         d="m 6.635743,18.74423 c -0.258386,0 -0.467837,-0.20949 -0.467837,-0.46783 v -2.008 c 0,-0.25834 0.209451,-0.46784 0.467837,-0.46784 0.258386,0 0.467836,0.2095 0.467836,0.46784 v 2.008 c 0,0.25834 -0.20945,0.46783 -0.467836,0.46783 z" /></clipPath><clipPath
       id="clipPath74"
       clipPathUnits="userSpaceOnUse"><path
         id="path72"
         d="M -534,-1155 H 729 V 108 H -534 Z" /></clipPath><clipPath
       id="clipPath84"
       clipPathUnits="userSpaceOnUse"><path
         style="clip-rule:evenodd"
         id="path82"
         d="m 4.764398,18.74423 c -0.258386,0 -0.467837,-0.20949 -0.467837,-0.46783 v -2.008 c 0,-0.25834 0.209451,-0.46784 0.467837,-0.46784 0.258386,0 0.467836,0.2095 0.467836,0.46784 v 2.008 c 0,0.25834 -0.20945,0.46783 -0.467836,0.46783 z" /></clipPath><clipPath
       id="clipPath90"
       clipPathUnits="userSpaceOnUse"><path
         id="path88"
         d="M -534,-1155 H 729 V 108 H -534 Z" /></clipPath><clipPath
       id="clipPath100"
       clipPathUnits="userSpaceOnUse"><path
         style="clip-rule:evenodd"
         id="path98"
         d="m 23.70157,15.70335 c -0.60089,0.31377 -1.31888,0.31485 -1.91925,0.0035 -4.7e-4,-2.3e-4 -0.005,-0.0025 -0.0054,-0.0028 -0.33408,-0.17324 -0.73301,-0.17319 -1.06714,5e-5 -0.0019,9.8e-4 -0.0037,0.002 -0.0057,0.0029 -0.60262,0.31036 -1.32112,0.30943 -1.92313,-0.0027 -0.22938,-0.11893 -0.31892,-0.40131 -0.2,-0.63065 0.11897,-0.22942 0.40136,-0.31892 0.63069,-0.2 0.33413,0.17324 0.733,0.17324 1.06709,0 0.0019,-9.8e-4 0.0038,-0.0019 0.0057,-0.0029 0.30068,-0.15485 0.63013,-0.23218 0.95939,-0.23218 0.33076,0 0.66143,0.07808 0.96239,0.2342 4.6e-4,2.3e-4 0.0049,0.0025 0.0054,0.0028 0.331,0.17169 0.72608,0.17113 1.05675,-0.0016 0.22905,-0.11953 0.51167,-0.03092 0.63125,0.19809 0.11967,0.22905 0.03097,0.51167 -0.19803,0.6313 z" /></clipPath><clipPath
       id="clipPath106"
       clipPathUnits="userSpaceOnUse"><path
         id="path104"
         d="M -534,-1155 H 729 V 108 H -534 Z" /></clipPath><clipPath
       id="clipPath116"
       clipPathUnits="userSpaceOnUse"><path
         style="clip-rule:evenodd"
         id="path114"
         d="m 23.70157,17.79981 c -0.60084,0.31378 -1.31883,0.31486 -1.92463,8e-4 -0.33357,-0.17301 -0.73193,-0.17319 -1.06578,-7e-4 -5.6e-4,2.8e-4 -0.0011,5.6e-4 -0.0016,8.4e-4 -0.60375,0.31307 -1.32473,0.31317 -1.92856,9e-5 -0.22938,-0.11892 -0.31893,-0.40131 -0.2,-0.63064 0.11897,-0.22938 0.40135,-0.31893 0.63069,-0.2 0.33361,0.17296 0.73188,0.17319 1.06559,7.9e-4 6e-4,-3.2e-4 0.0012,-6.5e-4 0.0018,-9.8e-4 0.30143,-0.1563 0.63205,-0.23457 0.96319,-0.23457 0.33221,0 0.66498,0.07883 0.96935,0.23663 0.33114,0.1717 0.72622,0.17113 1.0568,-0.0016 0.22905,-0.11949 0.51167,-0.03092 0.63125,0.19808 0.11962,0.22896 0.03092,0.51158 -0.19808,0.63125 z" /></clipPath><clipPath
       id="clipPath122"
       clipPathUnits="userSpaceOnUse"><path
         id="path120"
         d="M -534,-1155 H 729 V 108 H -534 Z" /></clipPath><clipPath
       id="clipPath132"
       clipPathUnits="userSpaceOnUse"><path
         style="clip-rule:evenodd"
         id="path130"
         d="m 23.70157,19.85389 c -0.60075,0.31369 -1.31874,0.31481 -1.92463,8e-4 -0.3332,-0.17273 -0.7309,-0.17324 -1.06447,-0.0014 -9.8e-4,5.2e-4 -0.0019,9.9e-4 -0.0029,0.0015 -0.60375,0.31308 -1.32473,0.31317 -1.92856,9e-5 -0.22938,-0.11892 -0.31893,-0.40131 -0.2,-0.63064 0.11897,-0.22943 0.40131,-0.31897 0.63069,-0.20005 0.33319,0.17278 0.7309,0.1732 1.06437,0.0014 9.8e-4,-5.6e-4 0.002,-0.001 0.003,-0.0016 0.30143,-0.15631 0.63205,-0.23458 0.96319,-0.23458 0.33221,0 0.66498,0.07883 0.96935,0.23664 0.33114,0.17174 0.72622,0.17113 1.0568,-0.0016 0.22905,-0.11953 0.51167,-0.03097 0.63125,0.19809 0.11962,0.22905 0.03092,0.51167 -0.19808,0.63129 z" /></clipPath><clipPath
       id="clipPath138"
       clipPathUnits="userSpaceOnUse"><path
         id="path136"
         d="M -534,-1155 H 729 V 108 H -534 Z" /></clipPath><clipPath
       id="clipPath148"
       clipPathUnits="userSpaceOnUse"><path
         style="clip-rule:evenodd"
         id="path146"
         d="m 16.00402,21.00477 h -3.80898 c -0.57127,0.86751 -1.34217,1.59476 -2.2429,2.11336 -1.009216,0.5811 -2.16262,0.88781 -3.332725,0.88186 C 2.995368,23.98699 0.02610526,21.02835 3.442628e-4,17.40458 -0.01207018,15.62063 0.6729825,13.94133 1.929497,12.67593 2.310971,12.29174 2.731088,11.96033 3.180912,11.68458 V 5.706854 c 0,-1.57455 1.167439,-2.881076 2.682106,-3.100725 0.151906,-1.436351 1.369403,-2.55929859 2.844257,-2.55929859 1.571275,0 2.849635,1.28421059 2.849635,2.86268959 v 4.388772 c 0,0.581848 0.20819,1.142924 0.5862,1.57993 0.16898,0.195275 0.1476,0.490714 -0.04781,0.659743 -0.19542,0.168982 -0.49086,0.147649 -0.65988,-0.047766 -0.52506,-0.606924 -0.81423,-1.385404 -0.81423,-2.192 V 2.909427 c 0,-1.062597 -0.858617,-1.9270176 -1.913962,-1.9270176 -0.960234,0 -1.758363,0.7076486 -1.901754,1.6293796 1.495532,0.236305 2.642807,1.534082 2.642807,3.095018 v 5.627653 c 0.17469,0.08135 0.346292,0.16977 0.513637,0.26648 0.896472,0.51817 1.663902,1.24341 2.233072,2.10764 h 3.80903 c 0.80159,0 1.45376,0.65212 1.45376,1.45371 v 4.38877 c 0,0.80159 -0.65212,1.45371 -1.45376,1.45371 z M 8.512702,5.706807 c 0,-1.212023 -0.986059,-2.198035 -2.198035,-2.198035 -1.212071,0 -2.198082,0.985965 -2.198082,2.198035 v 5.502223 c 0.790924,-0.32505 1.645614,-0.49563 2.527111,-0.49563 0.635368,0 1.264889,0.09175 1.869006,0.26854 z m 8.009408,9.455483 c 0,-0.28561 -0.23243,-0.51803 -0.51809,-0.51803 h -4.06713 c -0.16407,0 -0.31616,-0.08594 -0.4008,-0.22653 -1.04383,-1.73366 -2.872792,-2.76865 -4.892488,-2.76865 -0.944842,0 -1.853848,0.22802 -2.665263,0.65759 -0.059415,0.05904 -0.134737,0.10175 -0.218807,0.12224 -0.420865,0.24735 -0.812819,0.55046 -1.166175,0.90629 -1.079439,1.08712 -1.6679769,2.53002 -1.6573161,4.06279 0.0221345,3.11326 2.5731521,5.65516 5.6867431,5.66629 0.00674,0 0.013427,0 0.020117,0 1.99069,0 3.864229,-1.05946 4.893289,-2.76865 0.08463,-0.14059 0.23672,-0.22653 0.40079,-0.22653 h 2.8066 v -4.2335 c 0,-0.25834 0.20945,-0.46783 0.46784,-0.46783 0.25838,0 0.46783,0.20949 0.46783,0.46783 v 4.23355 h 0.32477 c 0.28566,0 0.51809,-0.23242 0.51809,-0.51804 z" /></clipPath><clipPath
       id="clipPath154"
       clipPathUnits="userSpaceOnUse"><path
         id="path152"
         d="M -534,-1155 H 729 V 108 H -534 Z" /></clipPath><clipPath
       id="clipPath164"
       clipPathUnits="userSpaceOnUse"><path
         style="clip-rule:evenodd"
         id="path162"
         d="m 16.31949,9.662596 c -0.63603,0.630274 -1.47767,0.977264 -2.36992,0.977264 -0.40211,0 -0.79504,-0.07102 -1.16786,-0.21095 -0.24187,-0.0908 -0.36435,-0.36056 -0.27355,-0.60243 0.09081,-0.241919 0.36052,-0.364351 0.60244,-0.273591 0.26727,0.100398 0.54956,0.151251 0.83901,0.151251 0.64398,4.7e-5 1.2517,-0.25076 1.7113,-0.706198 0.45974,-0.455579 0.71294,-1.059275 0.71294,-1.699743 V 5.831485 h -5e-5 c 0,-0.258339 0.20945,-0.467836 0.46784,-0.467836 0.25838,0 0.46783,0.209497 0.46783,0.467836 v 1.466761 c 0,0.892023 -0.35158,1.731742 -0.98998,2.36435 z" /></clipPath><clipPath
       id="clipPath170"
       clipPathUnits="userSpaceOnUse"><path
         id="path168"
         d="M -534,-1155 H 729 V 108 H -534 Z" /></clipPath><clipPath
       id="clipPath180"
       clipPathUnits="userSpaceOnUse"><path
         style="clip-rule:evenodd"
         id="path178"
         d="m 17.17249,4.672702 c -0.08702,0.087017 -0.20776,0.137123 -0.33076,0.137123 -0.12304,0 -0.24374,-0.050059 -0.33076,-0.137123 -0.08702,-0.087486 -0.13708,-0.207673 -0.13708,-0.330714 0,-0.123555 0.05006,-0.243742 0.13708,-0.331228 0.08702,-0.087017 0.20772,-0.137123 0.33076,-0.137123 0.12304,0 0.24374,0.050059 0.33076,0.137123 0.08702,0.087486 0.13708,0.207673 0.13708,0.331228 0,0.123041 -0.05006,0.243228 -0.13708,0.330714 z" /></clipPath><clipPath
       id="clipPath186"
       clipPathUnits="userSpaceOnUse"><path
         id="path184"
         d="M -534,-1155 H 729 V 108 H -534 Z" /></clipPath><clipPath
       id="clipPath196"
       clipPathUnits="userSpaceOnUse"><path
         style="clip-rule:evenodd"
         id="path194"
         d="m 23.48501,6.502877 h -0.46662 c -1.03121,0 -1.87013,-0.838971 -1.87013,-1.870175 V 2.909427 c 0,-1.062597 -0.85862,-1.9270176 -1.91401,-1.9270176 -1.06134,0 -1.92478,0.8644676 -1.92478,1.9270176 0,0.258339 -0.20945,0.467836 -0.46783,0.467836 -0.25839,0 -0.46784,-0.209497 -0.46784,-0.467836 0,-1.57848 1.28318,-2.86269016 2.86045,-2.86269016 1.57132,0 2.84968,1.28421016 2.84968,2.86269016 v 1.723275 c 0,0.515275 0.41918,0.934503 0.93446,0.934503 h 0.46662 c 0.25838,0 0.46783,0.209497 0.46783,0.467836 0,0.258339 -0.20949,0.467836 -0.46783,0.467836 z" /></clipPath><clipPath
       id="clipPath202"
       clipPathUnits="userSpaceOnUse"><path
         id="path200"
         d="M -534,-1155 H 729 V 108 H -534 Z" /></clipPath></defs><g
     transform="matrix(1.3333333,0,0,-1.3333333,0,32)"
     id="g10"><g
       id="g12" /><g
       id="g14"><g
         clip-path="url(#clipPath20)"
         id="g16"><g
           clip-path="url(#clipPath26)"
           id="g22"><path
             id="path28"
             style="fill:#01748e;fill-opacity:1;fill-rule:nonzero;stroke:none"
             d="M 1.635649,27.08978 H 16.01409 V 13.9717 H 1.635649 Z" /></g></g></g><g
       id="g30"><g
         clip-path="url(#clipPath36)"
         id="g32"><g
           clip-path="url(#clipPath42)"
           id="g38"><path
             id="path44"
             style="fill:#01748e;fill-opacity:1;fill-rule:nonzero;stroke:none"
             d="M 5.44069,23.30403 H 16.37637 V 12.34896 H 5.44069 Z" /></g></g></g><g
       id="g46"><g
         clip-path="url(#clipPath52)"
         id="g48"><g
           clip-path="url(#clipPath58)"
           id="g54"><path
             id="path60"
             style="fill:#01748e;fill-opacity:1;fill-rule:nonzero;stroke:none"
             d="M 3.039251,23.74423 H 13.97492 V 10.80056 H 3.039251 Z" /></g></g></g><g
       id="g62"><g
         clip-path="url(#clipPath68)"
         id="g64"><g
           clip-path="url(#clipPath74)"
           id="g70"><path
             id="path76"
             style="fill:#01748e;fill-opacity:1;fill-rule:nonzero;stroke:none"
             d="M 1.167906,23.74423 H 12.10358 V 10.80056 H 1.167906 Z" /></g></g></g><g
       id="g78"><g
         clip-path="url(#clipPath84)"
         id="g80"><g
           clip-path="url(#clipPath90)"
           id="g86"><path
             id="path92"
             style="fill:#01748e;fill-opacity:1;fill-rule:nonzero;stroke:none"
             d="M -0.7034386,23.74423 H 10.23223 V 10.80056 H -0.7034386 Z" /></g></g></g><g
       id="g94"><g
         clip-path="url(#clipPath100)"
         id="g96"><g
           clip-path="url(#clipPath106)"
           id="g102"><path
             id="path108"
             style="fill:#01748e;fill-opacity:1;fill-rule:nonzero;stroke:none"
             d="M 13.52836,20.93953 H 28.95289 V 9.638596 H 13.52836 Z" /></g></g></g><g
       id="g110"><g
         clip-path="url(#clipPath116)"
         id="g112"><g
           clip-path="url(#clipPath122)"
           id="g118"><path
             id="path124"
             style="fill:#01748e;fill-opacity:1;fill-rule:nonzero;stroke:none"
             d="M 13.52841,23.03565 H 28.9529 V 11.73544 H 13.52841 Z" /></g></g></g><g
       id="g126"><g
         clip-path="url(#clipPath132)"
         id="g128"><g
           clip-path="url(#clipPath138)"
           id="g134"><path
             id="path140"
             style="fill:#01748e;fill-opacity:1;fill-rule:nonzero;stroke:none"
             d="M 13.52841,25.08968 H 28.9529 V 13.78947 H 13.52841 Z" /></g></g></g><g
       id="g142"><g
         clip-path="url(#clipPath148)"
         id="g144"><g
           clip-path="url(#clipPath154)"
           id="g150"><path
             id="path156"
             style="fill:#01748e;fill-opacity:1;fill-rule:nonzero;stroke:none"
             d="M -4.999822,29.00008 H 22.45778 V -4.95317 H -4.999822 Z" /></g></g></g><g
       id="g158"><g
         clip-path="url(#clipPath164)"
         id="g160"><g
           clip-path="url(#clipPath170)"
           id="g166"><path
             id="path172"
             style="fill:#01748e;fill-opacity:1;fill-rule:nonzero;stroke:none"
             d="M 7.478192,15.63986 H 22.30947 V 0.3636491 H 7.478192 Z" /></g></g></g><g
       id="g174"><g
         clip-path="url(#clipPath180)"
         id="g176"><g
           clip-path="url(#clipPath186)"
           id="g182"><path
             id="path188"
             style="fill:#01748e;fill-opacity:1;fill-rule:nonzero;stroke:none"
             d="M 11.37389,9.809825 H 22.30957 V -1.126363 H 11.37389 Z" /></g></g></g><g
       id="g190"><g
         clip-path="url(#clipPath196)"
         id="g192"><g
           clip-path="url(#clipPath202)"
           id="g198"><path
             id="path204"
             style="fill:#01748e;fill-opacity:1;fill-rule:nonzero;stroke:none"
             d="M 11.3738,11.50288 H 28.95284 V -4.953263 H 11.3738 Z" /></g></g></g></g></svg>