<?xml version="1.0" encoding="UTF-8" standalone="no"?>
<svg
   xmlns:dc="http://purl.org/dc/elements/1.1/"
   xmlns:cc="http://creativecommons.org/ns#"
   xmlns:rdf="http://www.w3.org/1999/02/22-rdf-syntax-ns#"
   xmlns:svg="http://www.w3.org/2000/svg"
   xmlns="http://www.w3.org/2000/svg"
   viewBox="0 0 36 37.333332"
   height="37.333332"
   width="36"
   xml:space="preserve"
   id="svg2"
   version="1.1"><metadata
     id="metadata8"><rdf:RDF><cc:Work
         rdf:about=""><dc:format>image/svg+xml</dc:format><dc:type
           rdf:resource="http://purl.org/dc/dcmitype/StillImage" /></cc:Work></rdf:RDF></metadata><defs
     id="defs6"><clipPath
       id="clipPath20"
       clipPathUnits="userSpaceOnUse"><path
         id="path18"
         d="m 18,17 h 2 v 2 h -2 z" /></clipPath><clipPath
       id="clipPath30"
       clipPathUnits="userSpaceOnUse"><path
         style="clip-rule:evenodd"
         id="path28"
         d="m 21.65036,13.70157 v 6.35693 h 0.8219 c 2.28248,0 4.13954,1.83026 4.13954,4.08026 0,0.32095 -0.26416,0.58106 -0.5895,0.58106 h -4.8561 v 2.69912 C 21.1662,27.73996 20.90238,28 20.5767,28 19.08159,28 17.86521,26.80104 17.86521,25.32733 V 16.8961 l -1.7631,-0.22511 c -0.32318,-0.04142 -0.55108,-0.33277 -0.50905,-0.65133 0.03849,-0.29292 0.29205,-0.50655 0.58409,-0.50655 0.02518,0 0.05063,0.0019 0.07636,0.0051 l 2.23913,0.28602 h 1.97844 v -2.10262 c 0,-1.68548 -1.39143,-3.05671 -3.1014,-3.05671 h -0.05743 c -0.32561,0 -0.5895,-0.26031 -0.5895,-0.58133 V 2.688224 c 0,-0.321018 0.26389,-0.581333 0.5895,-0.581333 h 0.48409 c 0.64505,0 1.19911,-0.390676 1.43151,-0.944733 H 15.59847 V 11.67406 c 0,0.32095 -0.26417,0.58106 -0.58978,0.58106 -0.32533,0 -0.5895,-0.26011 -0.5895,-0.58106 V 10.6449 H 8.762341 v 1.02916 c 0,0.32095 -0.263888,0.58106 -0.589501,0.58106 -0.325682,0 -0.589501,-0.26011 -0.589501,-0.58106 V 8.652076 c 0,-1.104422 -0.911646,-2.003013 -2.032391,-2.003013 -0.325335,0 -0.589501,-0.260314 -0.589501,-0.581332 V 2.68795 c 0,-0.320949 0.264166,-0.581059 0.589501,-0.581059 h 0.484154 c 0.644983,0 1.199045,-0.39095 1.431447,-0.944733 H 3.837165 V 9.482512 H 4.75422 c 0.325613,0 0.589779,0.260109 0.589779,0.581058 v 2.54429 c 0,0.32095 -0.264166,0.58133 -0.589779,0.58133 H 2.435193 c -0.546155,0 -1.01186,0.34529 -1.184411,0.82592 h 3.201059 c 0.025245,0 0.050697,0.0016 0.075595,0.0048 l 8.209114,1.04891 c 0.32325,0.04143 0.55108,0.33271 0.50905,0.65127 -0.04196,0.31835 -0.3381,0.54291 -0.66045,0.50149 L 4.413697,15.17751 H 0.5895009 C 0.2641657,15.17746 0,14.91736 0,14.59641 V 14.42687 C 0,13.10343 1.09231,12.02676 2.435193,12.02676 H 4.16472 v -1.3819 H 3.247664 c -0.325612,0 -0.589501,-0.26004 -0.589501,-0.58106 V 0.5810589 C 2.658163,0.260041 2.922052,0 3.247664,0 H 8.17284 c 0.325613,0 0.589778,0.260041 0.589778,0.5810589 0,1.4475201 -1.166865,2.6313081 -2.621892,2.6862701 v 2.27276 C 7.630707,5.813734 8.762618,7.10512 8.762618,8.652036 V 9.482472 H 14.41919 V 0.5810589 C 14.41919,0.260041 14.68336,0 15.00897,0 h 4.92518 c 0.32561,0 0.5895,0.260041 0.5895,0.5810589 0,1.4475201 -1.16659,2.6313081 -2.62162,2.6862701 v 6.24775 c 2.11014,0.259016 3.74833,2.037741 3.74833,4.186491 z m -1.66344,13.0199 v -2.58298 c 0,-0.32068 0.26417,-0.58106 0.58978,-0.58106 h 0.98343 v -0.58188 c 0,-0.32095 0.26416,-0.58106 0.58978,-0.58106 0.32533,0 0.5895,0.26011 0.5895,0.58106 v 0.58188 h 2.6343 c -0.27415,-1.33145 -1.47104,-2.33682 -2.90145,-2.33682 h -1.41141 c -0.32568,0 -0.58977,-0.26004 -0.58977,-0.58105 v -1.64515 h -1.4266 v 6.33292 c -2.7e-4,0.62693 0.38956,1.16581 0.94244,1.39414 z" /></clipPath><clipPath
       id="clipPath36"
       clipPathUnits="userSpaceOnUse"><path
         id="path34"
         d="M -805,-949 H 458 V 314 H -805 Z" /></clipPath><clipPath
       id="clipPath46"
       clipPathUnits="userSpaceOnUse"><path
         style="clip-rule:evenodd"
         id="path44"
         d="m 14.41239,16 c 0.01763,0 0.03545,0.0014 0.05346,0.0042 l 0.17449,0.02661 c 0.22606,0.03446 0.38555,0.27858 0.35617,0.54514 -0.02922,0.2665 -0.23629,0.45453 -0.4624,0.4199 l -0.1743,-0.02662 C 14.13357,16.93482 13.97407,16.6907 14.0035,16.42414 14.03039,16.17887 14.20795,16 14.41239,16 Z" /></clipPath><clipPath
       id="clipPath52"
       clipPathUnits="userSpaceOnUse"><path
         id="path50"
         d="M -805,-949 H 458 V 314 H -805 Z" /></clipPath></defs><g
     transform="matrix(1.3333333,0,0,-1.3333333,0,37.333333)"
     id="g10"><g
       id="g12" /><g
       id="g14"><g
         clip-path="url(#clipPath20)"
         id="g16"><path
           id="path22"
           style="fill:#233336;fill-opacity:1;fill-rule:nonzero;stroke:none"
           d="M 13,24 H 25 V 12 H 13 Z" /></g></g><g
       id="g24"><g
         clip-path="url(#clipPath30)"
         id="g26"><g
           clip-path="url(#clipPath36)"
           id="g32"><path
             id="path38"
             style="fill:#01748e;fill-opacity:1;fill-rule:nonzero;stroke:none"
             d="M -5,33 H 31.6118 V -5 H -5 Z" /></g></g></g><g
       id="g40"><g
         clip-path="url(#clipPath46)"
         id="g42"><g
           clip-path="url(#clipPath52)"
           id="g48"><path
             id="path54"
             style="fill:#01748e;fill-opacity:1;fill-rule:nonzero;stroke:none"
             d="M 9,22 H 20 V 11 H 9 Z" /></g></g></g></g></svg>