<?xml version="1.0" encoding="UTF-8" standalone="no"?>
<svg
   xmlns:dc="http://purl.org/dc/elements/1.1/"
   xmlns:cc="http://creativecommons.org/ns#"
   xmlns:rdf="http://www.w3.org/1999/02/22-rdf-syntax-ns#"
   xmlns:svg="http://www.w3.org/2000/svg"
   xmlns="http://www.w3.org/2000/svg"
   viewBox="0 0 32 32"
   height="32"
   width="32"
   xml:space="preserve"
   id="svg2"
   version="1.1"><metadata
     id="metadata8"><rdf:RDF><cc:Work
         rdf:about=""><dc:format>image/svg+xml</dc:format><dc:type
           rdf:resource="http://purl.org/dc/dcmitype/StillImage" /></cc:Work></rdf:RDF></metadata><defs
     id="defs6"><clipPath
       id="clipPath20"
       clipPathUnits="userSpaceOnUse"><path
         style="clip-rule:evenodd"
         id="path18"
         d="m 14.81818,17.09091 c 0.25104,0 0.45455,0.20351 0.45455,0.45454 0,0.25104 -0.20351,0.45455 -0.45455,0.45455 -0.25104,0 -0.45454,-0.20351 -0.45454,-0.45455 0,-0.25103 0.2035,-0.45454 0.45454,-0.45454 z" /></clipPath><clipPath
       id="clipPath26"
       clipPathUnits="userSpaceOnUse"><path
         id="path24"
         d="M -372,-1068 H 891 V 195 H -372 Z" /></clipPath><clipPath
       id="clipPath36"
       clipPathUnits="userSpaceOnUse"><path
         style="clip-rule:evenodd"
         id="path34"
         d="m 11.90909,18.54545 c 0.25104,0 0.45455,0.20351 0.45455,0.45455 0,0.25104 -0.20351,0.45455 -0.45455,0.45455 -0.25104,0 -0.45454,-0.20351 -0.45454,-0.45455 0,-0.25104 0.2035,-0.45455 0.45454,-0.45455 z" /></clipPath><clipPath
       id="clipPath42"
       clipPathUnits="userSpaceOnUse"><path
         id="path40"
         d="M -372,-1068 H 891 V 195 H -372 Z" /></clipPath><clipPath
       id="clipPath52"
       clipPathUnits="userSpaceOnUse"><path
         style="clip-rule:evenodd"
         id="path50"
         d="m 9.181818,17.09091 c 0.251039,0 0.454546,0.20351 0.454546,0.45454 C 9.636364,17.79649 9.432857,18 9.181818,18 8.93078,18 8.727273,17.79649 8.727273,17.54545 c 0,-0.25103 0.203507,-0.45454 0.454545,-0.45454 z" /></clipPath><clipPath
       id="clipPath58"
       clipPathUnits="userSpaceOnUse"><path
         id="path56"
         d="M -372,-1068 H 891 V 195 H -372 Z" /></clipPath><clipPath
       id="clipPath68"
       clipPathUnits="userSpaceOnUse"><path
         style="clip-rule:evenodd"
         id="path66"
         d="m 11.90909,0 c 0.25104,0 0.45455,0.2035069 0.45455,0.4545455 0,0.2510385 -0.20351,0.4545454 -0.45455,0.4545454 -0.25104,0 -0.45454,-0.2035069 -0.45454,-0.4545454 C 11.45455,0.2035069 11.65805,0 11.90909,0 Z" /></clipPath><clipPath
       id="clipPath74"
       clipPathUnits="userSpaceOnUse"><path
         id="path72"
         d="M -372,-1068 H 891 V 195 H -372 Z" /></clipPath><clipPath
       id="clipPath84"
       clipPathUnits="userSpaceOnUse"><path
         style="clip-rule:evenodd"
         id="path82"
         d="M 1.406267,0.9375 H 0.468771 C 0.2098814,0.9375 0,0.7276406 0,0.46875 0,0.2098594 0.2098814,0 0.468771,0 H 9.89061 c 0.25889,0 0.46875,0.2098594 0.46875,0.46875 0,0.2588906 -0.20986,0.46875 -0.46875,0.46875 H 8.249991 v 3.84375 c 0,2.083547 1.717306,3.84375 3.749989,3.84375 2.03268,0 3.74998,-1.760203 3.74998,-3.84375 V 0.9375 H 14.10934 C 13.85045,0.9375 13.6406,0.7276406 13.6406,0.46875 13.6406,0.2098594 13.85045,0 14.10934,0 h 9.42184 C 23.79007,0 24,0.2098594 24,0.46875 24,0.7276406 23.79007,0.9375 23.53118,0.9375 h -0.93749 v 15.32072 l 0.68643,-0.43528 c 0.21909,-0.13894 0.50855,-0.07336 0.64692,0.14479 0.13866,0.21863 0.07383,0.50827 -0.1448,0.64693 l -11.5312,7.3125 c -0.15328,0.09712 -0.3488,0.09712 -0.50208,0 L 0.2177563,16.61466 C -8.678112e-4,16.476 -0.06569569,16.18636 0.07296003,15.96773 0.2116157,15.74906 0.5013021,15.68433 0.7198794,15.82294 L 1.406314,16.25822 V 0.9375 Z m 7.37205,12 c 0.24778,-0.96647 1.231593,-1.59455 2.245073,-1.3568 0.65723,0.15432 1.29609,0.15432 1.95341,-4e-5 1.01212,-0.23714 1.99673,0.38962 2.24484,1.35684 h 6.4346 V 9.5625 H 2.343811 v 3.375 z m 0.877919,0.46875 c 0,0.51694 0.420564,0.9375 0.937494,0.9375 0.25889,0 0.46875,0.20986 0.46875,0.46875 0,0.51694 0.42056,0.9375 0.9375,0.9375 0.51693,0 0.93749,-0.42056 0.93749,-0.9375 0,-0.25889 0.20986,-0.46875 0.46875,-0.46875 0.51694,0 0.9375,-0.42056 0.9375,-0.9375 0,-0.60342 -0.56344,-1.05103 -1.15284,-0.91289 -0.79017,0.18553 -1.5915,0.18553 -2.38176,0 -0.59011,-0.13838 -1.152884,0.30947 -1.152884,0.91289 z M 2.343764,0.9375 v 3.375 H 7.312495 V 0.9375 Z M 7.335276,5.25 H 2.343764 V 8.625469 H 9.230237 C 8.187085,7.833187 7.469338,6.626344 7.335276,5.25 Z m 7.434444,3.375 h 6.88647 V 5.25 h -4.99147 c -0.13387,1.374047 -0.84998,2.581781 -1.895,3.375 z m 1.91774,-4.3125 h 4.96873 v -3.375 h -4.96873 z m -4.68748,18.6637 9.65621,-6.12347 V 13.875 h -6.43455 c -0.1741,0.67369 -0.71395,1.20183 -1.39434,1.35858 -0.19163,0.83179 -0.9382,1.45392 -1.82732,1.45392 -0.88913,0 -1.6357,-0.62213 -1.82732,-1.45392 C 9.492267,15.07683 8.95241,14.54869 8.778317,13.875 H 2.343764 v 2.97773 z" /></clipPath><clipPath
       id="clipPath90"
       clipPathUnits="userSpaceOnUse"><path
         id="path88"
         d="M -372,-1068 H 891 V 195 H -372 Z" /></clipPath></defs><g
     transform="matrix(1.3333333,0,0,-1.3333333,0,32)"
     id="g10"><g
       id="g12" /><g
       id="g14"><g
         clip-path="url(#clipPath20)"
         id="g16"><g
           clip-path="url(#clipPath26)"
           id="g22"><path
             id="path28"
             style="fill:#01748e;fill-opacity:1;fill-rule:nonzero;stroke:none"
             d="M 9.363636,23 H 20.27273 V 12.09091 H 9.363636 Z" /></g></g></g><g
       id="g30"><g
         clip-path="url(#clipPath36)"
         id="g32"><g
           clip-path="url(#clipPath42)"
           id="g38"><path
             id="path44"
             style="fill:#01748e;fill-opacity:1;fill-rule:nonzero;stroke:none"
             d="M 6.454545,24.45455 H 17.36364 V 13.54545 H 6.454545 Z" /></g></g></g><g
       id="g46"><g
         clip-path="url(#clipPath52)"
         id="g48"><g
           clip-path="url(#clipPath58)"
           id="g54"><path
             id="path60"
             style="fill:#01748e;fill-opacity:1;fill-rule:nonzero;stroke:none"
             d="M 3.727273,23 H 14.63636 V 12.09091 H 3.727273 Z" /></g></g></g><g
       id="g62"><g
         clip-path="url(#clipPath68)"
         id="g64"><g
           clip-path="url(#clipPath74)"
           id="g70"><path
             id="path76"
             style="fill:#01748e;fill-opacity:1;fill-rule:nonzero;stroke:none"
             d="M 6.454545,5.909091 H 17.36364 V -5 H 6.454545 Z" /></g></g></g><g
       id="g78"><g
         clip-path="url(#clipPath84)"
         id="g80"><g
           clip-path="url(#clipPath90)"
           id="g86"><path
             id="path92"
             style="fill:#01748e;fill-opacity:1;fill-rule:nonzero;stroke:none"
             d="M -5,29 H 29 V -5 H -5 Z" /></g></g></g></g></svg>