<?xml version="1.0" encoding="UTF-8" standalone="no"?>
<svg
   xmlns:dc="http://purl.org/dc/elements/1.1/"
   xmlns:cc="http://creativecommons.org/ns#"
   xmlns:rdf="http://www.w3.org/1999/02/22-rdf-syntax-ns#"
   xmlns:svg="http://www.w3.org/2000/svg"
   xmlns="http://www.w3.org/2000/svg"
   viewBox="0 0 32 33.333332"
   height="33.333332"
   width="32"
   xml:space="preserve"
   id="svg2"
   version="1.1"><metadata
     id="metadata8"><rdf:RDF><cc:Work
         rdf:about=""><dc:format>image/svg+xml</dc:format><dc:type
           rdf:resource="http://purl.org/dc/dcmitype/StillImage" /></cc:Work></rdf:RDF></metadata><defs
     id="defs6"><clipPath
       id="clipPath20"
       clipPathUnits="userSpaceOnUse"><path
         style="clip-rule:evenodd"
         id="path18"
         d="m 23.62317,22.09241 -9.375,1.875 c -0.1377,0.02765 -0.28052,-0.0081 -0.3891,-0.09705 C 13.75049,23.78119 13.6875,23.64825 13.6875,23.50781 V 22.10156 H 4.78125 c -0.258911,0 -0.46875,-0.20984 -0.46875,-0.46875 V 14.08594 H 0.46875 C 0.2098388,14.08594 0,13.8761 0,13.61719 v -2.625 C 0,10.73328 0.2098388,10.52344 0.46875,10.52344 H 4.3125 V 2.976565 c 0,-0.258914 0.209839,-0.468753 0.46875,-0.468753 h 8.90625 v -1.40625 c 0,-0.1404414 0.06299,-0.2735591 0.17157,-0.3625483 0.08459,-0.0692139 0.1897,-0.1062012 0.29718,-0.1062012 0.03058,0 0.06134,0.00293 0.09192,0.009155 l 9.375,1.8750003 C 23.84235,2.56073 24,2.753174 24,2.976565 v 7.218745 c 0,0.25891 -0.20984,0.46875 -0.46875,0.46875 -0.25891,0 -0.46875,-0.20984 -0.46875,-0.46875 V 3.360901 L 14.625,1.673401 V 22.93597 l 8.4375,-1.6875 v -6.83441 c 0,-0.25891 0.20984,-0.46875 0.46875,-0.46875 0.25891,0 0.46875,0.20984 0.46875,0.46875 v 7.21875 c 0,0.22339 -0.15765,0.41584 -0.37683,0.4596 z M 0.9375,13.14844 h 6.171753 c 0.258911,0 0.46875,0.20984 0.46875,0.46875 v 0.37463 L 10.50037,12.30469 7.578003,10.61755 v 0.37464 c 0,0.25891 -0.209839,0.46875 -0.46875,0.46875 H 0.9375 Z M 5.25,3.445312 V 10.52344 H 6.640503 V 9.805664 c 0,-0.167541 0.089355,-0.322266 0.234375,-0.405945 0.072693,-0.041931 0.153442,-0.062805 0.234375,-0.062805 0.081116,0 0.161865,0.020874 0.234375,0.062805 l 4.328612,2.499021 c 0.14502,0.08368 0.23438,0.23841 0.23438,0.40595 0,0.16754 -0.08936,0.32226 -0.23438,0.40594 l -4.328612,2.49903 c -0.14502,0.08367 -0.323547,0.08367 -0.46875,0 C 6.729858,15.12598 6.640503,14.97125 6.640503,14.80371 V 14.08594 H 5.25 v 7.07812 h 8.4375 V 3.445312 Z" /></clipPath><clipPath
       id="clipPath26"
       clipPathUnits="userSpaceOnUse"><path
         id="path24"
         d="M -421,-645 H 842 V 618 H -421 Z" /></clipPath><clipPath
       id="clipPath36"
       clipPathUnits="userSpaceOnUse"><path
         style="clip-rule:evenodd"
         id="path34"
         d="m 16.21875,12.63281 v -0.65625 c 0,-0.25891 0.20984,-0.46875 0.46875,-0.46875 0.25891,0 0.46875,0.20984 0.46875,0.46875 v 0.65625 c 0,0.25891 -0.20984,0.46875 -0.46875,0.46875 -0.25891,0 -0.46875,-0.20984 -0.46875,-0.46875 z" /></clipPath><clipPath
       id="clipPath42"
       clipPathUnits="userSpaceOnUse"><path
         id="path40"
         d="M -421,-645 H 842 V 618 H -421 Z" /></clipPath><clipPath
       id="clipPath52"
       clipPathUnits="userSpaceOnUse"><path
         style="clip-rule:evenodd"
         id="path50"
         d="m 23.53125,12.77344 c -0.12323,0 -0.24426,-0.05017 -0.33142,-0.13733 -0.08716,-0.08716 -0.13733,-0.20819 -0.13733,-0.33142 0,-0.12323 0.05017,-0.24427 0.13733,-0.33142 0.08716,-0.08716 0.20819,-0.13733 0.33142,-0.13733 0.12323,0 0.24426,0.05017 0.33142,0.13733 C 23.94983,12.06042 24,12.18146 24,12.30469 c 0,0.12323 -0.05017,0.24426 -0.13733,0.33142 -0.08716,0.08716 -0.20819,0.13733 -0.33142,0.13733 z" /></clipPath><clipPath
       id="clipPath58"
       clipPathUnits="userSpaceOnUse"><path
         id="path56"
         d="M -421,-645 H 842 V 618 H -421 Z" /></clipPath></defs><g
     transform="matrix(1.3333333,0,0,-1.3333333,0,33.333333)"
     id="g10"><g
       id="g12" /><g
       id="g14"><g
         clip-path="url(#clipPath20)"
         id="g16"><g
           clip-path="url(#clipPath26)"
           id="g22"><path
             id="path28"
             style="fill:#fa9c93;fill-opacity:1;fill-rule:nonzero;stroke:none"
             d="M -5,28.97656 H 29 V -4.367188 H -5 Z" /></g></g></g><g
       id="g30"><g
         clip-path="url(#clipPath36)"
         id="g32"><g
           clip-path="url(#clipPath42)"
           id="g38"><path
             id="path44"
             style="fill:#fa9c93;fill-opacity:1;fill-rule:nonzero;stroke:none"
             d="m 11.21875,18.10156 h 10.9375 V 6.507812 h -10.9375 z" /></g></g></g><g
       id="g46"><g
         clip-path="url(#clipPath52)"
         id="g48"><g
           clip-path="url(#clipPath58)"
           id="g54"><path
             id="path60"
             style="fill:#fa9c93;fill-opacity:1;fill-rule:nonzero;stroke:none"
             d="M 18.0625,17.77344 H 29 V 6.835938 H 18.0625 Z" /></g></g></g></g></svg>