<?xml version="1.0" encoding="UTF-8" standalone="no"?>
<svg
   xmlns:dc="http://purl.org/dc/elements/1.1/"
   xmlns:cc="http://creativecommons.org/ns#"
   xmlns:rdf="http://www.w3.org/1999/02/22-rdf-syntax-ns#"
   xmlns:svg="http://www.w3.org/2000/svg"
   xmlns="http://www.w3.org/2000/svg"
   viewBox="0 0 32 6.6666665"
   height="6.6666665"
   width="32"
   xml:space="preserve"
   id="svg2"
   version="1.1"><metadata
     id="metadata8"><rdf:RDF><cc:Work
         rdf:about=""><dc:format>image/svg+xml</dc:format><dc:type
           rdf:resource="http://purl.org/dc/dcmitype/StillImage" /></cc:Work></rdf:RDF></metadata><defs
     id="defs6"><clipPath
       id="clipPath20"
       clipPathUnits="userSpaceOnUse"><path
         style="clip-rule:evenodd"
         id="path18"
         d="M 2.4,0 C 3.725483,0 4.8,1.119288 4.8,2.5 4.8,3.880712 3.725483,5 2.4,5 1.074517,5 0,3.880712 0,2.5 0,1.119288 1.074517,0 2.4,0 Z" /></clipPath><clipPath
       id="clipPath26"
       clipPathUnits="userSpaceOnUse"><path
         id="path24"
         d="M -88,-614 H 1175 V 649 H -88 Z" /></clipPath><clipPath
       id="clipPath36"
       clipPathUnits="userSpaceOnUse"><path
         id="path34"
         d="M -88,-614 H 1175 V 649 H -88 Z" /></clipPath></defs><g
     transform="matrix(1.3333333,0,0,-1.3333333,0,6.6666667)"
     id="g10"><g
       id="g12" /><g
       id="g14"><g
         clip-path="url(#clipPath20)"
         id="g16"><g
           clip-path="url(#clipPath26)"
           id="g22"><path
             id="path28"
             style="fill:#fa9c93;fill-opacity:1;fill-rule:nonzero;stroke:none"
             d="M -5,10 H 9.8 V -5 H -5 Z" /></g></g></g><g
       id="g30"><g
         clip-path="url(#clipPath36)"
         id="g32"><g
           transform="matrix(1,0,0,-1,9.6,5)"
           id="g38"><path
             id="path40"
             style="fill:none;stroke:#fa9c93;stroke-width:1;stroke-linecap:butt;stroke-linejoin:miter;stroke-miterlimit:10;stroke-dasharray:none;stroke-opacity:1"
             d="M 2.4,5 C 3.725483,5 4.8,3.880712 4.8,2.5 4.8,1.119288 3.725483,0 2.4,0 1.074517,0 0,1.119288 0,2.5 0,3.880712 1.074517,5 2.4,5 Z" /></g><g
           transform="matrix(1,0,0,-1,19.2,5)"
           id="g42"><path
             id="path44"
             style="fill:none;stroke:#fa9c93;stroke-width:1;stroke-linecap:butt;stroke-linejoin:miter;stroke-miterlimit:10;stroke-dasharray:none;stroke-opacity:1"
             d="M 2.4,5 C 3.725483,5 4.8,3.880712 4.8,2.5 4.8,1.119288 3.725483,0 2.4,0 1.074517,0 0,1.119288 0,2.5 0,3.880712 1.074517,5 2.4,5 Z" /></g></g></g></g></svg>