<?xml version="1.0" encoding="UTF-8" standalone="no"?>
<svg
   xmlns:dc="http://purl.org/dc/elements/1.1/"
   xmlns:cc="http://creativecommons.org/ns#"
   xmlns:rdf="http://www.w3.org/1999/02/22-rdf-syntax-ns#"
   xmlns:svg="http://www.w3.org/2000/svg"
   xmlns="http://www.w3.org/2000/svg"
   viewBox="0 0 53.333332 12"
   height="12"
   width="53.333332"
   xml:space="preserve"
   id="svg2"
   version="1.1"><metadata
     id="metadata8"><rdf:RDF><cc:Work
         rdf:about=""><dc:format>image/svg+xml</dc:format><dc:type
           rdf:resource="http://purl.org/dc/dcmitype/StillImage" /></cc:Work></rdf:RDF></metadata><defs
     id="defs6"><clipPath
       id="clipPath20"
       clipPathUnits="userSpaceOnUse"><path
         id="path18"
         d="M -168,-998 H 207 V 276 h -375 z" /></clipPath><clipPath
       id="clipPath32"
       clipPathUnits="userSpaceOnUse"><path
         style="clip-rule:evenodd"
         id="path30"
         d="m 20,0 c 2.20914,0 4,1.790861 4,4 0,2.209139 -1.79086,4 -4,4 -2.20914,0 -4,-1.790861 -4,-4 0,-2.209139 1.79086,-4 4,-4 z" /></clipPath><clipPath
       id="clipPath38"
       clipPathUnits="userSpaceOnUse"><path
         id="path36"
         d="M -168,-998 H 207 V 276 h -375 z" /></clipPath><clipPath
       id="clipPath48"
       clipPathUnits="userSpaceOnUse"><path
         id="path46"
         d="M -168,-998 H 207 V 276 h -375 z" /></clipPath></defs><g
     transform="matrix(1.3333333,0,0,-1.3333333,0,12)"
     id="g10"><g
       id="g12" /><g
       id="g14"><g
         clip-path="url(#clipPath20)"
         id="g16"><g
           transform="matrix(1,0,0,-1,0,8)"
           id="g22"><path
             id="path24"
             style="fill:none;stroke:#fa9c93;stroke-width:1;stroke-linecap:butt;stroke-linejoin:miter;stroke-miterlimit:10;stroke-dasharray:none;stroke-opacity:1"
             d="M 4,8 C 6.209139,8 8,6.209139 8,4 8,1.790861 6.209139,0 4,0 1.790861,0 0,1.790861 0,4 0,6.209139 1.790861,8 4,8 Z" /></g></g></g><g
       id="g26"><g
         clip-path="url(#clipPath32)"
         id="g28"><g
           clip-path="url(#clipPath38)"
           id="g34"><path
             id="path40"
             style="fill:#fa9c93;fill-opacity:1;fill-rule:nonzero;stroke:none"
             d="M 11,13 H 29 V -5 H 11 Z" /></g></g></g><g
       id="g42"><g
         clip-path="url(#clipPath48)"
         id="g44"><g
           transform="matrix(1,0,0,-1,32,8)"
           id="g50"><path
             id="path52"
             style="fill:none;stroke:#fa9c93;stroke-width:1;stroke-linecap:butt;stroke-linejoin:miter;stroke-miterlimit:10;stroke-dasharray:none;stroke-opacity:1"
             d="M 4,8 C 6.209139,8 8,6.209139 8,4 8,1.790861 6.209139,0 4,0 1.790861,0 0,1.790861 0,4 0,6.209139 1.790861,8 4,8 Z" /></g></g></g></g></svg>