<?xml version="1.0" encoding="UTF-8" standalone="no"?>
<svg
   xmlns:dc="http://purl.org/dc/elements/1.1/"
   xmlns:cc="http://creativecommons.org/ns#"
   xmlns:rdf="http://www.w3.org/1999/02/22-rdf-syntax-ns#"
   xmlns:svg="http://www.w3.org/2000/svg"
   xmlns="http://www.w3.org/2000/svg"
   viewBox="0 0 32 32"
   height="32"
   width="32"
   xml:space="preserve"
   id="svg2"
   version="1.1"><metadata
     id="metadata8"><rdf:RDF><cc:Work
         rdf:about=""><dc:format>image/svg+xml</dc:format><dc:type
           rdf:resource="http://purl.org/dc/dcmitype/StillImage" /></cc:Work></rdf:RDF></metadata><defs
     id="defs6"><clipPath
       id="clipPath20"
       clipPathUnits="userSpaceOnUse"><path
         style="clip-rule:evenodd"
         id="path18"
         d="m 20.1156,19.23029 c -0.0062,0.25433 -0.21405,0.45721 -0.46857,0.45721 h -3.6914 v 0.09375 C 15.95563,22.1076 14.08649,24 11.78906,24 9.491455,24 7.622314,22.1076 7.622314,19.78125 V 19.6875 H 3.930908 c -0.254333,0 -0.462341,-0.20288 -0.468567,-0.45721 L 3.000041,0.4802857 C 2.99707,0.354126 3.045044,0.2318115 3.133301,0.1413574 3.221558,0.05108644 3.342407,0 3.46875,0 h 12.01794 c 0.25892,0 0.46875,0.2098388 0.46875,0.46875 0,0.2589112 -0.20983,0.46875 -0.46875,0.46875 H 3.949219 L 4.388306,18.75 H 7.622314 V 17.40491 C 7.058167,17.20807 6.651672,16.66699 6.651672,16.03125 c 0,-0.80127 0.64563,-1.45313 1.439392,-1.45313 0.793763,0 1.439576,0.65186 1.439576,1.45313 0,0.63574 -0.406494,1.17682 -0.970826,1.37366 V 18.75 H 9.93988 c 0.25891,0 0.46875,0.20984 0.46875,0.46875 0,0.25873 -0.20984,0.46875 -0.46875,0.46875 H 8.559814 v 0.09375 c 0,1.80927 1.448546,3.28125 3.229246,3.28125 1.78052,0 3.22907,-1.47198 3.22907,-3.28125 V 19.6875 h -1.38025 c -0.25891,0 -0.46875,-0.21002 -0.46875,-0.46875 0,-0.25891 0.20984,-0.46875 0.46875,-0.46875 h 1.38025 v -1.34509 c -0.56415,-0.19684 -0.97064,-0.73792 -0.97064,-1.37366 0,-0.80127 0.64563,-1.45313 1.43939,-1.45313 0.79376,0 1.43957,0.65186 1.43957,1.45313 0,0.63574 -0.40649,1.17682 -0.97082,1.37366 V 18.75 h 3.23401 L 19.62891,0.9375 h -0.4444 c -0.25873,0 -0.46875,-0.2098388 -0.46875,-0.46875 C 18.71576,0.2098388 18.92578,0 19.18451,0 h 0.92487 c 0.12634,0 0.24719,0.05108644 0.33544,0.1413574 0.08826,0.0904541 0.13623,0.2127686 0.13326,0.3389283 z M 8.091064,15.51562 c -0.276672,0 -0.501892,0.23145 -0.501892,0.51563 0,0.28418 0.225037,0.51544 0.501526,0.51563 h 3.66e-4 5.5e-4 c 0.276489,-1.9e-4 0.501526,-0.23145 0.501526,-0.51563 0,-0.28418 -0.22522,-0.51563 -0.502076,-0.51563 z m 7.395816,0 c -0.27667,0 -0.50189,0.23145 -0.50189,0.51563 0,0.28418 0.22503,0.51544 0.50152,0.51563 h 3.7e-4 5.5e-4 c 0.27667,-1.9e-4 0.50152,-0.23145 0.50152,-0.51563 0,-0.28418 -0.22522,-0.51563 -0.50207,-0.51563 z" /></clipPath><clipPath
       id="clipPath26"
       clipPathUnits="userSpaceOnUse"><path
         id="path24"
         d="M -806,-1155 H 457 V 108 H -806 Z" /></clipPath><clipPath
       id="clipPath36"
       clipPathUnits="userSpaceOnUse"><path
         style="clip-rule:evenodd"
         id="path34"
         d="m 12.25781,19.21875 c 0,0.25873 -0.21002,0.46875 -0.46875,0.46875 h -3.6e-4 c -0.25891,0 -0.46857,-0.21002 -0.46857,-0.46875 0,-0.25891 0.21002,-0.46875 0.46893,-0.46875 0.25891,0 0.46875,0.20984 0.46875,0.46875 z" /></clipPath><clipPath
       id="clipPath42"
       clipPathUnits="userSpaceOnUse"><path
         id="path40"
         d="M -806,-1155 H 457 V 108 H -806 Z" /></clipPath><clipPath
       id="clipPath52"
       clipPathUnits="userSpaceOnUse"><path
         style="clip-rule:evenodd"
         id="path50"
         d="m 17.33588,0.9375 h -3.7e-4 C 17.0766,0.9375 16.86694,0.7276612 16.86694,0.46875 16.86694,0.2098388 17.07697,0 17.33588,0 c 0.25891,0 0.46875,0.2098388 0.46875,0.46875 0,0.2589112 -0.21003,0.46875 -0.46875,0.46875 z" /></clipPath><clipPath
       id="clipPath58"
       clipPathUnits="userSpaceOnUse"><path
         id="path56"
         d="M -806,-1155 H 457 V 108 H -806 Z" /></clipPath><clipPath
       id="clipPath68"
       clipPathUnits="userSpaceOnUse"><path
         style="clip-rule:evenodd"
         id="path66"
         d="m 10.88269,3.462891 c 0.29242,0.014648 0.59473,0.030029 0.90637,0.030029 0.31146,0 0.61396,-0.015381 0.90637,-0.030029 0.26606,-0.01355 0.52186,-0.026368 0.7641,-0.026368 0.61286,0 1.13855,0.082581 1.52362,0.448609 0.32593,0.309997 0.48432,0.767944 0.48432,1.40039 0,2.053162 -1.65015,3.723633 -3.67841,3.723633 -2.02844,0 -3.678586,-1.670471 -3.678586,-3.723633 0,-0.632446 0.158569,-1.090393 0.484497,-1.40039 C 9.132202,3.374451 9.943359,3.415283 10.88269,3.462891 Z m 0.90637,4.608947 c 1.51136,0 2.74091,-1.249878 2.74091,-2.786316 0,-0.356689 -0.06482,-0.599121 -0.19281,-0.720886 C 14.09143,4.330994 13.43628,4.364136 12.74268,4.399109 12.43872,4.41449 12.12433,4.43042 11.78906,4.43042 11.4538,4.43042 11.1394,4.41449 10.83545,4.399109 10.14166,4.364136 9.486694,4.330994 9.240967,4.564636 9.112976,4.686401 9.047974,4.928833 9.047974,5.285522 c 0,1.536438 1.229736,2.786316 2.741086,2.786316 z" /></clipPath><clipPath
       id="clipPath74"
       clipPathUnits="userSpaceOnUse"><path
         id="path72"
         d="M -806,-1155 H 457 V 108 H -806 Z" /></clipPath><clipPath
       id="clipPath84"
       clipPathUnits="userSpaceOnUse"><path
         style="clip-rule:evenodd"
         id="path82"
         d="m 10.32751,10.92407 c 0,-0.86957 0.65552,-1.576902 1.46155,-1.576902 0.80585,0 1.46155,0.707332 1.46155,1.576902 0,0.86957 -0.6557,1.57691 -1.46155,1.57691 -0.80603,0 -1.46155,-0.70734 -1.46155,-1.57691 z m 1.46155,0.63941 c 0.284,0 0.52405,-0.29279 0.52405,-0.63941 0,-0.34662 -0.24005,-0.6394 -0.52405,-0.6394 -0.28418,0 -0.52405,0.29278 -0.52405,0.6394 0,0.34662 0.23987,0.63941 0.52405,0.63941 z" /></clipPath><clipPath
       id="clipPath90"
       clipPathUnits="userSpaceOnUse"><path
         id="path88"
         d="M -806,-1155 H 457 V 108 H -806 Z" /></clipPath><clipPath
       id="clipPath100"
       clipPathUnits="userSpaceOnUse"><path
         style="clip-rule:evenodd"
         id="path98"
         d="m 9.452637,10.45001 c -0.216065,0.3794 -0.571839,0.659 -0.975952,0.7674 C 8.106079,11.31665 7.724487,11.26758 7.402222,11.07898 6.707886,10.6723 6.490723,9.730591 6.918274,8.979492 7.134338,8.600098 7.490112,8.320496 7.894226,8.212097 8.019653,8.178589 8.145996,8.161926 8.271057,8.161926 c 0.244995,0 0.484314,0.063721 0.697632,0.188599 0.694336,0.406494 0.911499,1.348389 0.483948,2.099485 z M 8.494995,9.159485 C 8.361511,9.081299 8.226563,9.093567 8.136841,9.117737 7.973145,9.161499 7.825928,9.280151 7.733093,9.443298 7.558228,9.750549 7.622314,10.12134 7.875916,10.26984 c 0.077087,0.04504 0.154541,0.06006 0.223571,0.06006 0.050721,0 0.09668,-0.0081 0.134583,-0.01813 C 8.397949,10.26782 8.544983,10.14917 8.637817,9.986206 8.812683,9.678955 8.748596,9.308167 8.494995,9.159485 Z" /></clipPath><clipPath
       id="clipPath106"
       clipPathUnits="userSpaceOnUse"><path
         id="path104"
         d="M -806,-1155 H 457 V 108 H -806 Z" /></clipPath><clipPath
       id="clipPath116"
       clipPathUnits="userSpaceOnUse"><path
         style="clip-rule:evenodd"
         id="path114"
         d="m 16.17572,11.07898 c -0.32208,0.1886 -0.70367,0.23767 -1.07428,0.13843 -0.4043,-0.1084 -0.76007,-0.388 -0.97595,-0.7674 -0.42755,-0.751096 -0.21057,-1.692808 0.48395,-2.099485 0.21331,-0.124878 0.45245,-0.188599 0.69744,-0.188599 0.12507,0 0.25159,0.016663 0.37702,0.050171 0.40411,0.108399 0.75989,0.388001 0.97577,0.767395 0.42755,0.751099 0.21057,1.692808 -0.48395,2.099488 z M 15.84503,9.443298 C 15.7522,9.280151 15.60498,9.161499 15.4411,9.117737 15.35175,9.09375 15.21661,9.081482 15.08313,9.159668 c -0.25378,0.148499 -0.31787,0.519287 -0.14301,0.826538 0.09284,0.163144 0.24006,0.281804 0.40394,0.325564 0.0379,0.01025 0.08386,0.01831 0.13439,0.01831 0.06904,0 0.14649,-0.01502 0.22358,-0.06006 0.25378,-0.14868 0.31787,-0.519471 0.143,-0.826722 z" /></clipPath><clipPath
       id="clipPath122"
       clipPathUnits="userSpaceOnUse"><path
         id="path120"
         d="M -806,-1155 H 457 V 108 H -806 Z" /></clipPath></defs><g
     transform="matrix(1.3333333,0,0,-1.3333333,0,32)"
     id="g10"><g
       id="g12" /><g
       id="g14"><g
         clip-path="url(#clipPath20)"
         id="g16"><g
           clip-path="url(#clipPath26)"
           id="g22"><path
             id="path28"
             style="fill:#01748e;fill-opacity:1;fill-rule:nonzero;stroke:none"
             d="m -2.00009,29 h 27.5783 V -5 h -27.5783 z" /></g></g></g><g
       id="g30"><g
         clip-path="url(#clipPath36)"
         id="g32"><g
           clip-path="url(#clipPath42)"
           id="g38"><path
             id="path44"
             style="fill:#01748e;fill-opacity:1;fill-rule:nonzero;stroke:none"
             d="M 6.320129,24.6875 H 17.25781 V 13.75 H 6.320129 Z" /></g></g></g><g
       id="g46"><g
         clip-path="url(#clipPath52)"
         id="g48"><g
           clip-path="url(#clipPath58)"
           id="g54"><path
             id="path60"
             style="fill:#01748e;fill-opacity:1;fill-rule:nonzero;stroke:none"
             d="M 11.86694,5.9375 H 22.80463 V -5 H 11.86694 Z" /></g></g></g><g
       id="g62"><g
         clip-path="url(#clipPath68)"
         id="g64"><g
           clip-path="url(#clipPath74)"
           id="g70"><path
             id="path76"
             style="fill:#01748e;fill-opacity:1;fill-rule:nonzero;stroke:none"
             d="M 3.110474,14.00916 H 20.46747 V -1.563554 H 3.110474 Z" /></g></g></g><g
       id="g78"><g
         clip-path="url(#clipPath84)"
         id="g80"><g
           clip-path="url(#clipPath90)"
           id="g86"><path
             id="path92"
             style="fill:#01748e;fill-opacity:1;fill-rule:nonzero;stroke:none"
             d="M 5.327515,17.50098 H 18.25061 V 4.347168 H 5.327515 Z" /></g></g></g><g
       id="g94"><g
         clip-path="url(#clipPath100)"
         id="g96"><g
           clip-path="url(#clipPath106)"
           id="g102"><path
             id="path108"
             style="fill:#01748e;fill-opacity:1;fill-rule:nonzero;stroke:none"
             d="M 1.699081,16.26755 H 14.67183 V 3.161926 H 1.699081 Z" /></g></g></g><g
       id="g110"><g
         clip-path="url(#clipPath116)"
         id="g112"><g
           clip-path="url(#clipPath122)"
           id="g118"><path
             id="path124"
             style="fill:#01748e;fill-opacity:1;fill-rule:nonzero;stroke:none"
             d="M 8.906252,16.26755 H 21.8789 V 3.161926 H 8.906252 Z" /></g></g></g></g></svg>