<?xml version="1.0" encoding="UTF-8" standalone="no"?>
<svg
   xmlns:dc="http://purl.org/dc/elements/1.1/"
   xmlns:cc="http://creativecommons.org/ns#"
   xmlns:rdf="http://www.w3.org/1999/02/22-rdf-syntax-ns#"
   xmlns:svg="http://www.w3.org/2000/svg"
   xmlns="http://www.w3.org/2000/svg"
   viewBox="0 0 32 32"
   height="32"
   width="32"
   xml:space="preserve"
   id="svg2"
   version="1.1"><metadata
     id="metadata8"><rdf:RDF><cc:Work
         rdf:about=""><dc:format>image/svg+xml</dc:format><dc:type
           rdf:resource="http://purl.org/dc/dcmitype/StillImage" /></cc:Work></rdf:RDF></metadata><defs
     id="defs6"><clipPath
       id="clipPath20"
       clipPathUnits="userSpaceOnUse"><path
         style="clip-rule:evenodd"
         id="path18"
         d="m 20.66447,7.92014 c -0.25839,0 -0.46784,-0.20945 -0.46784,-0.467836 0,-3.526269 -2.86882,-6.395088 -6.39509,-6.395088 -3.52627,0 -6.395084,2.868819 -6.395084,6.395088 v 0.981754 l 2.597474,4.777682 c 1.86545,1.30335 2.75237,3.65095 2.4705,6.51734 0.66021,0.21726 1.13839,0.83929 1.13839,1.57132 0,0.91204 -0.74199,1.65403 -1.65404,1.65403 -0.91204,0 -1.65403,-0.74199 -1.65403,-1.65403 0,-0.76632 0.52393,-1.4124 1.23228,-1.59939 0.27312,-2.61446 -0.51813,-4.72 -2.198317,-5.8103 C 7.86924,12.93717 5.949427,12.92519 4.44786,13.86026 c -1.737965,1.08229 -2.58938,3.19962 -2.364772,5.8428 0.704701,0.18943 1.225123,0.83364 1.225123,1.59734 0,0.91204 -0.741989,1.65403 -1.654036,1.65403 C 0.7421287,22.95443 0,22.21249 0,21.30044 0,20.56552 0.4819181,19.94133 1.146199,19.72646 0.9075088,16.74657 1.916725,14.33483 3.952187,13.06667 L 6.470737,8.434105 V 7.452304 c 0,-1.950503 0.764631,-3.789333 2.153029,-5.177731 1.388394,-1.3883976 3.227224,-2.1530291 5.177734,-2.1530291 1.95055,0 3.78938,0.7646315 5.17777,2.1530291 1.3884,1.388398 2.15303,3.227181 2.15303,5.177731 0,0.258386 -0.20945,0.467836 -0.46783,0.467836 z m -9.42414,13.3803 c 0,0.39612 0.32224,0.71837 0.71836,0.71837 0.39612,0 0.71836,-0.32225 0.71836,-0.71837 0,-0.39611 -0.32224,-0.7184 -0.71836,-0.7184 -0.39612,0 -0.71836,0.32229 -0.71836,0.7184 z m -10.3046575,0 c 0,0.39612 0.3222455,0.71837 0.7183625,0.71837 0.396117,0 0.718363,-0.32225 0.718363,-0.71837 0,-0.39611 -0.322246,-0.7184 -0.718363,-0.7184 -0.396117,0 -0.7183625,0.32229 -0.7183625,0.7184 z M 5.355322,12.44487 c 0.496935,-0.14167 1.009356,-0.21268 1.521216,-0.21264 0.565099,0 1.129263,0.08707 1.670924,0.25956 L 6.93862,9.532538 Z" /></clipPath><clipPath
       id="clipPath26"
       clipPathUnits="userSpaceOnUse"><path
         id="path24"
         d="M -713,-1155 H 550 V 108 H -713 Z" /></clipPath><clipPath
       id="clipPath36"
       clipPathUnits="userSpaceOnUse"><path
         style="clip-rule:evenodd"
         id="path34"
         d="m 20.66447,9.205193 c -0.25839,0 -0.46784,-0.20945 -0.46784,-0.467836 v -0.00655 c 0,-0.258386 0.20945,-0.467836 0.46784,-0.467836 0.25838,0 0.46783,0.20945 0.46783,0.467836 v 0.00655 c 0,0.258386 -0.20945,0.467836 -0.46783,0.467836 z" /></clipPath><clipPath
       id="clipPath42"
       clipPathUnits="userSpaceOnUse"><path
         id="path40"
         d="M -713,-1155 H 550 V 108 H -713 Z" /></clipPath><clipPath
       id="clipPath52"
       clipPathUnits="userSpaceOnUse"><path
         style="clip-rule:evenodd"
         id="path50"
         d="m 20.66451,17.53965 c -1.81342,0 -3.28874,-1.48047 -3.28874,-3.30021 0,-1.66031 1.22835,-3.03757 2.82086,-3.26625 v -0.94128 c 0,-0.25839 0.20945,-0.46784 0.46784,-0.46784 0.25838,0 0.46783,0.20945 0.46783,0.46784 v 0.94124 c 1.59257,0.22867 2.82096,1.60594 2.82096,3.26629 0,1.81974 -1.47532,3.30021 -3.28875,3.30021 z m 0,-3.87729 c -0.31588,0 -0.57286,0.25886 -0.57286,0.57708 0,0.31822 0.25698,0.57707 0.57286,0.57707 0.31589,0 0.57287,-0.2589 0.57287,-0.57707 0,-0.31822 -0.25698,-0.57708 -0.57287,-0.57708 z m 0.46779,-1.7404 v 0.87954 c 0.60347,0.19789 1.04075,0.76753 1.04075,1.43794 0,0.83415 -0.67672,1.51275 -1.50854,1.51275 -0.83181,0 -1.50853,-0.67865 -1.50853,-1.51275 0,-0.67036 0.43724,-1.23995 1.04065,-1.4379 v -0.87958 c -1.0741,0.21867 -1.88519,1.1746 -1.88519,2.31748 0,1.30381 1.05558,2.36454 2.35307,2.36454 1.2975,0 2.35308,-1.06073 2.35308,-2.36454 0,-1.14293 -0.81113,-2.0989 -1.88529,-2.31748 z" /></clipPath><clipPath
       id="clipPath58"
       clipPathUnits="userSpaceOnUse"><path
         id="path56"
         d="M -713,-1155 H 550 V 108 H -713 Z" /></clipPath><clipPath
       id="clipPath68"
       clipPathUnits="userSpaceOnUse"><path
         style="clip-rule:evenodd"
         id="path66"
         d="m 13.80154,7.481404 c -1.37558,0 -2.49469,-1.122808 -2.49469,-2.502971 0,-1.38007 1.11911,-2.502924 2.49469,-2.502924 1.37558,0 2.49474,1.122807 2.49474,2.502924 0,1.380163 -1.11916,2.502971 -2.49474,2.502971 z m 0,-4.070176 c -0.85965,0 -1.55901,0.703064 -1.55901,1.567252 0,0.864187 0.69936,1.567298 1.55901,1.567298 0.85965,0 1.55907,-0.703065 1.55907,-1.567298 0,-0.864188 -0.69942,-1.567252 -1.55907,-1.567252 z" /></clipPath><clipPath
       id="clipPath74"
       clipPathUnits="userSpaceOnUse"><path
         id="path72"
         d="M -713,-1155 H 550 V 108 H -713 Z" /></clipPath><clipPath
       id="clipPath84"
       clipPathUnits="userSpaceOnUse"><path
         style="clip-rule:evenodd"
         id="path82"
         d="m 16.7935,10.06222 c -0.81998,0 -1.48711,-0.705448 -1.48711,-1.572489 0,-0.867088 0.66713,-1.572538 1.48711,-1.572538 0.82002,0 1.4872,0.70545 1.4872,1.572538 0,0.867088 -0.66718,1.572489 -1.4872,1.572489 z m 0,-2.209308 c -0.3041,0 -0.55144,0.285708 -0.55144,0.636866 0,0.351111 0.24734,0.636818 0.55144,0.636818 0.30409,0 0.55153,-0.285707 0.55153,-0.636818 0,-0.351158 -0.24744,-0.636866 -0.55153,-0.636866 z" /></clipPath><clipPath
       id="clipPath90"
       clipPathUnits="userSpaceOnUse"><path
         id="path88"
         d="M -713,-1155 H 550 V 108 H -713 Z" /></clipPath><clipPath
       id="clipPath100"
       clipPathUnits="userSpaceOnUse"><path
         style="clip-rule:evenodd"
         id="path98"
         d="m 13.83453,11.44313 c -0.82003,0 -1.48711,-0.70545 -1.48711,-1.572534 0,-0.867087 0.66713,-1.572538 1.48711,-1.572538 0.82002,0 1.48715,0.705451 1.48715,1.572538 0,0.867084 -0.66713,1.572534 -1.48715,1.572534 z m 0,-2.209399 c -0.30405,0 -0.55144,0.285661 -0.55144,0.636865 0,0.351154 0.24734,0.636864 0.55144,0.636864 0.30409,0 0.55148,-0.28571 0.55148,-0.636864 0,-0.351157 -0.24739,-0.636865 -0.55148,-0.636865 z" /></clipPath><clipPath
       id="clipPath106"
       clipPathUnits="userSpaceOnUse"><path
         id="path104"
         d="M -713,-1155 H 550 V 108 H -713 Z" /></clipPath><clipPath
       id="clipPath116"
       clipPathUnits="userSpaceOnUse"><path
         style="clip-rule:evenodd"
         id="path114"
         d="m 10.80959,10.06227 c -0.819976,0 -1.48711,-0.705451 -1.48711,-1.572492 0,-0.867088 0.667134,-1.572538 1.48711,-1.572538 0.82002,0 1.48716,0.70545 1.48716,1.572538 0,0.867041 -0.66714,1.572492 -1.48716,1.572492 z m 0,-2.209405 c -0.30405,0 -0.55144,0.285708 -0.55144,0.636866 0,0.351158 0.24739,0.636819 0.55144,0.636819 0.30409,0 0.55149,-0.285708 0.55149,-0.636819 0,-0.351158 -0.2474,-0.636866 -0.55149,-0.636866 z" /></clipPath><clipPath
       id="clipPath122"
       clipPathUnits="userSpaceOnUse"><path
         id="path120"
         d="M -713,-1155 H 550 V 108 H -713 Z" /></clipPath></defs><g
     transform="matrix(1.3333333,0,0,-1.3333333,0,32)"
     id="g10"><g
       id="g12" /><g
       id="g14"><g
         clip-path="url(#clipPath20)"
         id="g16"><g
           clip-path="url(#clipPath26)"
           id="g22"><path
             id="path28"
             style="fill:#01748e;fill-opacity:1;fill-rule:nonzero;stroke:none"
             d="M -5,27.95443 H 26.1323 V -4.878456 H -5 Z" /></g></g></g><g
       id="g30"><g
         clip-path="url(#clipPath36)"
         id="g32"><g
           clip-path="url(#clipPath42)"
           id="g38"><path
             id="path44"
             style="fill:#01748e;fill-opacity:1;fill-rule:nonzero;stroke:none"
             d="M 15.19663,14.20519 H 26.1323 V 3.262971 H 15.19663 Z" /></g></g></g><g
       id="g46"><g
         clip-path="url(#clipPath52)"
         id="g48"><g
           clip-path="url(#clipPath58)"
           id="g54"><path
             id="path60"
             style="fill:#01748e;fill-opacity:1;fill-rule:nonzero;stroke:none"
             d="M 12.37577,22.53965 H 28.95326 V 4.56407 H 12.37577 Z" /></g></g></g><g
       id="g62"><g
         clip-path="url(#clipPath68)"
         id="g64"><g
           clip-path="url(#clipPath74)"
           id="g70"><path
             id="path76"
             style="fill:#01748e;fill-opacity:1;fill-rule:nonzero;stroke:none"
             d="M 6.306854,12.4814 H 21.29628 V -2.524491 H 6.306854 Z" /></g></g></g><g
       id="g78"><g
         clip-path="url(#clipPath84)"
         id="g80"><g
           clip-path="url(#clipPath90)"
           id="g86"><path
             id="path92"
             style="fill:#01748e;fill-opacity:1;fill-rule:nonzero;stroke:none"
             d="M 10.30639,15.06222 H 23.2807 V 1.917193 H 10.30639 Z" /></g></g></g><g
       id="g94"><g
         clip-path="url(#clipPath100)"
         id="g96"><g
           clip-path="url(#clipPath106)"
           id="g102"><path
             id="path108"
             style="fill:#01748e;fill-opacity:1;fill-rule:nonzero;stroke:none"
             d="M 7.347415,16.44313 H 20.32168 V 3.298058 H 7.347415 Z" /></g></g></g><g
       id="g110"><g
         clip-path="url(#clipPath116)"
         id="g112"><g
           clip-path="url(#clipPath122)"
           id="g118"><path
             id="path124"
             style="fill:#01748e;fill-opacity:1;fill-rule:nonzero;stroke:none"
             d="M 4.32248,15.06227 H 17.29675 V 1.91724 H 4.32248 Z" /></g></g></g></g></svg>