<?xml version="1.0" encoding="UTF-8" standalone="no"?>
<svg
   xmlns:dc="http://purl.org/dc/elements/1.1/"
   xmlns:cc="http://creativecommons.org/ns#"
   xmlns:rdf="http://www.w3.org/1999/02/22-rdf-syntax-ns#"
   xmlns:svg="http://www.w3.org/2000/svg"
   xmlns="http://www.w3.org/2000/svg"
   viewBox="0 0 30.666668 30.666668"
   height="30.666668"
   width="30.666668"
   xml:space="preserve"
   id="svg2"
   version="1.1"><metadata
     id="metadata8"><rdf:RDF><cc:Work
         rdf:about=""><dc:format>image/svg+xml</dc:format><dc:type
           rdf:resource="http://purl.org/dc/dcmitype/StillImage" /></cc:Work></rdf:RDF></metadata><defs
     id="defs6"><clipPath
       id="clipPath20"
       clipPathUnits="userSpaceOnUse"><path
         style="clip-rule:evenodd"
         id="path18"
         d="M 9.499923,2 C 9.29067,2 9.099147,2.135649 9.028617,2.332302 8.959256,2.526226 9.018875,2.749384 9.176107,2.8825 9.340548,3.021463 9.581169,3.038809 9.764119,2.925767 9.939081,2.817599 10.03104,2.60477 9.990518,2.403245 9.943952,2.1719 9.736258,2 9.499923,2 Z" /></clipPath><clipPath
       id="clipPath26"
       clipPathUnits="userSpaceOnUse"><path
         id="path24"
         d="M -139,-645 H 1124 V 618 H -139 Z" /></clipPath><clipPath
       id="clipPath36"
       clipPathUnits="userSpaceOnUse"><path
         style="clip-rule:evenodd"
         id="path34"
         d="m 14.66559,5 c -1.14508,0 -3.15458,0.471469 -5.689984,2.99991 -2.49149,2.48661 -3.20066,4.03732 -2.91692,6.38078 0.032169,0.29009 0.104641,0.58001 0.221209,0.88687 5.42e-4,0.0016 0.00108,0.0032 0.00181,0.0049 0.12434,0.31678 0.298018,0.62202 0.502238,0.88236 0.010663,0.01388 0.02241,0.02705 0.0347,0.03967 l 0.270908,0.2744 C 7.425699,16.80961 7.874622,16.9982 8.353727,17 h 0.00723 c 0.476575,0 0.924053,-0.1848 1.261288,-0.52105 l 1.016226,-1.01379 c 0.69561,-0.69395 0.69561,-1.82295 0,-2.5169 l -0.06741,-0.06725 c -0.0034,-0.0032 -0.0069,-0.0067 -0.01031,-0.0099 l -0.39235,-0.3678 c 0.30669,-0.55639 0.65838,-1.18615 1.39683,-1.92319 0.74134,-0.73957 1.37623,-1.087537 1.93612,-1.394578 0.0092,-0.00505 0.01843,-0.010096 0.02747,-0.014964 l 0.44838,0.447129 c 0.69562,0.693773 1.82714,0.693773 2.52276,0 L 17.4775,8.642477 C 17.81655,8.304246 18.00197,7.854773 18,7.376454 17.998,6.898314 17.8086,6.450284 17.46684,6.115118 L 17.19142,5.845037 C 17.17931,5.833138 17.16629,5.821779 17.15274,5.811142 16.89033,5.605427 16.58436,5.431443 16.26809,5.308303 15.93085,5.17813 15.63717,5.098981 15.36915,5.065988 l -0.0094,-0.0018 C 15.18662,5.029748 14.95348,5 14.66559,5 Z m 0.72682,0.038479 c -0.0039,-3.9e-4 -0.0082,-7.81e-4 -0.01211,-0.00117 0.002,0 0.0062,3.91e-4 0.01211,0.00117 z M 7.1472,14.93672 C 7.059005,14.70396 7.004788,14.48815 6.981474,14.27666 6.981293,14.27504 6.980932,14.27342 6.980751,14.27179 6.763157,12.47643 7.104368,11.17795 9.632184,8.655098 12.56772,5.727486 14.61968,5.861985 15.17867,5.972866 c 0.02494,0.00487 0.04663,0.0092 0.07211,0.012079 0.18976,0.022177 0.4135,0.083477 0.68079,0.186605 0.22338,0.087262 0.44061,0.209141 0.62803,0.353015 l 0.25609,0.251149 c 0.16391,0.160642 0.25464,0.375372 0.25555,0.604706 0.0011,0.229154 -0.08802,0.444785 -0.25049,0.606869 l -0.97755,0.97539 c -0.33344,0.332642 -0.87598,0.332642 -1.20942,0 L 13.94033,8.271072 C 13.79467,8.125755 13.57057,8.093663 13.38984,8.191743 13.36743,8.204002 13.3443,8.216082 13.3208,8.228522 13.28014,8.249797 13.23839,8.271793 13.19646,8.295231 13.15146,8.320292 13.10321,8.346615 13.05405,8.373659 12.47013,8.693681 11.74343,9.09213 10.90829,9.925088 10.06647,10.76526 9.665076,11.49382 9.342299,12.07924 9.31772,12.12377 9.293503,12.16776 9.269467,12.21085 9.243261,12.25719 9.225369,12.29469 9.210911,12.3248 c -0.00759,0.01587 -0.015,0.03173 -0.025121,0.05012 -0.102652,0.18534 -0.066145,0.41648 0.088375,0.56144 l 0.645193,0.60488 0.06235,0.0622 c 0.161572,0.16119 0.250482,0.37538 0.250482,0.60327 0,0.22789 -0.08891,0.44208 -0.250482,0.60326 L 8.965485,15.82376 C 8.803012,15.98585 8.585599,16.07275 8.357342,16.07365 8.127639,16.07275 7.912394,15.98224 7.751186,15.81908 L 7.499796,15.56414 C 7.357565,15.37844 7.235936,15.16226 7.1472,14.93672 Z" /></clipPath><clipPath
       id="clipPath42"
       clipPathUnits="userSpaceOnUse"><path
         id="path40"
         d="M -139,-645 H 1124 V 618 H -139 Z" /></clipPath><clipPath
       id="clipPath52"
       clipPathUnits="userSpaceOnUse"><path
         style="clip-rule:evenodd"
         id="path50"
         d="m 11.53971,2 c -0.01,0 -0.06687,5.16e-4 -0.11948,8.6e-4 -0.04074,3.43e-4 -0.07891,6.87e-4 -0.08647,6.87e-4 -0.24378,5.16e-4 -0.44132,0.198393 -0.44097,0.442173 3.4e-4,0.243779 0.1977,0.44114 0.44131,0.44114 0.0062,0 0.04796,-1.72e-4 0.09301,-6.87e-4 0.04848,-3.44e-4 0.10091,-6.88e-4 0.11106,-6.88e-4 4.72962,0.019771 8.57852,3.885168 8.57852,8.616515 0,4.75129 -3.8654,8.61669 -8.61669,8.61669 -4.751289,0 -8.616687,-3.8654 -8.616687,-8.61669 0,-1.849491 0.576784,-3.611647 1.667774,-5.096328 L 5.056353,5.716345 C 5.136123,5.607693 5.16191,5.468611 5.126495,5.338642 L 4.69842,3.766626 6.366366,4.321405 C 6.482582,4.360258 6.609457,4.348911 6.716906,4.290459 L 7.559131,3.832471 C 7.77334,3.715911 7.852594,3.447719 7.736034,3.233338 7.619474,3.019128 7.35111,2.939874 7.136901,3.056434 L 6.463327,3.422791 4.195045,2.668072 C 4.040491,2.616669 3.870465,2.654319 3.752013,2.766409 3.633734,2.878328 3.586628,3.046119 3.629436,3.203252 L 4.218254,5.364945 3.839347,5.880526 C 2.636095,7.51787 2,9.461056 2,11.5 2,16.73833 6.261668,21 11.5,21 16.73833,21 21,16.73833 21,11.5 21,6.283501 16.75656,2.022005 11.54057,2 c -3.4e-4,0 -5.1e-4,0 -8.6e-4,0 z" /></clipPath><clipPath
       id="clipPath58"
       clipPathUnits="userSpaceOnUse"><path
         id="path56"
         d="M -139,-645 H 1124 V 618 H -139 Z" /></clipPath><clipPath
       id="clipPath68"
       clipPathUnits="userSpaceOnUse"><path
         style="clip-rule:evenodd"
         id="path66"
         d="M 11.5,0 C 9.644691,0 7.807281,0.450798 6.173775,1.305191 L 1.683517,0.09914397 C 1.530502,0.05808259 1.367134,0.1001968 1.253426,0.2102204 1.139542,0.3200684 1.091637,0.4818573 1.127258,0.6361008 L 2.105537,4.865601 C 0.7273483,6.812508 0,9.101768 0,11.5 0,14.57171 1.19622,17.45969 3.368263,19.63174 5.540306,21.80378 8.428291,23 11.5,23 14.57171,23 17.45969,21.80378 19.63174,19.63174 21.80378,17.45969 23,14.57171 23,11.5 23,8.428291 21.80378,5.540306 19.63174,3.368263 17.45969,1.19622 14.57171,0 11.5,0 Z M 6.228874,2.237671 c 0.074578,0 0.148628,-0.018601 0.215309,-0.054749 C 7.985565,1.344673 9.733833,0.901596 11.5,0.901596 c 5.84388,0 10.5984,4.754524 10.5984,10.598404 0,5.84388 -4.75452,10.5984 -10.5984,10.5984 C 5.65612,22.0984 0.901596,17.34388 0.901596,11.5 0.901596,9.225304 1.611397,7.057297 2.95414,5.230415 3.032051,5.124428 3.059776,4.989838 3.030121,4.86174 L 2.175026,1.16481 6.111832,2.222229 c 0.038429,0.010353 0.077736,0.015442 0.117042,0.015442 z" /></clipPath><clipPath
       id="clipPath74"
       clipPathUnits="userSpaceOnUse"><path
         id="path72"
         d="M -139,-645 H 1124 V 618 H -139 Z" /></clipPath></defs><g
     transform="matrix(1.3333333,0,0,-1.3333333,0,30.666667)"
     id="g10"><g
       id="g12" /><g
       id="g14"><g
         clip-path="url(#clipPath20)"
         id="g16"><g
           clip-path="url(#clipPath26)"
           id="g22"><path
             id="path28"
             style="fill:#fa9c93;fill-opacity:1;fill-rule:nonzero;stroke:none"
             d="M 4,8 H 15 V -3 H 4 Z" /></g></g></g><g
       id="g30"><g
         clip-path="url(#clipPath36)"
         id="g32"><g
           clip-path="url(#clipPath42)"
           id="g38"><path
             id="path44"
             style="fill:#fa9c93;fill-opacity:1;fill-rule:nonzero;stroke:none"
             d="M 1,22 H 23.00002 V 0 H 1 Z" /></g></g></g><g
       id="g46"><g
         clip-path="url(#clipPath52)"
         id="g48"><g
           clip-path="url(#clipPath58)"
           id="g54"><path
             id="path60"
             style="fill:#fa9c93;fill-opacity:1;fill-rule:nonzero;stroke:none"
             d="M -3,26 H 26 V -3 H -3 Z" /></g></g></g><g
       id="g62"><g
         clip-path="url(#clipPath68)"
         id="g64"><g
           clip-path="url(#clipPath74)"
           id="g70"><path
             id="path76"
             style="fill:#fa9c93;fill-opacity:1;fill-rule:nonzero;stroke:none"
             d="M -5,28 H 28 V -5 H -5 Z" /></g></g></g></g></svg>