<?xml version="1.0" encoding="UTF-8" standalone="no"?>
<svg
   xmlns:dc="http://purl.org/dc/elements/1.1/"
   xmlns:cc="http://creativecommons.org/ns#"
   xmlns:rdf="http://www.w3.org/1999/02/22-rdf-syntax-ns#"
   xmlns:svg="http://www.w3.org/2000/svg"
   xmlns="http://www.w3.org/2000/svg"
   viewBox="0 0 218.66667 37.333332"
   height="37.333332"
   width="218.66667"
   xml:space="preserve"
   id="svg2"
   version="1.1"><metadata
     id="metadata8"><rdf:RDF><cc:Work
         rdf:about=""><dc:format>image/svg+xml</dc:format><dc:type
           rdf:resource="http://purl.org/dc/dcmitype/StillImage" /></cc:Work></rdf:RDF></metadata><defs
     id="defs6"><clipPath
       id="clipPath20"
       clipPathUnits="userSpaceOnUse"><path
         style="clip-rule:evenodd"
         id="path18"
         d="m 54.5039,2.5339 v 23.366 h 3.051 v -20.8 h 12.252 v -2.566 z" /></clipPath><clipPath
       id="clipPath26"
       clipPathUnits="userSpaceOnUse"><path
         id="path24"
         d="M -97,-521 H 278 V 146 H -97 Z" /></clipPath><clipPath
       id="clipPath36"
       clipPathUnits="userSpaceOnUse"><path
         style="clip-rule:evenodd"
         id="path34"
         d="m 76.919,25.5374 h 3.051 v -15.013 c 0,-2.195 0.214,-3.668 0.642,-4.419 0.427,-0.751 1.093,-1.319 1.997,-1.707 0.905,-0.387 1.914,-0.581 3.027,-0.581 1.066,0 2.013,0.194 2.846,0.581 0.832,0.388 1.449,1.005 1.851,1.853 0.404,0.848 0.606,2.627 0.606,5.339 v 13.947 h 2.808 v -14.746 c 0,-2.729 -0.314,-4.646 -0.943,-5.751 -0.629,-1.106 -1.537,-1.978 -2.725,-2.615 -1.185,-0.637 -2.676,-0.956 -4.467,-0.956 -1.663,0 -3.188,0.254 -4.577,0.762 -1.387,0.509 -2.421,1.304 -3.098,2.385 -0.678,1.081 -1.018,2.914 -1.018,5.497 z" /></clipPath><clipPath
       id="clipPath42"
       clipPathUnits="userSpaceOnUse"><path
         id="path40"
         d="M -97,-521 H 278 V 146 H -97 Z" /></clipPath><clipPath
       id="clipPath52"
       clipPathUnits="userSpaceOnUse"><path
         style="clip-rule:evenodd"
         id="path50"
         d="m 114.3184,7.5584 h 2.563 v -0.146 c 0,-0.935 -0.292,-1.879 -0.873,-2.832 -0.582,-0.953 -1.374,-1.651 -2.375,-2.094 -1.001,-0.445 -2.171,-0.666 -3.511,-0.666 -2.709,0 -4.925,1.033 -6.648,3.099 -1.723,2.066 -2.585,5.165 -2.585,9.298 0,4.1 0.859,7.192 2.575,9.274 1.714,2.082 3.941,3.123 6.68,3.123 1.325,0 2.488,-0.226 3.489,-0.678 1.001,-0.452 1.793,-1.162 2.375,-2.131 0.581,-0.969 0.873,-1.896 0.873,-2.784 v -0.146 h -2.563 v 0.146 c 0,0.564 -0.165,1.113 -0.497,1.646 -0.331,0.533 -0.799,0.932 -1.401,1.199 -0.605,0.266 -1.333,0.399 -2.188,0.399 -2.179,0 -3.803,-0.944 -4.87,-2.833 -1.067,-1.889 -1.602,-4.294 -1.602,-7.215 0,-2.954 0.535,-5.372 1.602,-7.252 1.067,-1.881 2.684,-2.821 4.848,-2.821 1.488,0 2.544,0.339 3.17,1.018 0.626,0.677 0.938,1.427 0.938,2.25 z" /></clipPath><clipPath
       id="clipPath58"
       clipPathUnits="userSpaceOnUse"><path
         id="path56"
         d="M -97,-521 H 278 V 146 H -97 Z" /></clipPath><clipPath
       id="clipPath68"
       clipPathUnits="userSpaceOnUse"><path
         style="clip-rule:evenodd"
         id="path66"
         d="m 126.5586,2.5339 h -3.051 v 23.366 h 3.051 v -11.163 l 9.758,11.163 h 3.463 l -9.637,-10.945 11.138,-12.421 h -3.826 l -10.896,12.203 z" /></clipPath><clipPath
       id="clipPath74"
       clipPathUnits="userSpaceOnUse"><path
         id="path72"
         d="M -97,-521 H 278 V 146 H -97 Z" /></clipPath><clipPath
       id="clipPath84"
       clipPathUnits="userSpaceOnUse"><path
         id="path82"
         d="m 145.5815,2.5339 h 18.1105 v 23.366 h -18.1105 z" /></clipPath><clipPath
       id="clipPath90"
       clipPathUnits="userSpaceOnUse"><path
         id="path88"
         d="m 145,2 h 19 v 24 h -19 z" /></clipPath><clipPath
       id="clipPath94"
       clipPathUnits="userSpaceOnUse"><path
         style="clip-rule:evenodd"
         id="path92"
         d="m 156.1865,2.5339 h -3.026 v 11.017 l -7.579,12.349 h 3.535 l 5.859,-9.443 5.763,9.443 h 2.954 l -7.506,-12.349 z" /></clipPath><clipPath
       id="clipPath98"
       clipPathUnits="userSpaceOnUse"><path
         id="path96"
         d="m 145,2 h 19 v 24 h -19 z" /></clipPath><clipPath
       id="clipPath120"
       clipPathUnits="userSpaceOnUse"><path
         style="clip-rule:evenodd"
         id="path118"
         d="m 17.9693,14.0647 c 0,-3.031 3.434,-5.489 5.489,-5.489 1.925,0 5.489,2.458 5.489,5.489 0,3.032 -2.457,3.734 -5.489,3.734 -3.031,0 -5.489,-0.702 -5.489,-3.734" /></clipPath><clipPath
       id="clipPath126"
       clipPathUnits="userSpaceOnUse"><path
         id="path124"
         d="M -97,-521 H 278 V 146 H -97 Z" /></clipPath><clipPath
       id="clipPath136"
       clipPathUnits="userSpaceOnUse"><path
         id="path134"
         d="m 25.1611,14.906 h 15.585 v 13.0935 h -15.585 z" /></clipPath><clipPath
       id="clipPath142"
       clipPathUnits="userSpaceOnUse"><path
         id="path140"
         d="M 25,14 H 41 V 28 H 25 Z" /></clipPath><clipPath
       id="clipPath146"
       clipPathUnits="userSpaceOnUse"><path
         style="clip-rule:evenodd"
         id="path144"
         d="m 25.1611,22.699 c 0,-4.304 4.875,-7.793 7.792,-7.793 2.733,0 7.793,3.489 7.793,7.793 0,4.303 -3.489,5.301 -7.793,5.301 -4.303,0 -7.792,-0.998 -7.792,-5.301" /></clipPath><clipPath
       id="clipPath150"
       clipPathUnits="userSpaceOnUse"><path
         id="path148"
         d="M 25,14 H 41 V 28 H 25 Z" /></clipPath><clipPath
       id="clipPath172"
       clipPathUnits="userSpaceOnUse"><path
         style="clip-rule:evenodd"
         id="path170"
         d="m 43.3057,13.9739 c 0.536,-7.382 -1.475,-13.542 1.937,-13.295 3.414,0.248 5.746,6.433 5.21,13.814 -0.535,7.381 -3.736,13.164 -7.149,12.917 -3.413,-0.248 -0.533,-6.055 0.002,-13.436" /></clipPath><clipPath
       id="clipPath178"
       clipPathUnits="userSpaceOnUse"><path
         id="path176"
         d="M -97,-521 H 278 V 146 H -97 Z" /></clipPath><clipPath
       id="clipPath188"
       clipPathUnits="userSpaceOnUse"><path
         id="path186"
         d="M 0,0.6717207 H 8.868448 V 27.417531 H 0 Z" /></clipPath><clipPath
       id="clipPath194"
       clipPathUnits="userSpaceOnUse"><path
         id="path192"
         d="M -1,0 H 11 V 28 H -1 Z" /></clipPath><clipPath
       id="clipPath198"
       clipPathUnits="userSpaceOnUse"><path
         style="clip-rule:evenodd"
         id="path196"
         d="m 7.2236,13.9739 c -0.536,-7.382 1.475,-13.542 -1.937,-13.295 -3.414,0.248 -5.746,6.433 -5.21,13.814 0.536,7.381 3.736,13.164 7.15,12.917 3.412,-0.248 0.533,-6.055 -0.003,-13.436" /></clipPath><clipPath
       id="clipPath202"
       clipPathUnits="userSpaceOnUse"><path
         id="path200"
         d="M 0,0 H 9 V 28 H 0 Z" /></clipPath><clipPath
       id="clipPath224"
       clipPathUnits="userSpaceOnUse"><path
         style="clip-rule:evenodd"
         id="path222"
         d="m 11.0327,19.0974 c 0.888,0 1.609,0.72 1.609,1.609 0,1.272 1.035,2.307 2.307,2.307 1.271,0 2.306,-1.035 2.306,-2.307 0,-0.889 0.721,-1.609 1.61,-1.609 0.889,0 1.609,0.72 1.609,1.609 0,3.047 -2.478,5.526 -5.525,5.526 -3.047,0 -5.526,-2.479 -5.526,-5.526 0,-0.889 0.72,-1.609 1.61,-1.609" /></clipPath><clipPath
       id="clipPath230"
       clipPathUnits="userSpaceOnUse"><path
         id="path228"
         d="M -97,-521 H 278 V 146 H -97 Z" /></clipPath><clipPath
       id="clipPath240"
       clipPathUnits="userSpaceOnUse"><path
         style="clip-rule:evenodd"
         id="path238"
         d="m 29.7232,10.2595 c -0.589,0 -1.068,-0.478 -1.068,-1.067 0,-0.845 -0.686,-1.531 -1.531,-1.531 -0.844,0 -1.53,0.686 -1.53,1.531 0,0.589 -0.478,1.067 -1.068,1.067 -0.59,0 -1.068,-0.478 -1.068,-1.067 0,-2.023 1.644,-3.667 3.666,-3.667 2.023,0 3.668,1.644 3.668,3.667 0,0.589 -0.479,1.067 -1.069,1.067" /></clipPath><clipPath
       id="clipPath246"
       clipPathUnits="userSpaceOnUse"><path
         id="path244"
         d="M -97,-521 H 278 V 146 H -97 Z" /></clipPath><clipPath
       id="clipPath256"
       clipPathUnits="userSpaceOnUse"><path
         style="clip-rule:evenodd"
         id="path254"
         d="m 23.0733,10.2595 c -0.59,0 -1.069,-0.478 -1.069,-1.067 0,-0.845 -0.686,-1.531 -1.531,-1.531 -0.844,0 -1.53,0.686 -1.53,1.531 0,0.589 -0.478,1.067 -1.069,1.067 -0.589,0 -1.067,-0.478 -1.067,-1.067 0,-2.023 1.644,-3.667 3.666,-3.667 2.021,0 3.667,1.644 3.667,3.667 0,0.589 -0.478,1.067 -1.067,1.067" /></clipPath><clipPath
       id="clipPath262"
       clipPathUnits="userSpaceOnUse"><path
         id="path260"
         d="M -97,-521 H 278 V 146 H -97 Z" /></clipPath><clipPath
       id="clipPath272"
       clipPathUnits="userSpaceOnUse"><path
         style="clip-rule:evenodd"
         id="path270"
         d="m 29.0376,19.0974 c 0.889,0 1.61,0.72 1.61,1.609 0,1.272 1.034,2.307 2.307,2.307 1.271,0 2.306,-1.035 2.306,-2.307 0,-0.889 0.72,-1.609 1.609,-1.609 0.89,0 1.61,0.72 1.61,1.609 0,3.047 -2.479,5.526 -5.525,5.526 -3.047,0 -5.526,-2.479 -5.526,-5.526 0,-0.889 0.72,-1.609 1.609,-1.609" /></clipPath><clipPath
       id="clipPath278"
       clipPathUnits="userSpaceOnUse"><path
         id="path276"
         d="M -97,-521 H 278 V 146 H -97 Z" /></clipPath></defs><g
     transform="matrix(1.3333333,0,0,-1.3333333,0,37.333333)"
     id="g10"><g
       id="g12" /><g
       id="g14"><g
         clip-path="url(#clipPath20)"
         id="g16"><g
           clip-path="url(#clipPath26)"
           id="g22"><path
             id="path28"
             style="fill:#01748e;fill-opacity:1;fill-rule:nonzero;stroke:none"
             d="m 49.5039,30.8999 h 25.303 v -33.366 h -25.303 z" /></g></g></g><g
       id="g30"><g
         clip-path="url(#clipPath36)"
         id="g32"><g
           clip-path="url(#clipPath42)"
           id="g38"><path
             id="path44"
             style="fill:#01748e;fill-opacity:1;fill-rule:nonzero;stroke:none"
             d="M 71.919,30.5374 H 98.747 V -3.5306 H 71.919 Z" /></g></g></g><g
       id="g46"><g
         clip-path="url(#clipPath52)"
         id="g48"><g
           clip-path="url(#clipPath58)"
           id="g54"><path
             id="path60"
             style="fill:#01748e;fill-opacity:1;fill-rule:nonzero;stroke:none"
             d="m 95.8894,31.6144 h 25.992 v -34.794 h -25.992 z" /></g></g></g><g
       id="g62"><g
         clip-path="url(#clipPath68)"
         id="g64"><g
           clip-path="url(#clipPath74)"
           id="g70"><path
             id="path76"
             style="fill:#01748e;fill-opacity:1;fill-rule:nonzero;stroke:none"
             d="m 118.5076,30.8999 h 27.773 v -33.366 h -27.773 z" /></g></g></g><g
       id="g78"><g
         clip-path="url(#clipPath84)"
         id="g80"><g
           id="g86" /><g
           id="g112"><g
             id="g110"
             clip-path="url(#clipPath90)"><g
               id="g100" /><g
               id="g108"><g
                 id="g106"
                 clip-path="url(#clipPath94)"><g
                   id="g104"
                   clip-path="url(#clipPath98)"><path
                     id="path102"
                     style="fill:#01748e;fill-opacity:1;fill-rule:nonzero;stroke:none"
                     d="m 140.5815,30.8999 h 28.111 v -33.366 h -28.111 z" /></g></g></g></g></g></g></g><g
       id="g114"><g
         clip-path="url(#clipPath120)"
         id="g116"><g
           clip-path="url(#clipPath126)"
           id="g122"><path
             id="path128"
             style="fill:#01748e;fill-opacity:1;fill-rule:nonzero;stroke:none"
             d="m 12.9693,22.7987 h 20.978 V 3.5757 h -20.978 z" /></g></g></g><g
       id="g130"><g
         clip-path="url(#clipPath136)"
         id="g132"><g
           id="g138" /><g
           id="g164"><g
             id="g162"
             clip-path="url(#clipPath142)"><g
               id="g152" /><g
               id="g160"><g
                 id="g158"
                 clip-path="url(#clipPath146)"><g
                   id="g156"
                   clip-path="url(#clipPath150)"><path
                     id="path154"
                     style="fill:#fa9c93;fill-opacity:1;fill-rule:nonzero;stroke:none"
                     d="m 20.1611,33 h 25.585 V 9.906 h -25.585 z" /></g></g></g></g></g></g></g><g
       id="g166"><g
         clip-path="url(#clipPath172)"
         id="g168"><g
           clip-path="url(#clipPath178)"
           id="g174"><path
             id="path180"
             style="fill:#01748e;fill-opacity:1;fill-rule:nonzero;stroke:none"
             d="M 36.66136,32.41753 H 55.52935 V -4.328279 H 36.66136 Z" /></g></g></g><g
       id="g182"><g
         clip-path="url(#clipPath188)"
         id="g184"><g
           id="g190" /><g
           id="g216"><g
             id="g214"
             clip-path="url(#clipPath194)"><g
               id="g204" /><g
               id="g212"><g
                 id="g210"
                 clip-path="url(#clipPath198)"><g
                   id="g208"
                   clip-path="url(#clipPath202)"><path
                     id="path206"
                     style="fill:#01748e;fill-opacity:1;fill-rule:nonzero;stroke:none"
                     d="M -5.000055,32.41753 H 13.86845 V -4.328279 H -5.000055 Z" /></g></g></g></g></g></g></g><g
       id="g218"><g
         clip-path="url(#clipPath224)"
         id="g220"><g
           clip-path="url(#clipPath230)"
           id="g226"><path
             id="path232"
             style="fill:#01748e;fill-opacity:1;fill-rule:nonzero;stroke:none"
             d="m 4.4227,31.2324 h 21.051 V 14.0974 H 4.4227 Z" /></g></g></g><g
       id="g234"><g
         clip-path="url(#clipPath240)"
         id="g236"><g
           clip-path="url(#clipPath246)"
           id="g242"><path
             id="path248"
             style="fill:#01748e;fill-opacity:1;fill-rule:nonzero;stroke:none"
             d="m 18.4582,15.2595 h 17.334 V 0.5255 h -17.334 z" /></g></g></g><g
       id="g250"><g
         clip-path="url(#clipPath256)"
         id="g252"><g
           clip-path="url(#clipPath262)"
           id="g258"><path
             id="path264"
             style="fill:#01748e;fill-opacity:1;fill-rule:nonzero;stroke:none"
             d="m 11.8073,15.2595 h 17.333 V 0.5255 h -17.333 z" /></g></g></g><g
       id="g266"><g
         clip-path="url(#clipPath272)"
         id="g268"><g
           clip-path="url(#clipPath278)"
           id="g274"><path
             id="path280"
             style="fill:#ffffff;fill-opacity:1;fill-rule:nonzero;stroke:none"
             d="m 22.4286,31.2324 h 21.051 v -17.135 h -21.051 z" /></g></g></g></g></svg>