<?xml version="1.0" encoding="UTF-8" standalone="no"?>
<!DOCTYPE svg PUBLIC "-//W3C//DTD SVG 1.1//EN" "http://www.w3.org/Graphics/SVG/1.1/DTD/svg11.dtd">
<svg width="100%" height="100%" viewBox="0 0 209 209" version="1.1" xmlns="http://www.w3.org/2000/svg" xmlns:xlink="http://www.w3.org/1999/xlink" xml:space="preserve" xmlns:serif="http://www.serif.com/" style="fill-rule:evenodd;clip-rule:evenodd;stroke-linejoin:round;stroke-miterlimit:2;">
    <g transform="matrix(3.69383,0,0,3.69436,104.167,80.0593)">
        <g transform="matrix(1,0,0,1,-14.5,-14.5)">
            <g transform="matrix(1,0,0,1,0,2)">
                <clipPath id="_clip1">
                    <path d="M21.324,8.645C20.888,8.229 20.309,8 19.692,8C19.076,8 18.497,8.229 18.061,8.645L12.769,13.689L10.939,11.945C10.503,11.529 9.924,11.3 9.308,11.3C8.691,11.3 8.112,11.529 7.676,11.944C7.24,12.36 7,12.912 7,13.5C7,14.088 7.24,14.64 7.676,15.055L11.138,18.355C11.574,18.771 12.153,19 12.769,19C13.385,19 13.965,18.771 14.401,18.355L21.324,11.756C21.76,11.34 22,10.788 22,10.2C22,9.612 21.76,9.06 21.324,8.645ZM20.508,10.978L13.585,17.578C13.367,17.785 13.077,17.9 12.769,17.9C12.461,17.9 12.172,17.785 11.954,17.578L8.492,14.277C8.274,14.07 8.154,13.794 8.154,13.5C8.154,13.206 8.274,12.93 8.492,12.722C8.71,12.515 9,12.4 9.308,12.4C9.616,12.4 9.905,12.515 10.123,12.722L12.769,15.245L18.877,9.422C19.095,9.215 19.384,9.1 19.692,9.1C20,9.1 20.29,9.215 20.508,9.423C20.726,9.63 20.846,9.906 20.846,10.2C20.846,10.494 20.726,10.77 20.508,10.978Z"/>
                </clipPath>
                <g clip-path="url(#_clip1)">
                    <rect x="2" y="3" width="25" height="21" style="fill:rgb(250,156,147);"/>
                </g>
            </g>
            <clipPath id="_clip2">
                <path d="M27.832,8.93C27.087,7.214 26.028,5.662 24.683,4.317C23.338,2.973 21.786,1.913 20.07,1.168C18.284,0.393 16.41,0 14.5,0C12.59,0 10.716,0.393 8.93,1.168C7.214,1.913 5.662,2.973 4.317,4.317C2.973,5.662 1.913,7.214 1.168,8.93C0.393,10.716 0,12.59 0,14.5C0,16.41 0.393,18.284 1.168,20.07C1.913,21.786 2.973,23.338 4.317,24.683C5.662,26.027 7.214,27.087 8.93,27.832C10.716,28.607 12.59,29 14.5,29C16.41,29 18.284,28.607 20.07,27.832C21.786,27.087 23.338,26.027 24.683,24.683C26.027,23.338 27.087,21.786 27.832,20.07C28.607,18.284 29,16.41 29,14.5C29,12.59 28.607,10.716 27.832,8.93ZM14.5,27.867C7.254,27.867 1.133,21.746 1.133,14.5C1.133,7.254 7.254,1.133 14.5,1.133C21.746,1.133 27.867,7.254 27.867,14.5C27.867,21.746 21.746,27.867 14.5,27.867Z"/>
            </clipPath>
            <g clip-path="url(#_clip2)">
                <rect x="-5" y="-5" width="39" height="39" style="fill:rgb(250,156,147);"/>
            </g>
            <g transform="matrix(1,0,0,1,0,-1e-06)">
                <clipPath id="_clip3">
                    <path d="M25.678,9.812C25.058,8.371 24.174,7.072 23.051,5.949C21.928,4.826 20.629,3.942 19.188,3.322C17.691,2.678 16.114,2.351 14.5,2.351C12.306,2.351 10.02,3.1 7.887,4.518C7.625,4.692 7.553,5.046 7.728,5.308C7.902,5.571 8.256,5.642 8.518,5.468C10.463,4.175 12.532,3.492 14.5,3.492C20.467,3.492 25.508,8.533 25.508,14.5C25.508,20.467 20.467,25.508 14.5,25.508C8.533,25.508 3.492,20.467 3.492,14.5C3.492,12.532 4.175,10.464 5.467,8.518C5.641,8.256 5.57,7.902 5.308,7.728C5.045,7.553 4.691,7.625 4.517,7.887C3.1,10.02 2.351,12.307 2.351,14.5C2.351,16.114 2.678,17.691 3.322,19.188C3.942,20.629 4.826,21.928 5.949,23.051C7.072,24.174 8.371,25.058 9.812,25.678C11.309,26.322 12.886,26.649 14.5,26.649C16.114,26.649 17.691,26.322 19.188,25.678C20.629,25.058 21.928,24.174 23.051,23.051C24.174,21.928 25.058,20.629 25.678,19.188C26.322,17.691 26.649,16.114 26.649,14.5C26.649,12.886 26.322,11.309 25.678,9.812Z"/>
                </clipPath>
                <g clip-path="url(#_clip3)">
                    <rect x="-2.649" y="-2.649" width="34.297" height="34.297" style="fill:rgb(250,156,147);"/>
                </g>
            </g>
            <g transform="matrix(1,0,0,1,0,-15.6757)">
                <clipPath id="_clip4">
                    <path d="M6.662,21.946C6.446,21.946 6.27,22.122 6.27,22.338C6.27,22.554 6.446,22.73 6.662,22.73C6.878,22.73 7.054,22.554 7.054,22.338C7.054,22.122 6.878,21.946 6.662,21.946Z"/>
                </clipPath>
                <g clip-path="url(#_clip4)">
                    <rect x="1.27" y="16.946" width="10.784" height="10.784" style="fill:rgb(250,156,147);"/>
                </g>
            </g>
        </g>
    </g>
    <g transform="matrix(0.853031,0,0,0.853031,-23.8312,25.5844)">
        <text x="59.485px" y="167.493px" style="font-family:'Barlow-Medium', 'Barlow';font-weight:500;font-size:34.118px;fill:rgb(250,156,147);">Comple<tspan x="172.347px " y="167.493px ">t</tspan>ado</text>
    </g>
    <g transform="matrix(1.449,0,0,1.449,-2.64,-13.8334)">
        <path d="M141.355,36.863C141.355,24.121 131.025,13.792 118.283,13.792L29.122,13.792C16.389,13.792 6.067,24.114 6.067,36.847L6.067,125.967C6.067,132.097 8.502,137.975 12.837,142.31C17.171,146.644 23.05,149.08 29.18,149.08L118.229,149.08C124.362,149.08 130.244,146.643 134.581,142.306C138.918,137.969 141.355,132.087 141.355,125.954L141.355,36.863ZM138.479,36.863L138.479,125.954C138.479,131.324 136.346,136.475 132.548,140.273C128.75,144.071 123.6,146.204 118.229,146.204L29.18,146.204C23.813,146.204 18.665,144.072 14.87,140.277C11.075,136.481 8.943,131.334 8.943,125.967L8.943,36.847C8.943,25.702 17.977,16.667 29.122,16.667L118.283,16.667C129.437,16.667 138.479,25.709 138.479,36.863Z" style="fill:rgb(250,156,147);"/>
    </g>
</svg>
