<?xml version="1.0" encoding="UTF-8" standalone="no"?>
<!DOCTYPE svg PUBLIC "-//W3C//DTD SVG 1.1//EN" "http://www.w3.org/Graphics/SVG/1.1/DTD/svg11.dtd">
<svg width="100%" height="100%" viewBox="0 0 209 209" version="1.1" xmlns="http://www.w3.org/2000/svg" xmlns:xlink="http://www.w3.org/1999/xlink" xml:space="preserve" xmlns:serif="http://www.serif.com/" style="fill-rule:evenodd;clip-rule:evenodd;stroke-linejoin:round;stroke-miterlimit:2;">
    <g transform="matrix(0.853031,0,0,0.853031,-18.3743,25.5844)">
        <text x="59.485px" y="167.493px" style="font-family:'Barlow-Medium', 'Barlow';font-weight:500;font-size:34.118px;fill:rgb(250,156,147);">En pr<tspan x="136.625px 155.561px 173.37px 191.384px " y="167.493px 167.493px 167.493px 167.493px ">oces</tspan>o</text>
    </g>
    <g transform="matrix(3.69383,0,0,3.69383,104.167,80.0517)">
        <g transform="matrix(1,0,0,1,-14.5,-14.5)">
            <clipPath id="_clip1">
                <path d="M16.44,11.3L16.434,11.294C15.849,10.939 15.174,10.75 14.494,10.75C13.725,10.75 12.986,10.981 12.359,11.418C12.187,11.537 12.028,11.673 11.88,11.815C11.152,12.524 10.75,13.477 10.75,14.5C10.75,16.564 12.43,18.25 14.5,18.25C16.57,18.25 18.25,16.57 18.25,14.5C18.232,13.205 17.546,11.98 16.44,11.3ZM14.488,17.067C13.074,17.067 11.921,15.914 11.921,14.5C11.921,13.802 12.199,13.152 12.696,12.661C12.796,12.56 12.909,12.471 13.027,12.389C13.459,12.093 13.962,11.933 14.488,11.933C14.955,11.933 15.411,12.063 15.819,12.306C16.582,12.773 17.055,13.613 17.055,14.5C17.055,15.914 15.902,17.067 14.488,17.067Z"/>
            </clipPath>
            <g clip-path="url(#_clip1)">
                <rect x="5.75" y="5.75" width="17.5" height="17.5" style="fill:rgb(250,156,147);"/>
            </g>
            <clipPath id="_clip2">
                <path d="M21.354,13.687L21.418,13.687C21.592,13.687 21.756,13.613 21.866,13.475C21.977,13.344 22.024,13.166 21.989,13C21.674,11.471 20.888,10.097 19.717,9.021C19.589,8.901 19.414,8.849 19.239,8.872C19.064,8.895 18.913,8.998 18.82,9.141C18.75,9.256 18.656,9.347 18.546,9.422C18.54,9.428 18.528,9.433 18.522,9.439C18.517,9.445 18.016,9.8 17.462,9.399C17.427,9.376 17.422,9.37 17.392,9.353C17.334,9.313 17.066,9.107 17.084,8.557C17.084,8.454 17.13,8.334 17.2,8.208C17.288,8.059 17.305,7.876 17.241,7.716C17.177,7.555 17.043,7.429 16.88,7.372C16.117,7.126 15.318,7 14.509,7C13.763,7 13.023,7.109 12.313,7.315C12.15,7.361 12.016,7.481 11.946,7.636C11.876,7.79 11.882,7.968 11.957,8.116C12.173,8.546 12.01,9.067 11.59,9.301L11.561,9.319C11.13,9.565 10.582,9.433 10.32,9.015C10.227,8.872 10.082,8.775 9.907,8.752C9.738,8.729 9.563,8.781 9.435,8.889C8.27,9.908 7.46,11.225 7.093,12.702C7.052,12.868 7.087,13.04 7.186,13.172C7.285,13.309 7.443,13.395 7.611,13.407C8.089,13.441 8.462,13.842 8.462,14.311L8.462,14.345C8.462,14.838 8.066,15.239 7.565,15.25C7.396,15.256 7.233,15.336 7.128,15.462C7.023,15.594 6.977,15.765 7.011,15.931C7.309,17.437 8.06,18.8 9.184,19.87C9.312,19.991 9.481,20.048 9.656,20.031C9.831,20.013 9.982,19.916 10.082,19.773C10.349,19.366 10.891,19.235 11.322,19.475L11.351,19.492C11.794,19.744 11.946,20.3 11.689,20.735L11.678,20.752C11.59,20.901 11.579,21.078 11.637,21.239C11.695,21.399 11.829,21.525 11.992,21.582C12.802,21.857 13.647,22 14.509,22C15.225,22 15.936,21.903 16.623,21.708C16.798,21.656 16.938,21.536 17.002,21.37C17.072,21.21 17.054,21.021 16.967,20.872C16.711,20.437 16.862,19.882 17.305,19.635L17.334,19.618C17.777,19.366 18.342,19.515 18.592,19.95L18.627,20.013C18.715,20.162 18.866,20.265 19.035,20.294C19.204,20.322 19.385,20.271 19.513,20.162C20.724,19.126 21.563,17.769 21.93,16.235C21.971,16.063 21.93,15.885 21.82,15.748C21.709,15.611 21.54,15.531 21.365,15.531L21.348,15.531C20.841,15.531 20.427,15.124 20.427,14.626L20.427,14.592C20.427,14.094 20.847,13.687 21.354,13.687ZM20.637,16.55C20.334,17.42 19.851,18.216 19.198,18.886C18.546,18.307 17.555,18.176 16.752,18.634L16.722,18.651C15.953,19.086 15.575,19.939 15.703,20.758C15.313,20.832 14.911,20.866 14.509,20.866C13.979,20.866 13.454,20.804 12.942,20.678C13.105,19.842 12.72,18.966 11.934,18.519L11.905,18.502C11.153,18.078 10.244,18.159 9.598,18.645C8.992,17.952 8.549,17.151 8.293,16.275C9.079,15.983 9.633,15.239 9.633,14.357L9.633,14.323C9.633,13.493 9.12,12.765 8.386,12.445C8.683,11.586 9.161,10.807 9.802,10.143C10.454,10.659 11.38,10.75 12.15,10.315L12.179,10.298C12.918,9.88 13.303,9.067 13.21,8.277C14.107,8.094 15.056,8.105 15.948,8.305C15.936,8.38 15.93,8.454 15.924,8.529C15.895,9.548 16.449,10.137 16.81,10.344C17.783,11.025 18.796,10.664 19.21,10.366C19.257,10.338 19.297,10.303 19.338,10.275C19.961,10.962 20.422,11.763 20.695,12.645C19.862,12.914 19.262,13.687 19.262,14.592L19.262,14.626C19.268,15.508 19.839,16.263 20.637,16.55Z"/>
            </clipPath>
            <g clip-path="url(#_clip2)">
                <rect x="2" y="2" width="25" height="25" style="fill:rgb(250,156,147);"/>
            </g>
            <clipPath id="_clip3">
                <path d="M27.832,8.93C27.087,7.214 26.028,5.662 24.683,4.317C23.338,2.973 21.786,1.913 20.07,1.168C18.284,0.393 16.41,0 14.5,0C12.59,0 10.716,0.393 8.93,1.168C7.214,1.913 5.662,2.973 4.317,4.317C2.973,5.662 1.913,7.214 1.168,8.93C0.393,10.716 0,12.59 0,14.5C0,16.41 0.393,18.284 1.168,20.07C1.913,21.786 2.973,23.338 4.317,24.683C5.662,26.027 7.214,27.087 8.93,27.832C10.716,28.607 12.59,29 14.5,29C16.41,29 18.284,28.607 20.07,27.832C21.786,27.087 23.338,26.027 24.683,24.683C26.027,23.338 27.087,21.786 27.832,20.07C28.607,18.284 29,16.41 29,14.5C29,12.59 28.607,10.716 27.832,8.93ZM14.5,27.867C7.254,27.867 1.133,21.746 1.133,14.5C1.133,7.254 7.254,1.133 14.5,1.133C21.746,1.133 27.867,7.254 27.867,14.5C27.867,21.746 21.746,27.867 14.5,27.867Z"/>
            </clipPath>
            <g clip-path="url(#_clip3)">
                <rect x="-5" y="-5" width="39" height="39" style="fill:rgb(250,156,147);"/>
            </g>
            <g transform="matrix(1,0,0,1,0,-1e-06)">
                <clipPath id="_clip4">
                    <path d="M25.678,9.812C25.058,8.371 24.174,7.072 23.051,5.949C21.928,4.826 20.629,3.942 19.188,3.322C17.691,2.678 16.114,2.351 14.5,2.351C12.306,2.351 10.02,3.1 7.887,4.518C7.625,4.692 7.553,5.046 7.728,5.308C7.902,5.571 8.256,5.642 8.518,5.468C10.463,4.175 12.532,3.492 14.5,3.492C20.467,3.492 25.508,8.533 25.508,14.5C25.508,20.467 20.467,25.508 14.5,25.508C8.533,25.508 3.492,20.467 3.492,14.5C3.492,12.532 4.175,10.464 5.467,8.518C5.641,8.256 5.57,7.902 5.308,7.728C5.045,7.553 4.691,7.625 4.517,7.887C3.1,10.02 2.351,12.307 2.351,14.5C2.351,16.114 2.678,17.691 3.322,19.188C3.942,20.629 4.826,21.928 5.949,23.051C7.072,24.174 8.371,25.058 9.812,25.678C11.309,26.322 12.886,26.649 14.5,26.649C16.114,26.649 17.691,26.322 19.188,25.678C20.629,25.058 21.928,24.174 23.051,23.051C24.174,21.928 25.058,20.629 25.678,19.188C26.322,17.691 26.649,16.114 26.649,14.5C26.649,12.886 26.322,11.309 25.678,9.812Z"/>
                </clipPath>
                <g clip-path="url(#_clip4)">
                    <rect x="-2.649" y="-2.649" width="34.297" height="34.297" style="fill:rgb(250,156,147);"/>
                </g>
            </g>
            <g transform="matrix(1,0,0,1,0,-15.6757)">
                <clipPath id="_clip5">
                    <path d="M6.662,21.946C6.446,21.946 6.27,22.122 6.27,22.338C6.27,22.554 6.446,22.73 6.662,22.73C6.878,22.73 7.054,22.554 7.054,22.338C7.054,22.122 6.878,21.946 6.662,21.946Z"/>
                </clipPath>
                <g clip-path="url(#_clip5)">
                    <rect x="1.27" y="16.946" width="10.784" height="10.784" style="fill:rgb(250,156,147);"/>
                </g>
            </g>
        </g>
    </g>
    <g transform="matrix(1.449,0,0,1.449,-2.64,-13.8334)">
        <path d="M141.355,36.863C141.355,24.121 131.025,13.792 118.283,13.792L29.122,13.792C16.389,13.792 6.067,24.114 6.067,36.847L6.067,125.967C6.067,132.097 8.502,137.975 12.837,142.31C17.171,146.644 23.05,149.08 29.18,149.08L118.229,149.08C124.362,149.08 130.244,146.643 134.581,142.306C138.918,137.969 141.355,132.087 141.355,125.954L141.355,36.863ZM138.479,36.863L138.479,125.954C138.479,131.324 136.346,136.475 132.548,140.273C128.75,144.071 123.6,146.204 118.229,146.204L29.18,146.204C23.813,146.204 18.665,144.072 14.87,140.277C11.075,136.481 8.943,131.334 8.943,125.967L8.943,36.847C8.943,25.702 17.977,16.667 29.122,16.667L118.283,16.667C129.437,16.667 138.479,25.709 138.479,36.863Z" style="fill:rgb(250,156,147);"/>
    </g>
</svg>
