<?xml version="1.0" encoding="UTF-8" standalone="no"?>
<!DOCTYPE svg PUBLIC "-//W3C//DTD SVG 1.1//EN" "http://www.w3.org/Graphics/SVG/1.1/DTD/svg11.dtd">
<svg width="100%" height="100%" viewBox="0 0 209 209" version="1.1" xmlns="http://www.w3.org/2000/svg" xmlns:xlink="http://www.w3.org/1999/xlink" xml:space="preserve" xmlns:serif="http://www.serif.com/" style="fill-rule:evenodd;clip-rule:evenodd;stroke-linejoin:round;stroke-miterlimit:2;">
    <g transform="matrix(0.853031,0,0,0.853031,-16.8901,25.5844)">
        <text x="59.485px" y="167.493px" style="font-family:'Barlow-Medium', 'Barlow';font-weight:500;font-size:34.118px;fill:rgb(1,116,142);">R<tspan x="80.263px " y="167.493px ">e</tspan>chazado</text>
    </g>
    <g transform="matrix(1.449,0,0,1.449,-2.64,-13.8334)">
        <path d="M141.355,36.863C141.355,24.121 131.025,13.792 118.283,13.792L29.122,13.792C16.389,13.792 6.067,24.114 6.067,36.847L6.067,125.967C6.067,132.097 8.502,137.975 12.837,142.31C17.171,146.644 23.05,149.08 29.18,149.08L118.229,149.08C124.362,149.08 130.244,146.643 134.581,142.306C138.918,137.969 141.355,132.087 141.355,125.954L141.355,36.863ZM138.479,36.863L138.479,125.954C138.479,131.324 136.346,136.475 132.548,140.273C128.75,144.071 123.6,146.204 118.229,146.204L29.18,146.204C23.813,146.204 18.665,144.072 14.87,140.277C11.075,136.481 8.943,131.334 8.943,125.967L8.943,36.847C8.943,25.702 17.977,16.667 29.122,16.667L118.283,16.667C129.437,16.667 138.479,25.709 138.479,36.863Z" style="fill:rgb(1,116,142);"/>
    </g>
    <g transform="matrix(3.69383,0,0,3.69383,104.167,80.8162)">
        <g transform="matrix(1,0,0,1,-14.5,-14.5)">
            <clipPath id="_clip1">
                <path d="M27.832,8.93C27.087,7.214 26.028,5.662 24.683,4.317C23.338,2.973 21.786,1.913 20.07,1.168C18.284,0.393 16.41,0 14.5,0C12.59,0 10.716,0.393 8.93,1.168C7.214,1.913 5.662,2.973 4.317,4.317C2.973,5.662 1.913,7.214 1.168,8.93C0.393,10.716 0,12.59 0,14.5C0,16.41 0.393,18.284 1.168,20.07C1.913,21.786 2.973,23.338 4.317,24.683C5.662,26.027 7.214,27.087 8.93,27.832C10.716,28.607 12.59,29 14.5,29C16.41,29 18.284,28.607 20.07,27.832C21.786,27.087 23.338,26.027 24.683,24.683C26.027,23.338 27.087,21.786 27.832,20.07C28.607,18.284 29,16.41 29,14.5C29,12.59 28.607,10.716 27.832,8.93ZM14.5,27.867C7.254,27.867 1.133,21.746 1.133,14.5C1.133,7.254 7.254,1.133 14.5,1.133C21.746,1.133 27.867,7.254 27.867,14.5C27.867,21.746 21.746,27.867 14.5,27.867Z"/>
            </clipPath>
            <g clip-path="url(#_clip1)">
                <rect x="-5" y="-5" width="39" height="39" style="fill:rgb(1,116,142);"/>
            </g>
            <g transform="matrix(1,0,0,1,0,-1e-06)">
                <clipPath id="_clip2">
                    <path d="M25.678,9.812C25.058,8.371 24.174,7.072 23.051,5.949C21.928,4.826 20.629,3.942 19.188,3.322C17.691,2.678 16.114,2.351 14.5,2.351C12.306,2.351 10.02,3.1 7.887,4.518C7.625,4.692 7.553,5.046 7.728,5.308C7.902,5.571 8.256,5.642 8.518,5.468C10.463,4.175 12.532,3.492 14.5,3.492C20.467,3.492 25.508,8.533 25.508,14.5C25.508,20.467 20.467,25.508 14.5,25.508C8.533,25.508 3.492,20.467 3.492,14.5C3.492,12.532 4.175,10.464 5.467,8.518C5.641,8.256 5.57,7.902 5.308,7.728C5.045,7.553 4.691,7.625 4.517,7.887C3.1,10.02 2.351,12.307 2.351,14.5C2.351,16.114 2.678,17.691 3.322,19.188C3.942,20.629 4.826,21.928 5.949,23.051C7.072,24.174 8.371,25.058 9.812,25.678C11.309,26.322 12.886,26.649 14.5,26.649C16.114,26.649 17.691,26.322 19.188,25.678C20.629,25.058 21.928,24.174 23.051,23.051C24.174,21.928 25.058,20.629 25.678,19.188C26.322,17.691 26.649,16.114 26.649,14.5C26.649,12.886 26.322,11.309 25.678,9.812Z"/>
                </clipPath>
                <g clip-path="url(#_clip2)">
                    <rect x="-2.649" y="-2.649" width="34.297" height="34.297" style="fill:rgb(1,116,142);"/>
                </g>
            </g>
            <g transform="matrix(1,0,0,1,0,0.783782)">
                <clipPath id="_clip3">
                    <path d="M18.116,14.108L20.494,11.73C20.925,11.3 21.162,10.727 21.162,10.118C21.162,9.509 20.925,8.936 20.494,8.506C20.063,8.075 19.491,7.838 18.882,7.838C18.273,7.838 17.701,8.075 17.27,8.506L14.892,10.884L12.514,8.506C12.083,8.075 11.511,7.838 10.902,7.838C10.293,7.838 9.72,8.075 9.29,8.506C8.859,8.936 8.622,9.509 8.622,10.118C8.622,10.727 8.859,11.3 9.29,11.73L11.668,14.108L9.29,16.486C8.859,16.917 8.622,17.489 8.622,18.098C8.622,18.707 8.859,19.28 9.29,19.71C9.72,20.141 10.293,20.378 10.902,20.378C11.511,20.378 12.083,20.141 12.514,19.71L14.892,17.332L17.27,19.71C17.701,20.141 18.273,20.378 18.882,20.378C19.491,20.378 20.063,20.141 20.494,19.711C20.925,19.28 21.162,18.707 21.162,18.098C21.162,17.489 20.925,16.917 20.494,16.486L18.116,14.108ZM19.688,18.904C19.473,19.12 19.186,19.238 18.882,19.238C18.578,19.238 18.292,19.12 18.076,18.904L15.295,16.123C15.184,16.012 15.038,15.956 14.892,15.956C14.746,15.956 14.6,16.012 14.489,16.123L11.708,18.904C11.492,19.12 11.206,19.238 10.902,19.238C10.597,19.238 10.311,19.12 10.096,18.904C9.88,18.689 9.762,18.403 9.762,18.098C9.762,17.794 9.88,17.508 10.096,17.292L12.877,14.511C13.1,14.289 13.1,13.928 12.877,13.705L10.096,10.924C9.88,10.709 9.762,10.422 9.762,10.118C9.762,9.813 9.88,9.527 10.096,9.312C10.311,9.097 10.597,8.978 10.902,8.978C11.206,8.978 11.492,9.097 11.708,9.312L14.489,12.093C14.711,12.316 15.072,12.316 15.295,12.093L18.076,9.312C18.292,9.097 18.578,8.978 18.882,8.978C19.186,8.978 19.473,9.097 19.688,9.312C19.903,9.527 20.022,9.813 20.022,10.118C20.022,10.422 19.903,10.709 19.688,10.924L16.907,13.705C16.684,13.928 16.684,14.289 16.907,14.511L19.688,17.293C19.903,17.508 20.022,17.794 20.022,18.098C20.022,18.403 19.903,18.689 19.688,18.904Z"/>
                </clipPath>
                <g clip-path="url(#_clip3)">
                    <rect x="3.622" y="2.838" width="22.541" height="22.541" style="fill:rgb(1,116,142);"/>
                </g>
            </g>
            <g transform="matrix(1,0,0,1,0,-15.6757)">
                <clipPath id="_clip4">
                    <path d="M6.662,21.946C6.446,21.946 6.27,22.122 6.27,22.338C6.27,22.554 6.446,22.73 6.662,22.73C6.878,22.73 7.054,22.554 7.054,22.338C7.054,22.122 6.878,21.946 6.662,21.946Z"/>
                </clipPath>
                <g clip-path="url(#_clip4)">
                    <rect x="1.27" y="16.946" width="10.784" height="10.784" style="fill:rgb(1,116,142);"/>
                </g>
            </g>
        </g>
    </g>
</svg>
